<svg width="94" height="94" viewBox="0 0 94 94" fill="none" xmlns="http://www.w3.org/2000/svg">
<g clip-path="url(#clip0_67_2109)">
<mask id="mask0_67_2109" style="mask-type:luminance" maskUnits="userSpaceOnUse" x="0" y="0" width="94" height="94">
<path d="M93.8472 0H0V93.8472H93.8472V0Z" fill="white"/>
</mask>
<g mask="url(#mask0_67_2109)">
<path d="M62.5684 5.49902C63.8336 5.49902 64.8896 6.55411 64.8896 7.81934V14.4775L65.4453 14.5293C70.61 15.0076 74.3787 16.7777 76.9531 19.5107C79.5314 22.2479 80.9715 26.0132 81.3545 30.5889V30.5967L81.3555 30.6035C81.4305 31.3043 80.8124 31.999 80.0088 31.999H13.8467C13.0888 31.999 12.4493 31.3431 12.502 30.5801L12.501 30.5791C12.8852 26.0078 14.3258 22.246 16.9023 19.5107C19.4768 16.7777 23.2454 15.0075 28.4102 14.5293L28.9658 14.4775V7.81934C28.9659 6.55419 30.021 5.49915 31.2861 5.49902C32.5514 5.49902 33.6074 6.55411 33.6074 7.81934V14.2969H60.248V7.81934C60.2481 6.55426 61.3033 5.49927 62.5684 5.49902Z" fill="url(#paint0_linear_67_2109)" fill-opacity="0.2" stroke="url(#paint1_linear_67_2109)" stroke-width="1.22383"/>
<path d="M15.6445 39.0889H78.21C80.0225 39.0891 81.5078 40.5742 81.5078 42.3867V66.4746C81.5077 72.2459 80.065 76.9619 77.0283 80.2324C73.999 83.4948 69.2947 85.414 62.5684 85.4141H31.2861C24.5597 85.4141 19.8555 83.4948 16.8262 80.2324C13.7894 76.9619 12.3468 72.246 12.3467 66.4746V42.3867C12.3467 40.5741 13.8319 39.0889 15.6445 39.0889ZM34.123 63.9932C33.3428 63.8406 32.554 63.8903 31.8203 64.1484L31.5352 64.2607C30.9377 64.4906 30.4842 64.8126 30.0557 65.1982L30.0371 65.2148L30.0205 65.2324C29.2164 66.0813 28.7188 67.2462 28.7188 68.4297C28.7189 69.613 29.2165 70.7772 30.0205 71.626L30.0371 71.6445L30.0557 71.6602C30.4804 72.0424 30.9299 72.3614 31.5195 72.5908V72.5918C32.0514 72.8134 32.64 72.9512 33.2412 72.9512C33.5685 72.9512 33.8537 72.9037 34.1094 72.8672L34.1162 72.8662L34.124 72.8652C34.4111 72.8174 34.6903 72.7235 34.9619 72.5918C35.2314 72.4977 35.492 72.3645 35.7451 72.1982L35.7461 72.1992C35.7479 72.1982 35.7492 72.1964 35.751 72.1953C35.7572 72.1912 35.7643 72.1877 35.7705 72.1836L35.7695 72.1826C35.9028 72.0996 36.0241 72.0025 36.1201 71.9209C36.2371 71.8215 36.3101 71.7551 36.3994 71.6836L36.4326 71.6572L36.4619 71.626C37.2658 70.7772 37.7636 69.6129 37.7637 68.4297C37.7637 67.2463 37.266 66.0813 36.4619 65.2324L36.4326 65.2012L36.3994 65.1748L35.8135 64.7061L35.792 64.6895L35.7705 64.6748L35.5635 64.5449C35.3678 64.4308 35.1671 64.3373 34.9619 64.2656C34.6963 64.1369 34.4229 64.0458 34.1426 63.9971H34.1436C34.1372 63.9958 34.1304 63.9944 34.124 63.9932H34.123ZM46.9268 63.9561C45.7648 63.9561 44.5734 64.3651 43.7178 65.2207L43.7061 65.2324C42.9021 66.0813 42.4053 67.2463 42.4053 68.4297C42.4054 69.6129 42.9022 70.7772 43.7061 71.626L43.7178 71.6387L43.7295 71.6494C44.5783 72.4536 45.7433 72.9511 46.9268 72.9512C48.1103 72.9512 49.2751 72.4536 50.124 71.6494L50.1367 71.6387L50.1475 71.626C50.9515 70.7772 51.4491 69.613 51.4492 68.4297C51.4492 67.2461 50.9516 66.0813 50.1475 65.2324L50.1357 65.2207L49.9717 65.0654C49.1315 64.3154 48.0163 63.9561 46.9268 63.9561ZM60.6133 63.9561C59.4512 63.9561 58.26 64.365 57.4043 65.2207L57.3926 65.2324C56.5884 66.0813 56.0908 67.2462 56.0908 68.4297C56.0909 69.613 56.5886 70.7772 57.3926 71.626L57.4043 71.6387L57.416 71.6494C58.2649 72.4536 59.4297 72.9512 60.6133 72.9512C61.7968 72.9511 62.9617 72.4536 63.8105 71.6494L63.8223 71.6387L63.834 71.626C64.6379 70.7772 65.1356 69.6129 65.1357 68.4297C65.1357 67.2463 64.638 66.0813 63.834 65.2324L63.8223 65.2207L63.6582 65.0654C62.818 64.3153 61.7029 63.9561 60.6133 63.9561ZM34.9453 50.5742C33.2689 49.8614 31.295 50.2716 30.0322 51.5342L30.0205 51.5459C29.2163 52.3948 28.7188 53.5596 28.7188 54.7432C28.7188 55.9267 29.2163 57.0915 30.0205 57.9404L30.0439 57.9639C30.8928 58.768 32.0577 59.2656 33.2412 59.2656C34.4247 59.2656 35.5896 58.768 36.4385 57.9639L36.4619 57.9404C37.266 57.0916 37.7637 55.9267 37.7637 54.7432C37.7636 53.5597 37.2661 52.3948 36.4619 51.5459L36.4502 51.5342L36.2891 51.3818C35.9045 51.038 35.4542 50.7696 34.9463 50.5742H34.9453ZM50.1357 51.5342C48.9461 50.3447 47.1252 49.9112 45.5166 50.4609L45.2217 50.5742C44.641 50.7975 44.1358 51.1162 43.7178 51.5342L43.7061 51.5459C42.9019 52.3948 42.4053 53.5597 42.4053 54.7432C42.4053 55.9266 42.902 57.0916 43.7061 57.9404L43.7295 57.9639C44.5783 58.768 45.7433 59.2655 46.9268 59.2656C47.2542 59.2656 47.5401 59.2172 47.7959 59.1807L47.8096 59.1787C48.0967 59.1309 48.3758 59.037 48.6475 58.9053C48.9255 58.8082 49.1954 58.6718 49.4561 58.498L49.4785 58.4834L49.499 58.4668L49.501 58.4648L49.5029 58.4639L49.5078 58.459L49.5098 58.458L49.5107 58.457H49.5117L49.5137 58.4551L49.5156 58.4541L49.5205 58.4492L49.5225 58.4482L49.5273 58.4434L49.5293 58.4424L49.5303 58.4414H49.5312L49.5342 58.4385L49.5361 58.4375L49.541 58.4326L49.543 58.4316L49.5469 58.4277L49.5488 58.4268H49.5498L49.5537 58.4229L49.5557 58.4219L49.5605 58.417L49.5625 58.416L49.5664 58.4121H49.5674L49.5693 58.4111L49.5732 58.4072L49.5752 58.4062L49.5801 58.4014L49.582 58.4004L49.585 58.3975H49.5859L49.5869 58.3965L49.5889 58.3955L49.5938 58.3906L49.5957 58.3896L49.6006 58.3848L49.6025 58.3838L49.6045 58.3818H49.6055L49.6064 58.3809L49.6084 58.3799L49.6133 58.375L49.6152 58.374L49.6201 58.3691L49.6221 58.3682L49.623 58.3672H49.624L49.627 58.3643L49.6289 58.3633L49.6328 58.3594L49.6348 58.3584L49.6396 58.3535L49.6416 58.3525H49.6426L49.6465 58.3486L49.6484 58.3477L49.6533 58.3428L49.6553 58.3418L49.6592 58.3379H49.6602L49.6621 58.3369L49.666 58.333L49.668 58.332L49.6729 58.3271L49.6748 58.3262L49.6787 58.3223H49.6797L49.6816 58.3213L49.6865 58.3164L49.6885 58.3154L49.6924 58.3115L49.6943 58.3105L49.6973 58.3076H49.6982L49.6992 58.3066L49.7012 58.3057L49.7061 58.3008L49.708 58.2998L49.7129 58.2949L49.7148 58.2939L49.7158 58.293H49.7168L49.7197 58.29L49.7217 58.2891L49.7256 58.2852L49.7275 58.2842L49.7324 58.2793L49.7344 58.2783H49.7354L49.7393 58.2744L49.7412 58.2734L49.7461 58.2686L49.748 58.2676L49.752 58.2637L49.7539 58.2627H49.7549L49.7588 58.2588L49.7607 58.2578L49.7656 58.2529L49.7676 58.252L49.7715 58.248H49.7725L49.7744 58.2471L49.7793 58.2422L49.7812 58.2412L49.7852 58.2373L49.7871 58.2363L49.79 58.2334H49.791L49.792 58.2324L49.7939 58.2314L49.7988 58.2266L49.8008 58.2256L49.8057 58.2207L49.8076 58.2197L49.8086 58.2188H49.8096L49.8115 58.2168L49.8135 58.2158L49.8184 58.2109L49.8203 58.21L49.8252 58.2051L49.8271 58.2041L49.8281 58.2031H49.8291L49.832 58.2002L49.834 58.1992L49.8389 58.1943L49.8408 58.1934L49.8447 58.1895L49.8467 58.1885H49.8477L49.8516 58.1846L49.8535 58.1836L49.8584 58.1787L49.8604 58.1777L49.8643 58.1738H49.8652L49.8672 58.1729L49.8711 58.1689L49.873 58.168L49.8779 58.1631L49.8799 58.1621L49.8828 58.1592H49.8838L49.8848 58.1582L49.8867 58.1572L49.8916 58.1523L49.8936 58.1514L49.8984 58.1465L49.9004 58.1455L49.9023 58.1436H49.9033L49.9043 58.1426L49.9062 58.1416L49.9111 58.1367L49.9131 58.1357L49.918 58.1309L49.9199 58.1299L49.9209 58.1289H49.9219L49.9248 58.126L49.9268 58.125L49.9307 58.1211L49.9326 58.1201L49.9375 58.1152L49.9395 58.1143H49.9404L49.9443 58.1104L49.9463 58.1094L49.9512 58.1045L49.9531 58.1035L49.957 58.0996H49.958L49.96 58.0986L49.9639 58.0947L49.9658 58.0938L49.9707 58.0889L49.9727 58.0879L49.9766 58.084H49.9775L49.9795 58.083L49.9844 58.0781L49.9863 58.0771L49.9902 58.0732L49.9922 58.0723L49.9951 58.0693H49.9961L49.9971 58.0684L49.999 58.0674L50.0039 58.0625L50.0059 58.0615L50.0107 58.0566L50.0127 58.0557L50.0137 58.0547H50.0146L50.0176 58.0518L50.0195 58.0508L50.0234 58.0469L50.0254 58.0459L50.0303 58.041L50.0322 58.04L50.0332 58.0391H50.0342L50.0371 58.0361L50.0391 58.0352L50.0439 58.0303L50.0459 58.0293L50.0498 58.0254L50.0518 58.0244H50.0527L50.0566 58.0205L50.0586 58.0195L50.0635 58.0146L50.0654 58.0137L50.0693 58.0098H50.0703L50.0723 58.0088L50.0771 58.0039L50.0791 58.0029L50.083 57.999L50.085 57.998L50.0859 57.9971L50.1182 57.9707L50.1475 57.9404C50.9517 57.0915 51.4492 55.9267 51.4492 54.7432C51.4492 53.5596 50.9517 52.3948 50.1475 51.5459L50.1357 51.5342ZM61.4951 50.3076C60.6126 50.135 59.7195 50.2212 58.9072 50.5752V50.5742C58.3098 50.804 57.8562 51.1261 57.4277 51.5117L57.4092 51.5283L57.3926 51.5459C56.5884 52.3948 56.0908 53.5596 56.0908 54.7432C56.0908 55.9267 56.5884 57.0915 57.3926 57.9404L57.416 57.9639C58.2649 58.768 59.4297 59.2656 60.6133 59.2656C60.9001 59.2656 61.2203 59.218 61.4814 59.1807L61.4883 59.1797L61.4961 59.1787C61.7829 59.1309 62.0616 59.0368 62.333 58.9053C62.6113 58.8082 62.8817 58.6719 63.1426 58.498L63.1641 58.4834L63.1855 58.4668L63.1904 58.4619L63.1924 58.4609L63.1963 58.457H63.1982L63.2031 58.4521L63.2051 58.4512L63.21 58.4463L63.2119 58.4453L63.2158 58.4414H63.2168L63.2188 58.4404L63.2236 58.4355L63.2256 58.4346L63.2295 58.4307L63.2314 58.4297L63.2344 58.4268H63.2354L63.2363 58.4258L63.2383 58.4248L63.2432 58.4199L63.2451 58.4189L63.25 58.4141L63.252 58.4131L63.2529 58.4121H63.2539L63.2559 58.4102L63.2578 58.4092L63.2627 58.4043L63.2646 58.4033L63.2695 58.3984L63.2715 58.3975H63.2725L63.2764 58.3936L63.2783 58.3926L63.2832 58.3877L63.2852 58.3867L63.2891 58.3828L63.291 58.3818H63.292L63.2959 58.3779L63.2979 58.377L63.3027 58.3721L63.3047 58.3711L63.3086 58.3672H63.3096L63.3115 58.3662L63.3154 58.3623L63.3174 58.3613L63.3223 58.3564L63.3242 58.3555L63.3271 58.3525H63.3281L63.3291 58.3516L63.3311 58.3506L63.3359 58.3457L63.3379 58.3447L63.3428 58.3398L63.3447 58.3389L63.3457 58.3379H63.3467L63.3486 58.3359L63.3506 58.335L63.3555 58.3301L63.3574 58.3291L63.3623 58.3242L63.3643 58.3232L63.3652 58.3223H63.3662L63.3691 58.3193L63.3711 58.3184L63.375 58.3145L63.377 58.3135L63.3818 58.3086L63.3838 58.3076H63.3848L63.3887 58.3037L63.3906 58.3027L63.3955 58.2979L63.3975 58.2969L63.4014 58.293H63.4023L63.4043 58.292L63.4082 58.2881L63.4102 58.2871L63.415 58.2822L63.417 58.2812L63.4199 58.2783H63.4209L63.4219 58.2773L63.4238 58.2764L63.4287 58.2715L63.4307 58.2705L63.4346 58.2666L63.4365 58.2656L63.4395 58.2627H63.4404L63.4414 58.2617L63.4434 58.2607L63.4482 58.2559L63.4502 58.2549L63.4551 58.25L63.457 58.249L63.458 58.248H63.459L63.4619 58.2451L63.4639 58.2441L63.4678 58.2402L63.4697 58.2393L63.4746 58.2344L63.4766 58.2334H63.4775L63.4814 58.2295L63.4834 58.2285L63.4883 58.2236L63.4902 58.2227L63.4941 58.2188H63.4961L63.501 58.2139L63.5029 58.2129L63.5078 58.208L63.5098 58.207L63.5137 58.2031H63.5146L63.5166 58.2021L63.5215 58.1973L63.5234 58.1963L63.5273 58.1924L63.5293 58.1914L63.5322 58.1885H63.5332L63.5342 58.1875L63.5361 58.1865L63.541 58.1816L63.543 58.1807L63.5479 58.1758L63.5498 58.1748L63.5508 58.1738H63.5518L63.5537 58.1719L63.5557 58.1709L63.5605 58.166L63.5625 58.165L63.5674 58.1602L63.5693 58.1592H63.5703L63.5742 58.1553L63.5762 58.1543L63.5811 58.1494L63.583 58.1484L63.5869 58.1445L63.5889 58.1436H63.5898L63.5938 58.1396L63.5957 58.1387L63.6006 58.1338L63.6025 58.1328L63.6064 58.1289H63.6074L63.6094 58.1279L63.6133 58.124L63.6152 58.123L63.6201 58.1182L63.6221 58.1172L63.625 58.1143H63.626L63.627 58.1133L63.6289 58.1123L63.6338 58.1074L63.6357 58.1064L63.6406 58.1016L63.6426 58.1006L63.6436 58.0996H63.6445L63.6465 58.0977L63.6484 58.0967L63.6533 58.0918L63.6553 58.0908L63.6602 58.0859L63.6621 58.085L63.6631 58.084H63.6641L63.667 58.0811L63.6689 58.0801L63.6729 58.0762L63.6748 58.0752L63.6797 58.0703L63.6816 58.0693H63.6826L63.6865 58.0654L63.6885 58.0645L63.6934 58.0596L63.6953 58.0586L63.6992 58.0547H63.7002L63.7021 58.0537L63.7061 58.0498L63.708 58.0488L63.7129 58.0439L63.7148 58.043L63.7188 58.0391H63.7197L63.7217 58.0381L63.7266 58.0332L63.7285 58.0322L63.7324 58.0283L63.7344 58.0273L63.7373 58.0244H63.7383L63.7393 58.0234L63.7412 58.0225L63.7461 58.0176L63.748 58.0166L63.7529 58.0117L63.7549 58.0107L63.7559 58.0098H63.7568L63.7598 58.0068L63.7617 58.0059L63.7656 58.002L63.7676 58.001L63.7715 57.9971L63.8047 57.9707L63.834 57.9404C64.6381 57.0916 65.1357 55.9267 65.1357 54.7432C65.1357 53.5596 64.6381 52.3948 63.834 51.5459L63.8047 51.5156L63.7715 51.4893L63.4785 51.2549C63.3808 51.1767 63.2833 51.0977 63.1855 51.0195L63.1641 51.0029L63.1426 50.9883L62.9355 50.8594C62.7396 50.745 62.5385 50.6518 62.333 50.5801C62.0676 50.4515 61.7948 50.3602 61.5146 50.3115H61.5156L61.4961 50.3076H61.4951Z" fill="url(#paint2_linear_67_2109)" fill-opacity="0.2" stroke="url(#paint3_linear_67_2109)" stroke-width="1.22383"/>
</g>
</g>
<defs>
<linearGradient id="paint0_linear_67_2109" x1="46.8467" y1="4.88672" x2="46.8467" y2="33.9468" gradientUnits="userSpaceOnUse">
<stop stop-color="#0077A8" stop-opacity="0.67"/>
<stop offset="1" stop-color="#0077A8" stop-opacity="0.07"/>
</linearGradient>
<linearGradient id="paint1_linear_67_2109" x1="39.9842" y1="6.13931" x2="43.897" y2="29.6275" gradientUnits="userSpaceOnUse">
<stop stop-color="#0077A8" stop-opacity="0.2"/>
<stop offset="0.316415" stop-color="#0077A8" stop-opacity="0.03"/>
<stop offset="0.657593" stop-color="#0077A8" stop-opacity="0.16"/>
<stop offset="1" stop-color="#0077A8" stop-opacity="0"/>
</linearGradient>
<linearGradient id="paint2_linear_67_2109" x1="46.8431" y1="38.4766" x2="46.8431" y2="88.3172" gradientUnits="userSpaceOnUse">
<stop stop-color="#0077A8" stop-opacity="0.67"/>
<stop offset="1" stop-color="#0077A8" stop-opacity="0.07"/>
</linearGradient>
<linearGradient id="paint3_linear_67_2109" x1="39.9514" y1="40.6249" x2="50.8483" y2="78.927" gradientUnits="userSpaceOnUse">
<stop stop-color="#0077A8" stop-opacity="0.2"/>
<stop offset="0.316415" stop-color="#0077A8" stop-opacity="0.03"/>
<stop offset="0.657593" stop-color="#0077A8" stop-opacity="0.16"/>
<stop offset="1" stop-color="#0077A8" stop-opacity="0"/>
</linearGradient>
<clipPath id="clip0_67_2109">
<rect width="93.8472" height="93.8472" fill="white"/>
</clipPath>
</defs>
</svg>
