<svg width="24" height="24" viewBox="0 0 24 24" fill="none" xmlns="http://www.w3.org/2000/svg">
<g clip-path="url(#clip0_67_2489)">
<mask id="mask0_67_2489" style="mask-type:luminance" maskUnits="userSpaceOnUse" x="0" y="0" width="24" height="24">
<path d="M24 0H0V24H24V0Z" fill="white"/>
</mask>
<g mask="url(#mask0_67_2489)">
<path d="M18.4727 2H14.4727C12.9799 2 11.7459 3.28581 11.5124 4.75204C11.469 5.02475 11.6965 5.25 11.9727 5.25H16.4727C16.8827 5.25 17.2227 5.59 17.2227 6C17.2227 6.41 16.8827 6.75 16.4727 6.75H11.9727C11.6965 6.75 11.4727 6.97386 11.4727 7.25V8.75C11.4727 9.02614 11.6965 9.25 11.9727 9.25H14.2827C14.6927 9.25 15.0327 9.59 15.0327 10C15.0327 10.41 14.6927 10.75 14.2827 10.75H11.9727C11.6965 10.75 11.4727 10.9739 11.4727 11.25V12.705C11.4727 12.9792 11.6935 13.2022 11.9677 13.2049L16.4727 13.25C16.8927 13.25 17.2227 13.59 17.2227 14.01C17.2127 14.42 16.8827 14.75 16.4727 14.75C16.4627 14.75 16.4627 14.75 16.4627 14.75L11.9777 14.7051C11.6996 14.7023 11.4727 14.9269 11.4727 15.205V16.75C11.4727 17.0261 11.6965 17.25 11.9727 17.25H15.3727C15.7927 17.25 16.1227 17.59 16.1227 18C16.1227 18.41 15.7927 18.75 15.3727 18.75H11.9727C11.6965 18.75 11.469 18.9753 11.5124 19.248C11.7459 20.7142 12.9799 22 14.4727 22H18.4727C20.1227 22 21.4727 20.66 21.4727 19V5C21.4727 3.34 20.1227 2 18.4727 2Z" fill="#424242"/>
<path d="M8.44125 4.95V5.75C8.44125 6.02614 8.21739 6.25 7.94125 6.25H3.03125C2.75511 6.25 2.53125 6.02614 2.53125 5.75V4.95C2.53125 3.33 3.86125 2 5.49125 2C7.11125 2 8.44125 3.33 8.44125 4.95Z" fill="#424242"/>
<path d="M2.53125 17.91C2.53125 18.36 2.72125 19.05 2.96125 19.43L3.77125 20.79C4.72125 22.37 6.26125 22.37 7.20125 20.79L8.02125 19.43C8.25125 19.05 8.44125 18.36 8.44125 17.91V8.25C8.44125 7.97386 8.21739 7.75 7.94125 7.75H3.03125C2.75511 7.75 2.53125 7.97386 2.53125 8.25V17.91Z" fill="#424242"/>
</g>
</g>
<defs>
<clipPath id="clip0_67_2489">
<rect width="24" height="24" fill="white"/>
</clipPath>
</defs>
</svg>
