<svg width="14" height="14" viewBox="0 0 14 14" fill="none" xmlns="http://www.w3.org/2000/svg">
<path d="M9.46 0H3.87333C1.44667 0 0 1.44667 0 3.87333V9.45333C0 11.8867 1.44667 13.3333 3.87333 13.3333H9.45333C11.88 13.3333 13.3267 11.8867 13.3267 9.46V3.87333C13.3333 1.44667 11.8867 0 9.46 0ZM5.29333 7.51333C4.84 8.19333 4.21333 8.74667 3.48 9.11333C3.41333 9.14667 3.33333 9.16667 3.26 9.16667C3.07333 9.16667 2.9 9.06667 2.81333 8.89333C2.68667 8.64667 2.78667 8.34667 3.04 8.22C3.62 7.93333 4.11333 7.49333 4.46667 6.96C4.58667 6.78 4.58667 6.55333 4.46667 6.37333C4.10667 5.84 3.61333 5.4 3.04 5.11333C2.78667 4.99333 2.68667 4.69333 2.81333 4.44C2.93333 4.19333 3.23333 4.09333 3.48 4.22C4.21333 4.58667 4.84 5.14 5.29333 5.82C5.64 6.33333 5.64 7 5.29333 7.51333ZM10 9.16667H7.33333C7.06 9.16667 6.83333 8.94 6.83333 8.66667C6.83333 8.39333 7.06 8.16667 7.33333 8.16667H10C10.2733 8.16667 10.5 8.39333 10.5 8.66667C10.5 8.94 10.2733 9.16667 10 9.16667Z" fill="#0C76F8"/>
</svg>
