<svg width="24" height="30" viewBox="0 0 24 30" fill="none" xmlns="http://www.w3.org/2000/svg">
<path d="M0.521484 5.50984C0.521484 3.01373 2.54498 0.990234 5.04109 0.990234V0.990234C6.28915 0.990234 7.3009 2.00198 7.3009 3.25004V23.277C7.3009 26.0227 5.07505 28.2486 2.32933 28.2486V28.2486C1.33088 28.2486 0.521484 27.4392 0.521484 26.4407V5.50984Z" fill="#0C76F8"/>
<path d="M1.73365 6.04489C0.776181 4.66851 1.15089 2.82964 2.57058 1.93766V1.93766C4.2742 0.867277 6.58668 1.33849 7.73564 2.99014L23.1729 25.1815C23.6243 25.8304 23.4477 26.6973 22.7784 27.1178V27.1178C20.3244 28.6597 16.9933 27.9809 15.3382 25.6017L1.73365 6.04489Z" fill="#0C76F8"/>
<path d="M16.6875 10.2985C16.6875 9.33235 16.6875 8.84925 16.9899 8.55481C17.2924 8.26038 17.7753 8.27334 18.7412 8.29927L21.481 8.37281C22.4177 8.39796 22.8861 8.41053 23.1706 8.7088C23.4552 9.00707 23.4458 9.4755 23.4269 10.4123L23.3306 15.1954C23.2794 17.7411 23.2538 19.014 22.5571 19.2239C21.8605 19.4338 21.1359 18.3871 19.6866 16.2935L17.0431 12.4748C16.8667 12.22 16.7785 12.0926 16.733 11.947C16.6875 11.8014 16.6875 11.6464 16.6875 11.3365V10.2985Z" fill="#0C76F8"/>
<path d="M16.6979 6.50481C16.6889 3.4689 19.1427 1.00124 22.1786 0.993131V0.993131C22.8533 0.991329 23.4018 1.53678 23.4038 2.21142L23.4269 10.0023L16.7083 10.0203L16.6979 6.50481Z" fill="#0C76F8"/>
</svg>
