<svg width="211" height="164" viewBox="0 0 211 164" fill="none" xmlns="http://www.w3.org/2000/svg">
<path d="M8.136 27.476V22.364H12.852C13.764 22.364 14.544 22.184 15.192 21.824C15.864 21.464 16.38 20.96 16.74 20.312C17.1 19.64 17.28 18.872 17.28 18.008C17.28 17.096 17.1 16.316 16.74 15.668C16.38 14.996 15.864 14.492 15.192 14.156C14.544 13.796 13.764 13.616 12.852 13.616H8.136V8.504H12.564C14.796 8.504 16.704 8.876 18.288 9.62C19.896 10.364 21.12 11.42 21.96 12.788C22.824 14.156 23.256 15.8 23.256 17.72V18.296C23.256 20.168 22.824 21.8 21.96 23.192C21.12 24.56 19.896 25.616 18.288 26.36C16.704 27.104 14.796 27.476 12.564 27.476H8.136ZM2.952 35V8.504H8.856V35H2.952ZM26.8917 35V8.72H32.6877V35H26.8917ZM24.5517 12.968V8.72H32.6877V12.968H24.5517ZM49.9112 35V29.168H48.9392V22.832C48.9392 21.824 48.6992 21.068 48.2192 20.564C47.7392 20.06 46.9712 19.808 45.9152 19.808C45.3872 19.808 44.6912 19.82 43.8272 19.844C42.9632 19.868 42.0752 19.904 41.1632 19.952C40.2512 20 39.4232 20.048 38.6792 20.096V15.236C39.2312 15.188 39.8792 15.14 40.6232 15.092C41.3672 15.044 42.1352 15.008 42.9272 14.984C43.7192 14.96 44.4632 14.948 45.1592 14.948C47.1752 14.948 48.8672 15.236 50.2352 15.812C51.6272 16.388 52.6832 17.264 53.4032 18.44C54.1232 19.592 54.4832 21.08 54.4832 22.904V35H49.9112ZM43.6112 35.504C42.1952 35.504 40.9472 35.252 39.8672 34.748C38.8112 34.244 37.9832 33.524 37.3832 32.588C36.7832 31.628 36.4832 30.488 36.4832 29.168C36.4832 27.728 36.8552 26.552 37.5992 25.64C38.3432 24.704 39.3872 24.02 40.7312 23.588C42.0752 23.132 43.6232 22.904 45.3752 22.904H49.5872V26.108H45.3392C44.3312 26.108 43.5512 26.36 42.9992 26.864C42.4712 27.344 42.2072 28.004 42.2072 28.844C42.2072 29.636 42.4712 30.284 42.9992 30.788C43.5512 31.268 44.3312 31.508 45.3392 31.508C45.9872 31.508 46.5632 31.4 47.0672 31.184C47.5952 30.944 48.0272 30.548 48.3632 29.996C48.6992 29.444 48.8912 28.676 48.9392 27.692L50.3072 29.132C50.1872 30.5 49.8512 31.652 49.2992 32.588C48.7712 33.524 48.0272 34.244 47.0672 34.748C46.1312 35.252 44.9792 35.504 43.6112 35.504ZM68.3342 35.252C66.3422 35.252 64.7342 35.012 63.5102 34.532C62.2862 34.028 61.3862 33.2 60.8102 32.048C60.2582 30.872 59.9822 29.288 59.9822 27.296V9.944H65.3462V27.512C65.3462 28.448 65.5862 29.168 66.0662 29.672C66.5702 30.152 67.2782 30.392 68.1902 30.392H71.1062V35.252H68.3342ZM56.9942 19.484V15.272H71.1062V19.484H56.9942ZM83.9453 35.684C82.2653 35.684 80.7773 35.396 79.4813 34.82C78.2093 34.244 77.1413 33.476 76.2773 32.516C75.4373 31.532 74.7893 30.44 74.3333 29.24C73.9013 28.016 73.6853 26.768 73.6853 25.496V24.776C73.6853 23.456 73.9013 22.196 74.3333 20.996C74.7893 19.772 75.4373 18.68 76.2773 17.72C77.1173 16.76 78.1613 16.004 79.4093 15.452C80.6813 14.876 82.1213 14.588 83.7293 14.588C85.8413 14.588 87.6173 15.068 89.0573 16.028C90.5213 16.964 91.6373 18.2 92.4053 19.736C93.1733 21.248 93.5573 22.904 93.5573 24.704V26.648H76.0973V23.372H90.0653L88.1933 24.884C88.1933 23.708 88.0253 22.7 87.6893 21.86C87.3533 21.02 86.8493 20.384 86.1773 19.952C85.5293 19.496 84.7133 19.268 83.7293 19.268C82.7213 19.268 81.8693 19.496 81.1733 19.952C80.4773 20.408 79.9493 21.08 79.5893 21.968C79.2293 22.832 79.0493 23.9 79.0493 25.172C79.0493 26.348 79.2173 27.38 79.5533 28.268C79.8893 29.132 80.4173 29.804 81.1373 30.284C81.8573 30.764 82.7933 31.004 83.9453 31.004C85.0013 31.004 85.8653 30.8 86.5373 30.392C87.2093 29.984 87.6653 29.48 87.9053 28.88H93.1973C92.9093 30.2 92.3453 31.376 91.5053 32.408C90.6653 33.44 89.6093 34.244 88.3373 34.82C87.0653 35.396 85.6013 35.684 83.9453 35.684ZM97.8061 35V15.092C97.8061 12.812 98.4541 11.12 99.7501 10.016C101.046 8.912 102.954 8.36 105.474 8.36H107.994V12.68H105.222C104.574 12.68 104.07 12.86 103.71 13.22C103.35 13.58 103.17 14.084 103.17 14.732V35H97.8061ZM95.4661 19.88V15.668H108.282V19.88H95.4661ZM120.662 35.684C118.934 35.684 117.398 35.42 116.054 34.892C114.71 34.34 113.57 33.596 112.634 32.66C111.722 31.724 111.026 30.656 110.546 29.456C110.066 28.232 109.826 26.948 109.826 25.604V24.776C109.826 23.408 110.066 22.112 110.546 20.888C111.05 19.64 111.77 18.548 112.706 17.612C113.666 16.676 114.818 15.944 116.162 15.416C117.506 14.864 119.006 14.588 120.662 14.588C122.366 14.588 123.878 14.864 125.198 15.416C126.542 15.944 127.682 16.676 128.618 17.612C129.554 18.548 130.274 19.64 130.778 20.888C131.282 22.112 131.534 23.408 131.534 24.776V25.604C131.534 26.948 131.294 28.232 130.814 29.456C130.334 30.656 129.626 31.724 128.69 32.66C127.778 33.596 126.65 34.34 125.306 34.892C123.962 35.42 122.414 35.684 120.662 35.684ZM120.662 30.824C121.79 30.824 122.726 30.584 123.47 30.104C124.214 29.624 124.778 28.952 125.162 28.088C125.57 27.224 125.774 26.264 125.774 25.208C125.774 24.08 125.57 23.096 125.162 22.256C124.754 21.392 124.166 20.708 123.398 20.204C122.654 19.7 121.742 19.448 120.662 19.448C119.606 19.448 118.694 19.7 117.926 20.204C117.158 20.708 116.57 21.392 116.162 22.256C115.778 23.096 115.586 24.08 115.586 25.208C115.586 26.264 115.778 27.224 116.162 28.088C116.546 28.952 117.122 29.624 117.89 30.104C118.658 30.584 119.582 30.824 120.662 30.824ZM135.554 35V15.272H140.126V23.732H140.018C140.018 20.948 140.606 18.8 141.782 17.288C142.982 15.776 144.71 15.02 146.966 15.02H147.722V19.988H146.282C144.698 19.988 143.474 20.42 142.61 21.284C141.746 22.124 141.314 23.348 141.314 24.956V35H135.554ZM150.706 35V15.272H155.278V23.768H154.954C154.954 21.752 155.206 20.072 155.71 18.728C156.214 17.384 156.97 16.376 157.978 15.704C158.986 15.008 160.222 14.66 161.686 14.66H161.938C163.426 14.66 164.662 15.008 165.646 15.704C166.654 16.376 167.41 17.384 167.914 18.728C168.442 20.072 168.706 21.752 168.706 23.768H167.302C167.302 21.752 167.554 20.072 168.058 18.728C168.586 17.384 169.354 16.376 170.362 15.704C171.37 15.008 172.606 14.66 174.07 14.66H174.322C175.81 14.66 177.058 15.008 178.066 15.704C179.098 16.376 179.878 17.384 180.406 18.728C180.934 20.072 181.198 21.752 181.198 23.768V35H175.438V23.444C175.438 22.364 175.15 21.488 174.574 20.816C174.022 20.144 173.23 19.808 172.198 19.808C171.166 19.808 170.35 20.156 169.75 20.852C169.15 21.524 168.85 22.424 168.85 23.552V35H163.054V23.444C163.054 22.364 162.766 21.488 162.19 20.816C161.638 20.144 160.858 19.808 159.85 19.808C158.794 19.808 157.966 20.156 157.366 20.852C156.766 21.524 156.466 22.424 156.466 23.552V35H150.706ZM195.144 35.684C193.464 35.684 191.976 35.396 190.68 34.82C189.408 34.244 188.34 33.476 187.476 32.516C186.636 31.532 185.988 30.44 185.532 29.24C185.1 28.016 184.884 26.768 184.884 25.496V24.776C184.884 23.456 185.1 22.196 185.532 20.996C185.988 19.772 186.636 18.68 187.476 17.72C188.316 16.76 189.36 16.004 190.608 15.452C191.88 14.876 193.32 14.588 194.928 14.588C197.04 14.588 198.816 15.068 200.256 16.028C201.72 16.964 202.836 18.2 203.604 19.736C204.372 21.248 204.756 22.904 204.756 24.704V26.648H187.296V23.372H201.264L199.392 24.884C199.392 23.708 199.224 22.7 198.888 21.86C198.552 21.02 198.048 20.384 197.376 19.952C196.728 19.496 195.912 19.268 194.928 19.268C193.92 19.268 193.068 19.496 192.372 19.952C191.676 20.408 191.148 21.08 190.788 21.968C190.428 22.832 190.248 23.9 190.248 25.172C190.248 26.348 190.416 27.38 190.752 28.268C191.088 29.132 191.616 29.804 192.336 30.284C193.056 30.764 193.992 31.004 195.144 31.004C196.2 31.004 197.064 30.8 197.736 30.392C198.408 29.984 198.864 29.48 199.104 28.88H204.396C204.108 30.2 203.544 31.376 202.704 32.408C201.864 33.44 200.808 34.244 199.536 34.82C198.264 35.396 196.8 35.684 195.144 35.684Z" fill="#424242"/>
<path d="M13.024 110V63.972L16.28 66.488H2.442V55.98H25.086V110H13.024ZM59.9203 111.406C55.6283 111.406 51.953 110.715 48.8943 109.334C45.8357 107.903 43.3443 105.979 41.4203 103.562C39.5457 101.145 38.1397 98.3573 37.2023 95.2C36.3143 91.9933 35.8703 88.614 35.8703 85.062V80.844C35.8703 75.9107 36.7337 71.446 38.4603 67.45C40.187 63.454 42.8263 60.272 46.3783 57.904C49.9303 55.536 54.4443 54.352 59.9203 54.352C65.3963 54.352 69.8857 55.536 73.3883 57.904C76.9403 60.272 79.5797 63.454 81.3063 67.45C83.033 71.446 83.8963 75.9107 83.8963 80.844V85.062C83.8963 88.614 83.4277 91.9933 82.4903 95.2C81.6023 98.3573 80.1963 101.145 78.2723 103.562C76.3977 105.979 73.931 107.903 70.8723 109.334C67.863 110.715 64.2123 111.406 59.9203 111.406ZM59.9203 100.232C63.9163 100.232 66.8763 98.8507 68.8003 96.088C70.7737 93.276 71.7603 88.9347 71.7603 83.064C71.7603 76.848 70.749 72.3833 68.7263 69.67C66.753 66.9073 63.8177 65.526 59.9203 65.526C55.9243 65.526 52.9397 66.9073 50.9663 69.67C48.993 72.3833 48.0063 76.7987 48.0063 82.916C48.0063 88.836 48.9683 93.202 50.8923 96.014C52.8657 98.826 55.875 100.232 59.9203 100.232ZM116.36 111.406C112.068 111.406 108.392 110.715 105.334 109.334C102.275 107.903 99.7838 105.979 97.8598 103.562C95.9851 101.145 94.5791 98.3573 93.6418 95.2C92.7538 91.9933 92.3098 88.614 92.3098 85.062V80.844C92.3098 75.9107 93.1731 71.446 94.8998 67.45C96.6265 63.454 99.2658 60.272 102.818 57.904C106.37 55.536 110.884 54.352 116.36 54.352C121.836 54.352 126.325 55.536 129.828 57.904C133.38 60.272 136.019 63.454 137.746 67.45C139.472 71.446 140.336 75.9107 140.336 80.844V85.062C140.336 88.614 139.867 91.9933 138.93 95.2C138.042 98.3573 136.636 101.145 134.712 103.562C132.837 105.979 130.37 107.903 127.312 109.334C124.302 110.715 120.652 111.406 116.36 111.406ZM116.36 100.232C120.356 100.232 123.316 98.8507 125.24 96.088C127.213 93.276 128.2 88.9347 128.2 83.064C128.2 76.848 127.188 72.3833 125.166 69.67C123.192 66.9073 120.257 65.526 116.36 65.526C112.364 65.526 109.379 66.9073 107.406 69.67C105.432 72.3833 104.446 76.7987 104.446 82.916C104.446 88.836 105.408 93.202 107.332 96.014C109.305 98.826 112.314 100.232 116.36 100.232ZM162.809 110L182.493 55.98H192.409L172.799 110H162.809ZM159.109 85.654C156.199 85.654 153.757 85.0127 151.783 83.73C149.859 82.398 148.404 80.6467 147.417 78.476C146.48 76.256 146.011 73.814 146.011 71.15V69.226C146.011 66.414 146.505 63.9227 147.491 61.752C148.478 59.5813 149.958 57.8793 151.931 56.646C153.905 55.4127 156.297 54.796 159.109 54.796C161.971 54.796 164.363 55.4127 166.287 56.646C168.261 57.8793 169.741 59.5813 170.727 61.752C171.714 63.9227 172.207 66.414 172.207 69.226V71.15C172.207 73.814 171.714 76.256 170.727 78.476C169.79 80.6467 168.359 82.398 166.435 83.73C164.511 85.0127 162.069 85.654 159.109 85.654ZM159.109 77.736C160.639 77.736 161.749 77.1933 162.439 76.108C163.179 74.9733 163.549 73.0247 163.549 70.262C163.549 67.3513 163.179 65.3533 162.439 64.268C161.699 63.1827 160.589 62.64 159.109 62.64C157.629 62.64 156.519 63.1827 155.779 64.268C155.039 65.3533 154.669 67.3267 154.669 70.188C154.669 72.9507 155.039 74.8993 155.779 76.034C156.519 77.1687 157.629 77.736 159.109 77.736ZM195.887 111.258C192.927 111.258 190.485 110.617 188.561 109.334C186.637 108.051 185.182 106.325 184.195 104.154C183.258 101.934 182.789 99.492 182.789 96.828V94.904C182.789 92.0427 183.283 89.5267 184.269 87.356C185.256 85.1853 186.711 83.4833 188.635 82.25C190.609 81.0167 193.026 80.4 195.887 80.4C198.749 80.4 201.141 81.0167 203.065 82.25C204.989 83.4833 206.445 85.1853 207.431 87.356C208.418 89.5267 208.911 92.0427 208.911 94.904V96.828C208.911 99.492 208.418 101.934 207.431 104.154C206.494 106.325 205.063 108.051 203.139 109.334C201.265 110.617 198.847 111.258 195.887 111.258ZM195.887 103.414C197.417 103.414 198.527 102.871 199.217 101.786C199.957 100.651 200.327 98.7027 200.327 95.94C200.327 92.98 199.957 90.982 199.217 89.946C198.477 88.8607 197.367 88.318 195.887 88.318C194.407 88.318 193.273 88.8607 192.483 89.946C191.743 90.982 191.373 92.9553 191.373 95.866C191.373 98.6287 191.743 100.577 192.483 101.712C193.223 102.847 194.358 103.414 195.887 103.414Z" fill="#0C76F8"/>
<path d="M0.468 154L9.144 127.72H18.684L27.684 154H21.564L14.292 131.788L16.164 132.544H11.52L13.464 131.788L6.372 154H0.468ZM7.056 147.484L8.856 142.588H19.152L20.988 147.484H7.056ZM39.3278 154.684C37.6238 154.684 36.1358 154.408 34.8638 153.856C33.6158 153.28 32.5718 152.512 31.7318 151.552C30.8918 150.592 30.2678 149.512 29.8598 148.312C29.4518 147.088 29.2478 145.828 29.2478 144.532V143.848C29.2478 142.504 29.4638 141.22 29.8958 139.996C30.3278 138.748 30.9638 137.644 31.8038 136.684C32.6438 135.724 33.6878 134.968 34.9358 134.416C36.2078 133.864 37.6598 133.588 39.2918 133.588C41.0678 133.588 42.6398 133.936 44.0078 134.632C45.3758 135.304 46.4678 136.252 47.2838 137.476C48.0998 138.7 48.5558 140.104 48.6518 141.688H42.9998C42.9038 140.8 42.5438 140.056 41.9198 139.456C41.3198 138.832 40.4438 138.52 39.2918 138.52C38.3318 138.52 37.5278 138.76 36.8798 139.24C36.2558 139.72 35.7878 140.38 35.4758 141.22C35.1638 142.06 35.0078 143.056 35.0078 144.208C35.0078 145.264 35.1518 146.224 35.4398 147.088C35.7278 147.928 36.1838 148.588 36.8078 149.068C37.4558 149.524 38.2958 149.752 39.3278 149.752C40.0958 149.752 40.7438 149.62 41.2718 149.356C41.8238 149.068 42.2558 148.684 42.5678 148.204C42.9038 147.7 43.1078 147.124 43.1798 146.476H48.7958C48.7238 148.108 48.2678 149.548 47.4278 150.796C46.5878 152.02 45.4718 152.98 44.0798 153.676C42.6878 154.348 41.1038 154.684 39.3278 154.684ZM61.3356 154.684C59.6316 154.684 58.1436 154.408 56.8716 153.856C55.6236 153.28 54.5796 152.512 53.7396 151.552C52.8996 150.592 52.2756 149.512 51.8676 148.312C51.4596 147.088 51.2556 145.828 51.2556 144.532V143.848C51.2556 142.504 51.4716 141.22 51.9036 139.996C52.3356 138.748 52.9716 137.644 53.8116 136.684C54.6516 135.724 55.6956 134.968 56.9436 134.416C58.2156 133.864 59.6676 133.588 61.2996 133.588C63.0756 133.588 64.6476 133.936 66.0156 134.632C67.3836 135.304 68.4756 136.252 69.2916 137.476C70.1076 138.7 70.5636 140.104 70.6596 141.688H65.0076C64.9116 140.8 64.5516 140.056 63.9276 139.456C63.3276 138.832 62.4516 138.52 61.2996 138.52C60.3396 138.52 59.5356 138.76 58.8876 139.24C58.2636 139.72 57.7956 140.38 57.4836 141.22C57.1716 142.06 57.0156 143.056 57.0156 144.208C57.0156 145.264 57.1596 146.224 57.4476 147.088C57.7356 147.928 58.1916 148.588 58.8156 149.068C59.4636 149.524 60.3036 149.752 61.3356 149.752C62.1036 149.752 62.7516 149.62 63.2796 149.356C63.8316 149.068 64.2636 148.684 64.5756 148.204C64.9116 147.7 65.1156 147.124 65.1876 146.476H70.8036C70.7316 148.108 70.2756 149.548 69.4356 150.796C68.5956 152.02 67.4796 152.98 66.0876 153.676C64.6956 154.348 63.1116 154.684 61.3356 154.684ZM83.5234 154.684C81.8434 154.684 80.3554 154.396 79.0594 153.82C77.7874 153.244 76.7194 152.476 75.8554 151.516C75.0154 150.532 74.3674 149.44 73.9114 148.24C73.4794 147.016 73.2634 145.768 73.2634 144.496V143.776C73.2634 142.456 73.4794 141.196 73.9114 139.996C74.3674 138.772 75.0154 137.68 75.8554 136.72C76.6954 135.76 77.7394 135.004 78.9874 134.452C80.2594 133.876 81.6994 133.588 83.3074 133.588C85.4194 133.588 87.1954 134.068 88.6354 135.028C90.0994 135.964 91.2154 137.2 91.9834 138.736C92.7514 140.248 93.1354 141.904 93.1354 143.704V145.648H75.6754V142.372H89.6434L87.7714 143.884C87.7714 142.708 87.6034 141.7 87.2674 140.86C86.9314 140.02 86.4274 139.384 85.7554 138.952C85.1074 138.496 84.2914 138.268 83.3074 138.268C82.2994 138.268 81.4474 138.496 80.7514 138.952C80.0554 139.408 79.5274 140.08 79.1674 140.968C78.8074 141.832 78.6274 142.9 78.6274 144.172C78.6274 145.348 78.7954 146.38 79.1314 147.268C79.4674 148.132 79.9954 148.804 80.7154 149.284C81.4354 149.764 82.3714 150.004 83.5234 150.004C84.5794 150.004 85.4434 149.8 86.1154 149.392C86.7874 148.984 87.2434 148.48 87.4834 147.88H92.7754C92.4874 149.2 91.9234 150.376 91.0834 151.408C90.2434 152.44 89.1874 153.244 87.9154 153.82C86.6434 154.396 85.1794 154.684 83.5234 154.684ZM104.44 154.612C101.632 154.612 99.4362 154.036 97.8522 152.884C96.2682 151.732 95.4282 150.112 95.3322 148.024H100.444C100.54 148.648 100.912 149.212 101.56 149.716C102.232 150.196 103.228 150.436 104.548 150.436C105.556 150.436 106.384 150.268 107.032 149.932C107.704 149.572 108.04 149.068 108.04 148.42C108.04 147.844 107.788 147.388 107.284 147.052C106.78 146.692 105.88 146.44 104.584 146.296L103.036 146.152C100.66 145.912 98.8722 145.252 97.6722 144.172C96.4962 143.092 95.9082 141.712 95.9082 140.032C95.9082 138.64 96.2562 137.476 96.9522 136.54C97.6482 135.604 98.6082 134.896 99.8322 134.416C101.08 133.936 102.496 133.696 104.08 133.696C106.624 133.696 108.676 134.26 110.236 135.388C111.796 136.492 112.612 138.1 112.684 140.212H107.572C107.476 139.564 107.14 139.024 106.564 138.592C105.988 138.136 105.136 137.908 104.008 137.908C103.12 137.908 102.412 138.076 101.884 138.412C101.356 138.748 101.092 139.204 101.092 139.78C101.092 140.332 101.32 140.752 101.776 141.04C102.232 141.328 102.976 141.532 104.008 141.652L105.556 141.796C107.98 142.06 109.864 142.732 111.208 143.812C112.552 144.892 113.224 146.344 113.224 148.168C113.224 149.488 112.864 150.64 112.144 151.624C111.424 152.584 110.404 153.328 109.084 153.856C107.764 154.36 106.216 154.612 104.44 154.612ZM124.444 154.612C121.636 154.612 119.44 154.036 117.856 152.884C116.272 151.732 115.432 150.112 115.336 148.024H120.448C120.544 148.648 120.916 149.212 121.564 149.716C122.236 150.196 123.232 150.436 124.552 150.436C125.56 150.436 126.388 150.268 127.036 149.932C127.708 149.572 128.044 149.068 128.044 148.42C128.044 147.844 127.792 147.388 127.288 147.052C126.784 146.692 125.884 146.44 124.588 146.296L123.04 146.152C120.664 145.912 118.876 145.252 117.676 144.172C116.5 143.092 115.912 141.712 115.912 140.032C115.912 138.64 116.26 137.476 116.956 136.54C117.652 135.604 118.612 134.896 119.836 134.416C121.084 133.936 122.5 133.696 124.084 133.696C126.628 133.696 128.68 134.26 130.24 135.388C131.8 136.492 132.616 138.1 132.688 140.212H127.576C127.48 139.564 127.144 139.024 126.568 138.592C125.992 138.136 125.14 137.908 124.012 137.908C123.124 137.908 122.416 138.076 121.888 138.412C121.36 138.748 121.096 139.204 121.096 139.78C121.096 140.332 121.324 140.752 121.78 141.04C122.236 141.328 122.98 141.532 124.012 141.652L125.56 141.796C127.984 142.06 129.868 142.732 131.212 143.812C132.556 144.892 133.228 146.344 133.228 148.168C133.228 149.488 132.868 150.64 132.148 151.624C131.428 152.584 130.408 153.328 129.088 153.856C127.768 154.36 126.22 154.612 124.444 154.612ZM137.896 154V134.272H143.656V154H137.896ZM135.268 138.52V134.272H143.656V138.52H135.268ZM140.128 132.328C139.048 132.328 138.244 132.052 137.716 131.5C137.212 130.924 136.96 130.204 136.96 129.34C136.96 128.452 137.212 127.732 137.716 127.18C138.244 126.604 139.048 126.316 140.128 126.316C141.208 126.316 142 126.604 142.504 127.18C143.032 127.732 143.296 128.452 143.296 129.34C143.296 130.204 143.032 130.924 142.504 131.5C142 132.052 141.208 132.328 140.128 132.328ZM161.115 154.648C159.507 154.648 158.091 154.312 156.867 153.64C155.643 152.944 154.683 151.948 153.987 150.652C153.291 149.356 152.919 147.772 152.871 145.9H153.555V154H148.983V127.72H154.743V141.076L153.375 142.804C153.447 140.812 153.819 139.144 154.491 137.8C155.187 136.432 156.135 135.412 157.335 134.74C158.535 134.044 159.903 133.696 161.439 133.696C162.783 133.696 163.995 133.948 165.075 134.452C166.179 134.932 167.115 135.628 167.883 136.54C168.651 137.428 169.239 138.484 169.647 139.708C170.079 140.932 170.295 142.264 170.295 143.704V144.496C170.295 145.936 170.079 147.268 169.647 148.492C169.239 149.716 168.627 150.796 167.811 151.732C167.019 152.644 166.059 153.364 164.931 153.892C163.803 154.396 162.531 154.648 161.115 154.648ZM159.603 149.824C160.587 149.824 161.439 149.584 162.159 149.104C162.903 148.624 163.479 147.952 163.887 147.088C164.295 146.2 164.499 145.204 164.499 144.1C164.499 142.972 164.295 141.988 163.887 141.148C163.479 140.308 162.903 139.66 162.159 139.204C161.439 138.724 160.587 138.484 159.603 138.484C158.739 138.484 157.923 138.688 157.155 139.096C156.387 139.504 155.763 140.092 155.283 140.86C154.827 141.604 154.599 142.516 154.599 143.596V144.928C154.599 145.96 154.839 146.848 155.319 147.592C155.823 148.312 156.459 148.864 157.227 149.248C157.995 149.632 158.787 149.824 159.603 149.824ZM174.548 154V127.72H180.344V154H174.548ZM172.208 131.968V127.72H180.344V131.968H172.208ZM194.687 154.684C193.007 154.684 191.519 154.396 190.223 153.82C188.951 153.244 187.883 152.476 187.019 151.516C186.179 150.532 185.531 149.44 185.075 148.24C184.643 147.016 184.427 145.768 184.427 144.496V143.776C184.427 142.456 184.643 141.196 185.075 139.996C185.531 138.772 186.179 137.68 187.019 136.72C187.859 135.76 188.903 135.004 190.151 134.452C191.423 133.876 192.863 133.588 194.471 133.588C196.583 133.588 198.359 134.068 199.799 135.028C201.263 135.964 202.379 137.2 203.147 138.736C203.915 140.248 204.299 141.904 204.299 143.704V145.648H186.839V142.372H200.807L198.935 143.884C198.935 142.708 198.767 141.7 198.431 140.86C198.095 140.02 197.591 139.384 196.919 138.952C196.271 138.496 195.455 138.268 194.471 138.268C193.463 138.268 192.611 138.496 191.915 138.952C191.219 139.408 190.691 140.08 190.331 140.968C189.971 141.832 189.791 142.9 189.791 144.172C189.791 145.348 189.959 146.38 190.295 147.268C190.631 148.132 191.159 148.804 191.879 149.284C192.599 149.764 193.535 150.004 194.687 150.004C195.743 150.004 196.607 149.8 197.279 149.392C197.951 148.984 198.407 148.48 198.647 147.88H203.939C203.651 149.2 203.087 150.376 202.247 151.408C201.407 152.44 200.351 153.244 199.079 153.82C197.807 154.396 196.343 154.684 194.687 154.684Z" fill="#424242"/>
</svg>
