<svg width="411" height="212" viewBox="0 0 411 212" fill="none" xmlns="http://www.w3.org/2000/svg">
<path d="M204.38 19.38C203.06 19.38 201.927 19.1467 200.98 18.68C200.033 18.2133 199.26 17.6067 198.66 16.86C198.073 16.1133 197.64 15.3 197.36 14.42C197.08 13.54 196.94 12.6933 196.94 11.88V11.44C196.94 10.5333 197.08 9.64 197.36 8.76C197.653 7.88 198.1 7.08 198.7 6.36C199.3 5.64 200.06 5.06667 200.98 4.64C201.913 4.2 203.013 3.98 204.28 3.98C205.6 3.98 206.747 4.22 207.72 4.7C208.707 5.16667 209.493 5.83333 210.08 6.7C210.667 7.55333 211.02 8.55333 211.14 9.7H208.28C208.173 9.03333 207.933 8.47333 207.56 8.02C207.2 7.55333 206.74 7.20667 206.18 6.98C205.62 6.74 204.987 6.62 204.28 6.62C203.56 6.62 202.92 6.74667 202.36 7C201.8 7.24 201.333 7.58667 200.96 8.04C200.587 8.49333 200.3 9.02667 200.1 9.64C199.913 10.2533 199.82 10.9333 199.82 11.68C199.82 12.4 199.913 13.0667 200.1 13.68C200.3 14.2933 200.593 14.8333 200.98 15.3C201.367 15.7533 201.84 16.1067 202.4 16.36C202.973 16.6133 203.633 16.74 204.38 16.74C205.473 16.74 206.393 16.4733 207.14 15.94C207.9 15.3933 208.36 14.6333 208.52 13.66H211.38C211.247 14.7 210.893 15.6533 210.32 16.52C209.747 17.3867 208.96 18.08 207.96 18.6C206.96 19.12 205.767 19.38 204.38 19.38ZM218.777 19.38C217.817 19.38 216.97 19.2267 216.237 18.92C215.503 18.6133 214.883 18.2 214.377 17.68C213.87 17.1467 213.483 16.5467 213.217 15.88C212.963 15.2133 212.837 14.52 212.837 13.8V13.38C212.837 12.6333 212.97 11.9267 213.237 11.26C213.517 10.58 213.91 9.98 214.417 9.46C214.937 8.92667 215.563 8.51333 216.297 8.22C217.03 7.91333 217.857 7.76 218.777 7.76C219.697 7.76 220.523 7.91333 221.257 8.22C221.99 8.51333 222.61 8.92667 223.117 9.46C223.637 9.98 224.03 10.58 224.297 11.26C224.563 11.9267 224.697 12.6333 224.697 13.38V13.8C224.697 14.52 224.563 15.2133 224.297 15.88C224.043 16.5467 223.663 17.1467 223.157 17.68C222.65 18.2 222.03 18.6133 221.297 18.92C220.563 19.2267 219.723 19.38 218.777 19.38ZM218.777 17C219.457 17 220.03 16.8533 220.497 16.56C220.963 16.2533 221.317 15.8467 221.557 15.34C221.797 14.82 221.917 14.2333 221.917 13.58C221.917 12.9133 221.79 12.3267 221.537 11.82C221.297 11.3 220.937 10.8933 220.457 10.6C219.99 10.2933 219.43 10.14 218.777 10.14C218.123 10.14 217.557 10.2933 217.077 10.6C216.61 10.8933 216.25 11.3 215.997 11.82C215.743 12.3267 215.617 12.9133 215.617 13.58C215.617 14.2333 215.737 14.82 215.977 15.34C216.23 15.8467 216.59 16.2533 217.057 16.56C217.523 16.8533 218.097 17 218.777 17ZM227.131 19V8.14H229.331V12.8H229.131C229.131 11.7067 229.271 10.7933 229.551 10.06C229.831 9.31333 230.244 8.75333 230.791 8.38C231.351 7.99333 232.044 7.8 232.871 7.8H232.991C233.831 7.8 234.524 7.99333 235.071 8.38C235.631 8.75333 236.044 9.31333 236.311 10.06C236.591 10.7933 236.731 11.7067 236.731 12.8H236.031C236.031 11.7067 236.171 10.7933 236.451 10.06C236.744 9.31333 237.164 8.75333 237.711 8.38C238.271 7.99333 238.964 7.8 239.791 7.8H239.911C240.751 7.8 241.451 7.99333 242.011 8.38C242.571 8.75333 242.991 9.31333 243.271 10.06C243.564 10.7933 243.711 11.7067 243.711 12.8V19H240.931V12.54C240.931 11.86 240.757 11.32 240.411 10.92C240.064 10.5067 239.571 10.3 238.931 10.3C238.291 10.3 237.777 10.5133 237.391 10.94C237.004 11.3533 236.811 11.9133 236.811 12.62V19H234.031V12.54C234.031 11.86 233.857 11.32 233.511 10.92C233.164 10.5067 232.671 10.3 232.031 10.3C231.391 10.3 230.877 10.5133 230.491 10.94C230.104 11.3533 229.911 11.9133 229.911 12.62V19H227.131ZM246.682 23V8.14H248.882V12.82L248.542 12.8C248.595 11.6933 248.822 10.7667 249.222 10.02C249.635 9.27333 250.182 8.72 250.862 8.36C251.542 7.98667 252.302 7.8 253.142 7.8C253.915 7.8 254.608 7.94 255.222 8.22C255.848 8.5 256.382 8.89333 256.822 9.4C257.275 9.90667 257.622 10.5 257.862 11.18C258.102 11.8467 258.222 12.5667 258.222 13.34V13.76C258.222 14.5467 258.102 15.28 257.862 15.96C257.635 16.6267 257.295 17.22 256.842 17.74C256.402 18.2467 255.868 18.6467 255.242 18.94C254.615 19.22 253.915 19.36 253.142 19.36C252.328 19.36 251.582 19.1933 250.902 18.86C250.235 18.5133 249.695 17.9867 249.282 17.28C248.868 16.56 248.635 15.6333 248.582 14.5L249.462 15.84V23H246.682ZM252.442 17.02C253.042 17.02 253.562 16.8733 254.002 16.58C254.455 16.2867 254.808 15.88 255.062 15.36C255.315 14.8267 255.442 14.2267 255.442 13.56C255.442 12.8667 255.315 12.2667 255.062 11.76C254.808 11.2533 254.455 10.86 254.002 10.58C253.562 10.2867 253.042 10.14 252.442 10.14C251.895 10.14 251.388 10.26 250.922 10.5C250.468 10.74 250.095 11.0933 249.802 11.56C249.522 12.0267 249.382 12.5867 249.382 13.24V14.04C249.382 14.6667 249.528 15.2 249.822 15.64C250.115 16.08 250.495 16.42 250.962 16.66C251.428 16.9 251.922 17.02 252.442 17.02ZM265.526 19.38C264.593 19.38 263.773 19.22 263.066 18.9C262.373 18.58 261.793 18.1533 261.326 17.62C260.873 17.0733 260.526 16.4667 260.286 15.8C260.059 15.1333 259.946 14.4533 259.946 13.76V13.38C259.946 12.66 260.059 11.9667 260.286 11.3C260.526 10.62 260.873 10.02 261.326 9.5C261.793 8.96667 262.366 8.54667 263.046 8.24C263.726 7.92 264.513 7.76 265.406 7.76C266.579 7.76 267.559 8.02 268.346 8.54C269.146 9.04667 269.746 9.72 270.146 10.56C270.546 11.3867 270.746 12.28 270.746 13.24V14.24H261.126V12.54H269.006L268.146 13.38C268.146 12.6867 268.046 12.0933 267.846 11.6C267.646 11.1067 267.339 10.7267 266.926 10.46C266.526 10.1933 266.019 10.06 265.406 10.06C264.793 10.06 264.273 10.2 263.846 10.48C263.419 10.76 263.093 11.1667 262.866 11.7C262.653 12.22 262.546 12.8467 262.546 13.58C262.546 14.26 262.653 14.8667 262.866 15.4C263.079 15.92 263.406 16.3333 263.846 16.64C264.286 16.9333 264.846 17.08 265.526 17.08C266.206 17.08 266.759 16.9467 267.186 16.68C267.613 16.4 267.886 16.06 268.006 15.66H270.566C270.406 16.4067 270.099 17.06 269.646 17.62C269.193 18.18 268.613 18.6133 267.906 18.92C267.213 19.2267 266.419 19.38 265.526 19.38ZM264.026 6.76L265.806 2.66H268.686L266.406 6.76H264.026ZM277.788 19.14C276.788 19.14 275.962 19.0133 275.308 18.76C274.668 18.4933 274.188 18.0533 273.868 17.44C273.548 16.8133 273.388 15.9733 273.388 14.92L273.408 5.08H276.008L275.988 15.1C275.988 15.6333 276.128 16.0467 276.408 16.34C276.702 16.62 277.115 16.76 277.648 16.76H279.348V19.14H277.788ZM271.668 10.18V8.14H279.348V10.18H271.668ZM286.483 19.38C285.55 19.38 284.73 19.22 284.023 18.9C283.33 18.58 282.75 18.1533 282.283 17.62C281.83 17.0733 281.483 16.4667 281.243 15.8C281.016 15.1333 280.903 14.4533 280.903 13.76V13.38C280.903 12.66 281.016 11.9667 281.243 11.3C281.483 10.62 281.83 10.02 282.283 9.5C282.75 8.96667 283.323 8.54667 284.003 8.24C284.683 7.92 285.47 7.76 286.363 7.76C287.536 7.76 288.516 8.02 289.303 8.54C290.103 9.04667 290.703 9.72 291.103 10.56C291.503 11.3867 291.703 12.28 291.703 13.24V14.24H282.083V12.54H289.963L289.103 13.38C289.103 12.6867 289.003 12.0933 288.803 11.6C288.603 11.1067 288.296 10.7267 287.883 10.46C287.483 10.1933 286.976 10.06 286.363 10.06C285.75 10.06 285.23 10.2 284.803 10.48C284.376 10.76 284.05 11.1667 283.823 11.7C283.61 12.22 283.503 12.8467 283.503 13.58C283.503 14.26 283.61 14.8667 283.823 15.4C284.036 15.92 284.363 16.3333 284.803 16.64C285.243 16.9333 285.803 17.08 286.483 17.08C287.163 17.08 287.716 16.9467 288.143 16.68C288.57 16.4 288.843 16.06 288.963 15.66H291.523C291.363 16.4067 291.056 17.06 290.603 17.62C290.15 18.18 289.57 18.6133 288.863 18.92C288.17 19.2267 287.376 19.38 286.483 19.38ZM294.025 19V8.14H296.225V12.8H296.025C296.025 11.6933 296.172 10.7733 296.465 10.04C296.759 9.29333 297.192 8.73333 297.765 8.36C298.352 7.98667 299.079 7.8 299.945 7.8H300.065C301.359 7.8 302.339 8.22 303.005 9.06C303.672 9.88667 304.005 11.1267 304.005 12.78V19H301.225V12.54C301.225 11.8733 301.032 11.3333 300.645 10.92C300.272 10.5067 299.752 10.3 299.085 10.3C298.405 10.3 297.852 10.5133 297.425 10.94C297.012 11.3533 296.805 11.9133 296.805 12.62V19H294.025ZM311.814 19.38C310.867 19.38 310.047 19.22 309.354 18.9C308.674 18.58 308.101 18.1533 307.634 17.62C307.181 17.0867 306.841 16.4867 306.614 15.82C306.387 15.1533 306.274 14.4733 306.274 13.78V13.4C306.274 12.6667 306.387 11.9667 306.614 11.3C306.854 10.62 307.207 10.02 307.674 9.5C308.141 8.96667 308.714 8.54667 309.394 8.24C310.087 7.92 310.887 7.76 311.794 7.76C312.741 7.76 313.587 7.94667 314.334 8.32C315.081 8.68 315.674 9.18667 316.114 9.84C316.567 10.4933 316.821 11.2533 316.874 12.12H314.174C314.107 11.56 313.867 11.0933 313.454 10.72C313.054 10.3467 312.501 10.16 311.794 10.16C311.181 10.16 310.667 10.3067 310.254 10.6C309.854 10.8933 309.554 11.3 309.354 11.82C309.154 12.3267 309.054 12.9133 309.054 13.58C309.054 14.22 309.147 14.8 309.334 15.32C309.534 15.84 309.834 16.2467 310.234 16.54C310.647 16.8333 311.174 16.98 311.814 16.98C312.294 16.98 312.707 16.8933 313.054 16.72C313.401 16.5467 313.674 16.3067 313.874 16C314.087 15.6933 314.221 15.3467 314.274 14.96H316.974C316.921 15.84 316.661 16.6133 316.194 17.28C315.741 17.9333 315.134 18.4467 314.374 18.82C313.627 19.1933 312.774 19.38 311.814 19.38ZM324.061 19.38C323.128 19.38 322.308 19.22 321.601 18.9C320.908 18.58 320.328 18.1533 319.861 17.62C319.408 17.0733 319.061 16.4667 318.821 15.8C318.594 15.1333 318.481 14.4533 318.481 13.76V13.38C318.481 12.66 318.594 11.9667 318.821 11.3C319.061 10.62 319.408 10.02 319.861 9.5C320.328 8.96667 320.901 8.54667 321.581 8.24C322.261 7.92 323.048 7.76 323.941 7.76C325.114 7.76 326.094 8.02 326.881 8.54C327.681 9.04667 328.281 9.72 328.681 10.56C329.081 11.3867 329.281 12.28 329.281 13.24V14.24H319.661V12.54H327.541L326.681 13.38C326.681 12.6867 326.581 12.0933 326.381 11.6C326.181 11.1067 325.874 10.7267 325.461 10.46C325.061 10.1933 324.554 10.06 323.941 10.06C323.328 10.06 322.808 10.2 322.381 10.48C321.954 10.76 321.628 11.1667 321.401 11.7C321.188 12.22 321.081 12.8467 321.081 13.58C321.081 14.26 321.188 14.8667 321.401 15.4C321.614 15.92 321.941 16.3333 322.381 16.64C322.821 16.9333 323.381 17.08 324.061 17.08C324.741 17.08 325.294 16.9467 325.721 16.68C326.148 16.4 326.421 16.06 326.541 15.66H329.101C328.941 16.4067 328.634 17.06 328.181 17.62C327.728 18.18 327.148 18.6133 326.441 18.92C325.748 19.2267 324.954 19.38 324.061 19.38ZM335.543 19.34C334.05 19.34 332.877 19.0267 332.023 18.4C331.183 17.76 330.743 16.88 330.703 15.76H333.203C333.243 16.1333 333.45 16.4733 333.823 16.78C334.197 17.0867 334.783 17.24 335.583 17.24C336.25 17.24 336.777 17.12 337.163 16.88C337.563 16.64 337.763 16.3133 337.763 15.9C337.763 15.54 337.61 15.2533 337.303 15.04C337.01 14.8267 336.503 14.6867 335.783 14.62L334.823 14.52C333.61 14.3867 332.677 14.04 332.023 13.48C331.37 12.92 331.043 12.1733 331.043 11.24C331.043 10.4933 331.23 9.86667 331.603 9.36C331.977 8.85333 332.49 8.47333 333.143 8.22C333.81 7.95333 334.57 7.82 335.423 7.82C336.757 7.82 337.837 8.11333 338.663 8.7C339.49 9.28667 339.923 10.1467 339.963 11.28H337.463C337.437 10.9067 337.25 10.5867 336.903 10.32C336.557 10.0533 336.057 9.92 335.403 9.92C334.817 9.92 334.363 10.0333 334.043 10.26C333.723 10.4867 333.563 10.78 333.563 11.14C333.563 11.4867 333.69 11.7533 333.943 11.94C334.21 12.1267 334.637 12.2533 335.223 12.32L336.183 12.42C337.463 12.5533 338.463 12.9067 339.183 13.48C339.917 14.0533 340.283 14.8267 340.283 15.8C340.283 16.52 340.083 17.1467 339.683 17.68C339.297 18.2 338.75 18.6067 338.043 18.9C337.337 19.1933 336.503 19.34 335.543 19.34Z" fill="#424242"/>
<path d="M198.944 173.936V172.56H201.552C202.107 172.56 202.565 172.453 202.928 172.24C203.291 172.016 203.563 171.717 203.744 171.344C203.936 170.971 204.032 170.555 204.032 170.096C204.032 169.627 203.936 169.205 203.744 168.832C203.563 168.459 203.291 168.165 202.928 167.952C202.565 167.739 202.107 167.632 201.552 167.632H198.944V166.256H201.264C202.224 166.256 203.024 166.411 203.664 166.72C204.315 167.019 204.805 167.445 205.136 168C205.467 168.555 205.632 169.211 205.632 169.968V170.224C205.632 170.971 205.467 171.627 205.136 172.192C204.805 172.747 204.315 173.179 203.664 173.488C203.024 173.787 202.224 173.936 201.264 173.936H198.944ZM197.696 178V166.256H199.264V178H197.696ZM211.182 178.288C210.435 178.288 209.79 178.16 209.246 177.904C208.702 177.648 208.259 177.312 207.918 176.896C207.577 176.469 207.321 175.995 207.15 175.472C206.99 174.949 206.91 174.416 206.91 173.872V173.584C206.91 173.029 206.99 172.491 207.15 171.968C207.321 171.445 207.577 170.976 207.918 170.56C208.259 170.133 208.691 169.797 209.214 169.552C209.747 169.296 210.371 169.168 211.086 169.168C212.014 169.168 212.777 169.371 213.374 169.776C213.982 170.171 214.43 170.683 214.718 171.312C215.017 171.941 215.166 172.613 215.166 173.328V174.016H207.582V172.864H214.046L213.694 173.488C213.694 172.88 213.598 172.357 213.406 171.92C213.214 171.472 212.926 171.125 212.542 170.88C212.158 170.635 211.673 170.512 211.086 170.512C210.478 170.512 209.971 170.651 209.566 170.928C209.171 171.205 208.873 171.584 208.67 172.064C208.478 172.544 208.382 173.099 208.382 173.728C208.382 174.336 208.478 174.885 208.67 175.376C208.873 175.856 209.182 176.24 209.598 176.528C210.014 176.805 210.542 176.944 211.182 176.944C211.854 176.944 212.398 176.795 212.814 176.496C213.241 176.197 213.497 175.851 213.582 175.456H215.022C214.905 176.043 214.67 176.549 214.318 176.976C213.966 177.403 213.523 177.728 212.99 177.952C212.457 178.176 211.854 178.288 211.182 178.288ZM217.347 178V169.456H218.563V172.976H218.499C218.499 171.728 218.771 170.816 219.315 170.24C219.87 169.653 220.696 169.36 221.795 169.36H222.083V170.736H221.539C220.686 170.736 220.03 170.965 219.571 171.424C219.112 171.872 218.883 172.523 218.883 173.376V178H217.347ZM223.91 178V169.456H225.126V173.12H224.934C224.934 172.288 225.04 171.584 225.254 171.008C225.478 170.421 225.808 169.973 226.246 169.664C226.683 169.355 227.238 169.2 227.91 169.2H227.974C228.646 169.2 229.2 169.355 229.638 169.664C230.086 169.973 230.416 170.421 230.63 171.008C230.843 171.584 230.95 172.288 230.95 173.12H230.502C230.502 172.288 230.614 171.584 230.838 171.008C231.062 170.421 231.392 169.973 231.83 169.664C232.278 169.355 232.838 169.2 233.51 169.2H233.574C234.246 169.2 234.806 169.355 235.254 169.664C235.702 169.973 236.032 170.421 236.246 171.008C236.47 171.584 236.582 172.288 236.582 173.12V178H235.046V172.784C235.046 172.091 234.875 171.557 234.534 171.184C234.192 170.8 233.718 170.608 233.11 170.608C232.48 170.608 231.974 170.811 231.59 171.216C231.206 171.611 231.014 172.165 231.014 172.88V178H229.478V172.784C229.478 172.091 229.307 171.557 228.966 171.184C228.624 170.8 228.15 170.608 227.542 170.608C226.912 170.608 226.406 170.811 226.022 171.216C225.638 171.611 225.446 172.165 225.446 172.88V178H223.91ZM239.81 178V169.456H241.346V178H239.81ZM238.498 170.672V169.456H241.346V170.672H238.498ZM240.242 168.08C239.901 168.08 239.645 167.989 239.474 167.808C239.314 167.627 239.234 167.397 239.234 167.12C239.234 166.843 239.314 166.613 239.474 166.432C239.645 166.251 239.901 166.16 240.242 166.16C240.583 166.16 240.834 166.251 240.994 166.432C241.165 166.613 241.25 166.843 241.25 167.12C241.25 167.397 241.165 167.627 240.994 167.808C240.834 167.989 240.583 168.08 240.242 168.08ZM247.116 178.256C245.996 178.256 245.126 178.016 244.508 177.536C243.9 177.056 243.585 176.4 243.564 175.568H245.004C245.025 175.899 245.19 176.213 245.5 176.512C245.82 176.8 246.358 176.944 247.116 176.944C247.798 176.944 248.321 176.811 248.684 176.544C249.046 176.267 249.228 175.931 249.228 175.536C249.228 175.184 249.094 174.912 248.828 174.72C248.561 174.517 248.129 174.384 247.532 174.32L246.604 174.224C245.793 174.139 245.132 173.899 244.62 173.504C244.108 173.099 243.852 172.533 243.852 171.808C243.852 171.264 243.99 170.8 244.268 170.416C244.545 170.021 244.929 169.723 245.42 169.52C245.91 169.307 246.476 169.2 247.116 169.2C248.076 169.2 248.854 169.413 249.452 169.84C250.049 170.267 250.358 170.901 250.38 171.744H248.94C248.929 171.403 248.769 171.115 248.46 170.88C248.161 170.635 247.713 170.512 247.116 170.512C246.518 170.512 246.065 170.635 245.756 170.88C245.446 171.125 245.292 171.435 245.292 171.808C245.292 172.128 245.398 172.384 245.612 172.576C245.836 172.768 246.198 172.891 246.7 172.944L247.628 173.04C248.545 173.136 249.281 173.392 249.836 173.808C250.39 174.213 250.668 174.789 250.668 175.536C250.668 176.069 250.513 176.544 250.204 176.96C249.905 177.365 249.489 177.685 248.956 177.92C248.422 178.144 247.809 178.256 247.116 178.256ZM258.007 178.064V176.688H261.271C261.9 176.688 262.385 176.512 262.727 176.16C263.079 175.797 263.255 175.317 263.255 174.72C263.255 174.112 263.084 173.637 262.743 173.296C262.401 172.944 261.911 172.768 261.271 172.768H258.007V171.744H261.047C261.793 171.744 262.449 171.835 263.015 172.016C263.591 172.197 264.039 172.501 264.359 172.928C264.689 173.344 264.855 173.915 264.855 174.64V174.864C264.855 175.547 264.716 176.128 264.439 176.608C264.161 177.077 263.74 177.44 263.175 177.696C262.609 177.941 261.9 178.064 261.047 178.064H258.007ZM256.759 178.064V166.256H258.327V178.064H256.759ZM258.007 172.48V171.456H260.839C261.5 171.456 261.985 171.28 262.295 170.928C262.615 170.565 262.775 170.107 262.775 169.552C262.775 168.987 262.615 168.528 262.295 168.176C261.985 167.813 261.5 167.632 260.839 167.632H258.007V166.256H260.567C261.847 166.256 262.801 166.528 263.431 167.072C264.06 167.605 264.375 168.379 264.375 169.392V169.616C264.375 170.331 264.215 170.901 263.895 171.328C263.575 171.744 263.127 172.043 262.551 172.224C261.985 172.395 261.324 172.48 260.567 172.48H258.007Z" fill="#424242"/>
<path d="M202.768 60.288C201.701 60.288 200.789 60.1013 200.032 59.728C199.285 59.3547 198.683 58.8693 198.224 58.272C197.765 57.6747 197.429 57.0293 197.216 56.336C197.003 55.632 196.896 54.9547 196.896 54.304V53.952C196.896 53.248 197.003 52.544 197.216 51.84C197.44 51.136 197.781 50.496 198.24 49.92C198.699 49.344 199.296 48.88 200.032 48.528C200.768 48.176 201.648 48 202.672 48C203.717 48 204.613 48.1813 205.36 48.544C206.107 48.9067 206.699 49.4133 207.136 50.064C207.573 50.7147 207.84 51.4827 207.936 52.368H206.336C206.251 51.7067 206.037 51.1627 205.696 50.736C205.355 50.2987 204.923 49.9733 204.4 49.76C203.888 49.5467 203.312 49.44 202.672 49.44C201.979 49.44 201.371 49.5627 200.848 49.808C200.325 50.0427 199.888 50.3787 199.536 50.816C199.195 51.2427 198.933 51.7387 198.752 52.304C198.581 52.8693 198.496 53.4827 198.496 54.144C198.496 54.7733 198.581 55.3707 198.752 55.936C198.933 56.5013 199.2 57.0027 199.552 57.44C199.915 57.8773 200.363 58.224 200.896 58.48C201.429 58.7253 202.053 58.848 202.768 58.848C203.771 58.848 204.613 58.5973 205.296 58.096C205.979 57.5947 206.395 56.8693 206.544 55.92H208.144C208.037 56.72 207.765 57.4507 207.328 58.112C206.901 58.7733 206.304 59.3013 205.536 59.696C204.779 60.0907 203.856 60.288 202.768 60.288ZM214.127 60.288C213.38 60.288 212.724 60.16 212.159 59.904C211.593 59.648 211.113 59.312 210.719 58.896C210.335 58.4693 210.041 57.9947 209.839 57.472C209.647 56.9493 209.551 56.416 209.551 55.872V55.584C209.551 55.04 209.652 54.5067 209.855 53.984C210.057 53.4507 210.356 52.976 210.751 52.56C211.145 52.1333 211.625 51.7973 212.191 51.552C212.756 51.296 213.401 51.168 214.127 51.168C214.852 51.168 215.497 51.296 216.063 51.552C216.628 51.7973 217.108 52.1333 217.503 52.56C217.897 52.976 218.196 53.4507 218.399 53.984C218.601 54.5067 218.703 55.04 218.703 55.584V55.872C218.703 56.416 218.601 56.9493 218.399 57.472C218.207 57.9947 217.913 58.4693 217.519 58.896C217.135 59.312 216.66 59.648 216.095 59.904C215.529 60.16 214.873 60.288 214.127 60.288ZM214.127 58.912C214.767 58.912 215.311 58.7733 215.759 58.496C216.217 58.208 216.564 57.824 216.799 57.344C217.044 56.864 217.167 56.3253 217.167 55.728C217.167 55.12 217.044 54.576 216.799 54.096C216.553 53.616 216.201 53.2373 215.743 52.96C215.295 52.6827 214.756 52.544 214.127 52.544C213.508 52.544 212.969 52.6827 212.511 52.96C212.052 53.2373 211.7 53.616 211.455 54.096C211.209 54.576 211.087 55.12 211.087 55.728C211.087 56.3253 211.204 56.864 211.439 57.344C211.684 57.824 212.031 58.208 212.479 58.496C212.937 58.7733 213.487 58.912 214.127 58.912ZM221.003 60V51.456H222.219V55.12H222.027C222.027 54.2773 222.139 53.568 222.363 52.992C222.598 52.4053 222.95 51.9627 223.419 51.664C223.889 51.3547 224.481 51.2 225.195 51.2H225.259C226.337 51.2 227.131 51.536 227.643 52.208C228.166 52.88 228.427 53.8507 228.427 55.12V60H226.891V54.8C226.891 54.1387 226.705 53.6107 226.331 53.216C225.958 52.8107 225.446 52.608 224.795 52.608C224.123 52.608 223.579 52.816 223.163 53.232C222.747 53.648 222.539 54.2027 222.539 54.896V60H221.003ZM234.806 60.288C234.198 60.288 233.638 60.176 233.126 59.952C232.614 59.728 232.166 59.4133 231.782 59.008C231.408 58.6027 231.115 58.1333 230.902 57.6C230.699 57.0667 230.598 56.4907 230.598 55.872V55.584C230.598 54.976 230.699 54.4053 230.902 53.872C231.104 53.3387 231.387 52.8693 231.75 52.464C232.123 52.0587 232.56 51.744 233.062 51.52C233.574 51.2853 234.139 51.168 234.758 51.168C235.408 51.168 236 51.3067 236.534 51.584C237.067 51.8507 237.504 52.272 237.846 52.848C238.187 53.424 238.379 54.1707 238.422 55.088L237.782 54.064V48.32H239.318V60H238.102V56.208H238.55C238.507 57.1787 238.304 57.968 237.942 58.576C237.579 59.1733 237.12 59.6107 236.566 59.888C236.022 60.1547 235.435 60.288 234.806 60.288ZM235.014 58.944C235.536 58.944 236.011 58.8267 236.438 58.592C236.864 58.3573 237.206 58.0213 237.462 57.584C237.718 57.136 237.846 56.6133 237.846 56.016V55.28C237.846 54.6933 237.712 54.1973 237.446 53.792C237.19 53.376 236.843 53.0613 236.406 52.848C235.979 52.624 235.51 52.512 234.998 52.512C234.432 52.512 233.931 52.6453 233.494 52.912C233.067 53.1787 232.731 53.552 232.486 54.032C232.251 54.512 232.134 55.0773 232.134 55.728C232.134 56.3787 232.256 56.9493 232.502 57.44C232.747 57.92 233.088 58.2933 233.526 58.56C233.963 58.816 234.459 58.944 235.014 58.944ZM242.685 60V51.456H244.221V60H242.685ZM241.373 52.672V51.456H244.221V52.672H241.373ZM243.117 50.08C242.776 50.08 242.52 49.9893 242.349 49.808C242.189 49.6267 242.109 49.3973 242.109 49.12C242.109 48.8427 242.189 48.6133 242.349 48.432C242.52 48.2507 242.776 48.16 243.117 48.16C243.458 48.16 243.709 48.2507 243.869 48.432C244.04 48.6133 244.125 48.8427 244.125 49.12C244.125 49.3973 244.04 49.6267 243.869 49.808C243.709 49.9893 243.458 50.08 243.117 50.08ZM250.519 60.096C249.879 60.096 249.324 60.0053 248.855 59.824C248.396 59.6427 248.039 59.3333 247.783 58.896C247.537 58.448 247.415 57.8453 247.415 57.088V48.864H248.887V57.28C248.887 57.7387 249.009 58.096 249.255 58.352C249.511 58.5973 249.868 58.72 250.327 58.72H251.831V60.096H250.519ZM245.943 52.608V51.456H251.831V52.608H245.943ZM254.419 60V51.456H255.955V60H254.419ZM253.107 52.672V51.456H255.955V52.672H253.107ZM254.851 50.08C254.51 50.08 254.254 49.9893 254.083 49.808C253.923 49.6267 253.843 49.3973 253.843 49.12C253.843 48.8427 253.923 48.6133 254.083 48.432C254.254 48.2507 254.51 48.16 254.851 48.16C255.193 48.16 255.443 48.2507 255.603 48.432C255.774 48.6133 255.859 48.8427 255.859 49.12C255.859 49.3973 255.774 49.6267 255.603 49.808C255.443 49.9893 255.193 50.08 254.851 50.08ZM262.861 60.288C262.114 60.288 261.458 60.16 260.893 59.904C260.328 59.648 259.848 59.312 259.453 58.896C259.069 58.4693 258.776 57.9947 258.573 57.472C258.381 56.9493 258.285 56.416 258.285 55.872V55.584C258.285 55.04 258.386 54.5067 258.589 53.984C258.792 53.4507 259.09 52.976 259.485 52.56C259.88 52.1333 260.36 51.7973 260.925 51.552C261.49 51.296 262.136 51.168 262.861 51.168C263.586 51.168 264.232 51.296 264.797 51.552C265.362 51.7973 265.842 52.1333 266.237 52.56C266.632 52.976 266.93 53.4507 267.133 53.984C267.336 54.5067 267.437 55.04 267.437 55.584V55.872C267.437 56.416 267.336 56.9493 267.133 57.472C266.941 57.9947 266.648 58.4693 266.253 58.896C265.869 59.312 265.394 59.648 264.829 59.904C264.264 60.16 263.608 60.288 262.861 60.288ZM262.861 58.912C263.501 58.912 264.045 58.7733 264.493 58.496C264.952 58.208 265.298 57.824 265.533 57.344C265.778 56.864 265.901 56.3253 265.901 55.728C265.901 55.12 265.778 54.576 265.533 54.096C265.288 53.616 264.936 53.2373 264.477 52.96C264.029 52.6827 263.49 52.544 262.861 52.544C262.242 52.544 261.704 52.6827 261.245 52.96C260.786 53.2373 260.434 53.616 260.189 54.096C259.944 54.576 259.821 55.12 259.821 55.728C259.821 56.3253 259.938 56.864 260.173 57.344C260.418 57.824 260.765 58.208 261.213 58.496C261.672 58.7733 262.221 58.912 262.861 58.912ZM269.738 60V51.456H270.954V55.12H270.762C270.762 54.2773 270.874 53.568 271.098 52.992C271.332 52.4053 271.684 51.9627 272.154 51.664C272.623 51.3547 273.215 51.2 273.93 51.2H273.994C275.071 51.2 275.866 51.536 276.378 52.208C276.9 52.88 277.162 53.8507 277.162 55.12V60H275.626V54.8C275.626 54.1387 275.439 53.6107 275.066 53.216C274.692 52.8107 274.18 52.608 273.53 52.608C272.858 52.608 272.314 52.816 271.898 53.232C271.482 53.648 271.274 54.2027 271.274 54.896V60H269.738ZM283.613 63.2V51.456H284.829V55.152L284.541 55.12C284.594 54.2027 284.786 53.456 285.117 52.88C285.458 52.2933 285.901 51.8613 286.445 51.584C286.989 51.3067 287.581 51.168 288.221 51.168C288.839 51.168 289.399 51.2853 289.901 51.52C290.413 51.7547 290.85 52.0747 291.213 52.48C291.575 52.8853 291.853 53.3547 292.045 53.888C292.237 54.4213 292.333 54.9867 292.333 55.584V55.872C292.333 56.4693 292.231 57.0347 292.029 57.568C291.826 58.1013 291.538 58.5707 291.165 58.976C290.802 59.3813 290.365 59.7013 289.853 59.936C289.351 60.1707 288.797 60.288 288.189 60.288C287.581 60.288 286.999 60.1547 286.445 59.888C285.89 59.6213 285.431 59.1893 285.069 58.592C284.706 57.9947 284.498 57.2107 284.445 56.24L285.149 57.52V63.2H283.613ZM287.949 58.944C288.525 58.944 289.026 58.8107 289.453 58.544C289.879 58.2667 290.21 57.888 290.445 57.408C290.679 56.9173 290.797 56.3573 290.797 55.728C290.797 55.088 290.679 54.528 290.445 54.048C290.21 53.568 289.879 53.1947 289.453 52.928C289.026 52.6507 288.525 52.512 287.949 52.512C287.437 52.512 286.962 52.6293 286.525 52.864C286.087 53.088 285.735 53.4187 285.469 53.856C285.213 54.2827 285.085 54.8 285.085 55.408V56.144C285.085 56.7307 285.218 57.232 285.485 57.648C285.751 58.064 286.103 58.384 286.541 58.608C286.978 58.832 287.447 58.944 287.949 58.944ZM294.644 60V48.32H296.18V55.296H295.796C295.796 54.4533 295.903 53.728 296.116 53.12C296.34 52.5013 296.681 52.0267 297.14 51.696C297.599 51.3653 298.185 51.2 298.9 51.2H298.964C299.988 51.2 300.761 51.5413 301.284 52.224C301.807 52.896 302.068 53.8613 302.068 55.12V60H300.532V54.8C300.532 54.1067 300.335 53.568 299.94 53.184C299.556 52.8 299.055 52.608 298.436 52.608C297.753 52.608 297.204 52.8373 296.788 53.296C296.383 53.744 296.18 54.336 296.18 55.072V60H294.644ZM304.24 63.328V61.952H305.472C305.834 61.952 306.138 61.904 306.384 61.808C306.64 61.7227 306.848 61.5733 307.008 61.36C307.178 61.1467 307.317 60.864 307.424 60.512L310.112 51.456H311.616L308.768 60.912C308.597 61.4773 308.357 61.936 308.048 62.288C307.738 62.6507 307.36 62.912 306.912 63.072C306.474 63.2427 305.962 63.328 305.376 63.328H304.24ZM306.848 59.808V58.528H308.704V59.808H306.848ZM306.688 59.808L303.632 51.456H305.2L308.128 59.808H306.688ZM316.303 60.256C315.183 60.256 314.314 60.016 313.695 59.536C313.087 59.056 312.773 58.4 312.751 57.568H314.191C314.213 57.8987 314.378 58.2133 314.687 58.512C315.007 58.8 315.546 58.944 316.303 58.944C316.986 58.944 317.509 58.8107 317.871 58.544C318.234 58.2667 318.415 57.9307 318.415 57.536C318.415 57.184 318.282 56.912 318.015 56.72C317.749 56.5173 317.317 56.384 316.719 56.32L315.791 56.224C314.981 56.1387 314.319 55.8987 313.807 55.504C313.295 55.0987 313.039 54.5333 313.039 53.808C313.039 53.264 313.178 52.8 313.455 52.416C313.733 52.0213 314.117 51.7227 314.607 51.52C315.098 51.3067 315.663 51.2 316.303 51.2C317.263 51.2 318.042 51.4133 318.639 51.84C319.237 52.2667 319.546 52.9013 319.567 53.744H318.127C318.117 53.4027 317.957 53.1147 317.647 52.88C317.349 52.6347 316.901 52.512 316.303 52.512C315.706 52.512 315.253 52.6347 314.943 52.88C314.634 53.1253 314.479 53.4347 314.479 53.808C314.479 54.128 314.586 54.384 314.799 54.576C315.023 54.768 315.386 54.8907 315.887 54.944L316.815 55.04C317.733 55.136 318.469 55.392 319.023 55.808C319.578 56.2133 319.855 56.7893 319.855 57.536C319.855 58.0693 319.701 58.544 319.391 58.96C319.093 59.3653 318.677 59.6853 318.143 59.92C317.61 60.144 316.997 60.256 316.303 60.256ZM322.497 60V51.456H324.033V60H322.497ZM321.185 52.672V51.456H324.033V52.672H321.185ZM322.929 50.08C322.588 50.08 322.332 49.9893 322.161 49.808C322.001 49.6267 321.921 49.3973 321.921 49.12C321.921 48.8427 322.001 48.6133 322.161 48.432C322.332 48.2507 322.588 48.16 322.929 48.16C323.271 48.16 323.521 48.2507 323.681 48.432C323.852 48.6133 323.937 48.8427 323.937 49.12C323.937 49.3973 323.852 49.6267 323.681 49.808C323.521 49.9893 323.271 50.08 322.929 50.08ZM333.547 63.2V57.456L334.155 56.24C334.123 57.168 333.937 57.9307 333.595 58.528C333.254 59.1253 332.811 59.568 332.267 59.856C331.734 60.144 331.147 60.288 330.507 60.288C329.899 60.288 329.339 60.1707 328.827 59.936C328.326 59.7013 327.889 59.376 327.515 58.96C327.153 58.544 326.87 58.0693 326.667 57.536C326.465 56.992 326.363 56.416 326.363 55.808V55.52C326.363 54.912 326.465 54.3467 326.667 53.824C326.87 53.3013 327.158 52.8427 327.531 52.448C327.905 52.0427 328.347 51.728 328.859 51.504C329.371 51.28 329.942 51.168 330.571 51.168C331.297 51.168 331.931 51.3227 332.475 51.632C333.03 51.9413 333.467 52.3893 333.787 52.976C334.107 53.5627 334.283 54.2773 334.315 55.12H333.867V51.456H335.083V63.2H333.547ZM330.779 58.88C331.302 58.88 331.777 58.7627 332.203 58.528C332.63 58.2933 332.971 57.9573 333.227 57.52C333.483 57.072 333.611 56.5493 333.611 55.952V55.216C333.611 54.6293 333.478 54.1333 333.211 53.728C332.955 53.312 332.609 52.9973 332.171 52.784C331.745 52.56 331.281 52.448 330.779 52.448C330.203 52.448 329.697 52.5813 329.259 52.848C328.833 53.1147 328.497 53.4933 328.251 53.984C328.017 54.464 327.899 55.024 327.899 55.664C327.899 56.304 328.022 56.8693 328.267 57.36C328.513 57.84 328.854 58.2133 329.291 58.48C329.729 58.7467 330.225 58.88 330.779 58.88ZM340.995 60.256C339.981 60.256 339.203 59.9253 338.659 59.264C338.115 58.6027 337.843 57.648 337.843 56.4V51.44H339.379V56.704C339.379 57.376 339.56 57.904 339.923 58.288C340.285 58.6613 340.776 58.848 341.395 58.848C342.035 58.848 342.557 58.6453 342.963 58.24C343.368 57.824 343.571 57.2587 343.571 56.544V51.44H345.107V60H343.891V56.336H344.083C344.083 57.1787 343.971 57.8933 343.747 58.48C343.523 59.056 343.187 59.4987 342.739 59.808C342.301 60.1067 341.741 60.256 341.059 60.256H340.995ZM351.713 60.288C350.967 60.288 350.321 60.16 349.777 59.904C349.233 59.648 348.791 59.312 348.449 58.896C348.108 58.4693 347.852 57.9947 347.681 57.472C347.521 56.9493 347.441 56.416 347.441 55.872V55.584C347.441 55.0293 347.521 54.4907 347.681 53.968C347.852 53.4453 348.108 52.976 348.449 52.56C348.791 52.1333 349.223 51.7973 349.745 51.552C350.279 51.296 350.903 51.168 351.617 51.168C352.545 51.168 353.308 51.3707 353.905 51.776C354.513 52.1707 354.961 52.6827 355.249 53.312C355.548 53.9413 355.697 54.6133 355.697 55.328V56.016H348.113V54.864H354.577L354.225 55.488C354.225 54.88 354.129 54.3573 353.937 53.92C353.745 53.472 353.457 53.1253 353.073 52.88C352.689 52.6347 352.204 52.512 351.617 52.512C351.009 52.512 350.503 52.6507 350.097 52.928C349.703 53.2053 349.404 53.584 349.201 54.064C349.009 54.544 348.913 55.0987 348.913 55.728C348.913 56.336 349.009 56.8853 349.201 57.376C349.404 57.856 349.713 58.24 350.129 58.528C350.545 58.8053 351.073 58.944 351.713 58.944C352.385 58.944 352.929 58.7947 353.345 58.496C353.772 58.1973 354.028 57.8507 354.113 57.456H355.553C355.436 58.0427 355.201 58.5493 354.849 58.976C354.497 59.4027 354.055 59.728 353.521 59.952C352.988 60.176 352.385 60.288 351.713 60.288Z" fill="#424242"/>
<path d="M202.768 119.288C201.701 119.288 200.789 119.101 200.032 118.728C199.285 118.355 198.683 117.869 198.224 117.272C197.765 116.675 197.429 116.029 197.216 115.336C197.003 114.632 196.896 113.955 196.896 113.304V112.952C196.896 112.248 197.003 111.544 197.216 110.84C197.44 110.136 197.781 109.496 198.24 108.92C198.699 108.344 199.296 107.88 200.032 107.528C200.768 107.176 201.648 107 202.672 107C203.717 107 204.613 107.181 205.36 107.544C206.107 107.907 206.699 108.413 207.136 109.064C207.573 109.715 207.84 110.483 207.936 111.368H206.336C206.251 110.707 206.037 110.163 205.696 109.736C205.355 109.299 204.923 108.973 204.4 108.76C203.888 108.547 203.312 108.44 202.672 108.44C201.979 108.44 201.371 108.563 200.848 108.808C200.325 109.043 199.888 109.379 199.536 109.816C199.195 110.243 198.933 110.739 198.752 111.304C198.581 111.869 198.496 112.483 198.496 113.144C198.496 113.773 198.581 114.371 198.752 114.936C198.933 115.501 199.2 116.003 199.552 116.44C199.915 116.877 200.363 117.224 200.896 117.48C201.429 117.725 202.053 117.848 202.768 117.848C203.771 117.848 204.613 117.597 205.296 117.096C205.979 116.595 206.395 115.869 206.544 114.92H208.144C208.037 115.72 207.765 116.451 207.328 117.112C206.901 117.773 206.304 118.301 205.536 118.696C204.779 119.091 203.856 119.288 202.768 119.288ZM214.127 119.288C213.38 119.288 212.724 119.16 212.159 118.904C211.593 118.648 211.113 118.312 210.719 117.896C210.335 117.469 210.041 116.995 209.839 116.472C209.647 115.949 209.551 115.416 209.551 114.872V114.584C209.551 114.04 209.652 113.507 209.855 112.984C210.057 112.451 210.356 111.976 210.751 111.56C211.145 111.133 211.625 110.797 212.191 110.552C212.756 110.296 213.401 110.168 214.127 110.168C214.852 110.168 215.497 110.296 216.063 110.552C216.628 110.797 217.108 111.133 217.503 111.56C217.897 111.976 218.196 112.451 218.399 112.984C218.601 113.507 218.703 114.04 218.703 114.584V114.872C218.703 115.416 218.601 115.949 218.399 116.472C218.207 116.995 217.913 117.469 217.519 117.896C217.135 118.312 216.66 118.648 216.095 118.904C215.529 119.16 214.873 119.288 214.127 119.288ZM214.127 117.912C214.767 117.912 215.311 117.773 215.759 117.496C216.217 117.208 216.564 116.824 216.799 116.344C217.044 115.864 217.167 115.325 217.167 114.728C217.167 114.12 217.044 113.576 216.799 113.096C216.553 112.616 216.201 112.237 215.743 111.96C215.295 111.683 214.756 111.544 214.127 111.544C213.508 111.544 212.969 111.683 212.511 111.96C212.052 112.237 211.7 112.616 211.455 113.096C211.209 113.576 211.087 114.12 211.087 114.728C211.087 115.325 211.204 115.864 211.439 116.344C211.684 116.824 212.031 117.208 212.479 117.496C212.937 117.773 213.487 117.912 214.127 117.912ZM221.003 119V110.456H222.219V114.12H222.027C222.027 113.288 222.134 112.584 222.347 112.008C222.571 111.421 222.902 110.973 223.339 110.664C223.777 110.355 224.331 110.2 225.003 110.2H225.067C225.739 110.2 226.294 110.355 226.731 110.664C227.179 110.973 227.51 111.421 227.723 112.008C227.937 112.584 228.043 113.288 228.043 114.12H227.595C227.595 113.288 227.707 112.584 227.931 112.008C228.155 111.421 228.486 110.973 228.923 110.664C229.371 110.355 229.931 110.2 230.603 110.2H230.667C231.339 110.2 231.899 110.355 232.347 110.664C232.795 110.973 233.126 111.421 233.339 112.008C233.563 112.584 233.675 113.288 233.675 114.12V119H232.139V113.784C232.139 113.091 231.969 112.557 231.627 112.184C231.286 111.8 230.811 111.608 230.203 111.608C229.574 111.608 229.067 111.811 228.683 112.216C228.299 112.611 228.107 113.165 228.107 113.88V119H226.571V113.784C226.571 113.091 226.401 112.557 226.059 112.184C225.718 111.8 225.243 111.608 224.635 111.608C224.006 111.608 223.499 111.811 223.115 112.216C222.731 112.611 222.539 113.165 222.539 113.88V119H221.003ZM236.488 122.2V110.456H237.704V114.152L237.416 114.12C237.469 113.203 237.661 112.456 237.992 111.88C238.333 111.293 238.776 110.861 239.32 110.584C239.864 110.307 240.456 110.168 241.096 110.168C241.714 110.168 242.274 110.285 242.776 110.52C243.288 110.755 243.725 111.075 244.088 111.48C244.45 111.885 244.728 112.355 244.92 112.888C245.112 113.421 245.208 113.987 245.208 114.584V114.872C245.208 115.469 245.106 116.035 244.904 116.568C244.701 117.101 244.413 117.571 244.04 117.976C243.677 118.381 243.24 118.701 242.728 118.936C242.226 119.171 241.672 119.288 241.064 119.288C240.456 119.288 239.874 119.155 239.32 118.888C238.765 118.621 238.306 118.189 237.944 117.592C237.581 116.995 237.373 116.211 237.32 115.24L238.024 116.52V122.2H236.488ZM240.824 117.944C241.4 117.944 241.901 117.811 242.328 117.544C242.754 117.267 243.085 116.888 243.32 116.408C243.554 115.917 243.672 115.357 243.672 114.728C243.672 114.088 243.554 113.528 243.32 113.048C243.085 112.568 242.754 112.195 242.328 111.928C241.901 111.651 241.4 111.512 240.824 111.512C240.312 111.512 239.837 111.629 239.4 111.864C238.962 112.088 238.61 112.419 238.344 112.856C238.088 113.283 237.96 113.8 237.96 114.408V115.144C237.96 115.731 238.093 116.232 238.36 116.648C238.626 117.064 238.978 117.384 239.416 117.608C239.853 117.832 240.322 117.944 240.824 117.944ZM251.151 119.288C250.404 119.288 249.759 119.16 249.215 118.904C248.671 118.648 248.228 118.312 247.887 117.896C247.546 117.469 247.29 116.995 247.119 116.472C246.959 115.949 246.879 115.416 246.879 114.872V114.584C246.879 114.029 246.959 113.491 247.119 112.968C247.29 112.445 247.546 111.976 247.887 111.56C248.228 111.133 248.66 110.797 249.183 110.552C249.716 110.296 250.34 110.168 251.055 110.168C251.983 110.168 252.746 110.371 253.343 110.776C253.951 111.171 254.399 111.683 254.687 112.312C254.986 112.941 255.135 113.613 255.135 114.328V115.016H247.551V113.864H254.015L253.663 114.488C253.663 113.88 253.567 113.357 253.375 112.92C253.183 112.472 252.895 112.125 252.511 111.88C252.127 111.635 251.642 111.512 251.055 111.512C250.447 111.512 249.94 111.651 249.535 111.928C249.14 112.205 248.842 112.584 248.639 113.064C248.447 113.544 248.351 114.099 248.351 114.728C248.351 115.336 248.447 115.885 248.639 116.376C248.842 116.856 249.151 117.24 249.567 117.528C249.983 117.805 250.511 117.944 251.151 117.944C251.823 117.944 252.367 117.795 252.783 117.496C253.21 117.197 253.466 116.851 253.551 116.456H254.991C254.874 117.043 254.639 117.549 254.287 117.976C253.935 118.403 253.492 118.728 252.959 118.952C252.426 119.176 251.823 119.288 251.151 119.288ZM250.271 109.208L251.679 106.04H253.295L251.519 109.208H250.271ZM260.644 119.096C260.004 119.096 259.449 119.005 258.98 118.824C258.521 118.643 258.164 118.333 257.908 117.896C257.662 117.448 257.54 116.845 257.54 116.088V107.864H259.012V116.28C259.012 116.739 259.134 117.096 259.38 117.352C259.636 117.597 259.993 117.72 260.452 117.72H261.956V119.096H260.644ZM256.068 111.608V110.456H261.956V111.608H256.068ZM267.698 119.288C266.951 119.288 266.306 119.16 265.762 118.904C265.218 118.648 264.775 118.312 264.434 117.896C264.092 117.469 263.836 116.995 263.666 116.472C263.506 115.949 263.426 115.416 263.426 114.872V114.584C263.426 114.029 263.506 113.491 263.666 112.968C263.836 112.445 264.092 111.976 264.434 111.56C264.775 111.133 265.207 110.797 265.73 110.552C266.263 110.296 266.887 110.168 267.602 110.168C268.53 110.168 269.292 110.371 269.89 110.776C270.498 111.171 270.946 111.683 271.234 112.312C271.532 112.941 271.682 113.613 271.682 114.328V115.016H264.098V113.864H270.562L270.21 114.488C270.21 113.88 270.114 113.357 269.922 112.92C269.73 112.472 269.442 112.125 269.058 111.88C268.674 111.635 268.188 111.512 267.602 111.512C266.994 111.512 266.487 111.651 266.082 111.928C265.687 112.205 265.388 112.584 265.186 113.064C264.994 113.544 264.898 114.099 264.898 114.728C264.898 115.336 264.994 115.885 265.186 116.376C265.388 116.856 265.698 117.24 266.114 117.528C266.53 117.805 267.058 117.944 267.698 117.944C268.37 117.944 268.914 117.795 269.33 117.496C269.756 117.197 270.012 116.851 270.098 116.456H271.538C271.42 117.043 271.186 117.549 270.834 117.976C270.482 118.403 270.039 118.728 269.506 118.952C268.972 119.176 268.37 119.288 267.698 119.288ZM273.863 119V110.456H275.079V114.12H274.887C274.887 113.277 274.999 112.568 275.223 111.992C275.457 111.405 275.809 110.963 276.279 110.664C276.748 110.355 277.34 110.2 278.055 110.2H278.119C279.196 110.2 279.991 110.536 280.503 111.208C281.025 111.88 281.287 112.851 281.287 114.12V119H279.751V113.8C279.751 113.139 279.564 112.611 279.191 112.216C278.817 111.811 278.305 111.608 277.655 111.608C276.983 111.608 276.439 111.816 276.023 112.232C275.607 112.648 275.399 113.203 275.399 113.896V119H273.863ZM287.761 119.288C287.025 119.288 286.385 119.16 285.841 118.904C285.308 118.648 284.865 118.307 284.513 117.88C284.161 117.443 283.894 116.963 283.713 116.44C283.542 115.917 283.457 115.395 283.457 114.872V114.584C283.457 114.04 283.542 113.507 283.713 112.984C283.894 112.461 284.161 111.992 284.513 111.576C284.876 111.149 285.324 110.808 285.857 110.552C286.39 110.296 287.014 110.168 287.729 110.168C288.444 110.168 289.084 110.301 289.649 110.568C290.225 110.835 290.684 111.213 291.025 111.704C291.377 112.184 291.574 112.755 291.617 113.416H290.145C290.07 112.883 289.825 112.44 289.409 112.088C288.993 111.725 288.433 111.544 287.729 111.544C287.121 111.544 286.614 111.683 286.209 111.96C285.804 112.237 285.5 112.616 285.297 113.096C285.094 113.576 284.993 114.12 284.993 114.728C284.993 115.315 285.094 115.853 285.297 116.344C285.5 116.824 285.804 117.208 286.209 117.496C286.625 117.773 287.142 117.912 287.761 117.912C288.241 117.912 288.657 117.827 289.009 117.656C289.361 117.485 289.644 117.256 289.857 116.968C290.07 116.68 290.198 116.355 290.241 115.992H291.713C291.681 116.664 291.484 117.245 291.121 117.736C290.769 118.227 290.3 118.611 289.713 118.888C289.137 119.155 288.486 119.288 287.761 119.288ZM297.432 119.288C296.685 119.288 296.04 119.16 295.496 118.904C294.952 118.648 294.509 118.312 294.168 117.896C293.827 117.469 293.571 116.995 293.4 116.472C293.24 115.949 293.16 115.416 293.16 114.872V114.584C293.16 114.029 293.24 113.491 293.4 112.968C293.571 112.445 293.827 111.976 294.168 111.56C294.509 111.133 294.941 110.797 295.464 110.552C295.997 110.296 296.621 110.168 297.336 110.168C298.264 110.168 299.027 110.371 299.624 110.776C300.232 111.171 300.68 111.683 300.968 112.312C301.267 112.941 301.416 113.613 301.416 114.328V115.016H293.832V113.864H300.296L299.944 114.488C299.944 113.88 299.848 113.357 299.656 112.92C299.464 112.472 299.176 112.125 298.792 111.88C298.408 111.635 297.923 111.512 297.336 111.512C296.728 111.512 296.221 111.651 295.816 111.928C295.421 112.205 295.123 112.584 294.92 113.064C294.728 113.544 294.632 114.099 294.632 114.728C294.632 115.336 294.728 115.885 294.92 116.376C295.123 116.856 295.432 117.24 295.848 117.528C296.264 117.805 296.792 117.944 297.432 117.944C298.104 117.944 298.648 117.795 299.064 117.496C299.491 117.197 299.747 116.851 299.832 116.456H301.272C301.155 117.043 300.92 117.549 300.568 117.976C300.216 118.403 299.773 118.728 299.24 118.952C298.707 119.176 298.104 119.288 297.432 119.288ZM306.397 119.256C305.277 119.256 304.408 119.016 303.789 118.536C303.181 118.056 302.866 117.4 302.845 116.568H304.285C304.306 116.899 304.472 117.213 304.781 117.512C305.101 117.8 305.64 117.944 306.397 117.944C307.08 117.944 307.602 117.811 307.965 117.544C308.328 117.267 308.509 116.931 308.509 116.536C308.509 116.184 308.376 115.912 308.109 115.72C307.842 115.517 307.41 115.384 306.813 115.32L305.885 115.224C305.074 115.139 304.413 114.899 303.901 114.504C303.389 114.099 303.133 113.533 303.133 112.808C303.133 112.264 303.272 111.8 303.549 111.416C303.826 111.021 304.21 110.723 304.701 110.52C305.192 110.307 305.757 110.2 306.397 110.2C307.357 110.2 308.136 110.413 308.733 110.84C309.33 111.267 309.64 111.901 309.661 112.744H308.221C308.21 112.403 308.05 112.115 307.741 111.88C307.442 111.635 306.994 111.512 306.397 111.512C305.8 111.512 305.346 111.635 305.037 111.88C304.728 112.125 304.573 112.435 304.573 112.808C304.573 113.128 304.68 113.384 304.893 113.576C305.117 113.768 305.48 113.891 305.981 113.944L306.909 114.04C307.826 114.136 308.562 114.392 309.117 114.808C309.672 115.213 309.949 115.789 309.949 116.536C309.949 117.069 309.794 117.544 309.485 117.96C309.186 118.365 308.77 118.685 308.237 118.92C307.704 119.144 307.09 119.256 306.397 119.256ZM315.816 119V110.456H317.032V114.12H316.84C316.84 113.277 316.952 112.568 317.176 111.992C317.41 111.405 317.762 110.963 318.232 110.664C318.701 110.355 319.293 110.2 320.008 110.2H320.072C321.149 110.2 321.944 110.536 322.456 111.208C322.978 111.88 323.24 112.851 323.24 114.12V119H321.704V113.8C321.704 113.139 321.517 112.611 321.144 112.216C320.77 111.811 320.258 111.608 319.608 111.608C318.936 111.608 318.392 111.816 317.976 112.232C317.56 112.648 317.352 113.203 317.352 113.896V119H315.816ZM329.01 119.256C327.997 119.256 327.218 118.925 326.674 118.264C326.13 117.603 325.858 116.648 325.858 115.4V110.44H327.394V115.704C327.394 116.376 327.575 116.904 327.938 117.288C328.301 117.661 328.791 117.848 329.41 117.848C330.05 117.848 330.573 117.645 330.978 117.24C331.383 116.824 331.586 116.259 331.586 115.544V110.44H333.122V119H331.906V115.336H332.098C332.098 116.179 331.986 116.893 331.762 117.48C331.538 118.056 331.202 118.499 330.754 118.808C330.317 119.107 329.757 119.256 329.074 119.256H329.01ZM336.097 119V110.456H337.313V114.12H337.121C337.121 113.288 337.228 112.584 337.441 112.008C337.665 111.421 337.996 110.973 338.433 110.664C338.87 110.355 339.425 110.2 340.097 110.2H340.161C340.833 110.2 341.388 110.355 341.825 110.664C342.273 110.973 342.604 111.421 342.817 112.008C343.03 112.584 343.137 113.288 343.137 114.12H342.689C342.689 113.288 342.801 112.584 343.025 112.008C343.249 111.421 343.58 110.973 344.017 110.664C344.465 110.355 345.025 110.2 345.697 110.2H345.761C346.433 110.2 346.993 110.355 347.441 110.664C347.889 110.973 348.22 111.421 348.433 112.008C348.657 112.584 348.769 113.288 348.769 114.12V119H347.233V113.784C347.233 113.091 347.062 112.557 346.721 112.184C346.38 111.8 345.905 111.608 345.297 111.608C344.668 111.608 344.161 111.811 343.777 112.216C343.393 112.611 343.201 113.165 343.201 113.88V119H341.665V113.784C341.665 113.091 341.494 112.557 341.153 112.184C340.812 111.8 340.337 111.608 339.729 111.608C339.1 111.608 338.593 111.811 338.209 112.216C337.825 112.611 337.633 113.165 337.633 113.88V119H336.097ZM355.213 119.288C354.467 119.288 353.821 119.16 353.277 118.904C352.733 118.648 352.291 118.312 351.949 117.896C351.608 117.469 351.352 116.995 351.181 116.472C351.021 115.949 350.941 115.416 350.941 114.872V114.584C350.941 114.029 351.021 113.491 351.181 112.968C351.352 112.445 351.608 111.976 351.949 111.56C352.291 111.133 352.723 110.797 353.245 110.552C353.779 110.296 354.403 110.168 355.117 110.168C356.045 110.168 356.808 110.371 357.405 110.776C358.013 111.171 358.461 111.683 358.749 112.312C359.048 112.941 359.197 113.613 359.197 114.328V115.016H351.613V113.864H358.077L357.725 114.488C357.725 113.88 357.629 113.357 357.437 112.92C357.245 112.472 356.957 112.125 356.573 111.88C356.189 111.635 355.704 111.512 355.117 111.512C354.509 111.512 354.003 111.651 353.597 111.928C353.203 112.205 352.904 112.584 352.701 113.064C352.509 113.544 352.413 114.099 352.413 114.728C352.413 115.336 352.509 115.885 352.701 116.376C352.904 116.856 353.213 117.24 353.629 117.528C354.045 117.805 354.573 117.944 355.213 117.944C355.885 117.944 356.429 117.795 356.845 117.496C357.272 117.197 357.528 116.851 357.613 116.456H359.053C358.936 117.043 358.701 117.549 358.349 117.976C357.997 118.403 357.555 118.728 357.021 118.952C356.488 119.176 355.885 119.288 355.213 119.288ZM354.333 109.208L355.741 106.04H357.357L355.581 109.208H354.333ZM361.378 119V110.456H362.594V113.976H362.53C362.53 112.728 362.802 111.816 363.346 111.24C363.901 110.653 364.728 110.36 365.826 110.36H366.114V111.736H365.57C364.717 111.736 364.061 111.965 363.602 112.424C363.144 112.872 362.914 113.523 362.914 114.376V119H361.378ZM368.357 119V110.456H369.893V119H368.357ZM367.045 111.672V110.456H369.893V111.672H367.045ZM368.789 109.08C368.447 109.08 368.191 108.989 368.021 108.808C367.861 108.627 367.781 108.397 367.781 108.12C367.781 107.843 367.861 107.613 368.021 107.432C368.191 107.251 368.447 107.16 368.789 107.16C369.13 107.16 369.381 107.251 369.541 107.432C369.711 107.613 369.797 107.843 369.797 108.12C369.797 108.397 369.711 108.627 369.541 108.808C369.381 108.989 369.13 109.08 368.789 109.08ZM379.407 122.2V116.456L380.015 115.24C379.983 116.168 379.796 116.931 379.455 117.528C379.113 118.125 378.671 118.568 378.127 118.856C377.593 119.144 377.007 119.288 376.367 119.288C375.759 119.288 375.199 119.171 374.687 118.936C374.185 118.701 373.748 118.376 373.375 117.96C373.012 117.544 372.729 117.069 372.527 116.536C372.324 115.992 372.223 115.416 372.223 114.808V114.52C372.223 113.912 372.324 113.347 372.527 112.824C372.729 112.301 373.017 111.843 373.391 111.448C373.764 111.043 374.207 110.728 374.719 110.504C375.231 110.28 375.801 110.168 376.431 110.168C377.156 110.168 377.791 110.323 378.335 110.632C378.889 110.941 379.327 111.389 379.647 111.976C379.967 112.563 380.143 113.277 380.175 114.12H379.727V110.456H380.943V122.2H379.407ZM376.639 117.88C377.161 117.88 377.636 117.763 378.063 117.528C378.489 117.293 378.831 116.957 379.087 116.52C379.343 116.072 379.471 115.549 379.471 114.952V114.216C379.471 113.629 379.337 113.133 379.071 112.728C378.815 112.312 378.468 111.997 378.031 111.784C377.604 111.56 377.14 111.448 376.639 111.448C376.063 111.448 375.556 111.581 375.119 111.848C374.692 112.115 374.356 112.493 374.111 112.984C373.876 113.464 373.759 114.024 373.759 114.664C373.759 115.304 373.881 115.869 374.127 116.36C374.372 116.84 374.713 117.213 375.151 117.48C375.588 117.747 376.084 117.88 376.639 117.88ZM386.854 119.256C385.841 119.256 385.062 118.925 384.518 118.264C383.974 117.603 383.702 116.648 383.702 115.4V110.44H385.238V115.704C385.238 116.376 385.419 116.904 385.782 117.288C386.145 117.661 386.635 117.848 387.254 117.848C387.894 117.848 388.417 117.645 388.822 117.24C389.227 116.824 389.43 116.259 389.43 115.544V110.44H390.966V119H389.75V115.336H389.942C389.942 116.179 389.83 116.893 389.606 117.48C389.382 118.056 389.046 118.499 388.598 118.808C388.161 119.107 387.601 119.256 386.918 119.256H386.854ZM397.573 119.288C396.826 119.288 396.181 119.16 395.637 118.904C395.093 118.648 394.65 118.312 394.309 117.896C393.967 117.469 393.711 116.995 393.541 116.472C393.381 115.949 393.301 115.416 393.301 114.872V114.584C393.301 114.029 393.381 113.491 393.541 112.968C393.711 112.445 393.967 111.976 394.309 111.56C394.65 111.133 395.082 110.797 395.605 110.552C396.138 110.296 396.762 110.168 397.477 110.168C398.405 110.168 399.167 110.371 399.765 110.776C400.373 111.171 400.821 111.683 401.109 112.312C401.407 112.941 401.557 113.613 401.557 114.328V115.016H393.973V113.864H400.437L400.085 114.488C400.085 113.88 399.989 113.357 399.797 112.92C399.605 112.472 399.317 112.125 398.933 111.88C398.549 111.635 398.063 111.512 397.477 111.512C396.869 111.512 396.362 111.651 395.957 111.928C395.562 112.205 395.263 112.584 395.061 113.064C394.869 113.544 394.773 114.099 394.773 114.728C394.773 115.336 394.869 115.885 395.061 116.376C395.263 116.856 395.573 117.24 395.989 117.528C396.405 117.805 396.933 117.944 397.573 117.944C398.245 117.944 398.789 117.795 399.205 117.496C399.631 117.197 399.887 116.851 399.973 116.456H401.413C401.295 117.043 401.061 117.549 400.709 117.976C400.357 118.403 399.914 118.728 399.381 118.952C398.847 119.176 398.245 119.288 397.573 119.288ZM406.538 119.256C405.418 119.256 404.548 119.016 403.93 118.536C403.322 118.056 403.007 117.4 402.986 116.568H404.426C404.447 116.899 404.612 117.213 404.922 117.512C405.242 117.8 405.78 117.944 406.538 117.944C407.22 117.944 407.743 117.811 408.106 117.544C408.468 117.267 408.65 116.931 408.65 116.536C408.65 116.184 408.516 115.912 408.25 115.72C407.983 115.517 407.551 115.384 406.954 115.32L406.026 115.224C405.215 115.139 404.554 114.899 404.042 114.504C403.53 114.099 403.274 113.533 403.274 112.808C403.274 112.264 403.412 111.8 403.69 111.416C403.967 111.021 404.351 110.723 404.842 110.52C405.332 110.307 405.898 110.2 406.538 110.2C407.498 110.2 408.276 110.413 408.874 110.84C409.471 111.267 409.78 111.901 409.802 112.744H408.362C408.351 112.403 408.191 112.115 407.882 111.88C407.583 111.635 407.135 111.512 406.538 111.512C405.94 111.512 405.487 111.635 405.178 111.88C404.868 112.125 404.714 112.435 404.714 112.808C404.714 113.128 404.82 113.384 405.034 113.576C405.258 113.768 405.62 113.891 406.122 113.944L407.05 114.04C407.967 114.136 408.703 114.392 409.258 114.808C409.812 115.213 410.09 115.789 410.09 116.536C410.09 117.069 409.935 117.544 409.626 117.96C409.327 118.365 408.911 118.685 408.378 118.92C407.844 119.144 407.231 119.256 406.538 119.256Z" fill="#424242"/>
<circle cx="205.5" cy="84.5" r="5.5" fill="#0C76F8"/>
<circle cx="205.5" cy="84.5" r="8.5" stroke="#0C76F8" stroke-width="2"/>
<circle cx="205.5" cy="202.5" r="5.5" fill="#0C76F8"/>
<circle cx="205.5" cy="202.5" r="8.5" stroke="#0C76F8" stroke-width="2"/>
<circle cx="205.5" cy="143.5" r="5.5" fill="#0C76F8"/>
<circle cx="205.5" cy="143.5" r="8.5" stroke="#0C76F8" stroke-width="2"/>
<circle cx="234.5" cy="84.5" r="5.5" fill="#0C76F8"/>
<circle cx="234.5" cy="84.5" r="8.5" stroke="#0C76F8" stroke-width="2"/>
<circle cx="234.5" cy="143.5" r="5.5" fill="#0C76F8"/>
<circle cx="234.5" cy="143.5" r="8.5" stroke="#0C76F8" stroke-width="2"/>
<circle cx="292.5" cy="84.5" r="5.5" fill="#0C76F8"/>
<circle cx="292.5" cy="84.5" r="8.5" stroke="#0C76F8" stroke-width="2"/>
<circle cx="292.5" cy="143.5" r="5.5" fill="#0C76F8"/>
<circle cx="292.5" cy="143.5" r="8.5" stroke="#0C76F8" stroke-width="2"/>
<circle cx="263.5" cy="84.5" r="5.5" fill="#0C76F8"/>
<circle cx="263.5" cy="84.5" r="8.5" stroke="#0C76F8" stroke-width="2"/>
<circle cx="263.5" cy="143.5" r="5.5" fill="#0C76F8"/>
<circle cx="263.5" cy="143.5" r="8.5" stroke="#0C76F8" stroke-width="2"/>
<circle cx="321.5" cy="84.5" r="5.5" fill="#0C76F8"/>
<circle cx="321.5" cy="84.5" r="8.5" stroke="#0C76F8" stroke-width="2"/>
<circle cx="321.5" cy="143.5" r="5.5" fill="#0C76F8"/>
<circle cx="321.5" cy="143.5" r="8.5" stroke="#0C76F8" stroke-width="2"/>
<path d="M30.24 19.08V16.44H33.26C34.02 16.44 34.6933 16.3267 35.28 16.1C35.88 15.86 36.3867 15.5267 36.8 15.1C37.2133 14.6733 37.5267 14.1733 37.74 13.6C37.9667 13.0133 38.08 12.3667 38.08 11.66C38.08 10.9267 37.9667 10.2733 37.74 9.7C37.5267 9.11333 37.2133 8.61333 36.8 8.2C36.3867 7.78667 35.88 7.47333 35.28 7.26C34.6933 7.04667 34.02 6.94 33.26 6.94H30.24V4.3H33.08C34.4 4.3 35.5533 4.49333 36.54 4.88C37.5267 5.26667 38.3467 5.8 39 6.48C39.6533 7.14667 40.14 7.91333 40.46 8.78C40.7933 9.63333 40.96 10.52 40.96 11.44V11.88C40.96 12.76 40.7933 13.6267 40.46 14.48C40.14 15.3333 39.6533 16.1067 39 16.8C38.3467 17.4933 37.5267 18.0467 36.54 18.46C35.5533 18.8733 34.4 19.08 33.08 19.08H30.24ZM27.8 19.08V4.3H30.64V19.08H27.8ZM48.1431 19.38C47.2098 19.38 46.3898 19.22 45.6831 18.9C44.9898 18.58 44.4098 18.1533 43.9431 17.62C43.4898 17.0733 43.1431 16.4667 42.9031 15.8C42.6765 15.1333 42.5631 14.4533 42.5631 13.76V13.38C42.5631 12.66 42.6765 11.9667 42.9031 11.3C43.1431 10.62 43.4898 10.02 43.9431 9.5C44.4098 8.96667 44.9831 8.54667 45.6631 8.24C46.3431 7.92 47.1298 7.76 48.0231 7.76C49.1965 7.76 50.1765 8.02 50.9631 8.54C51.7631 9.04667 52.3631 9.72 52.7631 10.56C53.1631 11.3867 53.3631 12.28 53.3631 13.24V14.24H43.7431V12.54H51.6231L50.7631 13.38C50.7631 12.6867 50.6631 12.0933 50.4631 11.6C50.2631 11.1067 49.9565 10.7267 49.5431 10.46C49.1431 10.1933 48.6365 10.06 48.0231 10.06C47.4098 10.06 46.8898 10.2 46.4631 10.48C46.0365 10.76 45.7098 11.1667 45.4831 11.7C45.2698 12.22 45.1631 12.8467 45.1631 13.58C45.1631 14.26 45.2698 14.8667 45.4831 15.4C45.6965 15.92 46.0231 16.3333 46.4631 16.64C46.9031 16.9333 47.4631 17.08 48.1431 17.08C48.8231 17.08 49.3765 16.9467 49.8031 16.68C50.2298 16.4 50.5031 16.06 50.6231 15.66H53.1831C53.0231 16.4067 52.7165 17.06 52.2631 17.62C51.8098 18.18 51.2298 18.6133 50.5231 18.92C49.8298 19.2267 49.0365 19.38 48.1431 19.38ZM46.6431 6.76L48.4231 2.66H51.3031L49.0231 6.76H46.6431ZM55.6855 23V8.14H57.8855V12.82L57.5455 12.8C57.5988 11.6933 57.8255 10.7667 58.2255 10.02C58.6388 9.27333 59.1855 8.72 59.8655 8.36C60.5455 7.98667 61.3055 7.8 62.1455 7.8C62.9188 7.8 63.6121 7.94 64.2255 8.22C64.8521 8.5 65.3855 8.89333 65.8255 9.4C66.2788 9.90667 66.6255 10.5 66.8655 11.18C67.1055 11.8467 67.2255 12.5667 67.2255 13.34V13.76C67.2255 14.5467 67.1055 15.28 66.8655 15.96C66.6388 16.6267 66.2988 17.22 65.8455 17.74C65.4055 18.2467 64.8721 18.6467 64.2455 18.94C63.6188 19.22 62.9188 19.36 62.1455 19.36C61.3321 19.36 60.5855 19.1933 59.9055 18.86C59.2388 18.5133 58.6988 17.9867 58.2855 17.28C57.8721 16.56 57.6388 15.6333 57.5855 14.5L58.4655 15.84V23H55.6855ZM61.4455 17.02C62.0455 17.02 62.5655 16.8733 63.0055 16.58C63.4588 16.2867 63.8121 15.88 64.0655 15.36C64.3188 14.8267 64.4455 14.2267 64.4455 13.56C64.4455 12.8667 64.3188 12.2667 64.0655 11.76C63.8121 11.2533 63.4588 10.86 63.0055 10.58C62.5655 10.2867 62.0455 10.14 61.4455 10.14C60.8988 10.14 60.3921 10.26 59.9255 10.5C59.4721 10.74 59.0988 11.0933 58.8055 11.56C58.5255 12.0267 58.3855 12.5867 58.3855 13.24V14.04C58.3855 14.6667 58.5321 15.2 58.8255 15.64C59.1188 16.08 59.4988 16.42 59.9655 16.66C60.4321 16.9 60.9255 17.02 61.4455 17.02ZM69.8098 19V4.4H72.5898V19H69.8098ZM68.4498 6.48V4.4H72.5898V6.48H68.4498ZM82.3436 19V15.78H81.8836V12.2C81.8836 11.5733 81.7303 11.1067 81.4236 10.8C81.1169 10.4933 80.6436 10.34 80.0036 10.34C79.6703 10.34 79.2703 10.3467 78.8036 10.36C78.3369 10.3733 77.8636 10.3933 77.3836 10.42C76.9169 10.4333 76.4969 10.4533 76.1236 10.48V8.12C76.4303 8.09333 76.7769 8.06667 77.1636 8.04C77.5503 8.01333 77.9436 8 78.3436 8C78.7569 7.98667 79.1436 7.98 79.5036 7.98C80.6236 7.98 81.5503 8.12667 82.2836 8.42C83.0303 8.71333 83.5903 9.17333 83.9636 9.8C84.3503 10.4267 84.5436 11.2467 84.5436 12.26V19H82.3436ZM78.8436 19.28C78.0569 19.28 77.3636 19.14 76.7636 18.86C76.1769 18.58 75.7169 18.18 75.3836 17.66C75.0636 17.14 74.9036 16.5133 74.9036 15.78C74.9036 14.98 75.0969 14.3267 75.4836 13.82C75.8836 13.3133 76.4369 12.9333 77.1436 12.68C77.8636 12.4267 78.7036 12.3 79.6636 12.3H82.1836V13.96H79.6236C78.9836 13.96 78.4903 14.12 78.1436 14.44C77.8103 14.7467 77.6436 15.1467 77.6436 15.64C77.6436 16.1333 77.8103 16.5333 78.1436 16.84C78.4903 17.1467 78.9836 17.3 79.6236 17.3C80.0103 17.3 80.3636 17.2333 80.6836 17.1C81.0169 16.9533 81.2903 16.7133 81.5036 16.38C81.7303 16.0333 81.8569 15.5667 81.8836 14.98L82.5636 15.76C82.4969 16.52 82.3103 17.16 82.0036 17.68C81.7103 18.2 81.2969 18.6 80.7636 18.88C80.2436 19.1467 79.6036 19.28 78.8436 19.28ZM92.3414 19.38C91.3947 19.38 90.5747 19.22 89.8814 18.9C89.2014 18.58 88.6281 18.1533 88.1614 17.62C87.7081 17.0867 87.3681 16.4867 87.1414 15.82C86.9147 15.1533 86.8014 14.4733 86.8014 13.78V13.4C86.8014 12.6667 86.9147 11.9667 87.1414 11.3C87.3814 10.62 87.7347 10.02 88.2014 9.5C88.6681 8.96667 89.2414 8.54667 89.9214 8.24C90.6147 7.92 91.4147 7.76 92.3214 7.76C93.2681 7.76 94.1147 7.94667 94.8614 8.32C95.6081 8.68 96.2014 9.18667 96.6414 9.84C97.0947 10.4933 97.3481 11.2533 97.4014 12.12H94.7014C94.6347 11.56 94.3947 11.0933 93.9814 10.72C93.5814 10.3467 93.0281 10.16 92.3214 10.16C91.7081 10.16 91.1947 10.3067 90.7814 10.6C90.3814 10.8933 90.0814 11.3 89.8814 11.82C89.6814 12.3267 89.5814 12.9133 89.5814 13.58C89.5814 14.22 89.6747 14.8 89.8614 15.32C90.0614 15.84 90.3614 16.2467 90.7614 16.54C91.1747 16.8333 91.7014 16.98 92.3414 16.98C92.8214 16.98 93.2347 16.8933 93.5814 16.72C93.9281 16.5467 94.2014 16.3067 94.4014 16C94.6147 15.6933 94.7481 15.3467 94.8014 14.96H97.5014C97.4481 15.84 97.1881 16.6133 96.7214 17.28C96.2681 17.9333 95.6614 18.4467 94.9014 18.82C94.1547 19.1933 93.3014 19.38 92.3414 19.38ZM104.588 19.38C103.655 19.38 102.835 19.22 102.128 18.9C101.435 18.58 100.855 18.1533 100.388 17.62C99.9351 17.0733 99.5884 16.4667 99.3484 15.8C99.1218 15.1333 99.0084 14.4533 99.0084 13.76V13.38C99.0084 12.66 99.1218 11.9667 99.3484 11.3C99.5884 10.62 99.9351 10.02 100.388 9.5C100.855 8.96667 101.428 8.54667 102.108 8.24C102.788 7.92 103.575 7.76 104.468 7.76C105.642 7.76 106.622 8.02 107.408 8.54C108.208 9.04667 108.808 9.72 109.208 10.56C109.608 11.3867 109.808 12.28 109.808 13.24V14.24H100.188V12.54H108.068L107.208 13.38C107.208 12.6867 107.108 12.0933 106.908 11.6C106.708 11.1067 106.402 10.7267 105.988 10.46C105.588 10.1933 105.082 10.06 104.468 10.06C103.855 10.06 103.335 10.2 102.908 10.48C102.482 10.76 102.155 11.1667 101.928 11.7C101.715 12.22 101.608 12.8467 101.608 13.58C101.608 14.26 101.715 14.8667 101.928 15.4C102.142 15.92 102.468 16.3333 102.908 16.64C103.348 16.9333 103.908 17.08 104.588 17.08C105.268 17.08 105.822 16.9467 106.248 16.68C106.675 16.4 106.948 16.06 107.068 15.66H109.628C109.468 16.4067 109.162 17.06 108.708 17.62C108.255 18.18 107.675 18.6133 106.968 18.92C106.275 19.2267 105.482 19.38 104.588 19.38ZM112.131 19V8.14H114.331V12.8H114.131C114.131 11.7067 114.271 10.7933 114.551 10.06C114.831 9.31333 115.244 8.75333 115.791 8.38C116.351 7.99333 117.044 7.8 117.871 7.8H117.991C118.831 7.8 119.524 7.99333 120.071 8.38C120.631 8.75333 121.044 9.31333 121.311 10.06C121.591 10.7933 121.731 11.7067 121.731 12.8H121.031C121.031 11.7067 121.171 10.7933 121.451 10.06C121.744 9.31333 122.164 8.75333 122.711 8.38C123.271 7.99333 123.964 7.8 124.791 7.8H124.911C125.751 7.8 126.451 7.99333 127.011 8.38C127.571 8.75333 127.991 9.31333 128.271 10.06C128.564 10.7933 128.711 11.7067 128.711 12.8V19H125.931V12.54C125.931 11.86 125.757 11.32 125.411 10.92C125.064 10.5067 124.571 10.3 123.931 10.3C123.291 10.3 122.777 10.5133 122.391 10.94C122.004 11.3533 121.811 11.9133 121.811 12.62V19H119.031V12.54C119.031 11.86 118.857 11.32 118.511 10.92C118.164 10.5067 117.671 10.3 117.031 10.3C116.391 10.3 115.877 10.5133 115.491 10.94C115.104 11.3533 114.911 11.9133 114.911 12.62V19H112.131ZM136.542 19.38C135.608 19.38 134.788 19.22 134.082 18.9C133.388 18.58 132.808 18.1533 132.342 17.62C131.888 17.0733 131.542 16.4667 131.302 15.8C131.075 15.1333 130.962 14.4533 130.962 13.76V13.38C130.962 12.66 131.075 11.9667 131.302 11.3C131.542 10.62 131.888 10.02 132.342 9.5C132.808 8.96667 133.382 8.54667 134.062 8.24C134.742 7.92 135.528 7.76 136.422 7.76C137.595 7.76 138.575 8.02 139.362 8.54C140.162 9.04667 140.762 9.72 141.162 10.56C141.562 11.3867 141.762 12.28 141.762 13.24V14.24H132.142V12.54H140.022L139.162 13.38C139.162 12.6867 139.062 12.0933 138.862 11.6C138.662 11.1067 138.355 10.7267 137.942 10.46C137.542 10.1933 137.035 10.06 136.422 10.06C135.808 10.06 135.288 10.2 134.862 10.48C134.435 10.76 134.108 11.1667 133.882 11.7C133.668 12.22 133.562 12.8467 133.562 13.58C133.562 14.26 133.668 14.8667 133.882 15.4C134.095 15.92 134.422 16.3333 134.862 16.64C135.302 16.9333 135.862 17.08 136.542 17.08C137.222 17.08 137.775 16.9467 138.202 16.68C138.628 16.4 138.902 16.06 139.022 15.66H141.582C141.422 16.4067 141.115 17.06 140.662 17.62C140.208 18.18 139.628 18.6133 138.922 18.92C138.228 19.2267 137.435 19.38 136.542 19.38ZM144.084 19V8.14H146.284V12.8H146.084C146.084 11.6933 146.231 10.7733 146.524 10.04C146.817 9.29333 147.251 8.73333 147.824 8.36C148.411 7.98667 149.137 7.8 150.004 7.8H150.124C151.417 7.8 152.397 8.22 153.064 9.06C153.731 9.88667 154.064 11.1267 154.064 12.78V19H151.284V12.54C151.284 11.8733 151.091 11.3333 150.704 10.92C150.331 10.5067 149.811 10.3 149.144 10.3C148.464 10.3 147.911 10.5133 147.484 10.94C147.071 11.3533 146.864 11.9133 146.864 12.62V19H144.084ZM161.773 19.14C160.773 19.14 159.946 19.0133 159.293 18.76C158.653 18.4933 158.173 18.0533 157.853 17.44C157.533 16.8133 157.373 15.9733 157.373 14.92L157.393 5.08H159.993L159.973 15.1C159.973 15.6333 160.113 16.0467 160.393 16.34C160.686 16.62 161.099 16.76 161.633 16.76H163.333V19.14H161.773ZM155.653 10.18V8.14H163.333V10.18H155.653ZM169.528 19.34C168.034 19.34 166.861 19.0267 166.008 18.4C165.168 17.76 164.728 16.88 164.688 15.76H167.188C167.228 16.1333 167.434 16.4733 167.808 16.78C168.181 17.0867 168.768 17.24 169.568 17.24C170.234 17.24 170.761 17.12 171.148 16.88C171.548 16.64 171.748 16.3133 171.748 15.9C171.748 15.54 171.594 15.2533 171.288 15.04C170.994 14.8267 170.488 14.6867 169.768 14.62L168.808 14.52C167.594 14.3867 166.661 14.04 166.008 13.48C165.354 12.92 165.028 12.1733 165.028 11.24C165.028 10.4933 165.214 9.86667 165.588 9.36C165.961 8.85333 166.474 8.47333 167.128 8.22C167.794 7.95333 168.554 7.82 169.408 7.82C170.741 7.82 171.821 8.11333 172.648 8.7C173.474 9.28667 173.908 10.1467 173.948 11.28H171.448C171.421 10.9067 171.234 10.5867 170.888 10.32C170.541 10.0533 170.041 9.92 169.388 9.92C168.801 9.92 168.348 10.0333 168.028 10.26C167.708 10.4867 167.548 10.78 167.548 11.14C167.548 11.4867 167.674 11.7533 167.928 11.94C168.194 12.1267 168.621 12.2533 169.208 12.32L170.168 12.42C171.448 12.5533 172.448 12.9067 173.168 13.48C173.901 14.0533 174.268 14.8267 174.268 15.8C174.268 16.52 174.068 17.1467 173.668 17.68C173.281 18.2 172.734 18.6067 172.028 18.9C171.321 19.1933 170.488 19.34 169.528 19.34Z" fill="#424242"/>
<circle cx="165.5" cy="55.5" r="5.5" fill="#30BC34"/>
<circle cx="165.5" cy="55.5" r="8.5" stroke="#30BC34" stroke-width="2"/>
<circle cx="165.5" cy="202.5" r="5.5" fill="#30BC34"/>
<circle cx="165.5" cy="202.5" r="8.5" stroke="#30BC34" stroke-width="2"/>
<path d="M166 65V193" stroke="#30BC34" stroke-width="2" stroke-dasharray="4 4"/>
<path d="M3.968 60V49.408H5.536V60H3.968ZM0.416 49.728V48.32H9.088V49.728H0.416ZM10.972 60V48.32H12.508V55.296H12.124C12.124 54.4533 12.2307 53.728 12.444 53.12C12.668 52.5013 13.0093 52.0267 13.468 51.696C13.9267 51.3653 14.5133 51.2 15.228 51.2H15.292C16.316 51.2 17.0893 51.5413 17.612 52.224C18.1347 52.896 18.396 53.8613 18.396 55.12V60H16.86V54.8C16.86 54.1067 16.6627 53.568 16.268 53.184C15.884 52.8 15.3827 52.608 14.764 52.608C14.0813 52.608 13.532 52.8373 13.116 53.296C12.7107 53.744 12.508 54.336 12.508 55.072V60H10.972ZM25.1424 60.288C24.3957 60.288 23.7397 60.16 23.1744 59.904C22.609 59.648 22.129 59.312 21.7344 58.896C21.3504 58.4693 21.057 57.9947 20.8544 57.472C20.6624 56.9493 20.5664 56.416 20.5664 55.872V55.584C20.5664 55.04 20.6677 54.5067 20.8704 53.984C21.073 53.4507 21.3717 52.976 21.7664 52.56C22.161 52.1333 22.641 51.7973 23.2064 51.552C23.7717 51.296 24.417 51.168 25.1424 51.168C25.8677 51.168 26.513 51.296 27.0784 51.552C27.6437 51.7973 28.1237 52.1333 28.5184 52.56C28.913 52.976 29.2117 53.4507 29.4144 53.984C29.617 54.5067 29.7184 55.04 29.7184 55.584V55.872C29.7184 56.416 29.617 56.9493 29.4144 57.472C29.2224 57.9947 28.929 58.4693 28.5344 58.896C28.1504 59.312 27.6757 59.648 27.1104 59.904C26.545 60.16 25.889 60.288 25.1424 60.288ZM25.1424 58.912C25.7824 58.912 26.3264 58.7733 26.7744 58.496C27.233 58.208 27.5797 57.824 27.8144 57.344C28.0597 56.864 28.1824 56.3253 28.1824 55.728C28.1824 55.12 28.0597 54.576 27.8144 54.096C27.569 53.616 27.217 53.2373 26.7584 52.96C26.3104 52.6827 25.7717 52.544 25.1424 52.544C24.5237 52.544 23.985 52.6827 23.5264 52.96C23.0677 53.2373 22.7157 53.616 22.4704 54.096C22.225 54.576 22.1024 55.12 22.1024 55.728C22.1024 56.3253 22.2197 56.864 22.4544 57.344C22.6997 57.824 23.0464 58.208 23.4944 58.496C23.953 58.7733 24.5024 58.912 25.1424 58.912ZM34.9789 60.256C33.9655 60.256 33.1869 59.9253 32.6429 59.264C32.0989 58.6027 31.8269 57.648 31.8269 56.4V51.44H33.3629V56.704C33.3629 57.376 33.5442 57.904 33.9069 58.288C34.2695 58.6613 34.7602 58.848 35.3789 58.848C36.0189 58.848 36.5415 58.6453 36.9469 58.24C37.3522 57.824 37.5549 57.2587 37.5549 56.544V51.44H39.0909V60H37.8749V56.336H38.0669C38.0669 57.1787 37.9549 57.8933 37.7309 58.48C37.5069 59.056 37.1709 59.4987 36.7229 59.808C36.2855 60.1067 35.7255 60.256 35.0429 60.256H34.9789ZM47.2338 60V57.44H46.9778V54.48C46.9778 53.8933 46.8231 53.4507 46.5138 53.152C46.2151 52.8533 45.7724 52.704 45.1858 52.704C44.8551 52.704 44.5138 52.7093 44.1618 52.72C43.8098 52.7307 43.4738 52.7413 43.1538 52.752C42.8338 52.7627 42.5564 52.7787 42.3218 52.8V51.456C42.5564 51.4347 42.8018 51.4187 43.0578 51.408C43.3244 51.3867 43.5964 51.376 43.8738 51.376C44.1511 51.3653 44.4178 51.36 44.6738 51.36C45.5484 51.36 46.2631 51.4667 46.8178 51.68C47.3724 51.8827 47.7831 52.2187 48.0498 52.688C48.3164 53.1573 48.4498 53.792 48.4498 54.592V60H47.2338ZM44.4338 60.224C43.7938 60.224 43.2391 60.1173 42.7698 59.904C42.3111 59.68 41.9538 59.36 41.6978 58.944C41.4524 58.528 41.3298 58.0267 41.3298 57.44C41.3298 56.832 41.4631 56.3253 41.7298 55.92C42.0071 55.5147 42.4071 55.2107 42.9298 55.008C43.4524 54.7947 44.0818 54.688 44.8177 54.688H47.1378V55.84H44.7538C44.1351 55.84 43.6604 55.9893 43.3298 56.288C42.9991 56.5867 42.8338 56.9707 42.8338 57.44C42.8338 57.9093 42.9991 58.288 43.3298 58.576C43.6604 58.864 44.1351 59.008 44.7538 59.008C45.1164 59.008 45.4631 58.944 45.7938 58.816C46.1244 58.6773 46.3964 58.4533 46.6098 58.144C46.8338 57.824 46.9564 57.3867 46.9778 56.832L47.3938 57.44C47.3404 58.048 47.1911 58.56 46.9458 58.976C46.7111 59.3813 46.3804 59.6907 45.9538 59.904C45.5378 60.1173 45.0311 60.224 44.4338 60.224ZM51.2689 60V51.456H52.4849V54.976H52.4209C52.4209 53.728 52.6929 52.816 53.2369 52.24C53.7915 51.6533 54.6182 51.36 55.7169 51.36H56.0049V52.736H55.4609C54.6075 52.736 53.9515 52.9653 53.4929 53.424C53.0342 53.872 52.8049 54.5227 52.8049 55.376V60H51.2689ZM61.3696 60.288C60.623 60.288 59.9776 60.16 59.4336 59.904C58.8896 59.648 58.447 59.312 58.1056 58.896C57.7643 58.4693 57.5083 57.9947 57.3376 57.472C57.1776 56.9493 57.0976 56.416 57.0976 55.872V55.584C57.0976 55.0293 57.1776 54.4907 57.3376 53.968C57.5083 53.4453 57.7643 52.976 58.1056 52.56C58.447 52.1333 58.879 51.7973 59.4016 51.552C59.935 51.296 60.559 51.168 61.2736 51.168C62.2016 51.168 62.9643 51.3707 63.5616 51.776C64.1696 52.1707 64.6176 52.6827 64.9056 53.312C65.2043 53.9413 65.3536 54.6133 65.3536 55.328V56.016H57.7696V54.864H64.2336L63.8816 55.488C63.8816 54.88 63.7856 54.3573 63.5936 53.92C63.4016 53.472 63.1136 53.1253 62.7296 52.88C62.3456 52.6347 61.8603 52.512 61.2736 52.512C60.6656 52.512 60.159 52.6507 59.7536 52.928C59.359 53.2053 59.0603 53.584 58.8576 54.064C58.6656 54.544 58.5696 55.0987 58.5696 55.728C58.5696 56.336 58.6656 56.8853 58.8576 57.376C59.0603 57.856 59.3696 58.24 59.7856 58.528C60.2016 58.8053 60.7296 58.944 61.3696 58.944C62.0416 58.944 62.5856 58.7947 63.0016 58.496C63.4283 58.1973 63.6843 57.8507 63.7696 57.456H65.2096C65.0923 58.0427 64.8576 58.5493 64.5056 58.976C64.1536 59.4027 63.711 59.728 63.1776 59.952C62.6443 60.176 62.0416 60.288 61.3696 60.288ZM60.4896 50.208L61.8976 47.04H63.5136L61.7376 50.208H60.4896ZM67.1185 56.208V54.896H73.0705V56.208H67.1185ZM78.397 60.256C77.277 60.256 76.4077 60.016 75.789 59.536C75.181 59.056 74.8663 58.4 74.845 57.568H76.285C76.3063 57.8987 76.4717 58.2133 76.781 58.512C77.101 58.8 77.6397 58.944 78.397 58.944C79.0797 58.944 79.6023 58.8107 79.965 58.544C80.3277 58.2667 80.509 57.9307 80.509 57.536C80.509 57.184 80.3757 56.912 80.109 56.72C79.8423 56.5173 79.4103 56.384 78.813 56.32L77.885 56.224C77.0743 56.1387 76.413 55.8987 75.901 55.504C75.389 55.0987 75.133 54.5333 75.133 53.808C75.133 53.264 75.2717 52.8 75.549 52.416C75.8263 52.0213 76.2103 51.7227 76.701 51.52C77.1917 51.3067 77.757 51.2 78.397 51.2C79.357 51.2 80.1357 51.4133 80.733 51.84C81.3303 52.2667 81.6397 52.9013 81.661 53.744H80.221C80.2103 53.4027 80.0503 53.1147 79.741 52.88C79.4423 52.6347 78.9943 52.512 78.397 52.512C77.7997 52.512 77.3463 52.6347 77.037 52.88C76.7277 53.1253 76.573 53.4347 76.573 53.808C76.573 54.128 76.6797 54.384 76.893 54.576C77.117 54.768 77.4797 54.8907 77.981 54.944L78.909 55.04C79.8263 55.136 80.5623 55.392 81.117 55.808C81.6717 56.2133 81.949 56.7893 81.949 57.536C81.949 58.0693 81.7943 58.544 81.485 58.96C81.1863 59.3653 80.7703 59.6853 80.237 59.92C79.7037 60.144 79.0903 60.256 78.397 60.256ZM87.1351 60.256C86.1218 60.256 85.3431 59.9253 84.7991 59.264C84.2551 58.6027 83.9831 57.648 83.9831 56.4V51.44H85.5191V56.704C85.5191 57.376 85.7005 57.904 86.0631 58.288C86.4258 58.6613 86.9165 58.848 87.5351 58.848C88.1751 58.848 88.6978 58.6453 89.1031 58.24C89.5085 57.824 89.7111 57.2587 89.7111 56.544V51.44H91.2471V60H90.0311V56.336H90.2231C90.2231 57.1787 90.1111 57.8933 89.8871 58.48C89.6631 59.056 89.3271 59.4987 88.8791 59.808C88.4418 60.1067 87.8818 60.256 87.1991 60.256H87.1351ZM94.222 60V51.456H95.438V54.976H95.374C95.374 53.728 95.646 52.816 96.19 52.24C96.7447 51.6533 97.5713 51.36 98.67 51.36H98.958V52.736H98.414C97.5607 52.736 96.9047 52.9653 96.446 53.424C95.9873 53.872 95.758 54.5227 95.758 55.376V60H94.222ZM100.212 56.208V54.896H106.164V56.208H100.212ZM108.915 60V48.32H110.483V60H108.915ZM110.163 60V58.592H115.507V60H110.163ZM121.267 60.288C120.521 60.288 119.865 60.16 119.299 59.904C118.734 59.648 118.254 59.312 117.859 58.896C117.475 58.4693 117.182 57.9947 116.979 57.472C116.787 56.9493 116.691 56.416 116.691 55.872V55.584C116.691 55.04 116.793 54.5067 116.995 53.984C117.198 53.4507 117.497 52.976 117.891 52.56C118.286 52.1333 118.766 51.7973 119.331 51.552C119.897 51.296 120.542 51.168 121.267 51.168C121.993 51.168 122.638 51.296 123.203 51.552C123.769 51.7973 124.249 52.1333 124.643 52.56C125.038 52.976 125.337 53.4507 125.539 53.984C125.742 54.5067 125.843 55.04 125.843 55.584V55.872C125.843 56.416 125.742 56.9493 125.539 57.472C125.347 57.9947 125.054 58.4693 124.659 58.896C124.275 59.312 123.801 59.648 123.235 59.904C122.67 60.16 122.014 60.288 121.267 60.288ZM121.267 58.912C121.907 58.912 122.451 58.7733 122.899 58.496C123.358 58.208 123.705 57.824 123.939 57.344C124.185 56.864 124.307 56.3253 124.307 55.728C124.307 55.12 124.185 54.576 123.939 54.096C123.694 53.616 123.342 53.2373 122.883 52.96C122.435 52.6827 121.897 52.544 121.267 52.544C120.649 52.544 120.11 52.6827 119.651 52.96C119.193 53.2373 118.841 53.616 118.595 54.096C118.35 54.576 118.227 55.12 118.227 55.728C118.227 56.3253 118.345 56.864 118.579 57.344C118.825 57.824 119.171 58.208 119.619 58.496C120.078 58.7733 120.627 58.912 121.267 58.912ZM128.56 60V51.456H130.096V60H128.56ZM127.248 52.672V51.456H130.096V52.672H127.248ZM128.992 50.08C128.651 50.08 128.395 49.9893 128.224 49.808C128.064 49.6267 127.984 49.3973 127.984 49.12C127.984 48.8427 128.064 48.6133 128.224 48.432C128.395 48.2507 128.651 48.16 128.992 48.16C129.333 48.16 129.584 48.2507 129.744 48.432C129.915 48.6133 130 48.8427 130 49.12C130 49.3973 129.915 49.6267 129.744 49.808C129.584 49.9893 129.333 50.08 128.992 50.08ZM133.066 60V51.456H134.282V54.976H134.218C134.218 53.728 134.49 52.816 135.034 52.24C135.588 51.6533 136.415 51.36 137.514 51.36H137.802V52.736H137.258C136.404 52.736 135.748 52.9653 135.29 53.424C134.831 53.872 134.602 54.5227 134.602 55.376V60H133.066ZM143.167 60.288C142.42 60.288 141.775 60.16 141.231 59.904C140.687 59.648 140.244 59.312 139.903 58.896C139.561 58.4693 139.305 57.9947 139.135 57.472C138.975 56.9493 138.895 56.416 138.895 55.872V55.584C138.895 55.0293 138.975 54.4907 139.135 53.968C139.305 53.4453 139.561 52.976 139.903 52.56C140.244 52.1333 140.676 51.7973 141.199 51.552C141.732 51.296 142.356 51.168 143.071 51.168C143.999 51.168 144.761 51.3707 145.359 51.776C145.967 52.1707 146.415 52.6827 146.703 53.312C147.001 53.9413 147.151 54.6133 147.151 55.328V56.016H139.567V54.864H146.031L145.679 55.488C145.679 54.88 145.583 54.3573 145.391 53.92C145.199 53.472 144.911 53.1253 144.527 52.88C144.143 52.6347 143.657 52.512 143.071 52.512C142.463 52.512 141.956 52.6507 141.551 52.928C141.156 53.2053 140.857 53.584 140.655 54.064C140.463 54.544 140.367 55.0987 140.367 55.728C140.367 56.336 140.463 56.8853 140.655 57.376C140.857 57.856 141.167 58.24 141.583 58.528C141.999 58.8053 142.527 58.944 143.167 58.944C143.839 58.944 144.383 58.7947 144.799 58.496C145.225 58.1973 145.481 57.8507 145.567 57.456H147.007C146.889 58.0427 146.655 58.5493 146.303 58.976C145.951 59.4027 145.508 59.728 144.975 59.952C144.441 60.176 143.839 60.288 143.167 60.288Z" fill="#424242"/>
<path d="M91.696 207V195.32H94.256L100.192 205.592H100.704L100.384 205.88V195.32H101.888V207H99.296L93.36 196.728H92.848L93.168 196.44V207H91.696ZM110.218 207V204.44H109.962V201.48C109.962 200.893 109.807 200.451 109.498 200.152C109.199 199.853 108.757 199.704 108.17 199.704C107.839 199.704 107.498 199.709 107.146 199.72C106.794 199.731 106.458 199.741 106.138 199.752C105.818 199.763 105.541 199.779 105.306 199.8V198.456C105.541 198.435 105.786 198.419 106.042 198.408C106.309 198.387 106.581 198.376 106.858 198.376C107.135 198.365 107.402 198.36 107.658 198.36C108.533 198.36 109.247 198.467 109.802 198.68C110.357 198.883 110.767 199.219 111.034 199.688C111.301 200.157 111.434 200.792 111.434 201.592V207H110.218ZM107.418 207.224C106.778 207.224 106.223 207.117 105.754 206.904C105.295 206.68 104.938 206.36 104.682 205.944C104.437 205.528 104.314 205.027 104.314 204.44C104.314 203.832 104.447 203.325 104.714 202.92C104.991 202.515 105.391 202.211 105.914 202.008C106.437 201.795 107.066 201.688 107.802 201.688H110.122V202.84H107.738C107.119 202.84 106.645 202.989 106.314 203.288C105.983 203.587 105.818 203.971 105.818 204.44C105.818 204.909 105.983 205.288 106.314 205.576C106.645 205.864 107.119 206.008 107.738 206.008C108.101 206.008 108.447 205.944 108.778 205.816C109.109 205.677 109.381 205.453 109.594 205.144C109.818 204.824 109.941 204.387 109.962 203.832L110.378 204.44C110.325 205.048 110.175 205.56 109.93 205.976C109.695 206.381 109.365 206.691 108.938 206.904C108.522 207.117 108.015 207.224 107.418 207.224ZM114.253 207V198.456H115.469V202.12H115.277C115.277 201.277 115.389 200.568 115.613 199.992C115.848 199.405 116.2 198.963 116.669 198.664C117.139 198.355 117.731 198.2 118.445 198.2H118.509C119.587 198.2 120.381 198.536 120.893 199.208C121.416 199.88 121.677 200.851 121.677 202.12V207H120.141V201.8C120.141 201.139 119.955 200.611 119.581 200.216C119.208 199.811 118.696 199.608 118.045 199.608C117.373 199.608 116.829 199.816 116.413 200.232C115.997 200.648 115.789 201.203 115.789 201.896V207H114.253ZM127.816 207.096C127.176 207.096 126.621 207.005 126.152 206.824C125.693 206.643 125.336 206.333 125.08 205.896C124.834 205.448 124.712 204.845 124.712 204.088V195.864H126.184V204.28C126.184 204.739 126.306 205.096 126.552 205.352C126.808 205.597 127.165 205.72 127.624 205.72H129.128V207.096H127.816ZM123.24 199.608V198.456H129.128V199.608H123.24ZM134.87 207.288C134.123 207.288 133.478 207.16 132.934 206.904C132.39 206.648 131.947 206.312 131.606 205.896C131.264 205.469 131.008 204.995 130.838 204.472C130.678 203.949 130.598 203.416 130.598 202.872V202.584C130.598 202.029 130.678 201.491 130.838 200.968C131.008 200.445 131.264 199.976 131.606 199.56C131.947 199.133 132.379 198.797 132.902 198.552C133.435 198.296 134.059 198.168 134.774 198.168C135.702 198.168 136.464 198.371 137.062 198.776C137.67 199.171 138.118 199.683 138.406 200.312C138.704 200.941 138.854 201.613 138.854 202.328V203.016H131.27V201.864H137.734L137.382 202.488C137.382 201.88 137.286 201.357 137.094 200.92C136.902 200.472 136.614 200.125 136.23 199.88C135.846 199.635 135.36 199.512 134.774 199.512C134.166 199.512 133.659 199.651 133.254 199.928C132.859 200.205 132.56 200.584 132.358 201.064C132.166 201.544 132.07 202.099 132.07 202.728C132.07 203.336 132.166 203.885 132.358 204.376C132.56 204.856 132.87 205.24 133.286 205.528C133.702 205.805 134.23 205.944 134.87 205.944C135.542 205.944 136.086 205.795 136.502 205.496C136.928 205.197 137.184 204.851 137.27 204.456H138.71C138.592 205.043 138.358 205.549 138.006 205.976C137.654 206.403 137.211 206.728 136.678 206.952C136.144 207.176 135.542 207.288 134.87 207.288ZM143.835 207.256C142.715 207.256 141.845 207.016 141.227 206.536C140.619 206.056 140.304 205.4 140.283 204.568H141.723C141.744 204.899 141.909 205.213 142.219 205.512C142.539 205.8 143.077 205.944 143.835 205.944C144.517 205.944 145.04 205.811 145.403 205.544C145.765 205.267 145.947 204.931 145.947 204.536C145.947 204.184 145.813 203.912 145.547 203.72C145.28 203.517 144.848 203.384 144.251 203.32L143.323 203.224C142.512 203.139 141.851 202.899 141.339 202.504C140.827 202.099 140.571 201.533 140.571 200.808C140.571 200.264 140.709 199.8 140.987 199.416C141.264 199.021 141.648 198.723 142.139 198.52C142.629 198.307 143.195 198.2 143.835 198.2C144.795 198.2 145.573 198.413 146.171 198.84C146.768 199.267 147.077 199.901 147.099 200.744H145.659C145.648 200.403 145.488 200.115 145.179 199.88C144.88 199.635 144.432 199.512 143.835 199.512C143.237 199.512 142.784 199.635 142.475 199.88C142.165 200.125 142.011 200.435 142.011 200.808C142.011 201.128 142.117 201.384 142.331 201.576C142.555 201.768 142.917 201.891 143.419 201.944L144.347 202.04C145.264 202.136 146 202.392 146.555 202.808C147.109 203.213 147.387 203.789 147.387 204.536C147.387 205.069 147.232 205.544 146.923 205.96C146.624 206.365 146.208 206.685 145.675 206.92C145.141 207.144 144.528 207.256 143.835 207.256Z" fill="#424242"/>
</svg>
