<svg width="354" height="212" viewBox="0 0 354 212" fill="none" xmlns="http://www.w3.org/2000/svg">
<path d="M202.78 19.38C201.487 19.38 200.393 19.1733 199.5 18.76C198.62 18.3467 197.947 17.78 197.48 17.06C197.013 16.3267 196.78 15.5 196.78 14.58H199.56C199.56 14.9667 199.667 15.3467 199.88 15.72C200.093 16.08 200.433 16.3733 200.9 16.6C201.38 16.8267 202.007 16.94 202.78 16.94C203.473 16.94 204.053 16.84 204.52 16.64C204.987 16.44 205.333 16.18 205.56 15.86C205.787 15.5267 205.9 15.1533 205.9 14.74C205.9 14.22 205.68 13.8067 205.24 13.5C204.8 13.18 204.12 12.98 203.2 12.9L201.92 12.8C200.52 12.68 199.4 12.2467 198.56 11.5C197.733 10.74 197.32 9.74 197.32 8.5C197.32 7.56667 197.54 6.76667 197.98 6.1C198.42 5.42 199.033 4.9 199.82 4.54C200.62 4.16667 201.553 3.98 202.62 3.98C203.727 3.98 204.68 4.17333 205.48 4.56C206.28 4.94667 206.9 5.49333 207.34 6.2C207.78 6.89333 208 7.71333 208 8.66H205.22C205.22 8.26 205.12 7.89333 204.92 7.56C204.733 7.21333 204.447 6.94 204.06 6.74C203.687 6.52667 203.207 6.42 202.62 6.42C202.06 6.42 201.593 6.51333 201.22 6.7C200.847 6.88667 200.567 7.14 200.38 7.46C200.193 7.78 200.1 8.12667 200.1 8.5C200.1 8.95333 200.267 9.35333 200.6 9.7C200.933 10.0333 201.46 10.2267 202.18 10.28L203.46 10.4C204.5 10.48 205.413 10.7 206.2 11.06C206.987 11.42 207.593 11.9067 208.02 12.52C208.46 13.1333 208.68 13.8733 208.68 14.74C208.68 15.66 208.44 16.4733 207.96 17.18C207.48 17.8733 206.793 18.4133 205.9 18.8C205.02 19.1867 203.98 19.38 202.78 19.38ZM218.657 19L215.017 13.92H213.397L218.017 8.14H220.917L216.657 13.48L216.717 12.08L221.797 19H218.657ZM211.057 19V4.4H213.837V19H211.057ZM223.92 19V8.14H226.7V19H223.92ZM222.4 10.22V8.14H226.7V10.22H222.4ZM224.94 6.84C224.394 6.84 223.987 6.7 223.72 6.42C223.467 6.12667 223.34 5.76667 223.34 5.34C223.34 4.88667 223.467 4.52 223.72 4.24C223.987 3.96 224.394 3.82 224.94 3.82C225.487 3.82 225.887 3.96 226.14 4.24C226.394 4.52 226.52 4.88667 226.52 5.34C226.52 5.76667 226.394 6.12667 226.14 6.42C225.887 6.7 225.487 6.84 224.94 6.84ZM230.044 19V4.4H232.824V19H230.044ZM228.684 6.48V4.4H232.824V6.48H228.684ZM236.138 19V4.4H238.918V19H236.138ZM234.778 6.48V4.4H238.918V6.48H234.778ZM246.032 19.34C244.538 19.34 243.365 19.0267 242.512 18.4C241.672 17.76 241.232 16.88 241.192 15.76H243.692C243.732 16.1333 243.938 16.4733 244.312 16.78C244.685 17.0867 245.272 17.24 246.072 17.24C246.738 17.24 247.265 17.12 247.652 16.88C248.052 16.64 248.252 16.3133 248.252 15.9C248.252 15.54 248.098 15.2533 247.792 15.04C247.498 14.8267 246.992 14.6867 246.272 14.62L245.312 14.52C244.098 14.3867 243.165 14.04 242.512 13.48C241.858 12.92 241.532 12.1733 241.532 11.24C241.532 10.4933 241.718 9.86667 242.092 9.36C242.465 8.85333 242.978 8.47333 243.632 8.22C244.298 7.95333 245.058 7.82 245.912 7.82C247.245 7.82 248.325 8.11333 249.152 8.7C249.978 9.28667 250.412 10.1467 250.452 11.28H247.952C247.925 10.9067 247.738 10.5867 247.392 10.32C247.045 10.0533 246.545 9.92 245.892 9.92C245.305 9.92 244.852 10.0333 244.532 10.26C244.212 10.4867 244.052 10.78 244.052 11.14C244.052 11.4867 244.178 11.7533 244.432 11.94C244.698 12.1267 245.125 12.2533 245.712 12.32L246.672 12.42C247.952 12.5533 248.952 12.9067 249.672 13.48C250.405 14.0533 250.772 14.8267 250.772 15.8C250.772 16.52 250.572 17.1467 250.172 17.68C249.785 18.2 249.238 18.6067 248.532 18.9C247.825 19.1933 246.992 19.34 246.032 19.34Z" fill="#424242"/>
<path d="M198.944 178.064V176.624H201.856C202.56 176.624 203.184 176.512 203.728 176.288C204.283 176.053 204.752 175.733 205.136 175.328C205.531 174.923 205.829 174.448 206.032 173.904C206.235 173.36 206.336 172.773 206.336 172.144C206.336 171.483 206.235 170.885 206.032 170.352C205.829 169.808 205.531 169.339 205.136 168.944C204.752 168.539 204.283 168.229 203.728 168.016C203.184 167.803 202.56 167.696 201.856 167.696H198.944V166.256H201.696C202.752 166.256 203.669 166.421 204.448 166.752C205.227 167.072 205.872 167.509 206.384 168.064C206.907 168.608 207.296 169.221 207.552 169.904C207.808 170.576 207.936 171.264 207.936 171.968V172.32C207.936 173.003 207.808 173.685 207.552 174.368C207.296 175.051 206.907 175.669 206.384 176.224C205.872 176.779 205.227 177.227 204.448 177.568C203.669 177.899 202.752 178.064 201.696 178.064H198.944ZM197.696 178.064V166.256H199.264V178.064H197.696ZM210.128 178V169.456H211.344V172.976H211.28C211.28 171.728 211.552 170.816 212.096 170.24C212.651 169.653 213.478 169.36 214.576 169.36H214.864V170.736H214.32C213.467 170.736 212.811 170.965 212.352 171.424C211.894 171.872 211.664 172.523 211.664 173.376V178H210.128ZM217.107 178V169.456H218.643V178H217.107ZM215.795 170.672V169.456H218.643V170.672H215.795ZM217.539 168.08C217.197 168.08 216.941 167.989 216.771 167.808C216.611 167.627 216.531 167.397 216.531 167.12C216.531 166.843 216.611 166.613 216.771 166.432C216.941 166.251 217.197 166.16 217.539 166.16C217.88 166.16 218.131 166.251 218.291 166.432C218.461 166.613 218.547 166.843 218.547 167.12C218.547 167.397 218.461 167.627 218.291 167.808C218.131 167.989 217.88 168.08 217.539 168.08ZM223.437 178L220.525 169.456H222.125L224.973 178H223.437ZM223.821 178V176.784H225.677V178H223.821ZM224.557 178L227.037 169.456H228.541L226.013 178H224.557ZM230.966 178V169.456H232.502V178H230.966ZM229.654 170.672V169.456H232.502V170.672H229.654ZM231.398 168.08C231.057 168.08 230.801 167.989 230.63 167.808C230.47 167.627 230.39 167.397 230.39 167.12C230.39 166.843 230.47 166.613 230.63 166.432C230.801 166.251 231.057 166.16 231.398 166.16C231.739 166.16 231.99 166.251 232.15 166.432C232.321 166.613 232.406 166.843 232.406 167.12C232.406 167.397 232.321 167.627 232.15 167.808C231.99 167.989 231.739 168.08 231.398 168.08ZM235.472 178V169.456H236.688V173.12H236.496C236.496 172.277 236.608 171.568 236.832 170.992C237.067 170.405 237.419 169.963 237.888 169.664C238.357 169.355 238.949 169.2 239.664 169.2H239.728C240.805 169.2 241.6 169.536 242.112 170.208C242.635 170.88 242.896 171.851 242.896 173.12V178H241.36V172.8C241.36 172.139 241.173 171.611 240.8 171.216C240.427 170.811 239.915 170.608 239.264 170.608C238.592 170.608 238.048 170.816 237.632 171.232C237.216 171.648 237.008 172.203 237.008 172.896V178H235.472ZM248.938 181.328C248.544 181.328 248.144 181.312 247.738 181.28C247.344 181.248 246.965 181.205 246.602 181.152V179.856C246.986 179.909 247.386 179.952 247.802 179.984C248.229 180.027 248.629 180.048 249.002 180.048C249.781 180.048 250.4 179.941 250.858 179.728C251.328 179.525 251.664 179.2 251.866 178.752C252.08 178.315 252.186 177.749 252.186 177.056V175.424L252.698 174.208C252.666 175.072 252.485 175.792 252.154 176.368C251.824 176.933 251.392 177.36 250.858 177.648C250.336 177.925 249.754 178.064 249.114 178.064C248.517 178.064 247.968 177.952 247.466 177.728C246.976 177.493 246.549 177.173 246.186 176.768C245.834 176.363 245.557 175.899 245.354 175.376C245.162 174.843 245.066 174.283 245.066 173.696V173.408C245.066 172.811 245.168 172.256 245.37 171.744C245.573 171.221 245.856 170.768 246.218 170.384C246.581 170 247.013 169.701 247.514 169.488C248.026 169.275 248.586 169.168 249.194 169.168C249.909 169.168 250.538 169.323 251.082 169.632C251.626 169.931 252.053 170.373 252.362 170.96C252.682 171.536 252.858 172.245 252.89 173.088L252.442 173.104V169.456H253.658V176.992C253.658 178.016 253.498 178.843 253.178 179.472C252.869 180.112 252.368 180.581 251.674 180.88C250.992 181.179 250.08 181.328 248.938 181.328ZM249.402 176.656C249.914 176.656 250.378 176.544 250.794 176.32C251.221 176.096 251.557 175.776 251.802 175.36C252.058 174.933 252.186 174.427 252.186 173.84V173.104C252.186 172.528 252.053 172.043 251.786 171.648C251.53 171.253 251.194 170.955 250.778 170.752C250.362 170.549 249.909 170.448 249.418 170.448C248.864 170.448 248.373 170.576 247.946 170.832C247.52 171.088 247.189 171.451 246.954 171.92C246.72 172.379 246.602 172.923 246.602 173.552C246.602 174.181 246.72 174.731 246.954 175.2C247.2 175.669 247.53 176.032 247.946 176.288C248.373 176.533 248.858 176.656 249.402 176.656ZM260.24 178V166.32H261.776V178H260.24ZM259.056 167.536V166.32H261.776V167.536H259.056ZM265.138 178V169.456H266.674V178H265.138ZM263.826 170.672V169.456H266.674V170.672H263.826ZM265.57 168.08C265.229 168.08 264.973 167.989 264.802 167.808C264.642 167.627 264.562 167.397 264.562 167.12C264.562 166.843 264.642 166.613 264.802 166.432C264.973 166.251 265.229 166.16 265.57 166.16C265.911 166.16 266.162 166.251 266.322 166.432C266.493 166.613 266.578 166.843 266.578 167.12C266.578 167.397 266.493 167.627 266.322 167.808C266.162 167.989 265.911 168.08 265.57 168.08ZM273.308 178.288C272.572 178.288 271.932 178.16 271.388 177.904C270.855 177.648 270.412 177.307 270.06 176.88C269.708 176.443 269.441 175.963 269.26 175.44C269.089 174.917 269.004 174.395 269.004 173.872V173.584C269.004 173.04 269.089 172.507 269.26 171.984C269.441 171.461 269.708 170.992 270.06 170.576C270.423 170.149 270.871 169.808 271.404 169.552C271.937 169.296 272.561 169.168 273.276 169.168C273.991 169.168 274.631 169.301 275.196 169.568C275.772 169.835 276.231 170.213 276.572 170.704C276.924 171.184 277.121 171.755 277.164 172.416H275.692C275.617 171.883 275.372 171.44 274.956 171.088C274.54 170.725 273.98 170.544 273.276 170.544C272.668 170.544 272.161 170.683 271.756 170.96C271.351 171.237 271.047 171.616 270.844 172.096C270.641 172.576 270.54 173.12 270.54 173.728C270.54 174.315 270.641 174.853 270.844 175.344C271.047 175.824 271.351 176.208 271.756 176.496C272.172 176.773 272.689 176.912 273.308 176.912C273.788 176.912 274.204 176.827 274.556 176.656C274.908 176.485 275.191 176.256 275.404 175.968C275.617 175.68 275.745 175.355 275.788 174.992H277.26C277.228 175.664 277.031 176.245 276.668 176.736C276.316 177.227 275.847 177.611 275.26 177.888C274.684 178.155 274.033 178.288 273.308 178.288ZM282.979 178.288C282.232 178.288 281.587 178.16 281.043 177.904C280.499 177.648 280.056 177.312 279.715 176.896C279.374 176.469 279.118 175.995 278.947 175.472C278.787 174.949 278.707 174.416 278.707 173.872V173.584C278.707 173.029 278.787 172.491 278.947 171.968C279.118 171.445 279.374 170.976 279.715 170.56C280.056 170.133 280.488 169.797 281.011 169.552C281.544 169.296 282.168 169.168 282.883 169.168C283.811 169.168 284.574 169.371 285.171 169.776C285.779 170.171 286.227 170.683 286.515 171.312C286.814 171.941 286.963 172.613 286.963 173.328V174.016H279.379V172.864H285.843L285.491 173.488C285.491 172.88 285.395 172.357 285.203 171.92C285.011 171.472 284.723 171.125 284.339 170.88C283.955 170.635 283.47 170.512 282.883 170.512C282.275 170.512 281.768 170.651 281.363 170.928C280.968 171.205 280.67 171.584 280.467 172.064C280.275 172.544 280.179 173.099 280.179 173.728C280.179 174.336 280.275 174.885 280.467 175.376C280.67 175.856 280.979 176.24 281.395 176.528C281.811 176.805 282.339 176.944 282.979 176.944C283.651 176.944 284.195 176.795 284.611 176.496C285.038 176.197 285.294 175.851 285.379 175.456H286.819C286.702 176.043 286.467 176.549 286.115 176.976C285.763 177.403 285.32 177.728 284.787 177.952C284.254 178.176 283.651 178.288 282.979 178.288ZM289.144 178V169.456H290.36V173.12H290.168C290.168 172.277 290.28 171.568 290.504 170.992C290.739 170.405 291.091 169.963 291.56 169.664C292.029 169.355 292.621 169.2 293.336 169.2H293.4C294.477 169.2 295.272 169.536 295.784 170.208C296.307 170.88 296.568 171.851 296.568 173.12V178H295.032V172.8C295.032 172.139 294.845 171.611 294.472 171.216C294.099 170.811 293.587 170.608 292.936 170.608C292.264 170.608 291.72 170.816 291.304 171.232C290.888 171.648 290.68 172.203 290.68 172.896V178H289.144ZM302.178 178.256C301.058 178.256 300.189 178.016 299.57 177.536C298.962 177.056 298.648 176.4 298.626 175.568H300.066C300.088 175.899 300.253 176.213 300.562 176.512C300.882 176.8 301.421 176.944 302.178 176.944C302.861 176.944 303.384 176.811 303.746 176.544C304.109 176.267 304.29 175.931 304.29 175.536C304.29 175.184 304.157 174.912 303.89 174.72C303.624 174.517 303.192 174.384 302.594 174.32L301.666 174.224C300.856 174.139 300.194 173.899 299.682 173.504C299.17 173.099 298.914 172.533 298.914 171.808C298.914 171.264 299.053 170.8 299.33 170.416C299.608 170.021 299.992 169.723 300.482 169.52C300.973 169.307 301.538 169.2 302.178 169.2C303.138 169.2 303.917 169.413 304.514 169.84C305.112 170.267 305.421 170.901 305.442 171.744H304.002C303.992 171.403 303.832 171.115 303.522 170.88C303.224 170.635 302.776 170.512 302.178 170.512C301.581 170.512 301.128 170.635 300.818 170.88C300.509 171.125 300.354 171.435 300.354 171.808C300.354 172.128 300.461 172.384 300.674 172.576C300.898 172.768 301.261 172.891 301.762 172.944L302.69 173.04C303.608 173.136 304.344 173.392 304.898 173.808C305.453 174.213 305.73 174.789 305.73 175.536C305.73 176.069 305.576 176.544 305.266 176.96C304.968 177.365 304.552 177.685 304.018 177.92C303.485 178.144 302.872 178.256 302.178 178.256ZM311.588 178.288C310.842 178.288 310.196 178.16 309.652 177.904C309.108 177.648 308.666 177.312 308.324 176.896C307.983 176.469 307.727 175.995 307.556 175.472C307.396 174.949 307.316 174.416 307.316 173.872V173.584C307.316 173.029 307.396 172.491 307.556 171.968C307.727 171.445 307.983 170.976 308.324 170.56C308.666 170.133 309.098 169.797 309.62 169.552C310.154 169.296 310.778 169.168 311.492 169.168C312.42 169.168 313.183 169.371 313.78 169.776C314.388 170.171 314.836 170.683 315.124 171.312C315.423 171.941 315.572 172.613 315.572 173.328V174.016H307.988V172.864H314.452L314.1 173.488C314.1 172.88 314.004 172.357 313.812 171.92C313.62 171.472 313.332 171.125 312.948 170.88C312.564 170.635 312.079 170.512 311.492 170.512C310.884 170.512 310.378 170.651 309.972 170.928C309.578 171.205 309.279 171.584 309.076 172.064C308.884 172.544 308.788 173.099 308.788 173.728C308.788 174.336 308.884 174.885 309.076 175.376C309.279 175.856 309.588 176.24 310.004 176.528C310.42 176.805 310.948 176.944 311.588 176.944C312.26 176.944 312.804 176.795 313.22 176.496C313.647 176.197 313.903 175.851 313.988 175.456H315.428C315.311 176.043 315.076 176.549 314.724 176.976C314.372 177.403 313.93 177.728 313.396 177.952C312.863 178.176 312.26 178.288 311.588 178.288Z" fill="#424242"/>
<path d="M198.944 55.936V54.56H201.552C202.107 54.56 202.565 54.4533 202.928 54.24C203.291 54.016 203.563 53.7173 203.744 53.344C203.936 52.9707 204.032 52.5547 204.032 52.096C204.032 51.6267 203.936 51.2053 203.744 50.832C203.563 50.4587 203.291 50.1653 202.928 49.952C202.565 49.7387 202.107 49.632 201.552 49.632H198.944V48.256H201.264C202.224 48.256 203.024 48.4107 203.664 48.72C204.315 49.0187 204.805 49.4453 205.136 50C205.467 50.5547 205.632 51.2107 205.632 51.968V52.224C205.632 52.9707 205.467 53.6267 205.136 54.192C204.805 54.7467 204.315 55.1787 203.664 55.488C203.024 55.7867 202.224 55.936 201.264 55.936H198.944ZM197.696 60V48.256H199.264V60H197.696ZM207.706 60V48.32H209.242V55.296H208.858C208.858 54.4533 208.965 53.728 209.178 53.12C209.402 52.5013 209.744 52.0267 210.202 51.696C210.661 51.3653 211.248 51.2 211.962 51.2H212.026C213.05 51.2 213.824 51.5413 214.346 52.224C214.869 52.896 215.13 53.8613 215.13 55.12V60H213.594V54.8C213.594 54.1067 213.397 53.568 213.002 53.184C212.618 52.8 212.117 52.608 211.498 52.608C210.816 52.608 210.266 52.8373 209.85 53.296C209.445 53.744 209.242 54.336 209.242 55.072V60H207.706ZM217.302 63.328V61.952H218.534C218.897 61.952 219.201 61.904 219.446 61.808C219.702 61.7227 219.91 61.5733 220.07 61.36C220.241 61.1467 220.38 60.864 220.486 60.512L223.174 51.456H224.678L221.83 60.912C221.66 61.4773 221.42 61.936 221.11 62.288C220.801 62.6507 220.422 62.912 219.974 63.072C219.537 63.2427 219.025 63.328 218.438 63.328H217.302ZM219.91 59.808V58.528H221.766V59.808H219.91ZM219.75 59.808L216.694 51.456H218.262L221.19 59.808H219.75ZM229.366 60.256C228.246 60.256 227.376 60.016 226.758 59.536C226.15 59.056 225.835 58.4 225.814 57.568H227.254C227.275 57.8987 227.44 58.2133 227.75 58.512C228.07 58.8 228.608 58.944 229.366 58.944C230.048 58.944 230.571 58.8107 230.934 58.544C231.296 58.2667 231.478 57.9307 231.478 57.536C231.478 57.184 231.344 56.912 231.078 56.72C230.811 56.5173 230.379 56.384 229.782 56.32L228.854 56.224C228.043 56.1387 227.382 55.8987 226.87 55.504C226.358 55.0987 226.102 54.5333 226.102 53.808C226.102 53.264 226.24 52.8 226.518 52.416C226.795 52.0213 227.179 51.7227 227.67 51.52C228.16 51.3067 228.726 51.2 229.366 51.2C230.326 51.2 231.104 51.4133 231.702 51.84C232.299 52.2667 232.608 52.9013 232.63 53.744H231.19C231.179 53.4027 231.019 53.1147 230.71 52.88C230.411 52.6347 229.963 52.512 229.366 52.512C228.768 52.512 228.315 52.6347 228.006 52.88C227.696 53.1253 227.542 53.4347 227.542 53.808C227.542 54.128 227.648 54.384 227.862 54.576C228.086 54.768 228.448 54.8907 228.95 54.944L229.878 55.04C230.795 55.136 231.531 55.392 232.086 55.808C232.64 56.2133 232.918 56.7893 232.918 57.536C232.918 58.0693 232.763 58.544 232.454 58.96C232.155 59.3653 231.739 59.6853 231.206 59.92C230.672 60.144 230.059 60.256 229.366 60.256ZM235.56 60V51.456H237.096V60H235.56ZM234.248 52.672V51.456H237.096V52.672H234.248ZM235.992 50.08C235.651 50.08 235.395 49.9893 235.224 49.808C235.064 49.6267 234.984 49.3973 234.984 49.12C234.984 48.8427 235.064 48.6133 235.224 48.432C235.395 48.2507 235.651 48.16 235.992 48.16C236.333 48.16 236.584 48.2507 236.744 48.432C236.915 48.6133 237 48.8427 237 49.12C237 49.3973 236.915 49.6267 236.744 49.808C236.584 49.9893 236.333 50.08 235.992 50.08ZM243.73 60.288C242.994 60.288 242.354 60.16 241.81 59.904C241.276 59.648 240.834 59.3067 240.482 58.88C240.13 58.4427 239.863 57.9627 239.682 57.44C239.511 56.9173 239.426 56.3947 239.426 55.872V55.584C239.426 55.04 239.511 54.5067 239.682 53.984C239.863 53.4613 240.13 52.992 240.482 52.576C240.844 52.1493 241.292 51.808 241.826 51.552C242.359 51.296 242.983 51.168 243.698 51.168C244.412 51.168 245.052 51.3013 245.618 51.568C246.194 51.8347 246.652 52.2133 246.994 52.704C247.346 53.184 247.543 53.7547 247.586 54.416H246.114C246.039 53.8827 245.794 53.44 245.378 53.088C244.962 52.7253 244.402 52.544 243.698 52.544C243.09 52.544 242.583 52.6827 242.178 52.96C241.772 53.2373 241.468 53.616 241.266 54.096C241.063 54.576 240.962 55.12 240.962 55.728C240.962 56.3147 241.063 56.8533 241.266 57.344C241.468 57.824 241.772 58.208 242.178 58.496C242.594 58.7733 243.111 58.912 243.73 58.912C244.21 58.912 244.626 58.8267 244.978 58.656C245.33 58.4853 245.612 58.256 245.826 57.968C246.039 57.68 246.167 57.3547 246.21 56.992H247.682C247.65 57.664 247.452 58.2453 247.09 58.736C246.738 59.2267 246.268 59.6107 245.682 59.888C245.106 60.1547 244.455 60.288 243.73 60.288ZM254.937 60V57.44H254.681V54.48C254.681 53.8933 254.526 53.4507 254.217 53.152C253.918 52.8533 253.476 52.704 252.889 52.704C252.558 52.704 252.217 52.7093 251.865 52.72C251.513 52.7307 251.177 52.7413 250.857 52.752C250.537 52.7627 250.26 52.7787 250.025 52.8V51.456C250.26 51.4347 250.505 51.4187 250.761 51.408C251.028 51.3867 251.3 51.376 251.577 51.376C251.854 51.3653 252.121 51.36 252.377 51.36C253.252 51.36 253.966 51.4667 254.521 51.68C255.076 51.8827 255.486 52.2187 255.753 52.688C256.02 53.1573 256.153 53.792 256.153 54.592V60H254.937ZM252.137 60.224C251.497 60.224 250.942 60.1173 250.473 59.904C250.014 59.68 249.657 59.36 249.401 58.944C249.156 58.528 249.033 58.0267 249.033 57.44C249.033 56.832 249.166 56.3253 249.433 55.92C249.71 55.5147 250.11 55.2107 250.633 55.008C251.156 54.7947 251.785 54.688 252.521 54.688H254.841V55.84H252.457C251.838 55.84 251.364 55.9893 251.033 56.288C250.702 56.5867 250.537 56.9707 250.537 57.44C250.537 57.9093 250.702 58.288 251.033 58.576C251.364 58.864 251.838 59.008 252.457 59.008C252.82 59.008 253.166 58.944 253.497 58.816C253.828 58.6773 254.1 58.4533 254.313 58.144C254.537 57.824 254.66 57.3867 254.681 56.832L255.097 57.44C255.044 58.048 254.894 58.56 254.649 58.976C254.414 59.3813 254.084 59.6907 253.657 59.904C253.241 60.1173 252.734 60.224 252.137 60.224ZM259.068 60V48.32H260.604V60H259.068ZM257.884 49.536V48.32H260.604V49.536H257.884ZM270.855 60.288C270.119 60.288 269.479 60.16 268.935 59.904C268.401 59.648 267.959 59.3067 267.607 58.88C267.255 58.4427 266.988 57.9627 266.807 57.44C266.636 56.9173 266.551 56.3947 266.551 55.872V55.584C266.551 55.04 266.636 54.5067 266.807 53.984C266.988 53.4613 267.255 52.992 267.607 52.576C267.969 52.1493 268.417 51.808 268.951 51.552C269.484 51.296 270.108 51.168 270.823 51.168C271.537 51.168 272.177 51.3013 272.743 51.568C273.319 51.8347 273.777 52.2133 274.119 52.704C274.471 53.184 274.668 53.7547 274.711 54.416H273.239C273.164 53.8827 272.919 53.44 272.503 53.088C272.087 52.7253 271.527 52.544 270.823 52.544C270.215 52.544 269.708 52.6827 269.303 52.96C268.897 53.2373 268.593 53.616 268.391 54.096C268.188 54.576 268.087 55.12 268.087 55.728C268.087 56.3147 268.188 56.8533 268.391 57.344C268.593 57.824 268.897 58.208 269.303 58.496C269.719 58.7733 270.236 58.912 270.855 58.912C271.335 58.912 271.751 58.8267 272.103 58.656C272.455 58.4853 272.737 58.256 272.951 57.968C273.164 57.68 273.292 57.3547 273.335 56.992H274.807C274.775 57.664 274.577 58.2453 274.215 58.736C273.863 59.2267 273.393 59.6107 272.807 59.888C272.231 60.1547 271.58 60.288 270.855 60.288ZM280.83 60.288C280.083 60.288 279.427 60.16 278.862 59.904C278.297 59.648 277.817 59.312 277.422 58.896C277.038 58.4693 276.745 57.9947 276.542 57.472C276.35 56.9493 276.254 56.416 276.254 55.872V55.584C276.254 55.04 276.355 54.5067 276.558 53.984C276.761 53.4507 277.059 52.976 277.454 52.56C277.849 52.1333 278.329 51.7973 278.894 51.552C279.459 51.296 280.105 51.168 280.83 51.168C281.555 51.168 282.201 51.296 282.766 51.552C283.331 51.7973 283.811 52.1333 284.206 52.56C284.601 52.976 284.899 53.4507 285.102 53.984C285.305 54.5067 285.406 55.04 285.406 55.584V55.872C285.406 56.416 285.305 56.9493 285.102 57.472C284.91 57.9947 284.617 58.4693 284.222 58.896C283.838 59.312 283.363 59.648 282.798 59.904C282.233 60.16 281.577 60.288 280.83 60.288ZM280.83 58.912C281.47 58.912 282.014 58.7733 282.462 58.496C282.921 58.208 283.267 57.824 283.502 57.344C283.747 56.864 283.87 56.3253 283.87 55.728C283.87 55.12 283.747 54.576 283.502 54.096C283.257 53.616 282.905 53.2373 282.446 52.96C281.998 52.6827 281.459 52.544 280.83 52.544C280.211 52.544 279.673 52.6827 279.214 52.96C278.755 53.2373 278.403 53.616 278.158 54.096C277.913 54.576 277.79 55.12 277.79 55.728C277.79 56.3253 277.907 56.864 278.142 57.344C278.387 57.824 278.734 58.208 279.182 58.496C279.641 58.7733 280.19 58.912 280.83 58.912ZM287.706 60V51.456H288.922V55.12H288.73C288.73 54.2773 288.842 53.568 289.066 52.992C289.301 52.4053 289.653 51.9627 290.122 51.664C290.592 51.3547 291.184 51.2 291.898 51.2H291.962C293.04 51.2 293.834 51.536 294.346 52.208C294.869 52.88 295.13 53.8507 295.13 55.12V60H293.594V54.8C293.594 54.1387 293.408 53.6107 293.034 53.216C292.661 52.8107 292.149 52.608 291.498 52.608C290.826 52.608 290.282 52.816 289.866 53.232C289.45 53.648 289.242 54.2027 289.242 54.896V60H287.706ZM301.509 60.288C300.901 60.288 300.341 60.176 299.829 59.952C299.317 59.728 298.869 59.4133 298.485 59.008C298.111 58.6027 297.818 58.1333 297.605 57.6C297.402 57.0667 297.301 56.4907 297.301 55.872V55.584C297.301 54.976 297.402 54.4053 297.605 53.872C297.807 53.3387 298.09 52.8693 298.453 52.464C298.826 52.0587 299.263 51.744 299.765 51.52C300.277 51.2853 300.842 51.168 301.461 51.168C302.111 51.168 302.703 51.3067 303.237 51.584C303.77 51.8507 304.207 52.272 304.549 52.848C304.89 53.424 305.082 54.1707 305.125 55.088L304.485 54.064V48.32H306.021V60H304.805V56.208H305.253C305.21 57.1787 305.007 57.968 304.645 58.576C304.282 59.1733 303.823 59.6107 303.269 59.888C302.725 60.1547 302.138 60.288 301.509 60.288ZM301.717 58.944C302.239 58.944 302.714 58.8267 303.141 58.592C303.567 58.3573 303.909 58.0213 304.165 57.584C304.421 57.136 304.549 56.6133 304.549 56.016V55.28C304.549 54.6933 304.415 54.1973 304.149 53.792C303.893 53.376 303.546 53.0613 303.109 52.848C302.682 52.624 302.213 52.512 301.701 52.512C301.135 52.512 300.634 52.6453 300.197 52.912C299.77 53.1787 299.434 53.552 299.189 54.032C298.954 54.512 298.837 55.0773 298.837 55.728C298.837 56.3787 298.959 56.9493 299.205 57.44C299.45 57.92 299.791 58.2933 300.229 58.56C300.666 58.816 301.162 58.944 301.717 58.944ZM309.388 60V51.456H310.924V60H309.388ZM308.076 52.672V51.456H310.924V52.672H308.076ZM309.82 50.08C309.479 50.08 309.223 49.9893 309.052 49.808C308.892 49.6267 308.812 49.3973 308.812 49.12C308.812 48.8427 308.892 48.6133 309.052 48.432C309.223 48.2507 309.479 48.16 309.82 48.16C310.161 48.16 310.412 48.2507 310.572 48.432C310.743 48.6133 310.828 48.8427 310.828 49.12C310.828 49.3973 310.743 49.6267 310.572 49.808C310.412 49.9893 310.161 50.08 309.82 50.08ZM317.222 60.096C316.582 60.096 316.027 60.0053 315.558 59.824C315.099 59.6427 314.742 59.3333 314.486 58.896C314.241 58.448 314.118 57.8453 314.118 57.088V48.864H315.59V57.28C315.59 57.7387 315.713 58.096 315.958 58.352C316.214 58.5973 316.571 58.72 317.03 58.72H318.534V60.096H317.222ZM312.646 52.608V51.456H318.534V52.608H312.646ZM321.122 60V51.456H322.658V60H321.122ZM319.81 52.672V51.456H322.658V52.672H319.81ZM321.554 50.08C321.213 50.08 320.957 49.9893 320.786 49.808C320.626 49.6267 320.546 49.3973 320.546 49.12C320.546 48.8427 320.626 48.6133 320.786 48.432C320.957 48.2507 321.213 48.16 321.554 48.16C321.896 48.16 322.146 48.2507 322.306 48.432C322.477 48.6133 322.562 48.8427 322.562 49.12C322.562 49.3973 322.477 49.6267 322.306 49.808C322.146 49.9893 321.896 50.08 321.554 50.08ZM329.564 60.288C328.818 60.288 328.162 60.16 327.596 59.904C327.031 59.648 326.551 59.312 326.156 58.896C325.772 58.4693 325.479 57.9947 325.276 57.472C325.084 56.9493 324.988 56.416 324.988 55.872V55.584C324.988 55.04 325.09 54.5067 325.292 53.984C325.495 53.4507 325.794 52.976 326.188 52.56C326.583 52.1333 327.063 51.7973 327.628 51.552C328.194 51.296 328.839 51.168 329.564 51.168C330.29 51.168 330.935 51.296 331.5 51.552C332.066 51.7973 332.546 52.1333 332.94 52.56C333.335 52.976 333.634 53.4507 333.836 53.984C334.039 54.5067 334.14 55.04 334.14 55.584V55.872C334.14 56.416 334.039 56.9493 333.836 57.472C333.644 57.9947 333.351 58.4693 332.956 58.896C332.572 59.312 332.098 59.648 331.532 59.904C330.967 60.16 330.311 60.288 329.564 60.288ZM329.564 58.912C330.204 58.912 330.748 58.7733 331.196 58.496C331.655 58.208 332.002 57.824 332.236 57.344C332.482 56.864 332.604 56.3253 332.604 55.728C332.604 55.12 332.482 54.576 332.236 54.096C331.991 53.616 331.639 53.2373 331.18 52.96C330.732 52.6827 330.194 52.544 329.564 52.544C328.946 52.544 328.407 52.6827 327.948 52.96C327.49 53.2373 327.138 53.616 326.892 54.096C326.647 54.576 326.524 55.12 326.524 55.728C326.524 56.3253 326.642 56.864 326.876 57.344C327.122 57.824 327.468 58.208 327.916 58.496C328.375 58.7733 328.924 58.912 329.564 58.912ZM336.441 60V51.456H337.657V55.12H337.465C337.465 54.2773 337.577 53.568 337.801 52.992C338.035 52.4053 338.387 51.9627 338.857 51.664C339.326 51.3547 339.918 51.2 340.633 51.2H340.697C341.774 51.2 342.569 51.536 343.081 52.208C343.603 52.88 343.865 53.8507 343.865 55.12V60H342.329V54.8C342.329 54.1387 342.142 53.6107 341.769 53.216C341.395 52.8107 340.883 52.608 340.233 52.608C339.561 52.608 339.017 52.816 338.601 53.232C338.185 53.648 337.977 54.2027 337.977 54.896V60H336.441ZM349.475 60.256C348.355 60.256 347.486 60.016 346.867 59.536C346.259 59.056 345.944 58.4 345.923 57.568H347.363C347.384 57.8987 347.55 58.2133 347.859 58.512C348.179 58.8 348.718 58.944 349.475 58.944C350.158 58.944 350.68 58.8107 351.043 58.544C351.406 58.2667 351.587 57.9307 351.587 57.536C351.587 57.184 351.454 56.912 351.187 56.72C350.92 56.5173 350.488 56.384 349.891 56.32L348.963 56.224C348.152 56.1387 347.491 55.8987 346.979 55.504C346.467 55.0987 346.211 54.5333 346.211 53.808C346.211 53.264 346.35 52.8 346.627 52.416C346.904 52.0213 347.288 51.7227 347.779 51.52C348.27 51.3067 348.835 51.2 349.475 51.2C350.435 51.2 351.214 51.4133 351.811 51.84C352.408 52.2667 352.718 52.9013 352.739 53.744H351.299C351.288 53.4027 351.128 53.1147 350.819 52.88C350.52 52.6347 350.072 52.512 349.475 52.512C348.878 52.512 348.424 52.6347 348.115 52.88C347.806 53.1253 347.651 53.4347 347.651 53.808C347.651 54.128 347.758 54.384 347.971 54.576C348.195 54.768 348.558 54.8907 349.059 54.944L349.987 55.04C350.904 55.136 351.64 55.392 352.195 55.808C352.75 56.2133 353.027 56.7893 353.027 57.536C353.027 58.0693 352.872 58.544 352.563 58.96C352.264 59.3653 351.848 59.6853 351.315 59.92C350.782 60.144 350.168 60.256 349.475 60.256Z" fill="#424242"/>
<path d="M198.944 119.064V117.624H201.856C202.56 117.624 203.184 117.512 203.728 117.288C204.283 117.053 204.752 116.733 205.136 116.328C205.531 115.923 205.829 115.448 206.032 114.904C206.235 114.36 206.336 113.773 206.336 113.144C206.336 112.483 206.235 111.885 206.032 111.352C205.829 110.808 205.531 110.339 205.136 109.944C204.752 109.539 204.283 109.229 203.728 109.016C203.184 108.803 202.56 108.696 201.856 108.696H198.944V107.256H201.696C202.752 107.256 203.669 107.421 204.448 107.752C205.227 108.072 205.872 108.509 206.384 109.064C206.907 109.608 207.296 110.221 207.552 110.904C207.808 111.576 207.936 112.264 207.936 112.968V113.32C207.936 114.003 207.808 114.685 207.552 115.368C207.296 116.051 206.907 116.669 206.384 117.224C205.872 117.779 205.227 118.227 204.448 118.568C203.669 118.899 202.752 119.064 201.696 119.064H198.944ZM197.696 119.064V107.256H199.264V119.064H197.696ZM210.544 119V110.456H212.08V119H210.544ZM209.232 111.672V110.456H212.08V111.672H209.232ZM210.976 109.08C210.635 109.08 210.379 108.989 210.208 108.808C210.048 108.627 209.968 108.397 209.968 108.12C209.968 107.843 210.048 107.613 210.208 107.432C210.379 107.251 210.635 107.16 210.976 107.16C211.318 107.16 211.568 107.251 211.728 107.432C211.899 107.613 211.984 107.843 211.984 108.12C211.984 108.397 211.899 108.627 211.728 108.808C211.568 108.989 211.318 109.08 210.976 109.08ZM218.282 122.328C217.887 122.328 217.487 122.312 217.082 122.28C216.687 122.248 216.309 122.205 215.946 122.152V120.856C216.33 120.909 216.73 120.952 217.146 120.984C217.573 121.027 217.973 121.048 218.346 121.048C219.125 121.048 219.743 120.941 220.202 120.728C220.671 120.525 221.007 120.2 221.21 119.752C221.423 119.315 221.53 118.749 221.53 118.056V116.424L222.042 115.208C222.01 116.072 221.829 116.792 221.498 117.368C221.167 117.933 220.735 118.36 220.202 118.648C219.679 118.925 219.098 119.064 218.458 119.064C217.861 119.064 217.311 118.952 216.81 118.728C216.319 118.493 215.893 118.173 215.53 117.768C215.178 117.363 214.901 116.899 214.698 116.376C214.506 115.843 214.41 115.283 214.41 114.696V114.408C214.41 113.811 214.511 113.256 214.714 112.744C214.917 112.221 215.199 111.768 215.562 111.384C215.925 111 216.357 110.701 216.858 110.488C217.37 110.275 217.93 110.168 218.538 110.168C219.253 110.168 219.882 110.323 220.426 110.632C220.97 110.931 221.397 111.373 221.706 111.96C222.026 112.536 222.202 113.245 222.234 114.088L221.786 114.104V110.456H223.002V117.992C223.002 119.016 222.842 119.843 222.522 120.472C222.213 121.112 221.711 121.581 221.018 121.88C220.335 122.179 219.423 122.328 218.282 122.328ZM218.746 117.656C219.258 117.656 219.722 117.544 220.138 117.32C220.565 117.096 220.901 116.776 221.146 116.36C221.402 115.933 221.53 115.427 221.53 114.84V114.104C221.53 113.528 221.397 113.043 221.13 112.648C220.874 112.253 220.538 111.955 220.122 111.752C219.706 111.549 219.253 111.448 218.762 111.448C218.207 111.448 217.717 111.576 217.29 111.832C216.863 112.088 216.533 112.451 216.298 112.92C216.063 113.379 215.946 113.923 215.946 114.552C215.946 115.181 216.063 115.731 216.298 116.2C216.543 116.669 216.874 117.032 217.29 117.288C217.717 117.533 218.202 117.656 218.746 117.656ZM226.263 119V110.456H227.799V119H226.263ZM224.951 111.672V110.456H227.799V111.672H224.951ZM226.695 109.08C226.354 109.08 226.098 108.989 225.927 108.808C225.767 108.627 225.687 108.397 225.687 108.12C225.687 107.843 225.767 107.613 225.927 107.432C226.098 107.251 226.354 107.16 226.695 107.16C227.036 107.16 227.287 107.251 227.447 107.432C227.618 107.613 227.703 107.843 227.703 108.12C227.703 108.397 227.618 108.627 227.447 108.808C227.287 108.989 227.036 109.08 226.695 109.08ZM234.097 119.096C233.457 119.096 232.902 119.005 232.433 118.824C231.974 118.643 231.617 118.333 231.361 117.896C231.116 117.448 230.993 116.845 230.993 116.088V107.864H232.465V116.28C232.465 116.739 232.588 117.096 232.833 117.352C233.089 117.597 233.446 117.72 233.905 117.72H235.409V119.096H234.097ZM229.521 111.608V110.456H235.409V111.608H229.521ZM242.718 119V116.44H242.462V113.48C242.462 112.893 242.307 112.451 241.998 112.152C241.699 111.853 241.257 111.704 240.67 111.704C240.339 111.704 239.998 111.709 239.646 111.72C239.294 111.731 238.958 111.741 238.638 111.752C238.318 111.763 238.041 111.779 237.806 111.8V110.456C238.041 110.435 238.286 110.419 238.542 110.408C238.809 110.387 239.081 110.376 239.358 110.376C239.635 110.365 239.902 110.36 240.158 110.36C241.033 110.36 241.747 110.467 242.302 110.68C242.857 110.883 243.267 111.219 243.534 111.688C243.801 112.157 243.934 112.792 243.934 113.592V119H242.718ZM239.918 119.224C239.278 119.224 238.723 119.117 238.254 118.904C237.795 118.68 237.438 118.36 237.182 117.944C236.937 117.528 236.814 117.027 236.814 116.44C236.814 115.832 236.947 115.325 237.214 114.92C237.491 114.515 237.891 114.211 238.414 114.008C238.937 113.795 239.566 113.688 240.302 113.688H242.622V114.84H240.238C239.619 114.84 239.145 114.989 238.814 115.288C238.483 115.587 238.318 115.971 238.318 116.44C238.318 116.909 238.483 117.288 238.814 117.576C239.145 117.864 239.619 118.008 240.238 118.008C240.601 118.008 240.947 117.944 241.278 117.816C241.609 117.677 241.881 117.453 242.094 117.144C242.318 116.824 242.441 116.387 242.462 115.832L242.878 116.44C242.825 117.048 242.675 117.56 242.43 117.976C242.195 118.381 241.865 118.691 241.438 118.904C241.022 119.117 240.515 119.224 239.918 119.224ZM246.849 119V107.32H248.385V119H246.849ZM245.665 108.536V107.32H248.385V108.536H245.665ZM257.772 119.256C256.652 119.256 255.783 119.016 255.164 118.536C254.556 118.056 254.241 117.4 254.22 116.568H255.66C255.681 116.899 255.847 117.213 256.156 117.512C256.476 117.8 257.015 117.944 257.772 117.944C258.455 117.944 258.977 117.811 259.34 117.544C259.703 117.267 259.884 116.931 259.884 116.536C259.884 116.184 259.751 115.912 259.484 115.72C259.217 115.517 258.785 115.384 258.188 115.32L257.26 115.224C256.449 115.139 255.788 114.899 255.276 114.504C254.764 114.099 254.508 113.533 254.508 112.808C254.508 112.264 254.647 111.8 254.924 111.416C255.201 111.021 255.585 110.723 256.076 110.52C256.567 110.307 257.132 110.2 257.772 110.2C258.732 110.2 259.511 110.413 260.108 110.84C260.705 111.267 261.015 111.901 261.036 112.744H259.596C259.585 112.403 259.425 112.115 259.116 111.88C258.817 111.635 258.369 111.512 257.772 111.512C257.175 111.512 256.721 111.635 256.412 111.88C256.103 112.125 255.948 112.435 255.948 112.808C255.948 113.128 256.055 113.384 256.268 113.576C256.492 113.768 256.855 113.891 257.356 113.944L258.284 114.04C259.201 114.136 259.937 114.392 260.492 114.808C261.047 115.213 261.324 115.789 261.324 116.536C261.324 117.069 261.169 117.544 260.86 117.96C260.561 118.365 260.145 118.685 259.612 118.92C259.079 119.144 258.465 119.256 257.772 119.256ZM269.438 119L266.222 115.016H264.814L268.734 110.456H270.35L266.798 114.568L266.91 113.752L271.214 119H269.438ZM263.55 119V107.32H265.086V119H263.55ZM273.138 119V110.456H274.674V119H273.138ZM271.826 111.672V110.456H274.674V111.672H271.826ZM273.57 109.08C273.229 109.08 272.973 108.989 272.802 108.808C272.642 108.627 272.562 108.397 272.562 108.12C272.562 107.843 272.642 107.613 272.802 107.432C272.973 107.251 273.229 107.16 273.57 107.16C273.911 107.16 274.162 107.251 274.322 107.432C274.493 107.613 274.578 107.843 274.578 108.12C274.578 108.397 274.493 108.627 274.322 108.808C274.162 108.989 273.911 109.08 273.57 109.08ZM277.74 119V107.32H279.276V119H277.74ZM276.556 108.536V107.32H279.276V108.536H276.556ZM282.318 119V107.32H283.854V119H282.318ZM281.134 108.536V107.32H283.854V108.536H281.134ZM289.6 119.256C288.48 119.256 287.611 119.016 286.992 118.536C286.384 118.056 286.069 117.4 286.048 116.568H287.488C287.509 116.899 287.675 117.213 287.984 117.512C288.304 117.8 288.843 117.944 289.6 117.944C290.283 117.944 290.805 117.811 291.168 117.544C291.531 117.267 291.712 116.931 291.712 116.536C291.712 116.184 291.579 115.912 291.312 115.72C291.045 115.517 290.613 115.384 290.016 115.32L289.088 115.224C288.277 115.139 287.616 114.899 287.104 114.504C286.592 114.099 286.336 113.533 286.336 112.808C286.336 112.264 286.475 111.8 286.752 111.416C287.029 111.021 287.413 110.723 287.904 110.52C288.395 110.307 288.96 110.2 289.6 110.2C290.56 110.2 291.339 110.413 291.936 110.84C292.533 111.267 292.843 111.901 292.864 112.744H291.424C291.413 112.403 291.253 112.115 290.944 111.88C290.645 111.635 290.197 111.512 289.6 111.512C289.003 111.512 288.549 111.635 288.24 111.88C287.931 112.125 287.776 112.435 287.776 112.808C287.776 113.128 287.883 113.384 288.096 113.576C288.32 113.768 288.683 113.891 289.184 113.944L290.112 114.04C291.029 114.136 291.765 114.392 292.32 114.808C292.875 115.213 293.152 115.789 293.152 116.536C293.152 117.069 292.997 117.544 292.688 117.96C292.389 118.365 291.973 118.685 291.44 118.92C290.907 119.144 290.293 119.256 289.6 119.256Z" fill="#424242"/>
<circle cx="205.5" cy="84.5" r="5.5" fill="#0C76F8"/>
<circle cx="205.5" cy="84.5" r="8.5" stroke="#0C76F8" stroke-width="2"/>
<circle cx="205.5" cy="202.5" r="5.5" fill="#0C76F8"/>
<circle cx="205.5" cy="202.5" r="8.5" stroke="#0C76F8" stroke-width="2"/>
<circle cx="205.5" cy="143.5" r="5.5" fill="#0C76F8"/>
<circle cx="205.5" cy="143.5" r="8.5" stroke="#0C76F8" stroke-width="2"/>
<circle cx="234.5" cy="84.5" r="5.5" fill="#0C76F8"/>
<circle cx="234.5" cy="84.5" r="8.5" stroke="#0C76F8" stroke-width="2"/>
<circle cx="234.5" cy="143.5" r="5.5" fill="#0C76F8"/>
<circle cx="234.5" cy="143.5" r="8.5" stroke="#0C76F8" stroke-width="2"/>
<circle cx="292.5" cy="84.5" r="5.5" fill="#0C76F8"/>
<circle cx="292.5" cy="84.5" r="8.5" stroke="#0C76F8" stroke-width="2"/>
<circle cx="292.5" cy="143.5" r="5.5" fill="#0C76F8"/>
<circle cx="292.5" cy="143.5" r="8.5" stroke="#0C76F8" stroke-width="2"/>
<circle cx="263.5" cy="84.5" r="5.5" fill="#0C76F8"/>
<circle cx="263.5" cy="84.5" r="8.5" stroke="#0C76F8" stroke-width="2"/>
<circle cx="263.5" cy="143.5" r="5.5" fill="#0C76F8"/>
<circle cx="263.5" cy="143.5" r="8.5" stroke="#0C76F8" stroke-width="2"/>
<circle cx="321.5" cy="84.5" r="5.5" fill="#0C76F8"/>
<circle cx="321.5" cy="84.5" r="8.5" stroke="#0C76F8" stroke-width="2"/>
<circle cx="321.5" cy="143.5" r="5.5" fill="#0C76F8"/>
<circle cx="321.5" cy="143.5" r="8.5" stroke="#0C76F8" stroke-width="2"/>
<path d="M70.0206 19.38C68.7006 19.38 67.5673 19.1467 66.6206 18.68C65.674 18.2133 64.9006 17.6067 64.3006 16.86C63.714 16.1133 63.2806 15.3 63.0006 14.42C62.7206 13.54 62.5806 12.6933 62.5806 11.88V11.44C62.5806 10.5333 62.7206 9.64 63.0006 8.76C63.294 7.88 63.7406 7.08 64.3406 6.36C64.9406 5.64 65.7006 5.06667 66.6206 4.64C67.554 4.2 68.654 3.98 69.9206 3.98C71.2406 3.98 72.3873 4.22 73.3606 4.7C74.3473 5.16667 75.134 5.83333 75.7206 6.7C76.3073 7.55333 76.6606 8.55333 76.7806 9.7H73.9206C73.814 9.03333 73.574 8.47333 73.2006 8.02C72.8406 7.55333 72.3806 7.20667 71.8206 6.98C71.2606 6.74 70.6273 6.62 69.9206 6.62C69.2006 6.62 68.5606 6.74667 68.0006 7C67.4406 7.24 66.974 7.58667 66.6006 8.04C66.2273 8.49333 65.9406 9.02667 65.7406 9.64C65.554 10.2533 65.4606 10.9333 65.4606 11.68C65.4606 12.4 65.554 13.0667 65.7406 13.68C65.9406 14.2933 66.234 14.8333 66.6206 15.3C67.0073 15.7533 67.4806 16.1067 68.0406 16.36C68.614 16.6133 69.274 16.74 70.0206 16.74C71.114 16.74 72.034 16.4733 72.7806 15.94C73.5406 15.3933 74.0006 14.6333 74.1606 13.66H77.0206C76.8873 14.7 76.534 15.6533 75.9606 16.52C75.3873 17.3867 74.6006 18.08 73.6006 18.6C72.6006 19.12 71.4073 19.38 70.0206 19.38ZM84.4172 19.38C83.4572 19.38 82.6105 19.2267 81.8772 18.92C81.1439 18.6133 80.5239 18.2 80.0172 17.68C79.5105 17.1467 79.1239 16.5467 78.8572 15.88C78.6039 15.2133 78.4772 14.52 78.4772 13.8V13.38C78.4772 12.6333 78.6105 11.9267 78.8772 11.26C79.1572 10.58 79.5505 9.98 80.0572 9.46C80.5772 8.92667 81.2039 8.51333 81.9372 8.22C82.6705 7.91333 83.4972 7.76 84.4172 7.76C85.3372 7.76 86.1639 7.91333 86.8972 8.22C87.6305 8.51333 88.2505 8.92667 88.7572 9.46C89.2772 9.98 89.6705 10.58 89.9372 11.26C90.2039 11.9267 90.3372 12.6333 90.3372 13.38V13.8C90.3372 14.52 90.2039 15.2133 89.9372 15.88C89.6839 16.5467 89.3039 17.1467 88.7972 17.68C88.2905 18.2 87.6705 18.6133 86.9372 18.92C86.2039 19.2267 85.3639 19.38 84.4172 19.38ZM84.4172 17C85.0972 17 85.6705 16.8533 86.1372 16.56C86.6039 16.2533 86.9572 15.8467 87.1972 15.34C87.4372 14.82 87.5572 14.2333 87.5572 13.58C87.5572 12.9133 87.4305 12.3267 87.1772 11.82C86.9372 11.3 86.5772 10.8933 86.0972 10.6C85.6305 10.2933 85.0705 10.14 84.4172 10.14C83.7639 10.14 83.1972 10.2933 82.7172 10.6C82.2505 10.8933 81.8905 11.3 81.6372 11.82C81.3839 12.3267 81.2572 12.9133 81.2572 13.58C81.2572 14.2333 81.3772 14.82 81.6172 15.34C81.8705 15.8467 82.2305 16.2533 82.6972 16.56C83.1639 16.8533 83.7372 17 84.4172 17ZM92.7714 19V8.14H94.9714V12.8H94.7714C94.7714 11.7067 94.9114 10.7933 95.1914 10.06C95.4714 9.31333 95.8847 8.75333 96.4314 8.38C96.9914 7.99333 97.6847 7.8 98.5114 7.8H98.6314C99.4714 7.8 100.165 7.99333 100.711 8.38C101.271 8.75333 101.685 9.31333 101.951 10.06C102.231 10.7933 102.371 11.7067 102.371 12.8H101.671C101.671 11.7067 101.811 10.7933 102.091 10.06C102.385 9.31333 102.805 8.75333 103.351 8.38C103.911 7.99333 104.605 7.8 105.431 7.8H105.551C106.391 7.8 107.091 7.99333 107.651 8.38C108.211 8.75333 108.631 9.31333 108.911 10.06C109.205 10.7933 109.351 11.7067 109.351 12.8V19H106.571V12.54C106.571 11.86 106.398 11.32 106.051 10.92C105.705 10.5067 105.211 10.3 104.571 10.3C103.931 10.3 103.418 10.5133 103.031 10.94C102.645 11.3533 102.451 11.9133 102.451 12.62V19H99.6714V12.54C99.6714 11.86 99.4981 11.32 99.1514 10.92C98.8047 10.5067 98.3114 10.3 97.6714 10.3C97.0314 10.3 96.5181 10.5133 96.1314 10.94C95.7447 11.3533 95.5514 11.9133 95.5514 12.62V19H92.7714ZM112.322 19V8.14H114.522V12.8H114.322C114.322 11.7067 114.462 10.7933 114.742 10.06C115.022 9.31333 115.436 8.75333 115.982 8.38C116.542 7.99333 117.236 7.8 118.062 7.8H118.182C119.022 7.8 119.716 7.99333 120.262 8.38C120.822 8.75333 121.236 9.31333 121.502 10.06C121.782 10.7933 121.922 11.7067 121.922 12.8H121.222C121.222 11.7067 121.362 10.7933 121.642 10.06C121.936 9.31333 122.356 8.75333 122.902 8.38C123.462 7.99333 124.156 7.8 124.982 7.8H125.102C125.942 7.8 126.642 7.99333 127.202 8.38C127.762 8.75333 128.182 9.31333 128.462 10.06C128.756 10.7933 128.902 11.7067 128.902 12.8V19H126.122V12.54C126.122 11.86 125.949 11.32 125.602 10.92C125.256 10.5067 124.762 10.3 124.122 10.3C123.482 10.3 122.969 10.5133 122.582 10.94C122.196 11.3533 122.002 11.9133 122.002 12.62V19H119.222V12.54C119.222 11.86 119.049 11.32 118.702 10.92C118.356 10.5067 117.862 10.3 117.222 10.3C116.582 10.3 116.069 10.5133 115.682 10.94C115.296 11.3533 115.102 11.9133 115.102 12.62V19H112.322ZM135.573 19.34C134.32 19.34 133.346 18.9267 132.653 18.1C131.973 17.2733 131.633 16.0467 131.633 14.42V8.12H134.413V14.66C134.413 15.3267 134.6 15.86 134.973 16.26C135.346 16.6467 135.853 16.84 136.493 16.84C137.133 16.84 137.653 16.6333 138.053 16.22C138.466 15.8067 138.673 15.2467 138.673 14.54V8.12H141.453V19H139.253V14.38H139.473C139.473 15.4733 139.333 16.3867 139.053 17.12C138.773 17.8533 138.353 18.4067 137.793 18.78C137.233 19.1533 136.533 19.34 135.693 19.34H135.573ZM149.366 19.14C148.366 19.14 147.54 19.0133 146.886 18.76C146.246 18.4933 145.766 18.0533 145.446 17.44C145.126 16.8133 144.966 15.9733 144.966 14.92L144.986 5.08H147.586L147.566 15.1C147.566 15.6333 147.706 16.0467 147.986 16.34C148.28 16.62 148.693 16.76 149.226 16.76H150.926V19.14H149.366ZM143.246 10.18V8.14H150.926V10.18H143.246ZM158.061 19.38C157.128 19.38 156.308 19.22 155.601 18.9C154.908 18.58 154.328 18.1533 153.861 17.62C153.408 17.0733 153.061 16.4667 152.821 15.8C152.594 15.1333 152.481 14.4533 152.481 13.76V13.38C152.481 12.66 152.594 11.9667 152.821 11.3C153.061 10.62 153.408 10.02 153.861 9.5C154.328 8.96667 154.901 8.54667 155.581 8.24C156.261 7.92 157.048 7.76 157.941 7.76C159.114 7.76 160.094 8.02 160.881 8.54C161.681 9.04667 162.281 9.72 162.681 10.56C163.081 11.3867 163.281 12.28 163.281 13.24V14.24H153.661V12.54H161.541L160.681 13.38C160.681 12.6867 160.581 12.0933 160.381 11.6C160.181 11.1067 159.874 10.7267 159.461 10.46C159.061 10.1933 158.554 10.06 157.941 10.06C157.328 10.06 156.808 10.2 156.381 10.48C155.954 10.76 155.628 11.1667 155.401 11.7C155.188 12.22 155.081 12.8467 155.081 13.58C155.081 14.26 155.188 14.8667 155.401 15.4C155.614 15.92 155.941 16.3333 156.381 16.64C156.821 16.9333 157.381 17.08 158.061 17.08C158.741 17.08 159.294 16.9467 159.721 16.68C160.148 16.4 160.421 16.06 160.541 15.66H163.101C162.941 16.4067 162.634 17.06 162.181 17.62C161.728 18.18 161.148 18.6133 160.441 18.92C159.748 19.2267 158.954 19.38 158.061 19.38ZM169.543 19.34C168.05 19.34 166.877 19.0267 166.023 18.4C165.183 17.76 164.743 16.88 164.703 15.76H167.203C167.243 16.1333 167.45 16.4733 167.823 16.78C168.197 17.0867 168.783 17.24 169.583 17.24C170.25 17.24 170.777 17.12 171.163 16.88C171.563 16.64 171.763 16.3133 171.763 15.9C171.763 15.54 171.61 15.2533 171.303 15.04C171.01 14.8267 170.503 14.6867 169.783 14.62L168.823 14.52C167.61 14.3867 166.677 14.04 166.023 13.48C165.37 12.92 165.043 12.1733 165.043 11.24C165.043 10.4933 165.23 9.86667 165.603 9.36C165.977 8.85333 166.49 8.47333 167.143 8.22C167.81 7.95333 168.57 7.82 169.423 7.82C170.757 7.82 171.837 8.11333 172.663 8.7C173.49 9.28667 173.923 10.1467 173.963 11.28H171.463C171.437 10.9067 171.25 10.5867 170.903 10.32C170.557 10.0533 170.057 9.92 169.403 9.92C168.817 9.92 168.363 10.0333 168.043 10.26C167.723 10.4867 167.563 10.78 167.563 11.14C167.563 11.4867 167.69 11.7533 167.943 11.94C168.21 12.1267 168.637 12.2533 169.223 12.32L170.183 12.42C171.463 12.5533 172.463 12.9067 173.183 13.48C173.917 14.0533 174.283 14.8267 174.283 15.8C174.283 16.52 174.083 17.1467 173.683 17.68C173.297 18.2 172.75 18.6067 172.043 18.9C171.337 19.1933 170.503 19.34 169.543 19.34Z" fill="#424242"/>
<circle cx="165.5" cy="55.5" r="5.5" fill="#30BC34"/>
<circle cx="165.5" cy="55.5" r="8.5" stroke="#30BC34" stroke-width="2"/>
<circle cx="165.5" cy="202.5" r="5.5" fill="#30BC34"/>
<circle cx="165.5" cy="202.5" r="8.5" stroke="#30BC34" stroke-width="2"/>
<path d="M166 65V193" stroke="#30BC34" stroke-width="2" stroke-dasharray="4 4"/>
<path d="M3.968 60V49.408H5.536V60H3.968ZM0.416 49.728V48.32H9.088V49.728H0.416ZM10.972 60V48.32H12.508V55.296H12.124C12.124 54.4533 12.2307 53.728 12.444 53.12C12.668 52.5013 13.0093 52.0267 13.468 51.696C13.9267 51.3653 14.5133 51.2 15.228 51.2H15.292C16.316 51.2 17.0893 51.5413 17.612 52.224C18.1347 52.896 18.396 53.8613 18.396 55.12V60H16.86V54.8C16.86 54.1067 16.6627 53.568 16.268 53.184C15.884 52.8 15.3827 52.608 14.764 52.608C14.0813 52.608 13.532 52.8373 13.116 53.296C12.7107 53.744 12.508 54.336 12.508 55.072V60H10.972ZM25.1424 60.288C24.3957 60.288 23.7397 60.16 23.1744 59.904C22.609 59.648 22.129 59.312 21.7344 58.896C21.3504 58.4693 21.057 57.9947 20.8544 57.472C20.6624 56.9493 20.5664 56.416 20.5664 55.872V55.584C20.5664 55.04 20.6677 54.5067 20.8704 53.984C21.073 53.4507 21.3717 52.976 21.7664 52.56C22.161 52.1333 22.641 51.7973 23.2064 51.552C23.7717 51.296 24.417 51.168 25.1424 51.168C25.8677 51.168 26.513 51.296 27.0784 51.552C27.6437 51.7973 28.1237 52.1333 28.5184 52.56C28.913 52.976 29.2117 53.4507 29.4144 53.984C29.617 54.5067 29.7184 55.04 29.7184 55.584V55.872C29.7184 56.416 29.617 56.9493 29.4144 57.472C29.2224 57.9947 28.929 58.4693 28.5344 58.896C28.1504 59.312 27.6757 59.648 27.1104 59.904C26.545 60.16 25.889 60.288 25.1424 60.288ZM25.1424 58.912C25.7824 58.912 26.3264 58.7733 26.7744 58.496C27.233 58.208 27.5797 57.824 27.8144 57.344C28.0597 56.864 28.1824 56.3253 28.1824 55.728C28.1824 55.12 28.0597 54.576 27.8144 54.096C27.569 53.616 27.217 53.2373 26.7584 52.96C26.3104 52.6827 25.7717 52.544 25.1424 52.544C24.5237 52.544 23.985 52.6827 23.5264 52.96C23.0677 53.2373 22.7157 53.616 22.4704 54.096C22.225 54.576 22.1024 55.12 22.1024 55.728C22.1024 56.3253 22.2197 56.864 22.4544 57.344C22.6997 57.824 23.0464 58.208 23.4944 58.496C23.953 58.7733 24.5024 58.912 25.1424 58.912ZM34.9789 60.256C33.9655 60.256 33.1869 59.9253 32.6429 59.264C32.0989 58.6027 31.8269 57.648 31.8269 56.4V51.44H33.3629V56.704C33.3629 57.376 33.5442 57.904 33.9069 58.288C34.2695 58.6613 34.7602 58.848 35.3789 58.848C36.0189 58.848 36.5415 58.6453 36.9469 58.24C37.3522 57.824 37.5549 57.2587 37.5549 56.544V51.44H39.0909V60H37.8749V56.336H38.0669C38.0669 57.1787 37.9549 57.8933 37.7309 58.48C37.5069 59.056 37.1709 59.4987 36.7229 59.808C36.2855 60.1067 35.7255 60.256 35.0429 60.256H34.9789ZM47.2338 60V57.44H46.9778V54.48C46.9778 53.8933 46.8231 53.4507 46.5138 53.152C46.2151 52.8533 45.7724 52.704 45.1858 52.704C44.8551 52.704 44.5138 52.7093 44.1618 52.72C43.8098 52.7307 43.4738 52.7413 43.1538 52.752C42.8338 52.7627 42.5564 52.7787 42.3218 52.8V51.456C42.5564 51.4347 42.8018 51.4187 43.0578 51.408C43.3244 51.3867 43.5964 51.376 43.8738 51.376C44.1511 51.3653 44.4178 51.36 44.6738 51.36C45.5484 51.36 46.2631 51.4667 46.8178 51.68C47.3724 51.8827 47.7831 52.2187 48.0498 52.688C48.3164 53.1573 48.4498 53.792 48.4498 54.592V60H47.2338ZM44.4338 60.224C43.7938 60.224 43.2391 60.1173 42.7698 59.904C42.3111 59.68 41.9538 59.36 41.6978 58.944C41.4524 58.528 41.3298 58.0267 41.3298 57.44C41.3298 56.832 41.4631 56.3253 41.7298 55.92C42.0071 55.5147 42.4071 55.2107 42.9298 55.008C43.4524 54.7947 44.0818 54.688 44.8177 54.688H47.1378V55.84H44.7538C44.1351 55.84 43.6604 55.9893 43.3298 56.288C42.9991 56.5867 42.8338 56.9707 42.8338 57.44C42.8338 57.9093 42.9991 58.288 43.3298 58.576C43.6604 58.864 44.1351 59.008 44.7538 59.008C45.1164 59.008 45.4631 58.944 45.7938 58.816C46.1244 58.6773 46.3964 58.4533 46.6098 58.144C46.8338 57.824 46.9564 57.3867 46.9778 56.832L47.3938 57.44C47.3404 58.048 47.1911 58.56 46.9458 58.976C46.7111 59.3813 46.3804 59.6907 45.9538 59.904C45.5378 60.1173 45.0311 60.224 44.4338 60.224ZM51.2689 60V51.456H52.4849V54.976H52.4209C52.4209 53.728 52.6929 52.816 53.2369 52.24C53.7915 51.6533 54.6182 51.36 55.7169 51.36H56.0049V52.736H55.4609C54.6075 52.736 53.9515 52.9653 53.4929 53.424C53.0342 53.872 52.8049 54.5227 52.8049 55.376V60H51.2689ZM61.3696 60.288C60.623 60.288 59.9776 60.16 59.4336 59.904C58.8896 59.648 58.447 59.312 58.1056 58.896C57.7643 58.4693 57.5083 57.9947 57.3376 57.472C57.1776 56.9493 57.0976 56.416 57.0976 55.872V55.584C57.0976 55.0293 57.1776 54.4907 57.3376 53.968C57.5083 53.4453 57.7643 52.976 58.1056 52.56C58.447 52.1333 58.879 51.7973 59.4016 51.552C59.935 51.296 60.559 51.168 61.2736 51.168C62.2016 51.168 62.9643 51.3707 63.5616 51.776C64.1696 52.1707 64.6176 52.6827 64.9056 53.312C65.2043 53.9413 65.3536 54.6133 65.3536 55.328V56.016H57.7696V54.864H64.2336L63.8816 55.488C63.8816 54.88 63.7856 54.3573 63.5936 53.92C63.4016 53.472 63.1136 53.1253 62.7296 52.88C62.3456 52.6347 61.8603 52.512 61.2736 52.512C60.6656 52.512 60.159 52.6507 59.7536 52.928C59.359 53.2053 59.0603 53.584 58.8576 54.064C58.6656 54.544 58.5696 55.0987 58.5696 55.728C58.5696 56.336 58.6656 56.8853 58.8576 57.376C59.0603 57.856 59.3696 58.24 59.7856 58.528C60.2016 58.8053 60.7296 58.944 61.3696 58.944C62.0416 58.944 62.5856 58.7947 63.0016 58.496C63.4283 58.1973 63.6843 57.8507 63.7696 57.456H65.2096C65.0923 58.0427 64.8576 58.5493 64.5056 58.976C64.1536 59.4027 63.711 59.728 63.1776 59.952C62.6443 60.176 62.0416 60.288 61.3696 60.288ZM60.4896 50.208L61.8976 47.04H63.5136L61.7376 50.208H60.4896ZM67.1185 56.208V54.896H73.0705V56.208H67.1185ZM78.397 60.256C77.277 60.256 76.4077 60.016 75.789 59.536C75.181 59.056 74.8663 58.4 74.845 57.568H76.285C76.3063 57.8987 76.4717 58.2133 76.781 58.512C77.101 58.8 77.6397 58.944 78.397 58.944C79.0797 58.944 79.6023 58.8107 79.965 58.544C80.3277 58.2667 80.509 57.9307 80.509 57.536C80.509 57.184 80.3757 56.912 80.109 56.72C79.8423 56.5173 79.4103 56.384 78.813 56.32L77.885 56.224C77.0743 56.1387 76.413 55.8987 75.901 55.504C75.389 55.0987 75.133 54.5333 75.133 53.808C75.133 53.264 75.2717 52.8 75.549 52.416C75.8263 52.0213 76.2103 51.7227 76.701 51.52C77.1917 51.3067 77.757 51.2 78.397 51.2C79.357 51.2 80.1357 51.4133 80.733 51.84C81.3303 52.2667 81.6397 52.9013 81.661 53.744H80.221C80.2103 53.4027 80.0503 53.1147 79.741 52.88C79.4423 52.6347 78.9943 52.512 78.397 52.512C77.7997 52.512 77.3463 52.6347 77.037 52.88C76.7277 53.1253 76.573 53.4347 76.573 53.808C76.573 54.128 76.6797 54.384 76.893 54.576C77.117 54.768 77.4797 54.8907 77.981 54.944L78.909 55.04C79.8263 55.136 80.5623 55.392 81.117 55.808C81.6717 56.2133 81.949 56.7893 81.949 57.536C81.949 58.0693 81.7943 58.544 81.485 58.96C81.1863 59.3653 80.7703 59.6853 80.237 59.92C79.7037 60.144 79.0903 60.256 78.397 60.256ZM87.1351 60.256C86.1218 60.256 85.3431 59.9253 84.7991 59.264C84.2551 58.6027 83.9831 57.648 83.9831 56.4V51.44H85.5191V56.704C85.5191 57.376 85.7005 57.904 86.0631 58.288C86.4258 58.6613 86.9165 58.848 87.5351 58.848C88.1751 58.848 88.6978 58.6453 89.1031 58.24C89.5085 57.824 89.7111 57.2587 89.7111 56.544V51.44H91.2471V60H90.0311V56.336H90.2231C90.2231 57.1787 90.1111 57.8933 89.8871 58.48C89.6631 59.056 89.3271 59.4987 88.8791 59.808C88.4418 60.1067 87.8818 60.256 87.1991 60.256H87.1351ZM94.222 60V51.456H95.438V54.976H95.374C95.374 53.728 95.646 52.816 96.19 52.24C96.7447 51.6533 97.5713 51.36 98.67 51.36H98.958V52.736H98.414C97.5607 52.736 96.9047 52.9653 96.446 53.424C95.9873 53.872 95.758 54.5227 95.758 55.376V60H94.222ZM100.212 56.208V54.896H106.164V56.208H100.212ZM108.915 60V48.32H110.483V60H108.915ZM110.163 60V58.592H115.507V60H110.163ZM121.267 60.288C120.521 60.288 119.865 60.16 119.299 59.904C118.734 59.648 118.254 59.312 117.859 58.896C117.475 58.4693 117.182 57.9947 116.979 57.472C116.787 56.9493 116.691 56.416 116.691 55.872V55.584C116.691 55.04 116.793 54.5067 116.995 53.984C117.198 53.4507 117.497 52.976 117.891 52.56C118.286 52.1333 118.766 51.7973 119.331 51.552C119.897 51.296 120.542 51.168 121.267 51.168C121.993 51.168 122.638 51.296 123.203 51.552C123.769 51.7973 124.249 52.1333 124.643 52.56C125.038 52.976 125.337 53.4507 125.539 53.984C125.742 54.5067 125.843 55.04 125.843 55.584V55.872C125.843 56.416 125.742 56.9493 125.539 57.472C125.347 57.9947 125.054 58.4693 124.659 58.896C124.275 59.312 123.801 59.648 123.235 59.904C122.67 60.16 122.014 60.288 121.267 60.288ZM121.267 58.912C121.907 58.912 122.451 58.7733 122.899 58.496C123.358 58.208 123.705 57.824 123.939 57.344C124.185 56.864 124.307 56.3253 124.307 55.728C124.307 55.12 124.185 54.576 123.939 54.096C123.694 53.616 123.342 53.2373 122.883 52.96C122.435 52.6827 121.897 52.544 121.267 52.544C120.649 52.544 120.11 52.6827 119.651 52.96C119.193 53.2373 118.841 53.616 118.595 54.096C118.35 54.576 118.227 55.12 118.227 55.728C118.227 56.3253 118.345 56.864 118.579 57.344C118.825 57.824 119.171 58.208 119.619 58.496C120.078 58.7733 120.627 58.912 121.267 58.912ZM128.56 60V51.456H130.096V60H128.56ZM127.248 52.672V51.456H130.096V52.672H127.248ZM128.992 50.08C128.651 50.08 128.395 49.9893 128.224 49.808C128.064 49.6267 127.984 49.3973 127.984 49.12C127.984 48.8427 128.064 48.6133 128.224 48.432C128.395 48.2507 128.651 48.16 128.992 48.16C129.333 48.16 129.584 48.2507 129.744 48.432C129.915 48.6133 130 48.8427 130 49.12C130 49.3973 129.915 49.6267 129.744 49.808C129.584 49.9893 129.333 50.08 128.992 50.08ZM133.066 60V51.456H134.282V54.976H134.218C134.218 53.728 134.49 52.816 135.034 52.24C135.588 51.6533 136.415 51.36 137.514 51.36H137.802V52.736H137.258C136.404 52.736 135.748 52.9653 135.29 53.424C134.831 53.872 134.602 54.5227 134.602 55.376V60H133.066ZM143.167 60.288C142.42 60.288 141.775 60.16 141.231 59.904C140.687 59.648 140.244 59.312 139.903 58.896C139.561 58.4693 139.305 57.9947 139.135 57.472C138.975 56.9493 138.895 56.416 138.895 55.872V55.584C138.895 55.0293 138.975 54.4907 139.135 53.968C139.305 53.4453 139.561 52.976 139.903 52.56C140.244 52.1333 140.676 51.7973 141.199 51.552C141.732 51.296 142.356 51.168 143.071 51.168C143.999 51.168 144.761 51.3707 145.359 51.776C145.967 52.1707 146.415 52.6827 146.703 53.312C147.001 53.9413 147.151 54.6133 147.151 55.328V56.016H139.567V54.864H146.031L145.679 55.488C145.679 54.88 145.583 54.3573 145.391 53.92C145.199 53.472 144.911 53.1253 144.527 52.88C144.143 52.6347 143.657 52.512 143.071 52.512C142.463 52.512 141.956 52.6507 141.551 52.928C141.156 53.2053 140.857 53.584 140.655 54.064C140.463 54.544 140.367 55.0987 140.367 55.728C140.367 56.336 140.463 56.8853 140.655 57.376C140.857 57.856 141.167 58.24 141.583 58.528C141.999 58.8053 142.527 58.944 143.167 58.944C143.839 58.944 144.383 58.7947 144.799 58.496C145.225 58.1973 145.481 57.8507 145.567 57.456H147.007C146.889 58.0427 146.655 58.5493 146.303 58.976C145.951 59.4027 145.508 59.728 144.975 59.952C144.441 60.176 143.839 60.288 143.167 60.288Z" fill="#424242"/>
<path d="M91.696 207V195.32H94.256L100.192 205.592H100.704L100.384 205.88V195.32H101.888V207H99.296L93.36 196.728H92.848L93.168 196.44V207H91.696ZM110.218 207V204.44H109.962V201.48C109.962 200.893 109.807 200.451 109.498 200.152C109.199 199.853 108.757 199.704 108.17 199.704C107.839 199.704 107.498 199.709 107.146 199.72C106.794 199.731 106.458 199.741 106.138 199.752C105.818 199.763 105.541 199.779 105.306 199.8V198.456C105.541 198.435 105.786 198.419 106.042 198.408C106.309 198.387 106.581 198.376 106.858 198.376C107.135 198.365 107.402 198.36 107.658 198.36C108.533 198.36 109.247 198.467 109.802 198.68C110.357 198.883 110.767 199.219 111.034 199.688C111.301 200.157 111.434 200.792 111.434 201.592V207H110.218ZM107.418 207.224C106.778 207.224 106.223 207.117 105.754 206.904C105.295 206.68 104.938 206.36 104.682 205.944C104.437 205.528 104.314 205.027 104.314 204.44C104.314 203.832 104.447 203.325 104.714 202.92C104.991 202.515 105.391 202.211 105.914 202.008C106.437 201.795 107.066 201.688 107.802 201.688H110.122V202.84H107.738C107.119 202.84 106.645 202.989 106.314 203.288C105.983 203.587 105.818 203.971 105.818 204.44C105.818 204.909 105.983 205.288 106.314 205.576C106.645 205.864 107.119 206.008 107.738 206.008C108.101 206.008 108.447 205.944 108.778 205.816C109.109 205.677 109.381 205.453 109.594 205.144C109.818 204.824 109.941 204.387 109.962 203.832L110.378 204.44C110.325 205.048 110.175 205.56 109.93 205.976C109.695 206.381 109.365 206.691 108.938 206.904C108.522 207.117 108.015 207.224 107.418 207.224ZM114.253 207V198.456H115.469V202.12H115.277C115.277 201.277 115.389 200.568 115.613 199.992C115.848 199.405 116.2 198.963 116.669 198.664C117.139 198.355 117.731 198.2 118.445 198.2H118.509C119.587 198.2 120.381 198.536 120.893 199.208C121.416 199.88 121.677 200.851 121.677 202.12V207H120.141V201.8C120.141 201.139 119.955 200.611 119.581 200.216C119.208 199.811 118.696 199.608 118.045 199.608C117.373 199.608 116.829 199.816 116.413 200.232C115.997 200.648 115.789 201.203 115.789 201.896V207H114.253ZM127.816 207.096C127.176 207.096 126.621 207.005 126.152 206.824C125.693 206.643 125.336 206.333 125.08 205.896C124.834 205.448 124.712 204.845 124.712 204.088V195.864H126.184V204.28C126.184 204.739 126.306 205.096 126.552 205.352C126.808 205.597 127.165 205.72 127.624 205.72H129.128V207.096H127.816ZM123.24 199.608V198.456H129.128V199.608H123.24ZM134.87 207.288C134.123 207.288 133.478 207.16 132.934 206.904C132.39 206.648 131.947 206.312 131.606 205.896C131.264 205.469 131.008 204.995 130.838 204.472C130.678 203.949 130.598 203.416 130.598 202.872V202.584C130.598 202.029 130.678 201.491 130.838 200.968C131.008 200.445 131.264 199.976 131.606 199.56C131.947 199.133 132.379 198.797 132.902 198.552C133.435 198.296 134.059 198.168 134.774 198.168C135.702 198.168 136.464 198.371 137.062 198.776C137.67 199.171 138.118 199.683 138.406 200.312C138.704 200.941 138.854 201.613 138.854 202.328V203.016H131.27V201.864H137.734L137.382 202.488C137.382 201.88 137.286 201.357 137.094 200.92C136.902 200.472 136.614 200.125 136.23 199.88C135.846 199.635 135.36 199.512 134.774 199.512C134.166 199.512 133.659 199.651 133.254 199.928C132.859 200.205 132.56 200.584 132.358 201.064C132.166 201.544 132.07 202.099 132.07 202.728C132.07 203.336 132.166 203.885 132.358 204.376C132.56 204.856 132.87 205.24 133.286 205.528C133.702 205.805 134.23 205.944 134.87 205.944C135.542 205.944 136.086 205.795 136.502 205.496C136.928 205.197 137.184 204.851 137.27 204.456H138.71C138.592 205.043 138.358 205.549 138.006 205.976C137.654 206.403 137.211 206.728 136.678 206.952C136.144 207.176 135.542 207.288 134.87 207.288ZM143.835 207.256C142.715 207.256 141.845 207.016 141.227 206.536C140.619 206.056 140.304 205.4 140.283 204.568H141.723C141.744 204.899 141.909 205.213 142.219 205.512C142.539 205.8 143.077 205.944 143.835 205.944C144.517 205.944 145.04 205.811 145.403 205.544C145.765 205.267 145.947 204.931 145.947 204.536C145.947 204.184 145.813 203.912 145.547 203.72C145.28 203.517 144.848 203.384 144.251 203.32L143.323 203.224C142.512 203.139 141.851 202.899 141.339 202.504C140.827 202.099 140.571 201.533 140.571 200.808C140.571 200.264 140.709 199.8 140.987 199.416C141.264 199.021 141.648 198.723 142.139 198.52C142.629 198.307 143.195 198.2 143.835 198.2C144.795 198.2 145.573 198.413 146.171 198.84C146.768 199.267 147.077 199.901 147.099 200.744H145.659C145.648 200.403 145.488 200.115 145.179 199.88C144.88 199.635 144.432 199.512 143.835 199.512C143.237 199.512 142.784 199.635 142.475 199.88C142.165 200.125 142.011 200.435 142.011 200.808C142.011 201.128 142.117 201.384 142.331 201.576C142.555 201.768 142.917 201.891 143.419 201.944L144.347 202.04C145.264 202.136 146 202.392 146.555 202.808C147.109 203.213 147.387 203.789 147.387 204.536C147.387 205.069 147.232 205.544 146.923 205.96C146.624 206.365 146.208 206.685 145.675 206.92C145.141 207.144 144.528 207.256 143.835 207.256Z" fill="#424242"/>
</svg>
