<svg width="145" height="145" viewBox="0 0 145 145" fill="none" xmlns="http://www.w3.org/2000/svg">
<circle cx="72.5" cy="72.5" r="72" fill="url(#paint0_linear_67_1586)" fill-opacity="0.2" stroke="url(#paint1_linear_67_1586)"/>
<g clip-path="url(#clip0_67_1586)">
<mask id="mask0_67_1586" style="mask-type:luminance" maskUnits="userSpaceOnUse" x="31" y="30" width="84" height="84">
<path d="M115 30H31V114H115V30Z" fill="white"/>
</mask>
<g mask="url(#mask0_67_1586)">
<path d="M107.161 85.72L84.7607 45.4C81.7507 39.975 77.5857 37 73.0007 37C68.4157 37 64.2507 39.975 61.2407 45.4L38.8407 85.72C36.0057 90.865 35.6907 95.8 37.9657 99.685C40.2407 103.57 44.7207 105.705 50.6007 105.705H95.4007C101.281 105.705 105.761 103.57 108.036 99.685C110.311 95.8 109.996 90.83 107.161 85.72ZM70.3757 61.5C70.3757 60.065 71.5657 58.875 73.0007 58.875C74.4357 58.875 75.6257 60.065 75.6257 61.5V79C75.6257 80.435 74.4357 81.625 73.0007 81.625C71.5657 81.625 70.3757 80.435 70.3757 79V61.5ZM75.4857 91.985C75.3107 92.125 75.1357 92.265 74.9607 92.405C74.7507 92.545 74.5407 92.65 74.3307 92.72C74.1207 92.825 73.9107 92.895 73.6657 92.93C73.4557 92.965 73.2107 93 73.0007 93C72.7907 93 72.5457 92.965 72.3007 92.93C72.0907 92.895 71.8807 92.825 71.6707 92.72C71.4607 92.65 71.2507 92.545 71.0407 92.405C70.8657 92.265 70.6907 92.125 70.5157 91.985C69.8857 91.32 69.5007 90.41 69.5007 89.5C69.5007 88.59 69.8857 87.68 70.5157 87.015C70.6907 86.875 70.8657 86.735 71.0407 86.595C71.2507 86.455 71.4607 86.35 71.6707 86.28C71.8807 86.175 72.0907 86.105 72.3007 86.07C72.7557 85.965 73.2457 85.965 73.6657 86.07C73.9107 86.105 74.1207 86.175 74.3307 86.28C74.5407 86.35 74.7507 86.455 74.9607 86.595C75.1357 86.735 75.3107 86.875 75.4857 87.015C76.1157 87.68 76.5007 88.59 76.5007 89.5C76.5007 90.41 76.1157 91.32 75.4857 91.985Z" fill="#B3D3E1"/>
</g>
</g>
<defs>
<linearGradient id="paint0_linear_67_1586" x1="72.3271" y1="0" x2="72.3271" y2="151.988" gradientUnits="userSpaceOnUse">
<stop stop-color="#0077A8" stop-opacity="0.67"/>
<stop offset="1" stop-color="#0077A8" stop-opacity="0.07"/>
</linearGradient>
<linearGradient id="paint1_linear_67_1586" x1="58.1295" y1="6.5512" x2="103.291" y2="113.788" gradientUnits="userSpaceOnUse">
<stop stop-color="#0077A8" stop-opacity="0.2"/>
<stop offset="0.316415" stop-color="#0077A8" stop-opacity="0.03"/>
<stop offset="0.657593" stop-color="#0077A8" stop-opacity="0.16"/>
<stop offset="1" stop-color="#0077A8" stop-opacity="0"/>
</linearGradient>
<clipPath id="clip0_67_1586">
<rect width="84" height="84" fill="white" transform="translate(31 30)"/>
</clipPath>
</defs>
</svg>
