<svg width="780" height="495" viewBox="0 0 780 495" fill="none" xmlns="http://www.w3.org/2000/svg">
<rect x="169.605" y="248.125" width="79.3894" height="185.843" rx="14.4344" fill="#0C76F8"/>
<rect x="263.93" y="398.383" width="78.3894" height="35.0861" rx="13.9344" fill="url(#paint0_linear_67_1600)" fill-opacity="0.2" stroke="url(#paint1_linear_67_1600)"/>
<rect x="357.752" y="362.297" width="78.3894" height="71.1722" rx="13.9344" fill="url(#paint2_linear_67_1600)" fill-opacity="0.2" stroke="url(#paint3_linear_67_1600)"/>
<rect x="451.576" y="248.625" width="78.3894" height="184.843" rx="13.9344" fill="url(#paint4_linear_67_1600)" fill-opacity="0.2" stroke="url(#paint5_linear_67_1600)"/>
<rect x="545.4" y="73.6074" width="78.3894" height="359.861" rx="13.9344" fill="url(#paint6_linear_67_1600)" fill-opacity="0.2" stroke="url(#paint7_linear_67_1600)"/>
<path d="M9.1127 258.398V243.017L10.1051 243.784H5.45898V241.934H11.2779V258.398H9.1127ZM22.3726 258.804C21.1396 258.804 20.0871 258.594 19.215 258.173C18.358 257.737 17.6588 257.15 17.1175 256.414C16.5913 255.677 16.2079 254.827 15.9673 253.865C15.7267 252.888 15.6064 251.858 15.6064 250.775V249.557C15.6064 248.039 15.8395 246.67 16.3056 245.453C16.7868 244.235 17.5235 243.272 18.5159 242.566C19.5233 241.844 20.8088 241.483 22.3726 241.483C23.9363 241.483 25.2144 241.844 26.2067 242.566C27.1991 243.272 27.9283 244.235 28.3944 245.453C28.8756 246.67 29.1162 248.039 29.1162 249.557V250.775C29.1162 251.858 28.9959 252.888 28.7553 253.865C28.5147 254.827 28.1238 255.677 27.5825 256.414C27.0563 257.15 26.3646 257.737 25.5076 258.173C24.6505 258.594 23.6055 258.804 22.3726 258.804ZM22.3726 256.82C23.9363 256.82 25.079 256.293 25.8008 255.241C26.5375 254.173 26.9059 252.489 26.9059 250.189C26.9059 247.783 26.53 246.061 25.7782 245.024C25.0414 243.987 23.9062 243.468 22.3726 243.468C20.8239 243.468 19.6736 243.987 18.9218 245.024C18.1851 246.061 17.8167 247.768 17.8167 250.144C17.8167 252.459 18.1851 254.151 18.9218 255.218C19.6586 256.286 20.8088 256.82 22.3726 256.82ZM39.1338 258.804C37.9008 258.804 36.8483 258.594 35.9762 258.173C35.1192 257.737 34.42 257.15 33.8787 256.414C33.3525 255.677 32.9691 254.827 32.7285 253.865C32.4879 252.888 32.3676 251.858 32.3676 250.775V249.557C32.3676 248.039 32.6007 246.67 33.0668 245.453C33.5479 244.235 34.2847 243.272 35.2771 242.566C36.2845 241.844 37.57 241.483 39.1338 241.483C40.6975 241.483 41.9755 241.844 42.9679 242.566C43.9603 243.272 44.6895 244.235 45.1556 245.453C45.6368 246.67 45.8774 248.039 45.8774 249.557V250.775C45.8774 251.858 45.7571 252.888 45.5165 253.865C45.2759 254.827 44.885 255.677 44.3437 256.414C43.8174 257.15 43.1258 257.737 42.2687 258.173C41.4117 258.594 40.3667 258.804 39.1338 258.804ZM39.1338 256.82C40.6975 256.82 41.8402 256.293 42.5619 255.241C43.2987 254.173 43.6671 252.489 43.6671 250.189C43.6671 247.783 43.2912 246.061 42.5394 245.024C41.8026 243.987 40.6674 243.468 39.1338 243.468C37.5851 243.468 36.4348 243.987 35.683 245.024C34.9463 246.061 34.5779 247.768 34.5779 250.144C34.5779 252.459 34.9463 254.151 35.683 255.218C36.4198 256.286 37.57 256.82 39.1338 256.82ZM61.0268 258.804C59.7939 258.804 58.7414 258.594 57.8693 258.173C57.0122 257.737 56.3131 257.15 55.7718 256.414C55.2455 255.677 54.8621 254.827 54.6215 253.865C54.381 252.888 54.2607 251.858 54.2607 250.775V249.557C54.2607 248.039 54.4937 246.67 54.9598 245.453C55.441 244.235 56.1778 243.272 57.1701 242.566C58.1775 241.844 59.4631 241.483 61.0268 241.483C62.5906 241.483 63.8686 241.844 64.861 242.566C65.8533 243.272 66.5826 244.235 67.0487 245.453C67.5298 246.67 67.7704 248.039 67.7704 249.557V250.775C67.7704 251.858 67.6501 252.888 67.4096 253.865C67.169 254.827 66.778 255.677 66.2368 256.414C65.7105 257.15 65.0188 257.737 64.1618 258.173C63.3048 258.594 62.2598 258.804 61.0268 258.804ZM61.0268 256.82C62.5906 256.82 63.7333 256.293 64.455 255.241C65.1918 254.173 65.5601 252.489 65.5601 250.189C65.5601 247.783 65.1842 246.061 64.4324 245.024C63.6957 243.987 62.5605 243.468 61.0268 243.468C59.4781 243.468 58.3279 243.987 57.5761 245.024C56.8393 246.061 56.471 247.768 56.471 250.144C56.471 252.459 56.8393 254.151 57.5761 255.218C58.3128 256.286 59.4631 256.82 61.0268 256.82ZM77.788 258.804C76.5551 258.804 75.5026 258.594 74.6305 258.173C73.7734 257.737 73.0743 257.15 72.533 256.414C72.0067 255.677 71.6233 254.827 71.3827 253.865C71.1421 252.888 71.0219 251.858 71.0219 250.775V249.557C71.0219 248.039 71.2549 246.67 71.721 245.453C72.2022 244.235 72.9389 243.272 73.9313 242.566C74.9387 241.844 76.2243 241.483 77.788 241.483C79.3517 241.483 80.6298 241.844 81.6222 242.566C82.6145 243.272 83.3438 244.235 83.8099 245.453C84.291 246.67 84.5316 248.039 84.5316 249.557V250.775C84.5316 251.858 84.4113 252.888 84.1707 253.865C83.9302 254.827 83.5392 255.677 82.9979 256.414C82.4717 257.15 81.78 257.737 80.923 258.173C80.0659 258.594 79.0209 258.804 77.788 258.804ZM77.788 256.82C79.3517 256.82 80.4945 256.293 81.2162 255.241C81.9529 254.173 82.3213 252.489 82.3213 250.189C82.3213 247.783 81.9454 246.061 81.1936 245.024C80.4569 243.987 79.3217 243.468 77.788 243.468C76.2393 243.468 75.0891 243.987 74.3373 245.024C73.6005 246.061 73.2321 247.768 73.2321 250.144C73.2321 252.459 73.6005 254.151 74.3373 255.218C75.074 256.286 76.2243 256.82 77.788 256.82ZM94.5492 258.804C93.3163 258.804 92.2637 258.594 91.3917 258.173C90.5346 257.737 89.8354 257.15 89.2942 256.414C88.7679 255.677 88.3845 254.827 88.1439 253.865C87.9033 252.888 87.783 251.858 87.783 250.775V249.557C87.783 248.039 88.0161 246.67 88.4822 245.453C88.9634 244.235 89.7001 243.272 90.6925 242.566C91.6999 241.844 92.9855 241.483 94.5492 241.483C96.1129 241.483 97.391 241.844 98.3833 242.566C99.3757 243.272 100.105 244.235 100.571 245.453C101.052 246.67 101.293 248.039 101.293 249.557V250.775C101.293 251.858 101.172 252.888 100.932 253.865C100.691 254.827 100.3 255.677 99.7591 256.414C99.2329 257.15 98.5412 257.737 97.6842 258.173C96.8271 258.594 95.7821 258.804 94.5492 258.804ZM94.5492 256.82C96.1129 256.82 97.2556 256.293 97.9774 255.241C98.7141 254.173 99.0825 252.489 99.0825 250.189C99.0825 247.783 98.7066 246.061 97.9548 245.024C97.2181 243.987 96.0829 243.468 94.5492 243.468C93.0005 243.468 91.8503 243.987 91.0985 245.024C90.3617 246.061 89.9933 247.768 89.9933 250.144C89.9933 252.459 90.3617 254.151 91.0985 255.218C91.8352 256.286 92.9855 256.82 94.5492 256.82Z" fill="#424242"/>
<path d="M1.71409 85.1836V82.4771C1.71409 81.8156 1.80431 81.2517 1.98474 80.7856C2.1802 80.3195 2.51099 79.8985 2.9771 79.5226C3.44322 79.1317 4.07472 78.7558 4.87162 78.3949L7.9615 76.974C8.71329 76.6282 9.30721 76.1846 9.74325 75.6433C10.1793 75.087 10.3973 74.3728 10.3973 73.5007C10.3973 72.4482 10.1041 71.6288 9.51771 71.0424C8.93131 70.456 8.10434 70.1628 7.03679 70.1628C5.98428 70.1628 5.15731 70.456 4.55587 71.0424C3.95444 71.6288 3.65372 72.4482 3.65372 73.5007H1.53366C1.53366 72.5535 1.72913 71.6814 2.12006 70.8845C2.52603 70.0876 3.13498 69.4561 3.94692 68.99C4.75886 68.5088 5.78881 68.2682 7.03679 68.2682C8.28477 68.2682 9.30721 68.5088 10.1041 68.99C10.916 69.4561 11.5175 70.0725 11.9084 70.8394C12.3144 71.6062 12.5174 72.4407 12.5174 73.3428V73.6586C12.5174 74.8464 12.1715 75.8463 11.4799 76.6583C10.8033 77.4702 9.88609 78.1393 8.72833 78.6655L5.63845 80.0864C4.9468 80.4022 4.48069 80.7179 4.24012 81.0337C3.99954 81.3494 3.87926 81.7704 3.87926 82.2967V84.3717L3.29286 83.3342H12.7204V85.1836H1.71409ZM22.332 85.5896C21.099 85.5896 20.0465 85.3791 19.1744 84.9581C18.3174 84.522 17.6182 83.9356 17.0769 83.1989C16.5507 82.4621 16.1673 81.6126 15.9267 80.6503C15.6861 79.6729 15.5658 78.643 15.5658 77.5604V76.3425C15.5658 74.8239 15.7989 73.4556 16.265 72.2377C16.7461 71.0198 17.4829 70.0575 18.4753 69.3508C19.4827 68.6291 20.7682 68.2682 22.332 68.2682C23.8957 68.2682 25.1738 68.6291 26.1661 69.3508C27.1585 70.0575 27.8877 71.0198 28.3538 72.2377C28.835 73.4556 29.0756 74.8239 29.0756 76.3425V77.5604C29.0756 78.643 28.9553 79.6729 28.7147 80.6503C28.4741 81.6126 28.0832 82.4621 27.5419 83.1989C27.0157 83.9356 26.324 84.522 25.467 84.9581C24.6099 85.3791 23.5649 85.5896 22.332 85.5896ZM22.332 83.6048C23.8957 83.6048 25.0384 83.0786 25.7602 82.0261C26.4969 80.9585 26.8653 79.2745 26.8653 76.974C26.8653 74.5683 26.4894 72.8467 25.7376 71.8092C25.0008 70.7717 23.8656 70.253 22.332 70.253C20.7833 70.253 19.633 70.7717 18.8812 71.8092C18.1445 72.8467 17.7761 74.5532 17.7761 76.9289C17.7761 79.2444 18.1445 80.936 18.8812 82.0035C19.618 83.0711 20.7682 83.6048 22.332 83.6048ZM39.0932 85.5896C37.8602 85.5896 36.8077 85.3791 35.9356 84.9581C35.0786 84.522 34.3794 83.9356 33.8381 83.1989C33.3119 82.4621 32.9285 81.6126 32.6879 80.6503C32.4473 79.6729 32.327 78.643 32.327 77.5604V76.3425C32.327 74.8239 32.5601 73.4556 33.0262 72.2377C33.5073 71.0198 34.2441 70.0575 35.2365 69.3508C36.2439 68.6291 37.5294 68.2682 39.0932 68.2682C40.6569 68.2682 41.9349 68.6291 42.9273 69.3508C43.9197 70.0575 44.6489 71.0198 45.115 72.2377C45.5962 73.4556 45.8368 74.8239 45.8368 76.3425V77.5604C45.8368 78.643 45.7165 79.6729 45.4759 80.6503C45.2353 81.6126 44.8444 82.4621 44.3031 83.1989C43.7768 83.9356 43.0852 84.522 42.2281 84.9581C41.3711 85.3791 40.3261 85.5896 39.0932 85.5896ZM39.0932 83.6048C40.6569 83.6048 41.7996 83.0786 42.5213 82.0261C43.2581 80.9585 43.6265 79.2745 43.6265 76.974C43.6265 74.5683 43.2506 72.8467 42.4988 71.8092C41.762 70.7717 40.6268 70.253 39.0932 70.253C37.5445 70.253 36.3942 70.7717 35.6424 71.8092C34.9057 72.8467 34.5373 74.5532 34.5373 76.9289C34.5373 79.2444 34.9057 80.936 35.6424 82.0035C36.3792 83.0711 37.5294 83.6048 39.0932 83.6048ZM60.9862 85.5896C59.7533 85.5896 58.7008 85.3791 57.8287 84.9581C56.9716 84.522 56.2725 83.9356 55.7312 83.1989C55.2049 82.4621 54.8215 81.6126 54.5809 80.6503C54.3404 79.6729 54.2201 78.643 54.2201 77.5604V76.3425C54.2201 74.8239 54.4531 73.4556 54.9192 72.2377C55.4004 71.0198 56.1372 70.0575 57.1295 69.3508C58.1369 68.6291 59.4225 68.2682 60.9862 68.2682C62.55 68.2682 63.828 68.6291 64.8204 69.3508C65.8127 70.0575 66.542 71.0198 67.0081 72.2377C67.4892 73.4556 67.7298 74.8239 67.7298 76.3425V77.5604C67.7298 78.643 67.6095 79.6729 67.369 80.6503C67.1284 81.6126 66.7374 82.4621 66.1962 83.1989C65.6699 83.9356 64.9782 84.522 64.1212 84.9581C63.2642 85.3791 62.2192 85.5896 60.9862 85.5896ZM60.9862 83.6048C62.55 83.6048 63.6927 83.0786 64.4144 82.0261C65.1512 80.9585 65.5195 79.2745 65.5195 76.974C65.5195 74.5683 65.1436 72.8467 64.3918 71.8092C63.6551 70.7717 62.5199 70.253 60.9862 70.253C59.4375 70.253 58.2873 70.7717 57.5355 71.8092C56.7987 72.8467 56.4304 74.5532 56.4304 76.9289C56.4304 79.2444 56.7987 80.936 57.5355 82.0035C58.2722 83.0711 59.4225 83.6048 60.9862 83.6048ZM77.7474 85.5896C76.5145 85.5896 75.462 85.3791 74.5899 84.9581C73.7328 84.522 73.0337 83.9356 72.4924 83.1989C71.9661 82.4621 71.5827 81.6126 71.3421 80.6503C71.1015 79.6729 70.9813 78.643 70.9813 77.5604V76.3425C70.9813 74.8239 71.2143 73.4556 71.6804 72.2377C72.1616 71.0198 72.8983 70.0575 73.8907 69.3508C74.8981 68.6291 76.1837 68.2682 77.7474 68.2682C79.3111 68.2682 80.5892 68.6291 81.5816 69.3508C82.5739 70.0575 83.3032 71.0198 83.7693 72.2377C84.2504 73.4556 84.491 74.8239 84.491 76.3425V77.5604C84.491 78.643 84.3707 79.6729 84.1301 80.6503C83.8896 81.6126 83.4986 82.4621 82.9573 83.1989C82.4311 83.9356 81.7394 84.522 80.8824 84.9581C80.0253 85.3791 78.9803 85.5896 77.7474 85.5896ZM77.7474 83.6048C79.3111 83.6048 80.4539 83.0786 81.1756 82.0261C81.9123 80.9585 82.2807 79.2745 82.2807 76.974C82.2807 74.5683 81.9048 72.8467 81.153 71.8092C80.4163 70.7717 79.2811 70.253 77.7474 70.253C76.1987 70.253 75.0485 70.7717 74.2967 71.8092C73.5599 72.8467 73.1915 74.5532 73.1915 76.9289C73.1915 79.2444 73.5599 80.936 74.2967 82.0035C75.0334 83.0711 76.1837 83.6048 77.7474 83.6048ZM94.5086 85.5896C93.2756 85.5896 92.2231 85.3791 91.3511 84.9581C90.494 84.522 89.7948 83.9356 89.2535 83.1989C88.7273 82.4621 88.3439 81.6126 88.1033 80.6503C87.8627 79.6729 87.7424 78.643 87.7424 77.5604V76.3425C87.7424 74.8239 87.9755 73.4556 88.4416 72.2377C88.9228 71.0198 89.6595 70.0575 90.6519 69.3508C91.6593 68.6291 92.9449 68.2682 94.5086 68.2682C96.0723 68.2682 97.3504 68.6291 98.3427 69.3508C99.3351 70.0575 100.064 71.0198 100.53 72.2377C101.012 73.4556 101.252 74.8239 101.252 76.3425V77.5604C101.252 78.643 101.132 79.6729 100.891 80.6503C100.651 81.6126 100.26 82.4621 99.7185 83.1989C99.1923 83.9356 98.5006 84.522 97.6436 84.9581C96.7865 85.3791 95.7415 85.5896 94.5086 85.5896ZM94.5086 83.6048C96.0723 83.6048 97.215 83.0786 97.9368 82.0261C98.6735 80.9585 99.0419 79.2745 99.0419 76.974C99.0419 74.5683 98.666 72.8467 97.9142 71.8092C97.1775 70.7717 96.0422 70.253 94.5086 70.253C92.9599 70.253 91.8096 70.7717 91.0579 71.8092C90.3211 72.8467 89.9527 74.5532 89.9527 76.9289C89.9527 79.2444 90.3211 80.936 91.0579 82.0035C91.7946 83.0711 92.9449 83.6048 94.5086 83.6048Z" fill="#424242"/>
<path d="M152.134 22.3158C149.954 22.3158 148.285 21.6166 147.127 20.2182C145.97 18.8049 145.391 16.7074 145.391 13.9257V13.61C145.391 10.8283 145.947 8.73836 147.06 7.34002C148.172 5.92665 149.811 5.21996 151.976 5.21996C153.27 5.21996 154.337 5.43046 155.179 5.85147C156.021 6.27247 156.653 6.85135 157.074 7.58811C157.51 8.32487 157.75 9.1744 157.795 10.1367H155.856C155.796 9.18943 155.442 8.44516 154.796 7.90387C154.149 7.34754 153.209 7.06937 151.976 7.06937C150.473 7.06937 149.323 7.58811 148.526 8.62559C147.729 9.66306 147.33 11.3772 147.33 13.7679C147.33 16.1586 147.744 17.8727 148.571 18.9101C149.413 19.9476 150.601 20.4663 152.134 20.4663C153.412 20.4663 154.36 20.1957 154.976 19.6544C155.593 19.0981 155.931 18.3463 155.991 17.399H157.931C157.886 18.3764 157.652 19.2334 157.231 19.9702C156.81 20.7069 156.179 21.2858 155.337 21.7068C154.495 22.1128 153.427 22.3158 152.134 22.3158ZM143.406 16.4292V14.9407H153.42V16.4292H143.406ZM143.812 13.001V11.5125H153.826V13.001H143.812Z" fill="#424242"/>
<path d="M657.54 456.406C656.037 456.406 654.751 456.143 653.684 455.617C652.631 455.09 651.782 454.406 651.135 453.564C650.488 452.722 650.015 451.813 649.714 450.835C649.413 449.843 649.263 448.888 649.263 447.971V447.475C649.263 446.482 649.413 445.49 649.714 444.498C650.03 443.505 650.511 442.603 651.158 441.791C651.804 440.979 652.646 440.325 653.684 439.829C654.721 439.333 655.961 439.085 657.405 439.085C658.878 439.085 660.141 439.34 661.194 439.851C662.246 440.363 663.081 441.077 663.697 441.994C664.314 442.911 664.69 443.994 664.825 445.242H662.57C662.449 444.31 662.149 443.543 661.668 442.941C661.186 442.325 660.578 441.866 659.841 441.566C659.119 441.265 658.307 441.114 657.405 441.114C656.428 441.114 655.571 441.287 654.834 441.633C654.097 441.964 653.481 442.438 652.984 443.054C652.503 443.656 652.135 444.355 651.879 445.152C651.639 445.949 651.518 446.813 651.518 447.745C651.518 448.632 651.639 449.474 651.879 450.271C652.135 451.068 652.511 451.775 653.007 452.391C653.518 453.008 654.15 453.497 654.901 453.857C655.653 454.203 656.533 454.376 657.54 454.376C658.954 454.376 660.141 454.023 661.104 453.316C662.066 452.609 662.652 451.587 662.863 450.249H665.118C664.968 451.376 664.585 452.406 663.968 453.339C663.367 454.271 662.525 455.015 661.442 455.571C660.375 456.128 659.074 456.406 657.54 456.406ZM673.552 456.406C672.499 456.406 671.574 456.226 670.778 455.865C669.981 455.504 669.304 455.03 668.748 454.444C668.206 453.842 667.793 453.173 667.507 452.436C667.237 451.7 667.101 450.948 667.101 450.181V449.775C667.101 449.008 667.244 448.257 667.53 447.52C667.816 446.768 668.237 446.099 668.793 445.512C669.349 444.911 670.026 444.437 670.823 444.092C671.62 443.731 672.529 443.55 673.552 443.55C674.574 443.55 675.484 443.731 676.281 444.092C677.078 444.437 677.754 444.911 678.311 445.512C678.867 446.099 679.288 446.768 679.574 447.52C679.859 448.257 680.002 449.008 680.002 449.775V450.181C680.002 450.948 679.859 451.7 679.574 452.436C679.303 453.173 678.889 453.842 678.333 454.444C677.792 455.03 677.123 455.504 676.326 455.865C675.529 456.226 674.604 456.406 673.552 456.406ZM673.552 454.466C674.454 454.466 675.221 454.271 675.852 453.88C676.499 453.474 676.987 452.933 677.318 452.256C677.664 451.579 677.837 450.82 677.837 449.978C677.837 449.121 677.664 448.354 677.318 447.678C676.972 447.001 676.476 446.467 675.83 446.076C675.198 445.685 674.439 445.49 673.552 445.49C672.68 445.49 671.92 445.685 671.274 446.076C670.627 446.467 670.131 447.001 669.785 447.678C669.439 448.354 669.266 449.121 669.266 449.978C669.266 450.82 669.432 451.579 669.763 452.256C670.108 452.933 670.597 453.474 671.229 453.88C671.875 454.271 672.65 454.466 673.552 454.466ZM683.245 456V443.956H684.959V449.121H684.688C684.688 447.933 684.846 446.933 685.162 446.121C685.493 445.294 685.989 444.67 686.651 444.249C687.312 443.813 688.147 443.595 689.154 443.595H689.244C690.763 443.595 691.883 444.069 692.605 445.016C693.342 445.964 693.71 447.332 693.71 449.121V456H691.545V448.67C691.545 447.738 691.282 446.994 690.755 446.437C690.229 445.866 689.507 445.58 688.59 445.58C687.643 445.58 686.876 445.873 686.29 446.46C685.703 447.046 685.41 447.828 685.41 448.805V456H683.245ZM700.154 456L696.05 443.956H698.305L702.32 456H700.154ZM700.696 456V454.286H703.312V456H700.696ZM701.733 456L705.229 443.956H707.349L703.786 456H701.733ZM715.081 456.406C714.029 456.406 713.119 456.226 712.352 455.865C711.585 455.504 710.961 455.03 710.48 454.444C709.999 453.842 709.638 453.173 709.398 452.436C709.172 451.7 709.059 450.948 709.059 450.181V449.775C709.059 448.993 709.172 448.234 709.398 447.497C709.638 446.76 709.999 446.099 710.48 445.512C710.961 444.911 711.57 444.437 712.307 444.092C713.059 443.731 713.938 443.55 714.946 443.55C716.254 443.55 717.329 443.836 718.171 444.407C719.028 444.964 719.66 445.685 720.066 446.573C720.487 447.46 720.697 448.407 720.697 449.414V450.384H710.007V448.76H719.118L718.622 449.64C718.622 448.783 718.487 448.046 718.216 447.43C717.946 446.798 717.54 446.309 716.998 445.964C716.457 445.618 715.773 445.445 714.946 445.445C714.089 445.445 713.375 445.64 712.803 446.031C712.247 446.422 711.826 446.956 711.54 447.633C711.27 448.309 711.134 449.091 711.134 449.978C711.134 450.835 711.27 451.61 711.54 452.301C711.826 452.978 712.262 453.519 712.848 453.925C713.435 454.316 714.179 454.511 715.081 454.511C716.028 454.511 716.795 454.301 717.382 453.88C717.983 453.459 718.344 452.97 718.464 452.414H720.494C720.329 453.241 719.998 453.955 719.502 454.557C719.006 455.158 718.382 455.617 717.63 455.932C716.878 456.248 716.028 456.406 715.081 456.406ZM723.771 456V443.956H725.485V448.918H725.395C725.395 447.159 725.779 445.873 726.545 445.061C727.327 444.234 728.493 443.821 730.041 443.821H730.447V445.761H729.68C728.478 445.761 727.553 446.084 726.906 446.73C726.26 447.362 725.936 448.279 725.936 449.482V456H723.771ZM736.969 456.361C735.39 456.361 734.165 456.023 733.293 455.346C732.435 454.669 731.992 453.745 731.962 452.572H733.992C734.022 453.038 734.255 453.481 734.691 453.902C735.142 454.308 735.901 454.511 736.969 454.511C737.931 454.511 738.668 454.323 739.179 453.948C739.69 453.557 739.946 453.083 739.946 452.527C739.946 452.031 739.758 451.647 739.382 451.376C739.006 451.091 738.397 450.903 737.555 450.813L736.247 450.677C735.104 450.557 734.172 450.219 733.45 449.662C732.729 449.091 732.368 448.294 732.368 447.272C732.368 446.505 732.563 445.851 732.954 445.309C733.345 444.753 733.886 444.332 734.578 444.046C735.27 443.746 736.067 443.595 736.969 443.595C738.322 443.595 739.42 443.896 740.262 444.498C741.104 445.099 741.54 445.994 741.57 447.181H739.54C739.525 446.7 739.299 446.294 738.863 445.964C738.442 445.618 737.811 445.445 736.969 445.445C736.127 445.445 735.488 445.618 735.052 445.964C734.616 446.309 734.398 446.745 734.398 447.272C734.398 447.723 734.548 448.084 734.849 448.354C735.165 448.625 735.676 448.798 736.382 448.873L737.691 449.008C738.984 449.144 740.021 449.505 740.803 450.091C741.585 450.662 741.976 451.474 741.976 452.527C741.976 453.279 741.758 453.948 741.322 454.534C740.901 455.105 740.314 455.556 739.563 455.887C738.811 456.203 737.946 456.361 736.969 456.361ZM745.7 456V443.956H747.865V456H745.7ZM743.851 445.67V443.956H747.865V445.67H743.851ZM746.309 442.017C745.828 442.017 745.467 441.889 745.227 441.633C745.001 441.378 744.888 441.054 744.888 440.663C744.888 440.272 745.001 439.949 745.227 439.694C745.467 439.438 745.828 439.31 746.309 439.31C746.79 439.31 747.144 439.438 747.369 439.694C747.61 439.949 747.73 440.272 747.73 440.663C747.73 441.054 747.61 441.378 747.369 441.633C747.144 441.889 746.79 442.017 746.309 442.017ZM757.6 456.406C756.547 456.406 755.623 456.226 754.826 455.865C754.029 455.504 753.352 455.03 752.796 454.444C752.255 453.842 751.841 453.173 751.555 452.436C751.285 451.7 751.15 450.948 751.15 450.181V449.775C751.15 449.008 751.292 448.257 751.578 447.52C751.864 446.768 752.285 446.099 752.841 445.512C753.397 444.911 754.074 444.437 754.871 444.092C755.668 443.731 756.577 443.55 757.6 443.55C758.622 443.55 759.532 443.731 760.329 444.092C761.126 444.437 761.802 444.911 762.359 445.512C762.915 446.099 763.336 446.768 763.622 447.52C763.907 448.257 764.05 449.008 764.05 449.775V450.181C764.05 450.948 763.907 451.7 763.622 452.436C763.351 453.173 762.938 453.842 762.381 454.444C761.84 455.03 761.171 455.504 760.374 455.865C759.577 456.226 758.652 456.406 757.6 456.406ZM757.6 454.466C758.502 454.466 759.269 454.271 759.9 453.88C760.547 453.474 761.036 452.933 761.366 452.256C761.712 451.579 761.885 450.82 761.885 449.978C761.885 449.121 761.712 448.354 761.366 447.678C761.021 447.001 760.524 446.467 759.878 446.076C759.246 445.685 758.487 445.49 757.6 445.49C756.728 445.49 755.969 445.685 755.322 446.076C754.675 446.467 754.179 447.001 753.833 447.678C753.488 448.354 753.315 449.121 753.315 449.978C753.315 450.82 753.48 451.579 753.811 452.256C754.157 452.933 754.645 453.474 755.277 453.88C755.923 454.271 756.698 454.466 757.6 454.466ZM767.293 456V443.956H769.007V449.121H768.737C768.737 447.933 768.894 446.933 769.21 446.121C769.541 445.294 770.037 444.67 770.699 444.249C771.36 443.813 772.195 443.595 773.202 443.595H773.292C774.811 443.595 775.931 444.069 776.653 445.016C777.39 445.964 777.758 447.332 777.758 449.121V456H775.593V448.67C775.593 447.738 775.33 446.994 774.804 446.437C774.277 445.866 773.556 445.58 772.638 445.58C771.691 445.58 770.924 445.873 770.338 446.46C769.751 447.046 769.458 447.828 769.458 448.805V456H767.293Z" fill="#424242"/>
<path d="M15.5162 368.167V365.505L22.35 355.198L23.8611 356.393L17.4784 366.046L17.6813 366.452H28.3267V368.167H15.5162ZM24.1092 372.068V360.408H26.139V372.068H24.1092ZM37.2942 372.474C36.0612 372.474 35.0087 372.264 34.1366 371.843C33.2796 371.407 32.5804 370.82 32.0391 370.084C31.5129 369.347 31.1295 368.497 30.8889 367.535C30.6483 366.558 30.528 365.528 30.528 364.445V363.227C30.528 361.709 30.7611 360.34 31.2272 359.122C31.7083 357.905 32.4451 356.942 33.4375 356.236C34.4449 355.514 35.7304 355.153 37.2942 355.153C38.8579 355.153 40.136 355.514 41.1283 356.236C42.1207 356.942 42.8499 357.905 43.316 359.122C43.7972 360.34 44.0378 361.709 44.0378 363.227V364.445C44.0378 365.528 43.9175 366.558 43.6769 367.535C43.4363 368.497 43.0454 369.347 42.5041 370.084C41.9779 370.82 41.2862 371.407 40.4292 371.843C39.5721 372.264 38.5271 372.474 37.2942 372.474ZM37.2942 370.49C38.8579 370.49 40.0006 369.963 40.7224 368.911C41.4591 367.843 41.8275 366.159 41.8275 363.859C41.8275 361.453 41.4516 359.731 40.6998 358.694C39.963 357.656 38.8278 357.138 37.2942 357.138C35.7455 357.138 34.5952 357.656 33.8434 358.694C33.1067 359.731 32.7383 361.438 32.7383 363.814C32.7383 366.129 33.1067 367.821 33.8434 368.888C34.5802 369.956 35.7304 370.49 37.2942 370.49ZM59.1872 372.474C57.9543 372.474 56.9018 372.264 56.0297 371.843C55.1727 371.407 54.4735 370.82 53.9322 370.084C53.4059 369.347 53.0225 368.497 52.782 367.535C52.5414 366.558 52.4211 365.528 52.4211 364.445V363.227C52.4211 361.709 52.6541 360.34 53.1203 359.122C53.6014 357.905 54.3382 356.942 55.3305 356.236C56.3379 355.514 57.6235 355.153 59.1872 355.153C60.751 355.153 62.029 355.514 63.0214 356.236C64.0138 356.942 64.743 357.905 65.2091 359.122C65.6903 360.34 65.9308 361.709 65.9308 363.227V364.445C65.9308 365.528 65.8105 366.558 65.57 367.535C65.3294 368.497 64.9385 369.347 64.3972 370.084C63.8709 370.82 63.1793 371.407 62.3222 371.843C61.4652 372.264 60.4202 372.474 59.1872 372.474ZM59.1872 370.49C60.751 370.49 61.8937 369.963 62.6154 368.911C63.3522 367.843 63.7206 366.159 63.7206 363.859C63.7206 361.453 63.3447 359.731 62.5929 358.694C61.8561 357.656 60.7209 357.138 59.1872 357.138C57.6385 357.138 56.4883 357.656 55.7365 358.694C54.9997 359.731 54.6314 361.438 54.6314 363.814C54.6314 366.129 54.9997 367.821 55.7365 368.888C56.4733 369.956 57.6235 370.49 59.1872 370.49ZM75.9484 372.474C74.7155 372.474 73.663 372.264 72.7909 371.843C71.9338 371.407 71.2347 370.82 70.6934 370.084C70.1671 369.347 69.7837 368.497 69.5431 367.535C69.3026 366.558 69.1823 365.528 69.1823 364.445V363.227C69.1823 361.709 69.4153 360.34 69.8814 359.122C70.3626 357.905 71.0994 356.942 72.0917 356.236C73.0991 355.514 74.3847 355.153 75.9484 355.153C77.5122 355.153 78.7902 355.514 79.7826 356.236C80.7749 356.942 81.5042 357.905 81.9703 359.122C82.4514 360.34 82.692 361.709 82.692 363.227V364.445C82.692 365.528 82.5717 366.558 82.3312 367.535C82.0906 368.497 81.6996 369.347 81.1584 370.084C80.6321 370.82 79.9404 371.407 79.0834 371.843C78.2264 372.264 77.1814 372.474 75.9484 372.474ZM75.9484 370.49C77.5122 370.49 78.6549 369.963 79.3766 368.911C80.1134 367.843 80.4817 366.159 80.4817 363.859C80.4817 361.453 80.1058 359.731 79.354 358.694C78.6173 357.656 77.4821 357.138 75.9484 357.138C74.3997 357.138 73.2495 357.656 72.4977 358.694C71.7609 359.731 71.3926 361.438 71.3926 363.814C71.3926 366.129 71.7609 367.821 72.4977 368.888C73.2344 369.956 74.3847 370.49 75.9484 370.49ZM92.7096 372.474C91.4767 372.474 90.4242 372.264 89.5521 371.843C88.695 371.407 87.9959 370.82 87.4546 370.084C86.9283 369.347 86.5449 368.497 86.3043 367.535C86.0637 366.558 85.9435 365.528 85.9435 364.445V363.227C85.9435 361.709 86.1765 360.34 86.6426 359.122C87.1238 357.905 87.8605 356.942 88.8529 356.236C89.8603 355.514 91.1459 355.153 92.7096 355.153C94.2733 355.153 95.5514 355.514 96.5438 356.236C97.5361 356.942 98.2654 357.905 98.7315 359.122C99.2126 360.34 99.4532 361.709 99.4532 363.227V364.445C99.4532 365.528 99.3329 366.558 99.0923 367.535C98.8518 368.497 98.4608 369.347 97.9195 370.084C97.3933 370.82 96.7016 371.407 95.8446 371.843C94.9875 372.264 93.9425 372.474 92.7096 372.474ZM92.7096 370.49C94.2733 370.49 95.4161 369.963 96.1378 368.911C96.8745 367.843 97.2429 366.159 97.2429 363.859C97.2429 361.453 96.867 359.731 96.1152 358.694C95.3785 357.656 94.2433 357.138 92.7096 357.138C91.1609 357.138 90.0107 357.656 89.2589 358.694C88.5221 359.731 88.1537 361.438 88.1537 363.814C88.1537 366.129 88.5221 367.821 89.2589 368.888C89.9956 369.956 91.1459 370.49 92.7096 370.49Z" fill="#424242"/>
<path d="M17.9524 408.154V405.448C17.9524 404.786 18.0426 404.222 18.223 403.756C18.4185 403.29 18.7493 402.869 19.2154 402.493C19.6815 402.102 20.313 401.726 21.1099 401.366L24.1998 399.945C24.9516 399.599 25.5455 399.155 25.9815 398.614C26.4176 398.058 26.6356 397.344 26.6356 396.471C26.6356 395.419 26.3424 394.599 25.756 394.013C25.1696 393.427 24.3426 393.133 23.2751 393.133C22.2226 393.133 21.3956 393.427 20.7942 394.013C20.1927 394.599 19.892 395.419 19.892 396.471H17.7719C17.7719 395.524 17.9674 394.652 18.3583 393.855C18.7643 393.058 19.3733 392.427 20.1852 391.961C20.9971 391.48 22.0271 391.239 23.2751 391.239C24.523 391.239 25.5455 391.48 26.3424 391.961C27.1543 392.427 27.7558 393.043 28.1467 393.81C28.5527 394.577 28.7556 395.411 28.7556 396.314V396.629C28.7556 397.817 28.4098 398.817 27.7182 399.629C27.0416 400.441 26.1244 401.11 24.9666 401.636L21.8767 403.057C21.1851 403.373 20.719 403.689 20.4784 404.004C20.2378 404.32 20.1175 404.741 20.1175 405.267V407.342L19.5311 406.305H28.9586V408.154H17.9524ZM38.5703 408.56C37.3373 408.56 36.2848 408.35 35.4127 407.929C34.5557 407.493 33.8565 406.906 33.3152 406.17C32.789 405.433 32.4055 404.583 32.165 403.621C31.9244 402.644 31.8041 401.614 31.8041 400.531V399.313C31.8041 397.795 32.0372 396.426 32.5033 395.208C32.9844 393.991 33.7212 393.028 34.7136 392.322C35.721 391.6 37.0065 391.239 38.5703 391.239C40.134 391.239 41.412 391.6 42.4044 392.322C43.3968 393.028 44.126 393.991 44.5921 395.208C45.0733 396.426 45.3139 397.795 45.3139 399.313V400.531C45.3139 401.614 45.1936 402.644 44.953 403.621C44.7124 404.583 44.3215 405.433 43.7802 406.17C43.2539 406.906 42.5623 407.493 41.7052 407.929C40.8482 408.35 39.8032 408.56 38.5703 408.56ZM38.5703 406.576C40.134 406.576 41.2767 406.049 41.9984 404.997C42.7352 403.929 43.1036 402.245 43.1036 399.945C43.1036 397.539 42.7277 395.817 41.9759 394.78C41.2391 393.742 40.1039 393.224 38.5703 393.224C37.0216 393.224 35.8713 393.742 35.1195 394.78C34.3828 395.817 34.0144 397.524 34.0144 399.9C34.0144 402.215 34.3828 403.907 35.1195 404.974C35.8563 406.042 37.0065 406.576 38.5703 406.576ZM60.4633 408.56C59.2304 408.56 58.1779 408.35 57.3058 407.929C56.4487 407.493 55.7496 406.906 55.2083 406.17C54.682 405.433 54.2986 404.583 54.058 403.621C53.8175 402.644 53.6972 401.614 53.6972 400.531V399.313C53.6972 397.795 53.9302 396.426 54.3963 395.208C54.8775 393.991 55.6142 393.028 56.6066 392.322C57.614 391.6 58.8996 391.239 60.4633 391.239C62.0271 391.239 63.3051 391.6 64.2975 392.322C65.2898 393.028 66.0191 393.991 66.4852 395.208C66.9663 396.426 67.2069 397.795 67.2069 399.313V400.531C67.2069 401.614 67.0866 402.644 66.846 403.621C66.6055 404.583 66.2145 405.433 65.6733 406.17C65.147 406.906 64.4553 407.493 63.5983 407.929C62.7413 408.35 61.6963 408.56 60.4633 408.56ZM60.4633 406.576C62.0271 406.576 63.1698 406.049 63.8915 404.997C64.6283 403.929 64.9966 402.245 64.9966 399.945C64.9966 397.539 64.6207 395.817 63.8689 394.78C63.1322 393.742 61.997 393.224 60.4633 393.224C58.9146 393.224 57.7644 393.742 57.0126 394.78C56.2758 395.817 55.9074 397.524 55.9074 399.9C55.9074 402.215 56.2758 403.907 57.0126 404.974C57.7493 406.042 58.8996 406.576 60.4633 406.576ZM77.2245 408.56C75.9916 408.56 74.9391 408.35 74.067 407.929C73.2099 407.493 72.5108 406.906 71.9695 406.17C71.4432 405.433 71.0598 404.583 70.8192 403.621C70.5786 402.644 70.4584 401.614 70.4584 400.531V399.313C70.4584 397.795 70.6914 396.426 71.1575 395.208C71.6387 393.991 72.3754 393.028 73.3678 392.322C74.3752 391.6 75.6608 391.239 77.2245 391.239C78.7882 391.239 80.0663 391.6 81.0587 392.322C82.051 393.028 82.7803 393.991 83.2464 395.208C83.7275 396.426 83.9681 397.795 83.9681 399.313V400.531C83.9681 401.614 83.8478 402.644 83.6072 403.621C83.3667 404.583 82.9757 405.433 82.4344 406.17C81.9082 406.906 81.2165 407.493 80.3595 407.929C79.5024 408.35 78.4574 408.56 77.2245 408.56ZM77.2245 406.576C78.7882 406.576 79.931 406.049 80.6527 404.997C81.3894 403.929 81.7578 402.245 81.7578 399.945C81.7578 397.539 81.3819 395.817 80.6301 394.78C79.8934 393.742 78.7582 393.224 77.2245 393.224C75.6758 393.224 74.5256 393.742 73.7738 394.78C73.037 395.817 72.6686 397.524 72.6686 399.9C72.6686 402.215 73.037 403.907 73.7738 404.974C74.5105 406.042 75.6608 406.576 77.2245 406.576ZM93.9857 408.56C92.7527 408.56 91.7002 408.35 90.8282 407.929C89.9711 407.493 89.2719 406.906 88.7306 406.17C88.2044 405.433 87.821 404.583 87.5804 403.621C87.3398 402.644 87.2195 401.614 87.2195 400.531V399.313C87.2195 397.795 87.4526 396.426 87.9187 395.208C88.3999 393.991 89.1366 393.028 90.129 392.322C91.1364 391.6 92.422 391.239 93.9857 391.239C95.5494 391.239 96.8275 391.6 97.8198 392.322C98.8122 393.028 99.5414 393.991 100.008 395.208C100.489 396.426 100.729 397.795 100.729 399.313V400.531C100.729 401.614 100.609 402.644 100.368 403.621C100.128 404.583 99.7369 405.433 99.1956 406.17C98.6694 406.906 97.9777 407.493 97.1207 407.929C96.2636 408.35 95.2186 408.56 93.9857 408.56ZM93.9857 406.576C95.5494 406.576 96.6921 406.049 97.4139 404.997C98.1506 403.929 98.519 402.245 98.519 399.945C98.519 397.539 98.1431 395.817 97.3913 394.78C96.6546 393.742 95.5193 393.224 93.9857 393.224C92.437 393.224 91.2867 393.742 90.535 394.78C89.7982 395.817 89.4298 397.524 89.4298 399.9C89.4298 402.215 89.7982 403.907 90.535 404.974C91.2717 406.042 92.422 406.576 93.9857 406.576Z" fill="#424242"/>
<line x1="149.758" y1="450.207" x2="149.758" y2="27.9996" stroke="#999999" stroke-opacity="0.59" stroke-width="1.80431" stroke-dasharray="10.83 10.83"/>
<line x1="150.66" y1="449.305" x2="641.431" y2="449.305" stroke="#999999" stroke-opacity="0.59" stroke-width="1.80431" stroke-dasharray="10.83 10.83"/>
<path d="M109.16 397.883H149.757" stroke="#999999" stroke-opacity="0.59" stroke-width="1.80431" stroke-dasharray="7.22 7.22"/>
<path d="M109.16 361.797H149.757" stroke="#999999" stroke-opacity="0.59" stroke-width="1.80431" stroke-dasharray="7.22 7.22"/>
<path d="M109.16 248.125H149.757" stroke="#999999" stroke-opacity="0.59" stroke-width="1.80431" stroke-dasharray="7.22 7.22"/>
<path d="M149.758 248.125H530.466" stroke="#999999" stroke-opacity="0.3" stroke-width="1.80431" stroke-dasharray="7.22 7.22"/>
<path d="M150 362H437" stroke="#999999" stroke-opacity="0.3" stroke-width="1.80431" stroke-dasharray="7.22 7.22"/>
<path d="M150 398H343" stroke="#999999" stroke-opacity="0.3" stroke-width="1.80431" stroke-dasharray="7.22 7.22"/>
<path d="M150 73H624" stroke="#999999" stroke-opacity="0.3" stroke-width="1.80431" stroke-dasharray="7.22 7.22"/>
<path d="M109.16 73.1074H149.757" stroke="#999999" stroke-opacity="0.59" stroke-width="1.80431" stroke-dasharray="7.22 7.22"/>
<path d="M191.798 482.717V480.777H195.475C196.256 480.777 196.903 480.627 197.414 480.326C197.925 480.01 198.309 479.589 198.564 479.063C198.835 478.537 198.97 477.95 198.97 477.304C198.97 476.642 198.835 476.048 198.564 475.522C198.309 474.996 197.925 474.582 197.414 474.282C196.903 473.981 196.256 473.83 195.475 473.83H191.798V471.891H195.069C196.422 471.891 197.55 472.109 198.452 472.545C199.369 472.966 200.061 473.567 200.527 474.349C200.993 475.131 201.226 476.056 201.226 477.123V477.484C201.226 478.537 200.993 479.461 200.527 480.258C200.061 481.04 199.369 481.649 198.452 482.085C197.55 482.506 196.422 482.717 195.069 482.717H191.798ZM190.039 488.445V471.891H192.249V488.445H190.039ZM208.322 488.806C206.894 488.806 205.796 488.34 205.03 487.408C204.263 486.476 203.879 485.13 203.879 483.371V476.379H206.044V483.799C206.044 484.746 206.3 485.491 206.811 486.032C207.322 486.558 208.014 486.821 208.886 486.821C209.788 486.821 210.525 486.536 211.096 485.964C211.668 485.378 211.954 484.581 211.954 483.574V476.379H214.119V488.445H212.405V483.28H212.675C212.675 484.468 212.517 485.476 212.202 486.303C211.886 487.115 211.412 487.739 210.781 488.175C210.164 488.596 209.375 488.806 208.413 488.806H208.322ZM224.672 488.851C223.68 488.851 222.793 488.633 222.011 488.197C221.244 487.761 220.635 487.13 220.184 486.303C219.733 485.461 219.485 484.453 219.44 483.28H220.026V488.445H218.312V471.981H220.477V479.988L219.71 481.634C219.771 480.326 220.034 479.258 220.5 478.431C220.966 477.604 221.575 476.995 222.327 476.605C223.094 476.199 223.936 475.996 224.853 475.996C225.71 475.996 226.492 476.161 227.198 476.492C227.905 476.808 228.514 477.251 229.025 477.822C229.536 478.379 229.927 479.033 230.198 479.785C230.469 480.521 230.604 481.318 230.604 482.175V482.581C230.604 483.438 230.461 484.243 230.175 484.995C229.905 485.746 229.506 486.415 228.98 487.002C228.454 487.573 227.822 488.024 227.086 488.355C226.364 488.686 225.559 488.851 224.672 488.851ZM224.424 486.957C225.236 486.957 225.943 486.761 226.544 486.37C227.146 485.979 227.612 485.446 227.943 484.769C228.273 484.077 228.439 483.28 228.439 482.378C228.439 481.476 228.266 480.687 227.92 480.01C227.589 479.334 227.123 478.815 226.522 478.454C225.92 478.078 225.221 477.89 224.424 477.89C223.702 477.89 223.033 478.056 222.417 478.386C221.8 478.702 221.304 479.168 220.928 479.785C220.567 480.386 220.387 481.115 220.387 481.972V483.01C220.387 483.837 220.575 484.544 220.951 485.13C221.327 485.716 221.823 486.167 222.439 486.483C223.056 486.799 223.718 486.957 224.424 486.957Z" fill="#424242"/>
<path d="M292.388 488.447V473.066L293.38 473.832H288.734V471.983H294.553V488.447H292.388ZM302.919 488.447L309.144 471.983H310.858L304.633 488.447H302.919ZM301.701 480.824C300.844 480.824 300.145 480.629 299.604 480.238C299.077 479.847 298.686 479.328 298.431 478.681C298.19 478.035 298.07 477.336 298.07 476.584V475.998C298.07 475.186 298.198 474.464 298.453 473.832C298.709 473.186 299.107 472.682 299.649 472.321C300.19 471.945 300.874 471.757 301.701 471.757C302.543 471.757 303.227 471.945 303.753 472.321C304.295 472.682 304.693 473.186 304.949 473.832C305.204 474.464 305.332 475.186 305.332 475.998V476.584C305.332 477.336 305.204 478.035 304.949 478.681C304.708 479.328 304.325 479.847 303.799 480.238C303.272 480.629 302.573 480.824 301.701 480.824ZM301.701 479.336C302.393 479.336 302.904 479.087 303.235 478.591C303.581 478.08 303.753 477.321 303.753 476.313C303.753 475.246 303.581 474.471 303.235 473.99C302.889 473.494 302.378 473.246 301.701 473.246C301.024 473.246 300.513 473.494 300.167 473.99C299.822 474.471 299.649 475.238 299.649 476.291C299.649 477.298 299.814 478.057 300.145 478.569C300.491 479.08 301.009 479.336 301.701 479.336ZM311.986 488.673C311.129 488.673 310.429 488.477 309.888 488.086C309.362 487.695 308.971 487.177 308.715 486.53C308.475 485.884 308.354 485.184 308.354 484.433V483.846C308.354 483.034 308.482 482.313 308.738 481.681C308.993 481.035 309.392 480.531 309.933 480.17C310.474 479.794 311.159 479.606 311.986 479.606C312.828 479.606 313.512 479.794 314.038 480.17C314.579 480.531 314.978 481.035 315.233 481.681C315.489 482.313 315.617 483.034 315.617 483.846V484.433C315.617 485.184 315.489 485.884 315.233 486.53C314.993 487.177 314.609 487.695 314.083 488.086C313.557 488.477 312.858 488.673 311.986 488.673ZM311.986 487.184C312.677 487.184 313.188 486.936 313.519 486.44C313.865 485.929 314.038 485.169 314.038 484.162C314.038 483.094 313.865 482.32 313.519 481.839C313.173 481.343 312.662 481.095 311.986 481.095C311.309 481.095 310.798 481.343 310.452 481.839C310.106 482.32 309.933 483.087 309.933 484.139C309.933 485.147 310.099 485.906 310.429 486.417C310.775 486.929 311.294 487.184 311.986 487.184Z" fill="#424242"/>
<path d="M380.618 488.445V485.739C380.618 485.077 380.709 484.513 380.889 484.047C381.084 483.581 381.415 483.16 381.881 482.784C382.348 482.393 382.979 482.017 383.776 481.657L386.866 480.236C387.618 479.89 388.212 479.446 388.648 478.905C389.084 478.349 389.302 477.635 389.302 476.762C389.302 475.71 389.008 474.89 388.422 474.304C387.836 473.718 387.009 473.424 385.941 473.424C384.889 473.424 384.062 473.718 383.46 474.304C382.859 474.89 382.558 475.71 382.558 476.762H380.438C380.438 475.815 380.633 474.943 381.024 474.146C381.43 473.349 382.039 472.718 382.851 472.252C383.663 471.771 384.693 471.53 385.941 471.53C387.189 471.53 388.212 471.771 389.008 472.252C389.82 472.718 390.422 473.334 390.813 474.101C391.219 474.868 391.422 475.702 391.422 476.605V476.92C391.422 478.108 391.076 479.108 390.384 479.92C389.708 480.732 388.79 481.401 387.633 481.927L384.543 483.348C383.851 483.664 383.385 483.98 383.144 484.295C382.904 484.611 382.784 485.032 382.784 485.558V487.633L382.197 486.596H391.625V488.445H380.618ZM398.507 488.445L404.732 471.981H406.446L400.221 488.445H398.507ZM397.289 480.822C396.432 480.822 395.733 480.627 395.192 480.236C394.666 479.845 394.275 479.326 394.019 478.68C393.778 478.033 393.658 477.334 393.658 476.582V475.996C393.658 475.184 393.786 474.462 394.042 473.83C394.297 473.184 394.696 472.68 395.237 472.319C395.778 471.943 396.462 471.755 397.289 471.755C398.131 471.755 398.815 471.943 399.342 472.319C399.883 472.68 400.281 473.184 400.537 473.83C400.793 474.462 400.921 475.184 400.921 475.996V476.582C400.921 477.334 400.793 478.033 400.537 478.68C400.297 479.326 399.913 479.845 399.387 480.236C398.861 480.627 398.161 480.822 397.289 480.822ZM397.289 479.334C397.981 479.334 398.492 479.085 398.823 478.589C399.169 478.078 399.342 477.319 399.342 476.311C399.342 475.244 399.169 474.469 398.823 473.988C398.477 473.492 397.966 473.244 397.289 473.244C396.613 473.244 396.102 473.492 395.756 473.988C395.41 474.469 395.237 475.236 395.237 476.289C395.237 477.296 395.402 478.056 395.733 478.567C396.079 479.078 396.598 479.334 397.289 479.334ZM407.574 488.671C406.717 488.671 406.018 488.475 405.476 488.084C404.95 487.694 404.559 487.175 404.304 486.528C404.063 485.882 403.943 485.183 403.943 484.431V483.844C403.943 483.032 404.071 482.311 404.326 481.679C404.582 481.033 404.98 480.529 405.522 480.168C406.063 479.792 406.747 479.604 407.574 479.604C408.416 479.604 409.1 479.792 409.626 480.168C410.168 480.529 410.566 481.033 410.822 481.679C411.077 482.311 411.205 483.032 411.205 483.844V484.431C411.205 485.183 411.077 485.882 410.822 486.528C410.581 487.175 410.198 487.694 409.671 488.084C409.145 488.475 408.446 488.671 407.574 488.671ZM407.574 487.182C408.266 487.182 408.777 486.934 409.108 486.438C409.453 485.927 409.626 485.167 409.626 484.16C409.626 483.093 409.453 482.318 409.108 481.837C408.762 481.341 408.251 481.093 407.574 481.093C406.897 481.093 406.386 481.341 406.04 481.837C405.694 482.318 405.522 483.085 405.522 484.138C405.522 485.145 405.687 485.904 406.018 486.415C406.364 486.927 406.882 487.182 407.574 487.182Z" fill="#424242"/>
<path d="M479.854 488.851C478.591 488.851 477.523 488.596 476.651 488.084C475.779 487.558 475.117 486.874 474.666 486.032C474.215 485.19 473.99 484.295 473.99 483.348H476.11C476.11 484.04 476.26 484.656 476.561 485.198C476.876 485.739 477.313 486.167 477.869 486.483C478.425 486.799 479.087 486.957 479.854 486.957C480.605 486.957 481.259 486.806 481.816 486.506C482.387 486.19 482.831 485.761 483.146 485.22C483.462 484.664 483.62 484.04 483.62 483.348C483.62 482.656 483.462 482.033 483.146 481.476C482.846 480.92 482.41 480.476 481.838 480.146C481.282 479.815 480.62 479.649 479.854 479.649C479.297 479.649 478.733 479.747 478.162 479.943C477.591 480.123 477.132 480.386 476.786 480.732H474.802L475.636 471.981H484.274V473.83H476.899L477.44 473.086L476.809 479.469L476.222 479.266C476.658 478.83 477.185 478.484 477.801 478.228C478.433 477.973 479.147 477.845 479.944 477.845C481.207 477.845 482.267 478.108 483.124 478.634C483.981 479.146 484.627 479.815 485.064 480.642C485.515 481.454 485.74 482.303 485.74 483.19V483.506C485.74 484.393 485.515 485.25 485.064 486.077C484.612 486.889 483.943 487.558 483.056 488.084C482.184 488.596 481.117 488.851 479.854 488.851ZM492.44 488.445L498.665 471.981H500.379L494.154 488.445H492.44ZM491.222 480.822C490.365 480.822 489.666 480.627 489.124 480.236C488.598 479.845 488.207 479.326 487.951 478.68C487.711 478.033 487.591 477.334 487.591 476.582V475.996C487.591 475.184 487.718 474.462 487.974 473.83C488.23 473.184 488.628 472.68 489.169 472.319C489.711 471.943 490.395 471.755 491.222 471.755C492.064 471.755 492.748 471.943 493.274 472.319C493.815 472.68 494.214 473.184 494.469 473.83C494.725 474.462 494.853 475.184 494.853 475.996V476.582C494.853 477.334 494.725 478.033 494.469 478.68C494.229 479.326 493.846 479.845 493.319 480.236C492.793 480.627 492.094 480.822 491.222 480.822ZM491.222 479.334C491.913 479.334 492.425 479.085 492.755 478.589C493.101 478.078 493.274 477.319 493.274 476.311C493.274 475.244 493.101 474.469 492.755 473.988C492.41 473.492 491.898 473.244 491.222 473.244C490.545 473.244 490.034 473.492 489.688 473.988C489.342 474.469 489.169 475.236 489.169 476.289C489.169 477.296 489.335 478.056 489.666 478.567C490.011 479.078 490.53 479.334 491.222 479.334ZM501.506 488.671C500.649 488.671 499.95 488.475 499.409 488.084C498.883 487.694 498.492 487.175 498.236 486.528C497.995 485.882 497.875 485.183 497.875 484.431V483.844C497.875 483.032 498.003 482.311 498.259 481.679C498.514 481.033 498.913 480.529 499.454 480.168C499.995 479.792 500.679 479.604 501.506 479.604C502.348 479.604 503.032 479.792 503.559 480.168C504.1 480.529 504.498 481.033 504.754 481.679C505.01 482.311 505.137 483.032 505.137 483.844V484.431C505.137 485.183 505.01 485.882 504.754 486.528C504.513 487.175 504.13 487.694 503.604 488.084C503.078 488.475 502.378 488.671 501.506 488.671ZM501.506 487.182C502.198 487.182 502.709 486.934 503.04 486.438C503.386 485.927 503.559 485.167 503.559 484.16C503.559 483.093 503.386 482.318 503.04 481.837C502.694 481.341 502.183 481.093 501.506 481.093C500.83 481.093 500.318 481.341 499.973 481.837C499.627 482.318 499.454 483.085 499.454 484.138C499.454 485.145 499.619 485.904 499.95 486.415C500.296 486.927 500.815 487.182 501.506 487.182Z" fill="#424242"/>
<path d="M565.74 488.447V473.066L566.732 473.832H562.086V471.983H567.905V488.447H565.74ZM579 488.853C577.767 488.853 576.714 488.643 575.842 488.222C574.985 487.786 574.286 487.199 573.744 486.463C573.218 485.726 572.835 484.876 572.594 483.914C572.354 482.937 572.233 481.907 572.233 480.824V479.606C572.233 478.088 572.466 476.719 572.933 475.501C573.414 474.283 574.15 473.321 575.143 472.614C576.15 471.893 577.436 471.532 579 471.532C580.563 471.532 581.841 471.893 582.834 472.614C583.826 473.321 584.555 474.283 585.021 475.501C585.503 476.719 585.743 478.088 585.743 479.606V480.824C585.743 481.907 585.623 482.937 585.382 483.914C585.142 484.876 584.751 485.726 584.209 486.463C583.683 487.199 582.992 487.786 582.135 488.222C581.277 488.643 580.232 488.853 579 488.853ZM579 486.868C580.563 486.868 581.706 486.342 582.428 485.29C583.164 484.222 583.533 482.538 583.533 480.238C583.533 477.832 583.157 476.11 582.405 475.073C581.668 474.035 580.533 473.517 579 473.517C577.451 473.517 576.301 474.035 575.549 475.073C574.812 476.11 574.444 477.817 574.444 480.193C574.444 482.508 574.812 484.2 575.549 485.267C576.286 486.335 577.436 486.868 579 486.868ZM593.032 488.447L599.257 471.983H600.971L594.746 488.447H593.032ZM591.814 480.824C590.957 480.824 590.258 480.629 589.716 480.238C589.19 479.847 588.799 479.328 588.543 478.681C588.303 478.035 588.183 477.336 588.183 476.584V475.998C588.183 475.186 588.31 474.464 588.566 473.832C588.822 473.186 589.22 472.682 589.761 472.321C590.303 471.945 590.987 471.757 591.814 471.757C592.656 471.757 593.34 471.945 593.866 472.321C594.407 472.682 594.806 473.186 595.062 473.832C595.317 474.464 595.445 475.186 595.445 475.998V476.584C595.445 477.336 595.317 478.035 595.062 478.681C594.821 479.328 594.438 479.847 593.911 480.238C593.385 480.629 592.686 480.824 591.814 480.824ZM591.814 479.336C592.505 479.336 593.017 479.087 593.347 478.591C593.693 478.08 593.866 477.321 593.866 476.313C593.866 475.246 593.693 474.471 593.347 473.99C593.002 473.494 592.49 473.246 591.814 473.246C591.137 473.246 590.626 473.494 590.28 473.99C589.934 474.471 589.761 475.238 589.761 476.291C589.761 477.298 589.927 478.057 590.258 478.569C590.603 479.08 591.122 479.336 591.814 479.336ZM602.098 488.673C601.241 488.673 600.542 488.477 600.001 488.086C599.475 487.695 599.084 487.177 598.828 486.53C598.587 485.884 598.467 485.184 598.467 484.433V483.846C598.467 483.034 598.595 482.313 598.851 481.681C599.106 481.035 599.505 480.531 600.046 480.17C600.587 479.794 601.271 479.606 602.098 479.606C602.94 479.606 603.624 479.794 604.151 480.17C604.692 480.531 605.09 481.035 605.346 481.681C605.602 482.313 605.73 483.034 605.73 483.846V484.433C605.73 485.184 605.602 485.884 605.346 486.53C605.106 487.177 604.722 487.695 604.196 488.086C603.67 488.477 602.97 488.673 602.098 488.673ZM602.098 487.184C602.79 487.184 603.301 486.936 603.632 486.44C603.978 485.929 604.151 485.169 604.151 484.162C604.151 483.094 603.978 482.32 603.632 481.839C603.286 481.343 602.775 481.095 602.098 481.095C601.422 481.095 600.911 481.343 600.565 481.839C600.219 482.32 600.046 483.087 600.046 484.139C600.046 485.147 600.211 485.906 600.542 486.417C600.888 486.929 601.407 487.184 602.098 487.184Z" fill="#424242"/>
<defs>
<linearGradient id="paint0_linear_67_1600" x1="303.03" y1="397.883" x2="303.03" y2="435.708" gradientUnits="userSpaceOnUse">
<stop stop-color="#0077A8" stop-opacity="0.67"/>
<stop offset="1" stop-color="#0077A8" stop-opacity="0.07"/>
</linearGradient>
<linearGradient id="paint1_linear_67_1600" x1="295.256" y1="399.513" x2="301.059" y2="429.824" gradientUnits="userSpaceOnUse">
<stop stop-color="#0077A8" stop-opacity="0.2"/>
<stop offset="0.316415" stop-color="#0077A8" stop-opacity="0.03"/>
<stop offset="0.657593" stop-color="#0077A8" stop-opacity="0.16"/>
<stop offset="1" stop-color="#0077A8" stop-opacity="0"/>
</linearGradient>
<linearGradient id="paint2_linear_67_1600" x1="396.852" y1="361.797" x2="396.852" y2="437.447" gradientUnits="userSpaceOnUse">
<stop stop-color="#0077A8" stop-opacity="0.67"/>
<stop offset="1" stop-color="#0077A8" stop-opacity="0.07"/>
</linearGradient>
<linearGradient id="paint3_linear_67_1600" x1="389.079" y1="365.058" x2="410.062" y2="419.866" gradientUnits="userSpaceOnUse">
<stop stop-color="#0077A8" stop-opacity="0.2"/>
<stop offset="0.316415" stop-color="#0077A8" stop-opacity="0.03"/>
<stop offset="0.657593" stop-color="#0077A8" stop-opacity="0.16"/>
<stop offset="1" stop-color="#0077A8" stop-opacity="0"/>
</linearGradient>
<linearGradient id="paint4_linear_67_1600" x1="490.676" y1="248.125" x2="490.676" y2="442.925" gradientUnits="userSpaceOnUse">
<stop stop-color="#0077A8" stop-opacity="0.67"/>
<stop offset="1" stop-color="#0077A8" stop-opacity="0.07"/>
</linearGradient>
<linearGradient id="paint5_linear_67_1600" x1="482.903" y1="256.522" x2="563.804" y2="338.585" gradientUnits="userSpaceOnUse">
<stop stop-color="#0077A8" stop-opacity="0.2"/>
<stop offset="0.316415" stop-color="#0077A8" stop-opacity="0.03"/>
<stop offset="0.657593" stop-color="#0077A8" stop-opacity="0.16"/>
<stop offset="1" stop-color="#0077A8" stop-opacity="0"/>
</linearGradient>
<linearGradient id="paint6_linear_67_1600" x1="584.5" y1="73.1074" x2="584.5" y2="451.359" gradientUnits="userSpaceOnUse">
<stop stop-color="#0077A8" stop-opacity="0.67"/>
<stop offset="1" stop-color="#0077A8" stop-opacity="0.07"/>
</linearGradient>
<linearGradient id="paint7_linear_67_1600" x1="576.727" y1="89.4114" x2="705.679" y2="156.776" gradientUnits="userSpaceOnUse">
<stop stop-color="#0077A8" stop-opacity="0.2"/>
<stop offset="0.316415" stop-color="#0077A8" stop-opacity="0.03"/>
<stop offset="0.657593" stop-color="#0077A8" stop-opacity="0.16"/>
<stop offset="1" stop-color="#0077A8" stop-opacity="0"/>
</linearGradient>
</defs>
</svg>
