<svg width="216" height="207" viewBox="0 0 216 207" fill="none" xmlns="http://www.w3.org/2000/svg">
<g clip-path="url(#clip0_67_1528)">
<path d="M88.2157 0C78.5907 13.8213 80.6088 34.9218 86.2436 53.3607C91.68 71.1519 104.817 79.9982 120.991 86.0658C139.891 95.1136 151.388 108.927 138.733 119.717C129.482 124.704 118.889 127.537 107.633 127.537C71.4832 127.536 42.1778 98.3333 42.1777 62.3092C42.1777 33.0226 61.5466 8.24412 88.2157 0ZM148.875 11.6562C163.649 23.6156 173.089 41.8635 173.089 62.3092C173.089 75.9677 168.875 88.6447 161.673 99.1217C151.834 81.0318 130.816 73.6736 123.674 53.3607C118.43 38.4434 124.553 16.4022 148.875 11.6562Z" fill="#FF8801"/>
<path d="M15.5393 161.138C17.9977 161.138 20.188 161.405 22.1101 161.939C24.0424 162.474 25.6712 163.245 26.9965 164.253C28.3218 165.251 29.3335 166.466 30.0315 167.898C30.7296 169.329 31.0786 170.943 31.0786 172.737H22.1101C22.1101 171.96 21.9736 171.27 21.7004 170.665C21.4272 170.05 21.0175 169.526 20.4712 169.092C19.935 168.659 19.2673 168.332 18.4681 168.11C17.679 167.877 16.7634 167.762 15.7214 167.762C14.8109 167.762 13.9763 167.847 13.2175 168.019C12.4587 168.19 11.8113 168.432 11.2751 168.745C10.7389 169.057 10.3191 169.435 10.0155 169.879C9.72215 170.322 9.5755 170.811 9.5755 171.346C9.5755 172.001 9.76767 172.54 10.1522 172.964C10.5366 173.377 11.0474 173.719 11.6849 173.992C12.3323 174.254 13.0759 174.471 13.9155 174.642C14.7553 174.814 15.6354 174.975 16.556 175.126L18.8019 175.52C19.7023 175.671 20.6533 175.847 21.6549 176.048C22.6564 176.24 23.6479 176.492 24.6292 176.805C25.6105 177.117 26.5514 177.51 27.4518 177.984C28.3521 178.458 29.1463 179.048 29.8342 179.754C30.5222 180.459 31.0685 181.301 31.4731 182.279C31.8778 183.257 32.0801 184.411 32.0801 185.742C32.0801 187.415 31.7311 188.907 31.0331 190.218C30.3451 191.529 29.3284 192.638 27.9828 193.545C26.6474 194.442 24.9984 195.123 23.0358 195.586C21.0833 196.06 18.8374 196.297 16.2981 196.297C13.6272 196.297 11.2751 196.035 9.24166 195.51C7.21829 194.987 5.51868 194.226 4.1428 193.228C2.77704 192.219 1.74514 190.98 1.04708 189.507C0.349027 188.025 0 186.331 0 184.426H8.96847C8.96847 186.1 9.56541 187.385 10.7591 188.283C11.9529 189.169 13.779 189.613 16.2373 189.613C17.3097 189.613 18.2708 189.532 19.1206 189.371C19.9806 189.2 20.7039 188.953 21.2906 188.63C21.8876 188.307 22.3428 187.914 22.6564 187.451C22.9701 186.987 23.1268 186.463 23.1268 185.878C23.1268 185.162 22.9346 184.582 22.5502 184.139C22.1758 183.685 21.6498 183.312 20.9719 183.019C20.3042 182.718 19.5101 182.47 18.5895 182.279C17.6689 182.088 16.6724 181.895 15.6 181.704L13.3541 181.311C12.5346 181.17 11.6494 181.004 10.6985 180.812C9.74748 180.62 8.80155 180.374 7.8607 180.071C6.91985 179.769 6.00934 179.391 5.12918 178.937C4.25914 178.483 3.49027 177.919 2.82257 177.243C2.15486 176.568 1.61868 175.761 1.21401 174.824C0.819455 173.886 0.622179 172.787 0.622179 171.527C0.622179 169.924 0.961092 168.482 1.63891 167.202C2.32685 165.912 3.30817 164.818 4.58287 163.92C5.8677 163.023 7.43074 162.338 9.27194 161.864C11.1233 161.38 13.2124 161.138 15.5393 161.138Z" fill="#424242"/>
<path d="M68.2145 162.046V206.822H59.1247V185.273C58.7503 187.028 58.2243 188.59 57.5465 189.961C56.8687 191.322 56.0492 192.471 55.0881 193.409C54.1371 194.347 53.0546 195.062 51.8407 195.556C50.6266 196.05 49.2962 196.297 47.8496 196.297C46.5243 196.297 45.2698 196.101 44.0862 195.708C42.9127 195.324 41.825 194.77 40.8235 194.044C39.822 193.308 38.9215 192.421 38.1223 191.383C37.3231 190.344 36.6402 189.174 36.0737 187.874C35.5173 186.563 35.0873 185.142 34.7839 183.61C34.4905 182.067 34.3438 180.434 34.3438 178.71C34.3438 176.986 34.4905 175.358 34.7839 173.826C35.0873 172.283 35.5173 170.862 36.0737 169.561C36.6402 168.261 37.3231 167.091 38.1223 166.053C38.9215 165.004 39.822 164.117 40.8235 163.392C41.825 162.665 42.9127 162.111 44.0862 161.728C45.2698 161.335 46.5243 161.138 47.8496 161.138C49.2962 161.138 50.6266 161.385 51.8407 161.879C53.0546 162.363 54.1371 163.079 55.0881 164.027C56.0492 164.964 56.8687 166.118 57.5465 167.49C58.2243 168.85 58.7503 170.408 59.1247 172.162V162.046H68.2145ZM59.1247 178.71C59.1247 177.148 58.9476 175.761 58.5935 174.551C58.2496 173.342 57.7387 172.323 57.0609 171.497C56.3931 170.66 55.5687 170.025 54.5873 169.592C53.606 169.158 52.4881 168.941 51.2336 168.941C48.6842 168.941 46.757 169.762 45.4519 171.406C44.1468 173.05 43.4944 175.484 43.4944 178.71C43.4944 181.936 44.1468 184.376 45.4519 186.029C46.757 187.672 48.6842 188.494 51.2336 188.494C52.4881 188.494 53.606 188.277 54.5873 187.844C55.5687 187.41 56.3931 186.78 57.0609 185.954C57.7387 185.117 58.2496 184.093 58.5935 182.883C58.9476 181.664 59.1247 180.272 59.1247 178.71Z" fill="#424242"/>
<path d="M94.808 162.046H103.898V195.39H94.808V185.379C94.4546 187.143 93.9332 188.706 93.2455 190.067C92.5578 191.418 91.7178 192.557 90.7263 193.484C89.7349 194.402 88.592 195.097 87.2968 195.572C86.0116 196.056 84.5956 196.297 83.048 196.297C81.2469 196.297 79.6535 195.975 78.2675 195.329C76.8916 194.684 75.7333 193.732 74.7924 192.472C73.8515 191.211 73.1383 189.659 72.6527 187.814C72.1772 185.959 71.9395 183.826 71.9395 181.417V162.046H81.0294V179.905C81.0294 185.57 83.1945 188.403 87.5244 188.403C88.688 188.403 89.72 188.212 90.6204 187.829C91.5208 187.436 92.2789 186.866 92.8963 186.12C93.5236 185.374 93.9994 184.451 94.323 183.353C94.6466 182.244 94.808 180.974 94.808 179.542V162.046Z" fill="#424242"/>
<path d="M116.958 158.552H107.686V150.628H116.958V158.552ZM116.867 195.389H107.777V162.045H116.867V195.389Z" fill="#424242"/>
<path d="M129.847 195.39H120.758V162.046H129.847V173.629C130.151 171.845 130.596 170.237 131.183 168.805C131.77 167.373 132.518 166.159 133.429 165.161C134.339 164.163 135.422 163.397 136.676 162.862C137.941 162.318 139.393 162.046 141.031 162.046H143.019V170.559H139.514C137.652 170.559 136.1 170.751 134.855 171.134C133.621 171.517 132.63 172.107 131.881 172.903C131.142 173.69 130.616 174.688 130.302 175.898C129.999 177.098 129.847 178.518 129.847 180.162V195.39Z" fill="#424242"/>
<path d="M155.159 195.39H146.068V162.046H155.159V173.629C155.462 171.845 155.908 170.237 156.494 168.805C157.081 167.373 157.829 166.159 158.74 165.161C159.651 164.163 160.733 163.397 161.987 162.862C163.252 162.318 164.704 162.046 166.343 162.046H168.33V170.559H164.825C162.964 170.559 161.411 170.751 160.166 171.134C158.932 171.517 157.941 172.107 157.192 172.903C156.454 173.69 155.927 174.688 155.614 175.898C155.31 177.098 155.159 178.518 155.159 180.162V195.39Z" fill="#424242"/>
<path d="M202.814 184.093C202.359 185.989 201.645 187.692 200.674 189.205C199.713 190.707 198.539 191.987 197.153 193.046C195.768 194.094 194.194 194.896 192.434 195.45C190.684 196.015 188.792 196.297 186.759 196.297C185.079 196.297 183.49 196.106 181.993 195.722C180.506 195.34 179.136 194.79 177.881 194.074C176.636 193.348 175.514 192.466 174.512 191.428C173.521 190.389 172.681 189.22 171.993 187.92C171.305 186.609 170.774 185.183 170.4 183.64C170.036 182.088 169.854 180.434 169.854 178.68C169.854 176.936 170.036 175.292 170.4 173.75C170.764 172.198 171.285 170.771 171.963 169.47C172.651 168.17 173.486 167.005 174.466 165.977C175.448 164.949 176.556 164.077 177.79 163.361C179.035 162.645 180.395 162.096 181.873 161.713C183.349 161.33 184.917 161.138 186.577 161.138C189.045 161.138 191.286 161.557 193.299 162.393C195.322 163.22 197.047 164.399 198.474 165.932C199.911 167.454 201.018 169.294 201.797 171.451C202.576 173.599 202.965 175.993 202.965 178.635C202.965 179.038 202.955 179.446 202.935 179.859C202.925 180.263 202.895 180.676 202.844 181.1H178.64C178.782 182.35 179.074 183.468 179.52 184.456C179.975 185.434 180.557 186.266 181.265 186.952C181.983 187.627 182.823 188.147 183.784 188.51C184.755 188.872 185.833 189.054 187.017 189.054C188.797 189.054 190.284 188.641 191.478 187.813C192.682 186.977 193.618 185.737 194.286 184.093H202.814ZM194.24 175.504C193.855 173.105 193.026 171.3 191.751 170.091C190.476 168.871 188.766 168.261 186.622 168.261C185.54 168.261 184.553 168.422 183.663 168.745C182.773 169.067 181.993 169.536 181.326 170.151C180.658 170.766 180.102 171.527 179.656 172.434C179.222 173.332 178.913 174.355 178.731 175.504H194.24Z" fill="#424242"/>
<path d="M215.266 195.389H206.176V150.628H215.266V195.389Z" fill="#424242"/>
</g>
<defs>
<clipPath id="clip0_67_1528">
<rect width="216" height="207" fill="white"/>
</clipPath>
</defs>
</svg>
