<svg width="24" height="24" viewBox="0 0 24 24" fill="none" xmlns="http://www.w3.org/2000/svg">
<path d="M17.0365 0H6.97548C2.6053 0 0 2.604 0 6.972V17.016C0 21.396 2.6053 24 6.97548 24H17.0245C21.3947 24 24 21.396 24 17.028V6.972C24.012 2.604 21.4067 0 17.0365 0ZM14.3111 16.956H8.40419C7.91194 16.956 7.50374 16.548 7.50374 16.056C7.50374 15.564 7.91194 15.156 8.40419 15.156H14.3111C15.8479 15.156 17.1085 13.908 17.1085 12.36C17.1085 10.812 15.8599 9.564 14.3111 9.564H8.2241L8.53625 9.876C8.88443 10.236 8.88443 10.8 8.52425 11.16C8.34416 11.34 8.11604 11.424 7.88793 11.424C7.65982 11.424 7.4317 11.34 7.25161 11.16L5.36667 9.264C5.0185 8.916 5.0185 8.34 5.36667 7.992L7.25161 6.108C7.59979 5.76 8.17607 5.76 8.52425 6.108C8.87242 6.456 8.87242 7.032 8.52425 7.38L8.12805 7.776H14.3111C16.8444 7.776 18.9094 9.84 18.9094 12.372C18.9094 14.904 16.8444 16.956 14.3111 16.956Z" fill="white"/>
</svg>
