<svg width="24" height="24" viewBox="0 0 24 24" fill="none" xmlns="http://www.w3.org/2000/svg">
<mask id="mask0_67_2620" style="mask-type:luminance" maskUnits="userSpaceOnUse" x="0" y="0" width="24" height="24">
<path d="M24 0H0V24H24V0Z" fill="white"/>
</mask>
<g mask="url(#mask0_67_2620)">
<path d="M11.9999 2H8.66979C6.82979 2 5.33984 3.48999 5.33984 5.32999C5.33984 7.16999 6.82979 8.66 8.66979 8.66H11.9999V2Z" fill="white"/>
<path d="M11.9999 8.66992H8.66979C6.82979 8.66992 5.33984 10.1599 5.33984 11.9999C5.33984 13.8399 6.82979 15.3299 8.66979 15.3299H11.9999V8.66992Z" fill="white"/>
<path d="M11.9999 15.3301H8.66979C6.82979 15.3301 5.33984 16.8201 5.33984 18.6601C5.33984 20.5001 6.82979 21.9901 8.66979 21.9901C10.5098 21.9901 11.9999 20.5001 11.9999 18.6601V15.3301Z" fill="white"/>
<path d="M12 2H15.33C17.17 2 18.66 3.48999 18.66 5.32999C18.66 7.16999 17.17 8.66 15.33 8.66H12V2Z" fill="white"/>
<path d="M15.33 8.66992C17.17 8.66992 18.66 10.1599 18.66 11.9999C18.66 13.8399 17.17 15.3299 15.33 15.3299C13.49 15.3299 12 13.8399 12 11.9999C12 10.1599 13.49 8.66992 15.33 8.66992Z" fill="white"/>
</g>
</svg>
