<svg width="24" height="24" viewBox="0 0 24 24" fill="none" xmlns="http://www.w3.org/2000/svg">
<g clip-path="url(#clip0_67_2514)">
<mask id="mask0_67_2514" style="mask-type:luminance" maskUnits="userSpaceOnUse" x="0" y="0" width="24" height="24">
<path d="M24 0H0V24H24V0Z" fill="white"/>
</mask>
<g mask="url(#mask0_67_2514)">
<path d="M15.9101 12.3704H20.6001C20.5201 17.0404 19.6001 17.8104 16.7301 19.5104C16.4001 19.7104 16.2901 20.1304 16.4901 20.4704C16.6901 20.8004 17.1101 20.9104 17.4501 20.7104C20.8301 18.7104 22.0101 17.4904 22.0101 11.6704V6.28043C22.0101 4.57043 20.6201 3.19043 18.9201 3.19043H15.9201C14.1601 3.19043 12.8301 4.52043 12.8301 6.28043V9.28043C12.8201 11.0404 14.1501 12.3704 15.9101 12.3704Z" fill="white"/>
<path d="M5.09 12.3704H9.78C9.7 17.0404 8.78 17.8104 5.91 19.5104C5.58 19.7104 5.47 20.1304 5.67 20.4704C5.87 20.8004 6.29 20.9104 6.63 20.7104C10.01 18.7104 11.19 17.4904 11.19 11.6704V6.28043C11.19 4.57043 9.8 3.19043 8.1 3.19043H5.1C3.33 3.19043 2 4.52043 2 6.28043V9.28043C2 11.0404 3.33 12.3704 5.09 12.3704Z" fill="white"/>
</g>
</g>
<defs>
<clipPath id="clip0_67_2514">
<rect width="24" height="24" fill="white"/>
</clipPath>
</defs>
</svg>
