<svg width="24" height="24" viewBox="0 0 24 24" fill="none" xmlns="http://www.w3.org/2000/svg">
<g clip-path="url(#clip0_67_2553)">
<mask id="mask0_67_2553" style="mask-type:luminance" maskUnits="userSpaceOnUse" x="0" y="0" width="24" height="24">
<path d="M24 0H0V24H24V0Z" fill="white"/>
</mask>
<g mask="url(#mask0_67_2553)">
<path d="M21.7393 11.07C21.6893 10.56 21.2593 10.18 20.7493 10.18H13.1993C12.6493 10.18 12.1993 10.63 12.1993 11.18V12.89C12.1993 13.44 12.6493 13.89 13.1993 13.89H17.7093C17.5993 14.81 16.9993 16.2 15.6693 17.13C14.8193 17.72 13.6893 18.13 12.1993 18.13C12.1293 18.13 12.0693 18.13 11.9993 18.12C9.44922 18.04 7.28923 16.33 6.50923 13.98C6.29923 13.35 6.17922 12.69 6.17922 12C6.17922 11.31 6.29922 10.64 6.49922 10.02C6.55922 9.83999 6.62922 9.66001 6.70922 9.48001C7.62922 7.41001 9.63922 5.95 11.9993 5.88C12.0593 5.87 12.1293 5.87 12.1993 5.87C13.6293 5.87 14.6993 6.33999 15.4493 6.85999C15.8393 7.12999 16.3593 7.06999 16.6993 6.73999L18.0893 5.38C18.5293 4.95 18.4893 4.21999 17.9893 3.85999C16.3993 2.68999 14.4593 2 12.1993 2C12.1293 2 12.0693 2.00001 11.9993 2.01001C8.16922 2.08001 4.87922 4.30001 3.26922 7.51001C2.58922 8.87001 2.19922 10.39 2.19922 12C2.19922 13.61 2.58922 15.13 3.26922 16.49H3.27922C4.88922 19.7 8.17922 21.92 11.9993 21.99C12.0693 22 12.1293 22 12.1993 22C14.8993 22 17.1693 21.11 18.8193 19.58C20.7093 17.83 21.7993 15.27 21.7993 12.22C21.7993 11.79 21.7793 11.42 21.7393 11.07Z" fill="white"/>
</g>
</g>
<defs>
<clipPath id="clip0_67_2553">
<rect width="24" height="24" fill="white"/>
</clipPath>
</defs>
</svg>
