<svg width="24" height="24" viewBox="0 0 24 24" fill="none" xmlns="http://www.w3.org/2000/svg">
<g clip-path="url(#clip0_67_2583)">
<mask id="mask0_67_2583" style="mask-type:luminance" maskUnits="userSpaceOnUse" x="0" y="0" width="24" height="24">
<path d="M24 0H0V24H24V0Z" fill="white"/>
</mask>
<g mask="url(#mask0_67_2583)">
<path d="M12 2C9.38 2 7.25 4.13 7.25 6.75C7.25 9.32 9.26 11.4 11.88 11.49C11.96 11.48 12.04 11.48 12.1 11.49C12.12 11.49 12.13 11.49 12.15 11.49C12.16 11.49 12.16 11.49 12.17 11.49C14.73 11.4 16.74 9.32 16.75 6.75C16.75 4.13 14.62 2 12 2Z" fill="white"/>
<path d="M17.079 14.1499C14.289 12.2899 9.73898 12.2899 6.92898 14.1499C5.65898 14.9999 4.95898 16.1499 4.95898 17.3799C4.95898 18.6099 5.65898 19.7499 6.91898 20.5899C8.31898 21.5299 10.159 21.9999 11.999 21.9999C13.839 21.9999 15.679 21.5299 17.079 20.5899C18.339 19.7399 19.039 18.5999 19.039 17.3599C19.029 16.1299 18.339 14.9899 17.079 14.1499Z" fill="white"/>
</g>
</g>
<defs>
<clipPath id="clip0_67_2583">
<rect width="24" height="24" fill="white"/>
</clipPath>
</defs>
</svg>
