<svg width="24" height="24" viewBox="0 0 24 24" fill="none" xmlns="http://www.w3.org/2000/svg">
<g clip-path="url(#clip0_67_2640)">
<mask id="mask0_67_2640" style="mask-type:luminance" maskUnits="userSpaceOnUse" x="0" y="0" width="24" height="24">
<path d="M24 0H0V24H24V0Z" fill="white"/>
</mask>
<g mask="url(#mask0_67_2640)">
<path d="M21.0391 13.2809L20.1191 12.3809L12.3691 20.1209L13.2991 21.0509C14.0791 21.8309 14.8891 22.2209 15.6891 22.2209C16.4891 22.2209 17.2991 21.8309 18.0791 21.0509L21.0391 18.0909C22.6291 16.4909 22.6291 14.8809 21.0391 13.2809Z" fill="white"/>
<path d="M10.6898 2.92945C9.11977 1.35945 7.46977 1.35945 5.89977 2.92945L2.92977 5.88945C1.36977 7.45945 1.36977 9.10945 2.92977 10.6795L3.84977 11.5995L11.5998 3.84945L10.6898 2.92945Z" fill="white"/>
<path d="M21.8099 3.94009C20.4999 7.21009 17.5099 11.4801 14.6599 14.2701C14.2499 11.6901 12.1899 9.67009 9.58984 9.31009C12.3899 6.45009 16.6899 3.42009 19.9699 2.10009C20.5499 1.88009 21.1299 2.05009 21.4899 2.41009C21.8699 2.79009 22.0499 3.36009 21.8099 3.94009Z" fill="white"/>
<path d="M13.7791 15.0909C13.5791 15.2609 13.3791 15.4309 13.1791 15.5909L11.3891 17.0209C11.3891 16.9909 11.3791 16.9509 11.3791 16.9109C11.2391 15.8409 10.7391 14.8509 9.92914 14.0409C9.10914 13.2209 8.08914 12.7209 6.96914 12.5809C6.93914 12.5809 6.89914 12.5709 6.86914 12.5709L8.31914 10.7409C8.45914 10.5609 8.60914 10.3909 8.76914 10.2109L9.44914 10.3009C11.5991 10.6009 13.3291 12.2909 13.6691 14.4309L13.7791 15.0909Z" fill="white"/>
<path d="M10.4298 17.6208C10.4298 18.7208 10.0098 19.7708 9.20976 20.5608C8.59976 21.1808 7.77977 21.6008 6.77977 21.7208L4.32976 21.9908C2.98976 22.1408 1.83976 20.9908 1.98976 19.6408L2.25976 17.1808C2.49976 14.9908 4.32976 13.5908 6.26976 13.5508C6.45976 13.5408 6.66976 13.5508 6.86976 13.5708C7.71976 13.6808 8.53976 14.0708 9.22976 14.7508C9.89977 15.4208 10.2798 16.2108 10.3898 17.0408C10.4098 17.2408 10.4298 17.4308 10.4298 17.6208Z" fill="white"/>
</g>
</g>
<defs>
<clipPath id="clip0_67_2640">
<rect width="24" height="24" fill="white"/>
</clipPath>
</defs>
</svg>
