<svg width="24" height="24" viewBox="0 0 24 24" fill="none" xmlns="http://www.w3.org/2000/svg">
<g clip-path="url(#clip0_67_2489)">
<mask id="mask0_67_2489" style="mask-type:luminance" maskUnits="userSpaceOnUse" x="0" y="0" width="24" height="24">
<path d="M24 0H0V24H24V0Z" fill="white"/>
</mask>
<g mask="url(#mask0_67_2489)">
<path d="M18.4707 2H14.4707C12.9779 2 11.7439 3.28581 11.5104 4.75204C11.467 5.02475 11.6945 5.25 11.9707 5.25H16.4707C16.8807 5.25 17.2207 5.59 17.2207 6C17.2207 6.41 16.8807 6.75 16.4707 6.75H11.9707C11.6945 6.75 11.4707 6.97386 11.4707 7.25V8.75C11.4707 9.02614 11.6945 9.25 11.9707 9.25H14.2807C14.6907 9.25 15.0307 9.59 15.0307 10C15.0307 10.41 14.6907 10.75 14.2807 10.75H11.9707C11.6945 10.75 11.4707 10.9739 11.4707 11.25V12.705C11.4707 12.9792 11.6915 13.2022 11.9657 13.2049L16.4707 13.25C16.8907 13.25 17.2207 13.59 17.2207 14.01C17.2107 14.42 16.8807 14.75 16.4707 14.75C16.4607 14.75 16.4607 14.75 16.4607 14.75L11.9757 14.7051C11.6976 14.7023 11.4707 14.9269 11.4707 15.205V16.75C11.4707 17.0261 11.6945 17.25 11.9707 17.25H15.3707C15.7907 17.25 16.1207 17.59 16.1207 18C16.1207 18.41 15.7907 18.75 15.3707 18.75H11.9707C11.6945 18.75 11.467 18.9753 11.5104 19.248C11.7439 20.7142 12.9779 22 14.4707 22H18.4707C20.1207 22 21.4707 20.66 21.4707 19V5C21.4707 3.34 20.1207 2 18.4707 2Z" fill="#424242"/>
<path d="M8.44027 4.95V5.75C8.44027 6.02614 8.21641 6.25 7.94027 6.25H3.03027C2.75413 6.25 2.53027 6.02614 2.53027 5.75V4.95C2.53027 3.33 3.86027 2 5.49027 2C7.11027 2 8.44027 3.33 8.44027 4.95Z" fill="#424242"/>
<path d="M2.53027 17.91C2.53027 18.36 2.72027 19.05 2.96027 19.43L3.77027 20.79C4.72027 22.37 6.26027 22.37 7.20027 20.79L8.02027 19.43C8.25027 19.05 8.44027 18.36 8.44027 17.91V8.25C8.44027 7.97386 8.21641 7.75 7.94027 7.75H3.03027C2.75413 7.75 2.53027 7.97386 2.53027 8.25V17.91Z" fill="#424242"/>
</g>
</g>
<defs>
<clipPath id="clip0_67_2489">
<rect width="24" height="24" fill="white"/>
</clipPath>
</defs>
</svg>
