<svg width="24" height="24" viewBox="0 0 24 24" fill="none" xmlns="http://www.w3.org/2000/svg">
<path d="M24 12C24 5.388 18.612 -2.35517e-07 12 -5.24537e-07C5.388 -8.13556e-07 -1.18919e-06 5.388 -1.47821e-06 12C-1.76723e-06 18.612 5.388 24 12 24C18.612 24 24 18.612 24 12ZM12.876 16.872L8.64 12.636C8.46 12.456 8.376 12.228 8.376 12C8.376 11.772 8.46 11.544 8.64 11.364L12.876 7.128C13.224 6.78 13.8 6.78 14.148 7.128C14.496 7.476 14.496 8.052 14.148 8.4L10.548 12L14.148 15.6C14.496 15.948 14.496 16.524 14.148 16.872C13.8 17.22 13.236 17.22 12.876 16.872Z" fill="white"/>
</svg>
