<svg width="24" height="16" viewBox="0 0 24 16" fill="none" xmlns="http://www.w3.org/2000/svg">
<path d="M5.48661e-05 15.8201V0.476067H3.55605V7.08407H3.30406C3.30406 5.51607 3.50006 4.2094 3.89206 3.16407C4.28405 2.11873 4.87205 1.33473 5.65605 0.812068C6.44005 0.270735 7.40139 6.84261e-05 8.54006 6.84261e-05H8.73606C9.89339 6.84261e-05 10.8547 0.270735 11.6201 0.812068C12.4041 1.33473 12.9921 2.11873 13.3841 3.16407C13.7947 4.2094 14.0001 5.51607 14.0001 7.08407H12.9081C12.9081 5.51607 13.1041 4.2094 13.4961 3.16407C13.9067 2.11873 14.5041 1.33473 15.2881 0.812068C16.0721 0.270735 17.0334 6.84261e-05 18.1721 6.84261e-05H18.3681C19.5254 6.84261e-05 20.4961 0.270735 21.2801 0.812068C22.0827 1.33473 22.6894 2.11873 23.1001 3.16407C23.5107 4.2094 23.7161 5.51607 23.7161 7.08407V15.8201H19.2361V6.83207C19.2361 5.99207 19.0121 5.31073 18.5641 4.78807C18.1347 4.2654 17.5187 4.00407 16.7161 4.00407C15.9134 4.00407 15.2787 4.27473 14.8121 4.81607C14.3454 5.33873 14.1121 6.03873 14.1121 6.91607V15.8201H9.60405V6.83207C9.60405 5.99207 9.38006 5.31073 8.93206 4.78807C8.50272 4.2654 7.89606 4.00407 7.11206 4.00407C6.29072 4.00407 5.64672 4.27473 5.18006 4.81607C4.71339 5.33873 4.48005 6.03873 4.48005 6.91607V15.8201H5.48661e-05Z" fill="white"/>
</svg>
