<svg width="40" height="40" viewBox="0 0 40 40" fill="none" xmlns="http://www.w3.org/2000/svg">
<path d="M3.41992 6.94888C3.41992 3.39886 6.34275 0.520996 9.94824 0.520996C11.751 0.520996 13.2124 1.95993 13.2124 3.73495V32.2178C13.2124 36.1228 9.99729 39.2885 6.03125 39.2885C4.58905 39.2885 3.41992 38.1373 3.41992 36.7172V6.94888Z" fill="#0C76F8"/>
<path d="M5.17027 7.70906C3.78726 5.75155 4.3285 3.13627 6.37916 1.86766C8.83995 0.345353 12.1802 1.01553 13.8398 3.36454L36.1381 34.9256C36.7901 35.8485 36.535 37.0814 35.5682 37.6794C32.0236 39.8724 27.212 38.907 24.8213 35.5232L5.17027 7.70906Z" fill="#0C76F8"/>
<path d="M26.7715 13.7565C26.7715 12.3823 26.7715 11.6952 27.2084 11.2765C27.6452 10.8577 28.3429 10.8762 29.7379 10.9131L33.6954 11.0177C35.0484 11.0534 35.725 11.0713 36.1361 11.4955C36.5472 11.9197 36.5335 12.5859 36.5063 13.9184L36.3672 20.721C36.2931 24.3415 36.2561 26.1518 35.2499 26.4503C34.2437 26.7489 33.1969 25.2602 31.1037 22.2827L27.2851 16.8517C27.0303 16.4892 26.9029 16.308 26.8372 16.1009C26.7715 15.8938 26.7715 15.6734 26.7715 15.2326V13.7565Z" fill="#0C76F8"/>
<path d="M26.7862 8.36252C26.7733 4.04478 30.3177 0.535221 34.7029 0.523688C35.6773 0.521125 36.4697 1.29688 36.4726 2.25637L36.5058 13.3367L26.8012 13.3623L26.7862 8.36252Z" fill="#0C76F8"/>
</svg>
