<svg width="24" height="24" viewBox="0 0 24 24" fill="none" xmlns="http://www.w3.org/2000/svg">
<path d="M-5.24537e-07 12C-2.35517e-07 18.612 5.388 24 12 24C18.612 24 24 18.612 24 12C24 5.388 18.612 1.09379e-06 12 1.38281e-06C5.388 1.67183e-06 -8.13556e-07 5.388 -5.24537e-07 12ZM11.124 7.128L15.36 11.364C15.54 11.544 15.624 11.772 15.624 12C15.624 12.228 15.54 12.456 15.36 12.636L11.124 16.872C10.776 17.22 10.2 17.22 9.852 16.872C9.504 16.524 9.504 15.948 9.852 15.6L13.452 12L9.852 8.4C9.504 8.052 9.504 7.476 9.852 7.128C10.2 6.78 10.764 6.78 11.124 7.128Z" fill="#1870FF"/>
</svg>
