<svg width="23" height="18" viewBox="0 0 23 18" fill="none" xmlns="http://www.w3.org/2000/svg">
<path d="M20.403 6.59003C18.9197 5.04287 16.9748 4.04724 14.8591 3.73781V0H5.51722C2.47488 0 0 2.42987 0 5.41708V12.3545H1.70794V5.41708C1.70794 3.35491 3.41699 1.67673 5.51722 1.67673H13.1512V5.48295C13.1512 7.54511 11.4422 9.2233 9.34193 9.2233H5.57893V6.56506C5.57893 6.29906 5.68469 6.04789 5.87755 5.86078C6.06925 5.67368 6.32271 5.57089 6.59158 5.57089C6.59377 5.57089 6.59488 5.57089 6.5971 5.57089L10.5287 5.58899L10.5375 3.91226L6.6059 3.8938C5.87644 3.89054 5.18996 4.16631 4.67314 4.67154C4.15636 5.17677 3.87099 5.84884 3.87099 6.56506V18H12.6388V15.5126C12.6388 15.0656 13.0091 14.7023 13.4641 14.7023C13.9192 14.7023 14.2895 15.0656 14.2895 15.5126V18H23V13.0241C23 10.6224 22.0777 8.33734 20.4019 6.58895L20.403 6.59003ZM21.2931 16.3229H15.9985V15.5126C15.9985 14.1406 14.8624 13.0252 13.4653 13.0252C12.068 13.0252 10.932 14.1406 10.932 15.5126V16.3229H5.58004V10.9004H9.34304C12.3854 10.9004 14.8603 8.47016 14.8603 5.48295V5.43662C18.534 6.09747 21.2942 9.27324 21.2942 13.0252V16.3229H21.2931Z" fill="white"/>
</svg>
