<svg width="472" height="287" viewBox="0 0 472 287" fill="none" xmlns="http://www.w3.org/2000/svg">
<path d="M54.5 193C54.5 201.499 54.5008 207.824 55.1543 212.685C55.8059 217.531 57.0984 220.846 59.626 223.374C62.1536 225.902 65.4694 227.194 70.3154 227.846C75.176 228.499 81.5006 228.5 90 228.5H137V229.5H90C81.529 229.5 75.1253 229.501 70.1826 228.837C65.2255 228.17 61.6634 226.825 58.9189 224.081C56.1745 221.337 54.8295 217.774 54.1631 212.817C53.4986 207.875 53.5 201.471 53.5 193V171H54.5V193ZM137 58.5H90C81.5006 58.5 75.176 58.5008 70.3154 59.1543C65.4694 59.8059 62.1536 61.0984 59.626 63.626C57.0984 66.1536 55.8059 69.4694 55.1543 74.3154C54.5008 79.176 54.5 85.5006 54.5 94V115H53.5V94C53.5 85.529 53.4986 79.1253 54.1631 74.1826C54.8295 69.2255 56.1745 65.6634 58.9189 62.9189C61.6634 60.1745 65.2255 58.8295 70.1826 58.1631C75.1253 57.4986 81.529 57.5 90 57.5H137V58.5Z" fill="#E2E2E2"/>
<path d="M402.496 171C402.482 177.53 402.393 182.685 401.837 186.817C401.17 191.774 399.825 195.337 397.081 198.081C394.337 200.825 390.774 202.17 385.817 202.837C380.875 203.501 374.471 203.5 366 203.5H359V202.5H366C374.499 202.5 380.824 202.499 385.685 201.846C390.531 201.194 393.846 199.902 396.374 197.374C398.902 194.846 400.194 191.531 400.846 186.685C401.392 182.619 401.481 177.53 401.496 171H402.496ZM366 83.5C374.471 83.5 380.875 83.4986 385.817 84.1631C390.774 84.8295 394.337 86.1745 397.081 88.9189C399.825 91.6634 401.17 95.2255 401.837 100.183C402.364 104.102 402.471 108.941 402.493 115H401.492C401.47 108.948 401.364 104.171 400.846 100.315C400.194 95.4694 398.902 92.1536 396.374 89.626C393.846 87.0984 390.531 85.8059 385.685 85.1543C380.824 84.5008 374.499 84.5 366 84.5H359V83.5H366Z" fill="#E2E2E2"/>
<rect x="115" y="147" width="140" height="140" rx="17" fill="#4B7A1A"/>
<rect x="115" width="140" height="140" rx="17" fill="#B63C3C"/>
<rect x="262" y="147" width="97" height="97" rx="12" fill="#D7F2BB"/>
<rect x="262" y="43" width="97" height="97" rx="12" fill="#FECBCB"/>
<rect x="129" y="156" width="109" height="37" rx="7" fill="#E2F6F9" fill-opacity="0.14"/>
<path d="M139.601 181L141.861 166.4L144.121 166.4L141.861 181L139.601 181ZM144.541 181L146.801 166.4L149.061 166.4L146.801 181L144.541 181ZM137.881 177.14L137.881 175.26L150.001 175.26L150.001 177.14L137.881 177.14ZM138.641 172.14L138.641 170.26L150.761 170.26L150.761 172.14L138.641 172.14ZM152.199 177.98L152.199 174.9L157.919 166L160.059 167.46L155.019 175.34L155.259 175.74L164.219 175.74L164.219 177.98L152.199 177.98ZM159.839 181L159.839 170.54L162.459 170.54L162.459 181L159.839 181ZM168.862 181.1L168.862 178.82L172.522 178.82C173.188 178.82 173.695 178.64 174.042 178.28C174.388 177.907 174.562 177.4 174.562 176.76C174.562 176.12 174.388 175.627 174.042 175.28C173.695 174.92 173.188 174.74 172.522 174.74L168.862 174.74L168.862 173L172.322 173C173.295 173 174.162 173.12 174.922 173.36C175.695 173.587 176.295 173.973 176.722 174.52C177.162 175.067 177.382 175.8 177.382 176.72L177.382 177C177.382 177.867 177.188 178.607 176.802 179.22C176.428 179.82 175.862 180.287 175.102 180.62C174.355 180.94 173.428 181.1 172.322 181.1L168.862 181.1ZM166.482 181.1L166.482 166.3L169.262 166.3L169.262 181.1L166.482 181.1ZM168.862 174.28L168.862 172.54L171.982 172.54C172.662 172.54 173.162 172.36 173.482 172C173.802 171.64 173.962 171.16 173.962 170.56C173.962 169.96 173.802 169.48 173.482 169.12C173.162 168.76 172.662 168.58 171.982 168.58L168.862 168.58L168.862 166.3L171.722 166.3C173.375 166.3 174.628 166.647 175.482 167.34C176.348 168.033 176.782 169.027 176.782 170.32L176.782 170.6C176.782 171.507 176.562 172.233 176.122 172.78C175.695 173.313 175.102 173.7 174.342 173.94C173.582 174.167 172.708 174.28 171.722 174.28L168.862 174.28ZM181.331 181L186.791 169L186.611 168.74L179.211 168.74L179.211 166.4L189.851 166.4L189.851 168.56L184.311 181L181.331 181ZM179.211 171.08L179.211 166.4L181.511 166.4L181.511 171.08L179.211 171.08ZM190.725 181L195.705 166.4L200.345 166.4L205.465 181L202.545 181L198.205 168.34L199.225 168.78L196.725 168.78L197.765 168.34L193.565 181L190.725 181ZM194.205 177.12L195.105 174.72L201.025 174.72L201.905 177.12L194.205 177.12ZM209.534 181L209.534 168.16L210.414 168.84L206.554 168.84L206.554 166.4L212.354 166.4L212.354 181L209.534 181ZM214.69 181L219.67 166.4L224.31 166.4L229.43 181L226.51 181L222.17 168.34L223.19 168.78L220.69 168.78L221.73 168.34L217.53 181L214.69 181ZM218.17 177.12L219.07 174.72L224.99 174.72L225.87 177.12L218.17 177.12Z" fill="#D7F2BB"/>
<rect x="127" y="94" width="115" height="37" rx="7" fill="#E2F6F9" fill-opacity="0.14"/>
<path d="M137.623 119L139.883 104.4L142.143 104.4L139.883 119L137.623 119ZM142.563 119L144.823 104.4L147.083 104.4L144.823 119L142.563 119ZM135.903 115.14L135.903 113.26L148.023 113.26L148.023 115.14L135.903 115.14ZM136.663 110.14L136.663 108.26L148.783 108.26L148.783 110.14L136.663 110.14ZM153.641 119.1L153.641 116.82L157.301 116.82C157.968 116.82 158.474 116.64 158.821 116.28C159.168 115.907 159.341 115.4 159.341 114.76C159.341 114.12 159.168 113.627 158.821 113.28C158.474 112.92 157.968 112.74 157.301 112.74L153.641 112.74L153.641 111L157.101 111C158.074 111 158.941 111.12 159.701 111.36C160.474 111.587 161.074 111.973 161.501 112.52C161.941 113.067 162.161 113.8 162.161 114.72L162.161 115C162.161 115.867 161.968 116.607 161.581 117.22C161.208 117.82 160.641 118.287 159.881 118.62C159.134 118.94 158.208 119.1 157.101 119.1L153.641 119.1ZM151.261 119.1L151.261 104.3L154.041 104.3L154.041 119.1L151.261 119.1ZM153.641 112.28L153.641 110.54L156.761 110.54C157.441 110.54 157.941 110.36 158.261 110C158.581 109.64 158.741 109.16 158.741 108.56C158.741 107.96 158.581 107.48 158.261 107.12C157.941 106.76 157.441 106.58 156.761 106.58L153.641 106.58L153.641 104.3L156.501 104.3C158.154 104.3 159.408 104.647 160.261 105.34C161.128 106.033 161.561 107.027 161.561 108.32L161.561 108.6C161.561 109.507 161.341 110.233 160.901 110.78C160.474 111.313 159.881 111.7 159.121 111.94C158.361 112.167 157.488 112.28 156.501 112.28L153.641 112.28ZM170.35 119.42C169.27 119.42 168.35 119.24 167.59 118.88C166.844 118.507 166.237 118 165.77 117.36C165.304 116.72 164.964 115.98 164.75 115.14C164.537 114.287 164.43 113.387 164.43 112.44L164.43 111.56C164.43 109.173 165.03 107.367 166.23 106.14C167.444 104.9 169.217 104.28 171.55 104.28C172.057 104.28 172.53 104.293 172.97 104.32C173.41 104.347 173.85 104.387 174.29 104.44L174.29 106.82C173.85 106.767 173.397 106.727 172.93 106.7C172.477 106.673 171.984 106.66 171.45 106.66C170.33 106.66 169.45 106.853 168.81 107.24C168.17 107.627 167.71 108.193 167.43 108.94C167.164 109.687 167.03 110.613 167.03 111.72L167.03 113.02L166.39 113.94C166.404 112.913 166.604 112.067 166.99 111.4C167.39 110.72 167.937 110.213 168.63 109.88C169.324 109.533 170.117 109.36 171.01 109.36C172.05 109.36 172.937 109.567 173.67 109.98C174.404 110.393 174.964 110.967 175.35 111.7C175.75 112.433 175.95 113.287 175.95 114.26C175.95 115.273 175.724 116.173 175.27 116.96C174.817 117.733 174.17 118.34 173.33 118.78C172.504 119.207 171.51 119.42 170.35 119.42ZM170.29 117.04C170.917 117.04 171.45 116.927 171.89 116.7C172.33 116.46 172.664 116.133 172.89 115.72C173.117 115.307 173.23 114.833 173.23 114.3C173.23 113.753 173.117 113.273 172.89 112.86C172.677 112.447 172.357 112.127 171.93 111.9C171.504 111.673 170.99 111.56 170.39 111.56C169.817 111.56 169.29 111.667 168.81 111.88C168.344 112.08 167.97 112.387 167.69 112.8C167.424 113.2 167.29 113.7 167.29 114.3C167.29 114.82 167.397 115.287 167.61 115.7C167.837 116.113 168.17 116.44 168.61 116.68C169.064 116.92 169.624 117.04 170.29 117.04ZM182.905 119.38C181.785 119.38 180.818 119.167 180.005 118.74C179.205 118.313 178.592 117.747 178.165 117.04C177.738 116.32 177.525 115.52 177.525 114.64L180.265 114.64C180.265 115.347 180.498 115.92 180.965 116.36C181.445 116.787 182.092 117 182.905 117C183.452 117 183.918 116.9 184.305 116.7C184.705 116.487 185.012 116.2 185.225 115.84C185.438 115.467 185.545 115.04 185.545 114.56C185.545 113.84 185.312 113.253 184.845 112.8C184.378 112.333 183.738 112.1 182.925 112.1C182.525 112.1 182.172 112.153 181.865 112.26C181.572 112.367 181.312 112.507 181.085 112.68L179.785 110.44L184.585 107.16L184.405 106.82L178.125 106.82L178.125 104.4L187.665 104.4L187.665 107.32L182.725 110.6L181.185 110.32C181.438 110.24 181.712 110.18 182.005 110.14C182.298 110.087 182.618 110.06 182.965 110.06C184.072 110.06 185.018 110.253 185.805 110.64C186.605 111.013 187.218 111.533 187.645 112.2C188.072 112.867 188.285 113.633 188.285 114.5L188.285 114.76C188.285 115.6 188.072 116.373 187.645 117.08C187.218 117.773 186.605 118.333 185.805 118.76C185.005 119.173 184.038 119.38 182.905 119.38ZM197.685 119.38C196.365 119.38 195.231 119.147 194.285 118.68C193.338 118.213 192.565 117.607 191.965 116.86C191.378 116.113 190.945 115.3 190.665 114.42C190.385 113.54 190.245 112.693 190.245 111.88L190.245 111.44C190.245 110.533 190.385 109.64 190.665 108.76C190.958 107.88 191.405 107.08 192.005 106.36C192.605 105.64 193.365 105.067 194.285 104.64C195.218 104.2 196.318 103.98 197.585 103.98C198.905 103.98 200.051 104.22 201.025 104.7C202.011 105.167 202.798 105.833 203.385 106.7C203.971 107.553 204.325 108.553 204.445 109.7L201.585 109.7C201.478 109.033 201.238 108.473 200.865 108.02C200.505 107.553 200.045 107.207 199.485 106.98C198.925 106.74 198.291 106.62 197.585 106.62C196.865 106.62 196.225 106.747 195.665 107C195.105 107.24 194.638 107.587 194.265 108.04C193.891 108.493 193.605 109.027 193.405 109.64C193.218 110.253 193.125 110.933 193.125 111.68C193.125 112.4 193.218 113.067 193.405 113.68C193.605 114.293 193.898 114.833 194.285 115.3C194.671 115.753 195.145 116.107 195.705 116.36C196.278 116.613 196.938 116.74 197.685 116.74C198.778 116.74 199.698 116.473 200.445 115.94C201.205 115.393 201.665 114.633 201.825 113.66L204.685 113.66C204.551 114.7 204.198 115.653 203.625 116.52C203.051 117.387 202.265 118.08 201.265 118.6C200.265 119.12 199.071 119.38 197.685 119.38ZM211.401 119.38C210.281 119.38 209.315 119.167 208.501 118.74C207.701 118.313 207.088 117.747 206.661 117.04C206.235 116.32 206.021 115.52 206.021 114.64L208.761 114.64C208.761 115.347 208.995 115.92 209.461 116.36C209.941 116.787 210.588 117 211.401 117C211.948 117 212.415 116.9 212.801 116.7C213.201 116.487 213.508 116.2 213.721 115.84C213.935 115.467 214.041 115.04 214.041 114.56C214.041 113.84 213.808 113.253 213.341 112.8C212.875 112.333 212.235 112.1 211.421 112.1C211.021 112.1 210.668 112.153 210.361 112.26C210.068 112.367 209.808 112.507 209.581 112.68L208.281 110.44L213.081 107.16L212.901 106.82L206.621 106.82L206.621 104.4L216.161 104.4L216.161 107.32L211.221 110.6L209.681 110.32C209.935 110.24 210.208 110.18 210.501 110.14C210.795 110.087 211.115 110.06 211.461 110.06C212.568 110.06 213.515 110.253 214.301 110.64C215.101 111.013 215.715 111.533 216.141 112.2C216.568 112.867 216.781 113.633 216.781 114.5L216.781 114.76C216.781 115.6 216.568 116.373 216.141 117.08C215.715 117.773 215.101 118.333 214.301 118.76C213.501 119.173 212.535 119.38 211.401 119.38ZM226.181 119.38C224.861 119.38 223.727 119.147 222.781 118.68C221.834 118.213 221.061 117.607 220.461 116.86C219.874 116.113 219.441 115.3 219.161 114.42C218.881 113.54 218.741 112.693 218.741 111.88L218.741 111.44C218.741 110.533 218.881 109.64 219.161 108.76C219.454 107.88 219.901 107.08 220.501 106.36C221.101 105.64 221.861 105.067 222.781 104.64C223.714 104.2 224.814 103.98 226.081 103.98C227.401 103.98 228.547 104.22 229.521 104.7C230.507 105.167 231.294 105.833 231.881 106.7C232.467 107.553 232.821 108.553 232.941 109.7L230.081 109.7C229.974 109.033 229.734 108.473 229.361 108.02C229.001 107.553 228.541 107.207 227.981 106.98C227.421 106.74 226.787 106.62 226.081 106.62C225.361 106.62 224.721 106.747 224.161 107C223.601 107.24 223.134 107.587 222.761 108.04C222.387 108.493 222.101 109.027 221.901 109.64C221.714 110.253 221.621 110.933 221.621 111.68C221.621 112.4 221.714 113.067 221.901 113.68C222.101 114.293 222.394 114.833 222.781 115.3C223.167 115.753 223.641 116.107 224.201 116.36C224.774 116.613 225.434 116.74 226.181 116.74C227.274 116.74 228.194 116.473 228.941 115.94C229.701 115.393 230.161 114.633 230.321 113.66L233.181 113.66C233.047 114.7 232.694 115.653 232.121 116.52C231.547 117.387 230.761 118.08 229.761 118.6C228.761 119.12 227.567 119.38 226.181 119.38Z" fill="#FECBCB"/>
<rect x="267" y="153" width="87" height="29" rx="7" fill="#E2F6F9" fill-opacity="0.14"/>
<path d="M275.17 172.5L276.978 160.82L278.786 160.82L276.978 172.5L275.17 172.5ZM279.122 172.5L280.93 160.82L282.738 160.82L280.93 172.5L279.122 172.5ZM273.794 169.412L273.794 167.908L283.49 167.908L283.49 169.412L273.794 169.412ZM274.402 165.412L274.402 163.908L284.098 163.908L284.098 165.412L274.402 165.412ZM288.033 172.564L288.033 170.452L290.449 170.452C291.057 170.452 291.595 170.361 292.065 170.18C292.545 169.988 292.95 169.721 293.281 169.38C293.611 169.039 293.862 168.639 294.033 168.18C294.214 167.711 294.305 167.193 294.305 166.628C294.305 166.041 294.214 165.519 294.033 165.06C293.862 164.591 293.611 164.191 293.281 163.86C292.95 163.529 292.545 163.279 292.065 163.108C291.595 162.937 291.057 162.852 290.449 162.852L288.033 162.852L288.033 160.74L290.305 160.74C291.361 160.74 292.283 160.895 293.073 161.204C293.862 161.513 294.518 161.94 295.041 162.484C295.563 163.017 295.953 163.631 296.209 164.324C296.475 165.007 296.609 165.716 296.609 166.452L296.609 166.804C296.609 167.508 296.475 168.201 296.209 168.884C295.953 169.567 295.563 170.185 295.041 170.74C294.518 171.295 293.862 171.737 293.073 172.068C292.283 172.399 291.361 172.564 290.305 172.564L288.033 172.564ZM286.081 172.564L286.081 160.74L288.353 160.74L288.353 172.564L286.081 172.564ZM299.507 172.5L303.875 162.9L303.731 162.692L297.811 162.692L297.811 160.82L306.323 160.82L306.323 162.548L301.891 172.5L299.507 172.5ZM297.811 164.564L297.811 160.82L299.651 160.82L299.651 164.564L297.811 164.564ZM308.174 172.5L308.174 160.82L310.446 160.82L310.446 172.5L308.174 172.5ZM310.126 167.636L310.126 165.716L314.798 165.7L314.798 167.62L310.126 167.636ZM310.126 162.74L310.126 160.82L315.022 160.82L315.022 162.74L310.126 162.74ZM316.728 172.5L316.728 170.26C316.728 169.769 316.802 169.343 316.952 168.98C317.112 168.617 317.368 168.297 317.72 168.02C318.082 167.732 318.557 167.46 319.144 167.204L321.128 166.324C321.618 166.1 321.992 165.828 322.248 165.508C322.514 165.177 322.648 164.756 322.648 164.244C322.648 163.679 322.477 163.231 322.136 162.9C321.805 162.559 321.33 162.388 320.712 162.388C320.093 162.388 319.613 162.559 319.272 162.9C318.941 163.241 318.776 163.716 318.776 164.324L316.584 164.324C316.584 163.599 316.738 162.948 317.048 162.372C317.357 161.785 317.816 161.327 318.424 160.996C319.032 160.655 319.794 160.484 320.712 160.484C321.629 160.484 322.392 160.649 323 160.98C323.608 161.311 324.066 161.753 324.376 162.308C324.685 162.852 324.84 163.46 324.84 164.132L324.84 164.34C324.84 165.215 324.594 165.945 324.104 166.532C323.613 167.108 322.893 167.609 321.944 168.036L319.96 168.916C319.586 169.076 319.325 169.247 319.176 169.428C319.026 169.599 318.952 169.833 318.952 170.132L318.952 171.156L318.408 170.564L324.888 170.564L324.888 172.5L316.728 172.5ZM329.063 172.58L329.063 170.756L331.991 170.756C332.524 170.756 332.929 170.612 333.207 170.324C333.484 170.025 333.623 169.62 333.623 169.108C333.623 168.596 333.484 168.201 333.207 167.924C332.929 167.636 332.524 167.492 331.991 167.492L329.063 167.492L329.063 166.1L331.831 166.1C332.609 166.1 333.303 166.196 333.911 166.388C334.529 166.569 335.009 166.879 335.351 167.316C335.703 167.753 335.879 168.34 335.879 169.076L335.879 169.3C335.879 169.993 335.724 170.585 335.415 171.076C335.116 171.556 334.663 171.929 334.055 172.196C333.457 172.452 332.716 172.58 331.831 172.58L329.063 172.58ZM327.159 172.58L327.159 160.74L329.383 160.74L329.383 172.58L327.159 172.58ZM329.063 167.124L329.063 165.732L331.559 165.732C332.103 165.732 332.503 165.588 332.759 165.3C333.015 165.012 333.143 164.628 333.143 164.148C333.143 163.668 333.015 163.284 332.759 162.996C332.503 162.708 332.103 162.564 331.559 162.564L329.063 162.564L329.063 160.74L331.351 160.74C332.673 160.74 333.676 161.017 334.359 161.572C335.052 162.127 335.399 162.921 335.399 163.956L335.399 164.18C335.399 164.905 335.223 165.487 334.871 165.924C334.529 166.351 334.055 166.66 333.447 166.852C332.839 167.033 332.14 167.124 331.351 167.124L329.063 167.124ZM340.078 172.58L340.078 170.756L343.006 170.756C343.54 170.756 343.945 170.612 344.222 170.324C344.5 170.025 344.638 169.62 344.638 169.108C344.638 168.596 344.5 168.201 344.222 167.924C343.945 167.636 343.54 167.492 343.006 167.492L340.078 167.492L340.078 166.1L342.846 166.1C343.625 166.1 344.318 166.196 344.926 166.388C345.545 166.569 346.025 166.879 346.366 167.316C346.718 167.753 346.894 168.34 346.894 169.076L346.894 169.3C346.894 169.993 346.74 170.585 346.43 171.076C346.132 171.556 345.678 171.929 345.07 172.196C344.473 172.452 343.732 172.58 342.846 172.58L340.078 172.58ZM338.174 172.58L338.174 160.74L340.398 160.74L340.398 172.58L338.174 172.58ZM340.078 167.124L340.078 165.732L342.574 165.732C343.118 165.732 343.518 165.588 343.774 165.3C344.03 165.012 344.158 164.628 344.158 164.148C344.158 163.668 344.03 163.284 343.774 162.996C343.518 162.708 343.118 162.564 342.574 162.564L340.078 162.564L340.078 160.74L342.366 160.74C343.689 160.74 344.692 161.017 345.374 161.572C346.068 162.127 346.414 162.921 346.414 163.956L346.414 164.18C346.414 164.905 346.238 165.487 345.886 165.924C345.545 166.351 345.07 166.66 344.462 166.852C343.854 167.033 343.156 167.124 342.366 167.124L340.078 167.124Z" fill="#4B7A1A"/>
<rect x="265" y="105" width="90" height="29" rx="7" fill="#E2F6F9" fill-opacity="0.14"/>
<path d="M273.272 124.5L275.08 112.82L276.888 112.82L275.08 124.5L273.272 124.5ZM277.224 124.5L279.032 112.82L280.84 112.82L279.032 124.5L277.224 124.5ZM271.896 121.412L271.896 119.908L281.592 119.908L281.592 121.412L271.896 121.412ZM272.504 117.412L272.504 115.908L282.2 115.908L282.2 117.412L272.504 117.412ZM284.182 124.5L284.182 112.82L286.454 112.82L286.454 124.5L284.182 124.5ZM286.134 119.636L286.134 117.716L290.806 117.7L290.806 119.62L286.134 119.636ZM286.134 114.74L286.134 112.82L291.03 112.82L291.03 114.74L286.134 114.74ZM293.135 124.5L293.135 112.82L295.359 112.82L295.359 124.5L293.135 124.5ZM295.039 124.5L295.039 122.58L300.335 122.58L300.335 124.5L295.039 124.5ZM295.039 119.524L295.039 117.604L299.919 117.604L299.919 119.524L295.039 119.524ZM295.039 114.74L295.039 112.82L300.207 112.82L300.207 114.74L295.039 114.74ZM307.821 124.804C306.765 124.804 305.859 124.617 305.101 124.244C304.344 123.871 303.725 123.385 303.245 122.788C302.776 122.191 302.429 121.54 302.205 120.836C301.981 120.132 301.869 119.455 301.869 118.804L301.869 118.452C301.869 117.727 301.981 117.012 302.205 116.308C302.44 115.604 302.797 114.964 303.277 114.388C303.757 113.812 304.365 113.353 305.101 113.012C305.848 112.66 306.728 112.484 307.741 112.484C308.797 112.484 309.715 112.676 310.493 113.06C311.283 113.433 311.912 113.967 312.381 114.66C312.851 115.343 313.133 116.143 313.229 117.06L310.941 117.06C310.856 116.527 310.664 116.079 310.365 115.716C310.077 115.343 309.709 115.065 309.261 114.884C308.813 114.692 308.307 114.596 307.741 114.596C307.165 114.596 306.653 114.697 306.205 114.9C305.757 115.092 305.384 115.369 305.085 115.732C304.787 116.095 304.557 116.521 304.397 117.012C304.248 117.503 304.173 118.047 304.173 118.644C304.173 119.22 304.248 119.753 304.397 120.244C304.557 120.735 304.792 121.167 305.101 121.54C305.411 121.903 305.789 122.185 306.237 122.388C306.696 122.591 307.224 122.692 307.821 122.692C308.696 122.692 309.432 122.479 310.029 122.052C310.637 121.615 311.005 121.007 311.133 120.228L313.421 120.228C313.315 121.06 313.032 121.823 312.573 122.516C312.115 123.209 311.485 123.764 310.685 124.18C309.885 124.596 308.931 124.804 307.821 124.804ZM317.242 124.58L317.242 122.756L320.17 122.756C320.704 122.756 321.109 122.612 321.386 122.324C321.664 122.025 321.802 121.62 321.802 121.108C321.802 120.596 321.664 120.201 321.386 119.924C321.109 119.636 320.704 119.492 320.17 119.492L317.242 119.492L317.242 118.1L320.01 118.1C320.789 118.1 321.482 118.196 322.09 118.388C322.709 118.569 323.189 118.879 323.53 119.316C323.882 119.753 324.058 120.34 324.058 121.076L324.058 121.3C324.058 121.993 323.904 122.585 323.594 123.076C323.296 123.556 322.842 123.929 322.234 124.196C321.637 124.452 320.896 124.58 320.01 124.58L317.242 124.58ZM315.338 124.58L315.338 112.74L317.562 112.74L317.562 124.58L315.338 124.58ZM317.242 119.124L317.242 117.732L319.738 117.732C320.282 117.732 320.682 117.588 320.938 117.3C321.194 117.012 321.322 116.628 321.322 116.148C321.322 115.668 321.194 115.284 320.938 114.996C320.682 114.708 320.282 114.564 319.738 114.564L317.242 114.564L317.242 112.74L319.53 112.74C320.853 112.74 321.856 113.017 322.538 113.572C323.232 114.127 323.578 114.921 323.578 115.956L323.578 116.18C323.578 116.905 323.402 117.487 323.05 117.924C322.709 118.351 322.234 118.66 321.626 118.852C321.018 119.033 320.32 119.124 319.53 119.124L317.242 119.124ZM331.556 124.804C330.5 124.804 329.593 124.617 328.836 124.244C328.078 123.871 327.46 123.385 326.98 122.788C326.51 122.191 326.164 121.54 325.94 120.836C325.716 120.132 325.604 119.455 325.604 118.804L325.604 118.452C325.604 117.727 325.716 117.012 325.94 116.308C326.174 115.604 326.532 114.964 327.012 114.388C327.492 113.812 328.1 113.353 328.836 113.012C329.582 112.66 330.462 112.484 331.476 112.484C332.532 112.484 333.449 112.676 334.228 113.06C335.017 113.433 335.646 113.967 336.116 114.66C336.585 115.343 336.868 116.143 336.964 117.06L334.676 117.06C334.59 116.527 334.398 116.079 334.1 115.716C333.812 115.343 333.444 115.065 332.996 114.884C332.548 114.692 332.041 114.596 331.476 114.596C330.9 114.596 330.388 114.697 329.94 114.9C329.492 115.092 329.118 115.369 328.82 115.732C328.521 116.095 328.292 116.521 328.132 117.012C327.982 117.503 327.908 118.047 327.908 118.644C327.908 119.22 327.982 119.753 328.132 120.244C328.292 120.735 328.526 121.167 328.836 121.54C329.145 121.903 329.524 122.185 329.972 122.388C330.43 122.591 330.958 122.692 331.556 122.692C332.43 122.692 333.166 122.479 333.764 122.052C334.372 121.615 334.74 121.007 334.868 120.228L337.156 120.228C337.049 121.06 336.766 121.823 336.308 122.516C335.849 123.209 335.22 123.764 334.42 124.18C333.62 124.596 332.665 124.804 331.556 124.804ZM340.977 124.58L340.977 122.756L343.905 122.756C344.438 122.756 344.843 122.612 345.121 122.324C345.398 122.025 345.537 121.62 345.537 121.108C345.537 120.596 345.398 120.201 345.121 119.924C344.843 119.636 344.438 119.492 343.905 119.492L340.977 119.492L340.977 118.1L343.745 118.1C344.523 118.1 345.217 118.196 345.825 118.388C346.443 118.569 346.923 118.879 347.265 119.316C347.617 119.753 347.793 120.34 347.793 121.076L347.793 121.3C347.793 121.993 347.638 122.585 347.329 123.076C347.03 123.556 346.577 123.929 345.969 124.196C345.371 124.452 344.63 124.58 343.745 124.58L340.977 124.58ZM339.073 124.58L339.073 112.74L341.297 112.74L341.297 124.58L339.073 124.58ZM340.977 119.124L340.977 117.732L343.473 117.732C344.017 117.732 344.417 117.588 344.673 117.3C344.929 117.012 345.057 116.628 345.057 116.148C345.057 115.668 344.929 115.284 344.673 114.996C344.417 114.708 344.017 114.564 343.473 114.564L340.977 114.564L340.977 112.74L343.265 112.74C344.587 112.74 345.59 113.017 346.273 113.572C346.966 114.127 347.313 114.921 347.313 115.956L347.313 116.18C347.313 116.905 347.137 117.487 346.785 117.924C346.443 118.351 345.969 118.66 345.361 118.852C344.753 119.033 344.054 119.124 343.265 119.124L340.977 119.124Z" fill="#B63C3C"/>
<path d="M32.926 130.07V128.474H35.488C35.9547 128.474 36.3093 128.348 36.552 128.096C36.7947 127.835 36.916 127.48 36.916 127.032C36.916 126.584 36.7947 126.239 36.552 125.996C36.3093 125.744 35.9547 125.618 35.488 125.618H32.926V124.4H35.348C36.0293 124.4 36.636 124.484 37.168 124.652C37.7093 124.811 38.1293 125.081 38.428 125.464C38.736 125.847 38.89 126.36 38.89 127.004V127.2C38.89 127.807 38.7547 128.325 38.484 128.754C38.2227 129.174 37.826 129.501 37.294 129.734C36.7713 129.958 36.1227 130.07 35.348 130.07H32.926ZM31.26 130.07V119.71H33.206V130.07H31.26ZM32.926 125.296V124.078H35.11C35.586 124.078 35.936 123.952 36.16 123.7C36.384 123.448 36.496 123.112 36.496 122.692C36.496 122.272 36.384 121.936 36.16 121.684C35.936 121.432 35.586 121.306 35.11 121.306H32.926V119.71H34.928C36.0853 119.71 36.9627 119.953 37.56 120.438C38.1667 120.923 38.47 121.619 38.47 122.524V122.72C38.47 123.355 38.316 123.863 38.008 124.246C37.7093 124.619 37.294 124.89 36.762 125.058C36.23 125.217 35.6187 125.296 34.928 125.296H32.926ZM44.3303 130.266C43.6583 130.266 43.0656 130.159 42.5523 129.944C42.039 129.729 41.605 129.44 41.2503 129.076C40.8956 128.703 40.625 128.283 40.4383 127.816C40.261 127.349 40.1723 126.864 40.1723 126.36V126.066C40.1723 125.543 40.2656 125.049 40.4523 124.582C40.6483 124.106 40.9236 123.686 41.2783 123.322C41.6423 122.949 42.081 122.659 42.5943 122.454C43.1076 122.239 43.6863 122.132 44.3303 122.132C44.9743 122.132 45.553 122.239 46.0663 122.454C46.5796 122.659 47.0136 122.949 47.3683 123.322C47.7323 123.686 48.0076 124.106 48.1943 124.582C48.381 125.049 48.4743 125.543 48.4743 126.066V126.36C48.4743 126.864 48.381 127.349 48.1943 127.816C48.017 128.283 47.751 128.703 47.3963 129.076C47.0416 129.44 46.6076 129.729 46.0943 129.944C45.581 130.159 44.993 130.266 44.3303 130.266ZM44.3303 128.6C44.8063 128.6 45.2076 128.497 45.5343 128.292C45.861 128.077 46.1083 127.793 46.2763 127.438C46.4443 127.074 46.5283 126.663 46.5283 126.206C46.5283 125.739 46.4396 125.329 46.2623 124.974C46.0943 124.61 45.8423 124.325 45.5063 124.12C45.1796 123.905 44.7876 123.798 44.3303 123.798C43.873 123.798 43.4763 123.905 43.1403 124.12C42.8136 124.325 42.5616 124.61 42.3843 124.974C42.207 125.329 42.1183 125.739 42.1183 126.206C42.1183 126.663 42.2023 127.074 42.3703 127.438C42.5476 127.793 42.7996 128.077 43.1263 128.292C43.453 128.497 43.8543 128.6 44.3303 128.6ZM52.7683 130.238C51.8909 130.238 51.2096 129.949 50.7243 129.37C50.2483 128.791 50.0103 127.933 50.0103 126.794V122.384H51.9563V126.962C51.9563 127.429 52.0869 127.802 52.3483 128.082C52.6096 128.353 52.9643 128.488 53.4123 128.488C53.8603 128.488 54.2243 128.343 54.5043 128.054C54.7936 127.765 54.9383 127.373 54.9383 126.878V122.384H56.8843V130H55.3443V126.766H55.4983C55.4983 127.531 55.4003 128.171 55.2043 128.684C55.0083 129.197 54.7143 129.585 54.3223 129.846C53.9303 130.107 53.4403 130.238 52.8523 130.238H52.7683ZM62.4237 130.098C61.7237 130.098 61.145 130.009 60.6877 129.832C60.2397 129.645 59.9037 129.337 59.6797 128.908C59.4557 128.469 59.3437 127.881 59.3437 127.144L59.3577 120.256H61.1777L61.1637 127.27C61.1637 127.643 61.2617 127.933 61.4577 128.138C61.663 128.334 61.9523 128.432 62.3257 128.432H63.5157V130.098H62.4237ZM58.1397 123.826V122.398H63.5157V123.826H58.1397ZM68.762 130.266C68.09 130.266 67.4973 130.159 66.984 129.944C66.4706 129.729 66.0366 129.44 65.682 129.076C65.3273 128.703 65.0566 128.283 64.87 127.816C64.6926 127.349 64.604 126.864 64.604 126.36V126.066C64.604 125.543 64.6973 125.049 64.884 124.582C65.08 124.106 65.3553 123.686 65.71 123.322C66.074 122.949 66.5126 122.659 67.026 122.454C67.5393 122.239 68.118 122.132 68.762 122.132C69.406 122.132 69.9846 122.239 70.498 122.454C71.0113 122.659 71.4453 122.949 71.8 123.322C72.164 123.686 72.4393 124.106 72.626 124.582C72.8126 125.049 72.906 125.543 72.906 126.066V126.36C72.906 126.864 72.8126 127.349 72.626 127.816C72.4486 128.283 72.1826 128.703 71.828 129.076C71.4733 129.44 71.0393 129.729 70.526 129.944C70.0126 130.159 69.4246 130.266 68.762 130.266ZM68.762 128.6C69.238 128.6 69.6393 128.497 69.966 128.292C70.2926 128.077 70.54 127.793 70.708 127.438C70.876 127.074 70.96 126.663 70.96 126.206C70.96 125.739 70.8713 125.329 70.694 124.974C70.526 124.61 70.274 124.325 69.938 124.12C69.6113 123.905 69.2193 123.798 68.762 123.798C68.3046 123.798 67.908 123.905 67.572 124.12C67.2453 124.325 66.9933 124.61 66.816 124.974C66.6386 125.329 66.55 125.739 66.55 126.206C66.55 126.663 66.634 127.074 66.802 127.438C66.9793 127.793 67.2313 128.077 67.558 128.292C67.8846 128.497 68.286 128.6 68.762 128.6ZM74.6099 130V122.398H76.1499V125.66H76.0099C76.0099 124.885 76.1126 124.241 76.3179 123.728C76.5232 123.205 76.8266 122.813 77.2279 122.552C77.6386 122.291 78.1472 122.16 78.7539 122.16H78.8379C79.7432 122.16 80.4292 122.454 80.8959 123.042C81.3626 123.621 81.5959 124.489 81.5959 125.646V130H79.6499V125.478C79.6499 125.011 79.5146 124.633 79.2439 124.344C78.9826 124.055 78.6186 123.91 78.1519 123.91C77.6759 123.91 77.2886 124.059 76.9899 124.358C76.7006 124.647 76.5559 125.039 76.5559 125.534V130H74.6099ZM32.926 148.07V146.474H35.488C35.9547 146.474 36.3093 146.348 36.552 146.096C36.7947 145.835 36.916 145.48 36.916 145.032C36.916 144.584 36.7947 144.239 36.552 143.996C36.3093 143.744 35.9547 143.618 35.488 143.618H32.926V142.4H35.348C36.0293 142.4 36.636 142.484 37.168 142.652C37.7093 142.811 38.1293 143.081 38.428 143.464C38.736 143.847 38.89 144.36 38.89 145.004V145.2C38.89 145.807 38.7547 146.325 38.484 146.754C38.2227 147.174 37.826 147.501 37.294 147.734C36.7713 147.958 36.1227 148.07 35.348 148.07H32.926ZM31.26 148.07V137.71H33.206V148.07H31.26ZM32.926 143.296V142.078H35.11C35.586 142.078 35.936 141.952 36.16 141.7C36.384 141.448 36.496 141.112 36.496 140.692C36.496 140.272 36.384 139.936 36.16 139.684C35.936 139.432 35.586 139.306 35.11 139.306H32.926V137.71H34.928C36.0853 137.71 36.9627 137.953 37.56 138.438C38.1667 138.923 38.47 139.619 38.47 140.524V140.72C38.47 141.355 38.316 141.863 38.008 142.246C37.7093 142.619 37.294 142.89 36.762 143.058C36.23 143.217 35.6187 143.296 34.928 143.296H32.926ZM45.3507 148V145.746H45.0287V143.24C45.0287 142.801 44.9213 142.475 44.7067 142.26C44.492 142.045 44.1607 141.938 43.7127 141.938C43.4793 141.938 43.1993 141.943 42.8727 141.952C42.546 141.961 42.2147 141.975 41.8787 141.994C41.552 142.003 41.258 142.017 40.9967 142.036V140.384C41.2113 140.365 41.454 140.347 41.7247 140.328C41.9953 140.309 42.2707 140.3 42.5507 140.3C42.84 140.291 43.1107 140.286 43.3627 140.286C44.1467 140.286 44.7953 140.389 45.3087 140.594C45.8313 140.799 46.2233 141.121 46.4847 141.56C46.7553 141.999 46.8907 142.573 46.8907 143.282V148H45.3507ZM42.9007 148.196C42.35 148.196 41.8647 148.098 41.4447 147.902C41.034 147.706 40.712 147.426 40.4787 147.062C40.2547 146.698 40.1427 146.259 40.1427 145.746C40.1427 145.186 40.278 144.729 40.5487 144.374C40.8287 144.019 41.216 143.753 41.7107 143.576C42.2147 143.399 42.8027 143.31 43.4747 143.31H45.2387V144.472H43.4467C42.9987 144.472 42.6533 144.584 42.4107 144.808C42.1773 145.023 42.0607 145.303 42.0607 145.648C42.0607 145.993 42.1773 146.273 42.4107 146.488C42.6533 146.703 42.9987 146.81 43.4467 146.81C43.7173 146.81 43.9647 146.763 44.1887 146.67C44.422 146.567 44.6133 146.399 44.7627 146.166C44.9213 145.923 45.01 145.597 45.0287 145.186L45.5047 145.732C45.458 146.264 45.3273 146.712 45.1127 147.076C44.9073 147.44 44.618 147.72 44.2447 147.916C43.8807 148.103 43.4327 148.196 42.9007 148.196ZM48.9751 148V140.398H50.5151V143.66H50.3751C50.3751 142.885 50.4778 142.241 50.6831 141.728C50.8885 141.205 51.1918 140.813 51.5931 140.552C52.0038 140.291 52.5125 140.16 53.1191 140.16H53.2031C54.1085 140.16 54.7945 140.454 55.2611 141.042C55.7278 141.621 55.9611 142.489 55.9611 143.646V148H54.0151V143.478C54.0151 143.011 53.8798 142.633 53.6091 142.344C53.3478 142.055 52.9838 141.91 52.5171 141.91C52.0411 141.91 51.6538 142.059 51.3551 142.358C51.0658 142.647 50.9211 143.039 50.9211 143.534V148H48.9751ZM58.4173 148V140.398H60.3633V148H58.4173ZM57.3533 141.854V140.398H60.3633V141.854H57.3533ZM59.1313 139.488C58.7486 139.488 58.4639 139.39 58.2773 139.194C58.0999 138.989 58.0113 138.737 58.0113 138.438C58.0113 138.121 58.0999 137.864 58.2773 137.668C58.4639 137.472 58.7486 137.374 59.1313 137.374C59.5139 137.374 59.7939 137.472 59.9713 137.668C60.1486 137.864 60.2373 138.121 60.2373 138.438C60.2373 138.737 60.1486 138.989 59.9713 139.194C59.7939 139.39 59.5139 139.488 59.1313 139.488ZM66.008 148.266C65.3547 148.266 64.7807 148.154 64.286 147.93C63.8007 147.706 63.3947 147.407 63.068 147.034C62.7507 146.651 62.508 146.227 62.34 145.76C62.1813 145.293 62.102 144.817 62.102 144.332V144.066C62.102 143.562 62.1813 143.077 62.34 142.61C62.508 142.134 62.7507 141.714 63.068 141.35C63.3947 140.977 63.796 140.683 64.272 140.468C64.748 140.244 65.2987 140.132 65.924 140.132C66.7453 140.132 67.4313 140.314 67.982 140.678C68.542 141.033 68.962 141.504 69.242 142.092C69.522 142.671 69.662 143.296 69.662 143.968V144.668H62.928V143.478H68.444L67.842 144.066C67.842 143.581 67.772 143.165 67.632 142.82C67.492 142.475 67.2773 142.209 66.988 142.022C66.708 141.835 66.3533 141.742 65.924 141.742C65.4947 141.742 65.1307 141.84 64.832 142.036C64.5333 142.232 64.3047 142.517 64.146 142.89C63.9967 143.254 63.922 143.693 63.922 144.206C63.922 144.682 63.9967 145.107 64.146 145.48C64.2953 145.844 64.524 146.133 64.832 146.348C65.14 146.553 65.532 146.656 66.008 146.656C66.484 146.656 66.8713 146.563 67.17 146.376C67.4687 146.18 67.66 145.942 67.744 145.662H69.536C69.424 146.185 69.2093 146.642 68.892 147.034C68.5747 147.426 68.1687 147.729 67.674 147.944C67.1887 148.159 66.6333 148.266 66.008 148.266ZM65.154 139.432L63.586 136.562H65.658L66.876 139.432H65.154ZM71.2876 148V140.398H72.8276V143.618H72.7856C72.7856 142.526 73.019 141.7 73.4856 141.14C73.9523 140.58 74.6383 140.3 75.5436 140.3H75.8236V141.994H75.2916C74.6383 141.994 74.1296 142.171 73.7656 142.526C73.411 142.871 73.2336 143.375 73.2336 144.038V148H71.2876ZM80.4728 148.266C79.8195 148.266 79.2455 148.154 78.7508 147.93C78.2655 147.706 77.8595 147.407 77.5328 147.034C77.2155 146.651 76.9728 146.227 76.8048 145.76C76.6462 145.293 76.5668 144.817 76.5668 144.332V144.066C76.5668 143.562 76.6462 143.077 76.8048 142.61C76.9728 142.134 77.2155 141.714 77.5328 141.35C77.8595 140.977 78.2608 140.683 78.7368 140.468C79.2128 140.244 79.7635 140.132 80.3888 140.132C81.2102 140.132 81.8962 140.314 82.4468 140.678C83.0068 141.033 83.4268 141.504 83.7068 142.092C83.9868 142.671 84.1268 143.296 84.1268 143.968V144.668H77.3928V143.478H82.9088L82.3068 144.066C82.3068 143.581 82.2368 143.165 82.0968 142.82C81.9568 142.475 81.7422 142.209 81.4528 142.022C81.1728 141.835 80.8182 141.742 80.3888 141.742C79.9595 141.742 79.5955 141.84 79.2968 142.036C78.9982 142.232 78.7695 142.517 78.6108 142.89C78.4615 143.254 78.3868 143.693 78.3868 144.206C78.3868 144.682 78.4615 145.107 78.6108 145.48C78.7602 145.844 78.9888 146.133 79.2968 146.348C79.6048 146.553 79.9968 146.656 80.4728 146.656C80.9488 146.656 81.3362 146.563 81.6348 146.376C81.9335 146.18 82.1248 145.942 82.2088 145.662H84.0008C83.8888 146.185 83.6742 146.642 83.3568 147.034C83.0395 147.426 82.6335 147.729 82.1388 147.944C81.6535 148.159 81.0982 148.266 80.4728 148.266Z" fill="#8F8F8F"/>
<path d="M386.926 130.07V128.474H389.488C389.955 128.474 390.309 128.348 390.552 128.096C390.795 127.835 390.916 127.48 390.916 127.032C390.916 126.584 390.795 126.239 390.552 125.996C390.309 125.744 389.955 125.618 389.488 125.618H386.926V124.4H389.348C390.029 124.4 390.636 124.484 391.168 124.652C391.709 124.811 392.129 125.081 392.428 125.464C392.736 125.847 392.89 126.36 392.89 127.004V127.2C392.89 127.807 392.755 128.325 392.484 128.754C392.223 129.174 391.826 129.501 391.294 129.734C390.771 129.958 390.123 130.07 389.348 130.07H386.926ZM385.26 130.07V119.71H387.206V130.07H385.26ZM386.926 125.296V124.078H389.11C389.586 124.078 389.936 123.952 390.16 123.7C390.384 123.448 390.496 123.112 390.496 122.692C390.496 122.272 390.384 121.936 390.16 121.684C389.936 121.432 389.586 121.306 389.11 121.306H386.926V119.71H388.928C390.085 119.71 390.963 119.953 391.56 120.438C392.167 120.923 392.47 121.619 392.47 122.524V122.72C392.47 123.355 392.316 123.863 392.008 124.246C391.709 124.619 391.294 124.89 390.762 125.058C390.23 125.217 389.619 125.296 388.928 125.296H386.926ZM398.33 130.266C397.658 130.266 397.066 130.159 396.552 129.944C396.039 129.729 395.605 129.44 395.25 129.076C394.896 128.703 394.625 128.283 394.438 127.816C394.261 127.349 394.172 126.864 394.172 126.36V126.066C394.172 125.543 394.266 125.049 394.452 124.582C394.648 124.106 394.924 123.686 395.278 123.322C395.642 122.949 396.081 122.659 396.594 122.454C397.108 122.239 397.686 122.132 398.33 122.132C398.974 122.132 399.553 122.239 400.066 122.454C400.58 122.659 401.014 122.949 401.368 123.322C401.732 123.686 402.008 124.106 402.194 124.582C402.381 125.049 402.474 125.543 402.474 126.066V126.36C402.474 126.864 402.381 127.349 402.194 127.816C402.017 128.283 401.751 128.703 401.396 129.076C401.042 129.44 400.608 129.729 400.094 129.944C399.581 130.159 398.993 130.266 398.33 130.266ZM398.33 128.6C398.806 128.6 399.208 128.497 399.534 128.292C399.861 128.077 400.108 127.793 400.276 127.438C400.444 127.074 400.528 126.663 400.528 126.206C400.528 125.739 400.44 125.329 400.262 124.974C400.094 124.61 399.842 124.325 399.506 124.12C399.18 123.905 398.788 123.798 398.33 123.798C397.873 123.798 397.476 123.905 397.14 124.12C396.814 124.325 396.562 124.61 396.384 124.974C396.207 125.329 396.118 125.739 396.118 126.206C396.118 126.663 396.202 127.074 396.37 127.438C396.548 127.793 396.8 128.077 397.126 128.292C397.453 128.497 397.854 128.6 398.33 128.6ZM406.768 130.238C405.891 130.238 405.21 129.949 404.724 129.37C404.248 128.791 404.01 127.933 404.01 126.794V122.384H405.956V126.962C405.956 127.429 406.087 127.802 406.348 128.082C406.61 128.353 406.964 128.488 407.412 128.488C407.86 128.488 408.224 128.343 408.504 128.054C408.794 127.765 408.938 127.373 408.938 126.878V122.384H410.884V130H409.344V126.766H409.498C409.498 127.531 409.4 128.171 409.204 128.684C409.008 129.197 408.714 129.585 408.322 129.846C407.93 130.107 407.44 130.238 406.852 130.238H406.768ZM416.424 130.098C415.724 130.098 415.145 130.009 414.688 129.832C414.24 129.645 413.904 129.337 413.68 128.908C413.456 128.469 413.344 127.881 413.344 127.144L413.358 120.256H415.178L415.164 127.27C415.164 127.643 415.262 127.933 415.458 128.138C415.663 128.334 415.952 128.432 416.326 128.432H417.516V130.098H416.424ZM412.14 123.826V122.398H417.516V123.826H412.14ZM422.762 130.266C422.09 130.266 421.497 130.159 420.984 129.944C420.471 129.729 420.037 129.44 419.682 129.076C419.327 128.703 419.057 128.283 418.87 127.816C418.693 127.349 418.604 126.864 418.604 126.36V126.066C418.604 125.543 418.697 125.049 418.884 124.582C419.08 124.106 419.355 123.686 419.71 123.322C420.074 122.949 420.513 122.659 421.026 122.454C421.539 122.239 422.118 122.132 422.762 122.132C423.406 122.132 423.985 122.239 424.498 122.454C425.011 122.659 425.445 122.949 425.8 123.322C426.164 123.686 426.439 124.106 426.626 124.582C426.813 125.049 426.906 125.543 426.906 126.066V126.36C426.906 126.864 426.813 127.349 426.626 127.816C426.449 128.283 426.183 128.703 425.828 129.076C425.473 129.44 425.039 129.729 424.526 129.944C424.013 130.159 423.425 130.266 422.762 130.266ZM422.762 128.6C423.238 128.6 423.639 128.497 423.966 128.292C424.293 128.077 424.54 127.793 424.708 127.438C424.876 127.074 424.96 126.663 424.96 126.206C424.96 125.739 424.871 125.329 424.694 124.974C424.526 124.61 424.274 124.325 423.938 124.12C423.611 123.905 423.219 123.798 422.762 123.798C422.305 123.798 421.908 123.905 421.572 124.12C421.245 124.325 420.993 124.61 420.816 124.974C420.639 125.329 420.55 125.739 420.55 126.206C420.55 126.663 420.634 127.074 420.802 127.438C420.979 127.793 421.231 128.077 421.558 128.292C421.885 128.497 422.286 128.6 422.762 128.6ZM428.61 130V122.398H430.15V125.66H430.01C430.01 124.885 430.113 124.241 430.318 123.728C430.523 123.205 430.827 122.813 431.228 122.552C431.639 122.291 432.147 122.16 432.754 122.16H432.838C433.743 122.16 434.429 122.454 434.896 123.042C435.363 123.621 435.596 124.489 435.596 125.646V130H433.65V125.478C433.65 125.011 433.515 124.633 433.244 124.344C432.983 124.055 432.619 123.91 432.152 123.91C431.676 123.91 431.289 124.059 430.99 124.358C430.701 124.647 430.556 125.039 430.556 125.534V130H428.61ZM386.926 148.07V146.474H389.488C389.955 146.474 390.309 146.348 390.552 146.096C390.795 145.835 390.916 145.48 390.916 145.032C390.916 144.584 390.795 144.239 390.552 143.996C390.309 143.744 389.955 143.618 389.488 143.618H386.926V142.4H389.348C390.029 142.4 390.636 142.484 391.168 142.652C391.709 142.811 392.129 143.081 392.428 143.464C392.736 143.847 392.89 144.36 392.89 145.004V145.2C392.89 145.807 392.755 146.325 392.484 146.754C392.223 147.174 391.826 147.501 391.294 147.734C390.771 147.958 390.123 148.07 389.348 148.07H386.926ZM385.26 148.07V137.71H387.206V148.07H385.26ZM386.926 143.296V142.078H389.11C389.586 142.078 389.936 141.952 390.16 141.7C390.384 141.448 390.496 141.112 390.496 140.692C390.496 140.272 390.384 139.936 390.16 139.684C389.936 139.432 389.586 139.306 389.11 139.306H386.926V137.71H388.928C390.085 137.71 390.963 137.953 391.56 138.438C392.167 138.923 392.47 139.619 392.47 140.524V140.72C392.47 141.355 392.316 141.863 392.008 142.246C391.709 142.619 391.294 142.89 390.762 143.058C390.23 143.217 389.619 143.296 388.928 143.296H386.926ZM399.351 148V145.746H399.029V143.24C399.029 142.801 398.921 142.475 398.707 142.26C398.492 142.045 398.161 141.938 397.713 141.938C397.479 141.938 397.199 141.943 396.873 141.952C396.546 141.961 396.215 141.975 395.879 141.994C395.552 142.003 395.258 142.017 394.997 142.036V140.384C395.211 140.365 395.454 140.347 395.725 140.328C395.995 140.309 396.271 140.3 396.551 140.3C396.84 140.291 397.111 140.286 397.363 140.286C398.147 140.286 398.795 140.389 399.309 140.594C399.831 140.799 400.223 141.121 400.485 141.56C400.755 141.999 400.891 142.573 400.891 143.282V148H399.351ZM396.901 148.196C396.35 148.196 395.865 148.098 395.445 147.902C395.034 147.706 394.712 147.426 394.479 147.062C394.255 146.698 394.143 146.259 394.143 145.746C394.143 145.186 394.278 144.729 394.549 144.374C394.829 144.019 395.216 143.753 395.711 143.576C396.215 143.399 396.803 143.31 397.475 143.31H399.239V144.472H397.447C396.999 144.472 396.653 144.584 396.411 144.808C396.177 145.023 396.061 145.303 396.061 145.648C396.061 145.993 396.177 146.273 396.411 146.488C396.653 146.703 396.999 146.81 397.447 146.81C397.717 146.81 397.965 146.763 398.189 146.67C398.422 146.567 398.613 146.399 398.763 146.166C398.921 145.923 399.01 145.597 399.029 145.186L399.505 145.732C399.458 146.264 399.327 146.712 399.113 147.076C398.907 147.44 398.618 147.72 398.245 147.916C397.881 148.103 397.433 148.196 396.901 148.196ZM402.975 148V140.398H404.515V143.66H404.375C404.375 142.885 404.478 142.241 404.683 141.728C404.888 141.205 405.192 140.813 405.593 140.552C406.004 140.291 406.512 140.16 407.119 140.16H407.203C408.108 140.16 408.794 140.454 409.261 141.042C409.728 141.621 409.961 142.489 409.961 143.646V148H408.015V143.478C408.015 143.011 407.88 142.633 407.609 142.344C407.348 142.055 406.984 141.91 406.517 141.91C406.041 141.91 405.654 142.059 405.355 142.358C405.066 142.647 404.921 143.039 404.921 143.534V148H402.975ZM412.417 148V140.398H414.363V148H412.417ZM411.353 141.854V140.398H414.363V141.854H411.353ZM413.131 139.488C412.749 139.488 412.464 139.39 412.277 139.194C412.1 138.989 412.011 138.737 412.011 138.438C412.011 138.121 412.1 137.864 412.277 137.668C412.464 137.472 412.749 137.374 413.131 137.374C413.514 137.374 413.794 137.472 413.971 137.668C414.149 137.864 414.237 138.121 414.237 138.438C414.237 138.737 414.149 138.989 413.971 139.194C413.794 139.39 413.514 139.488 413.131 139.488ZM420.008 148.266C419.355 148.266 418.781 148.154 418.286 147.93C417.801 147.706 417.395 147.407 417.068 147.034C416.751 146.651 416.508 146.227 416.34 145.76C416.181 145.293 416.102 144.817 416.102 144.332V144.066C416.102 143.562 416.181 143.077 416.34 142.61C416.508 142.134 416.751 141.714 417.068 141.35C417.395 140.977 417.796 140.683 418.272 140.468C418.748 140.244 419.299 140.132 419.924 140.132C420.745 140.132 421.431 140.314 421.982 140.678C422.542 141.033 422.962 141.504 423.242 142.092C423.522 142.671 423.662 143.296 423.662 143.968V144.668H416.928V143.478H422.444L421.842 144.066C421.842 143.581 421.772 143.165 421.632 142.82C421.492 142.475 421.277 142.209 420.988 142.022C420.708 141.835 420.353 141.742 419.924 141.742C419.495 141.742 419.131 141.84 418.832 142.036C418.533 142.232 418.305 142.517 418.146 142.89C417.997 143.254 417.922 143.693 417.922 144.206C417.922 144.682 417.997 145.107 418.146 145.48C418.295 145.844 418.524 146.133 418.832 146.348C419.14 146.553 419.532 146.656 420.008 146.656C420.484 146.656 420.871 146.563 421.17 146.376C421.469 146.18 421.66 145.942 421.744 145.662H423.536C423.424 146.185 423.209 146.642 422.892 147.034C422.575 147.426 422.169 147.729 421.674 147.944C421.189 148.159 420.633 148.266 420.008 148.266ZM419.154 139.432L417.586 136.562H419.658L420.876 139.432H419.154ZM425.288 148V140.398H426.828V143.618H426.786C426.786 142.526 427.019 141.7 427.486 141.14C427.952 140.58 428.638 140.3 429.544 140.3H429.824V141.994H429.292C428.638 141.994 428.13 142.171 427.766 142.526C427.411 142.871 427.234 143.375 427.234 144.038V148H425.288ZM434.473 148.266C433.82 148.266 433.246 148.154 432.751 147.93C432.266 147.706 431.86 147.407 431.533 147.034C431.216 146.651 430.973 146.227 430.805 145.76C430.646 145.293 430.567 144.817 430.567 144.332V144.066C430.567 143.562 430.646 143.077 430.805 142.61C430.973 142.134 431.216 141.714 431.533 141.35C431.86 140.977 432.261 140.683 432.737 140.468C433.213 140.244 433.764 140.132 434.389 140.132C435.21 140.132 435.896 140.314 436.447 140.678C437.007 141.033 437.427 141.504 437.707 142.092C437.987 142.671 438.127 143.296 438.127 143.968V144.668H431.393V143.478H436.909L436.307 144.066C436.307 143.581 436.237 143.165 436.097 142.82C435.957 142.475 435.742 142.209 435.453 142.022C435.173 141.835 434.818 141.742 434.389 141.742C433.96 141.742 433.596 141.84 433.297 142.036C432.998 142.232 432.77 142.517 432.611 142.89C432.462 143.254 432.387 143.693 432.387 144.206C432.387 144.682 432.462 145.107 432.611 145.48C432.76 145.844 432.989 146.133 433.297 146.348C433.605 146.553 433.997 146.656 434.473 146.656C434.949 146.656 435.336 146.563 435.635 146.376C435.934 146.18 436.125 145.942 436.209 145.662H438.001C437.889 146.185 437.674 146.642 437.357 147.034C437.04 147.426 436.634 147.729 436.139 147.944C435.654 148.159 435.098 148.266 434.473 148.266Z" fill="#8F8F8F"/>
<path d="M33.276 168V159.25H35.264V168H33.276ZM30.322 159.53V157.78H38.218V159.53H30.322ZM42.1096 168.266C41.4562 168.266 40.8822 168.154 40.3876 167.93C39.9022 167.706 39.4962 167.407 39.1696 167.034C38.8522 166.651 38.6096 166.227 38.4416 165.76C38.2829 165.293 38.2036 164.817 38.2036 164.332V164.066C38.2036 163.562 38.2829 163.077 38.4416 162.61C38.6096 162.134 38.8522 161.714 39.1696 161.35C39.4962 160.977 39.8976 160.683 40.3736 160.468C40.8496 160.244 41.4002 160.132 42.0256 160.132C42.8469 160.132 43.5329 160.314 44.0836 160.678C44.6436 161.033 45.0636 161.504 45.3436 162.092C45.6236 162.671 45.7636 163.296 45.7636 163.968V164.668H39.0296V163.478H44.5456L43.9436 164.066C43.9436 163.581 43.8736 163.165 43.7336 162.82C43.5936 162.475 43.3789 162.209 43.0896 162.022C42.8096 161.835 42.4549 161.742 42.0256 161.742C41.5962 161.742 41.2322 161.84 40.9336 162.036C40.6349 162.232 40.4062 162.517 40.2476 162.89C40.0982 163.254 40.0236 163.693 40.0236 164.206C40.0236 164.682 40.0982 165.107 40.2476 165.48C40.3969 165.844 40.6256 166.133 40.9336 166.348C41.2416 166.553 41.6336 166.656 42.1096 166.656C42.5856 166.656 42.9729 166.563 43.2716 166.376C43.5702 166.18 43.7616 165.942 43.8456 165.662H45.6376C45.5256 166.185 45.3109 166.642 44.9936 167.034C44.6762 167.426 44.2702 167.729 43.7756 167.944C43.2902 168.159 42.7349 168.266 42.1096 168.266ZM46.4802 168L48.9582 163.94L48.9162 164.262L46.5782 160.398H48.6922L50.2182 163.072H50.4282L51.8702 160.398H53.8582L51.6462 164.248L51.6882 163.968L54.3062 168H52.1922L50.3862 165.13H50.1762L48.4682 168H46.4802ZM58.8143 168.098C58.1143 168.098 57.5356 168.009 57.0783 167.832C56.6303 167.645 56.2943 167.337 56.0703 166.908C55.8463 166.469 55.7343 165.881 55.7343 165.144L55.7483 158.256H57.5683L57.5543 165.27C57.5543 165.643 57.6523 165.933 57.8483 166.138C58.0536 166.334 58.343 166.432 58.7163 166.432H59.9063V168.098H58.8143ZM54.5303 161.826V160.398H59.9063V161.826H54.5303ZM64.9006 168.266C64.2472 168.266 63.6732 168.154 63.1786 167.93C62.6932 167.706 62.2872 167.407 61.9606 167.034C61.6432 166.651 61.4006 166.227 61.2326 165.76C61.0739 165.293 60.9946 164.817 60.9946 164.332V164.066C60.9946 163.562 61.0739 163.077 61.2326 162.61C61.4006 162.134 61.6432 161.714 61.9606 161.35C62.2872 160.977 62.6886 160.683 63.1646 160.468C63.6406 160.244 64.1912 160.132 64.8166 160.132C65.6379 160.132 66.3239 160.314 66.8746 160.678C67.4346 161.033 67.8546 161.504 68.1346 162.092C68.4146 162.671 68.5546 163.296 68.5546 163.968V164.668H61.8206V163.478H67.3366L66.7346 164.066C66.7346 163.581 66.6646 163.165 66.5246 162.82C66.3846 162.475 66.1699 162.209 65.8806 162.022C65.6006 161.835 65.2459 161.742 64.8166 161.742C64.3872 161.742 64.0232 161.84 63.7246 162.036C63.4259 162.232 63.1972 162.517 63.0386 162.89C62.8892 163.254 62.8146 163.693 62.8146 164.206C62.8146 164.682 62.8892 165.107 63.0386 165.48C63.1879 165.844 63.4166 166.133 63.7246 166.348C64.0326 166.553 64.4246 166.656 64.9006 166.656C65.3766 166.656 65.7639 166.563 66.0626 166.376C66.3612 166.18 66.5526 165.942 66.6366 165.662H68.4286C68.3166 166.185 68.1019 166.642 67.7846 167.034C67.4672 167.426 67.0612 167.729 66.5666 167.944C66.0812 168.159 65.5259 168.266 64.9006 168.266Z" fill="#C0C0C0"/>
<path d="M3.276 168V159.25H5.264V168H3.276ZM0.322 159.53V157.78H8.218V159.53H0.322ZM12.1096 168.266C11.4562 168.266 10.8822 168.154 10.3876 167.93C9.90223 167.706 9.49623 167.407 9.16956 167.034C8.85223 166.651 8.60956 166.227 8.44156 165.76C8.2829 165.293 8.20356 164.817 8.20356 164.332V164.066C8.20356 163.562 8.2829 163.077 8.44156 162.61C8.60956 162.134 8.85223 161.714 9.16956 161.35C9.49623 160.977 9.89756 160.683 10.3736 160.468C10.8496 160.244 11.4002 160.132 12.0256 160.132C12.8469 160.132 13.5329 160.314 14.0836 160.678C14.6436 161.033 15.0636 161.504 15.3436 162.092C15.6236 162.671 15.7636 163.296 15.7636 163.968V164.668H9.02956V163.478H14.5456L13.9436 164.066C13.9436 163.581 13.8736 163.165 13.7336 162.82C13.5936 162.475 13.3789 162.209 13.0896 162.022C12.8096 161.835 12.4549 161.742 12.0256 161.742C11.5962 161.742 11.2322 161.84 10.9336 162.036C10.6349 162.232 10.4062 162.517 10.2476 162.89C10.0982 163.254 10.0236 163.693 10.0236 164.206C10.0236 164.682 10.0982 165.107 10.2476 165.48C10.3969 165.844 10.6256 166.133 10.9336 166.348C11.2416 166.553 11.6336 166.656 12.1096 166.656C12.5856 166.656 12.9729 166.563 13.2716 166.376C13.5702 166.18 13.7616 165.942 13.8456 165.662H15.6376C15.5256 166.185 15.3109 166.642 14.9936 167.034C14.6762 167.426 14.2702 167.729 13.7756 167.944C13.2902 168.159 12.7349 168.266 12.1096 168.266ZM16.4802 168L18.9582 163.94L18.9162 164.262L16.5782 160.398H18.6922L20.2182 163.072H20.4282L21.8702 160.398H23.8582L21.6462 164.248L21.6882 163.968L24.3062 168H22.1922L20.3862 165.13H20.1762L18.4682 168H16.4802ZM28.8143 168.098C28.1143 168.098 27.5356 168.009 27.0783 167.832C26.6303 167.645 26.2943 167.337 26.0703 166.908C25.8463 166.469 25.7343 165.881 25.7343 165.144L25.7483 158.256H27.5683L27.5543 165.27C27.5543 165.643 27.6523 165.933 27.8483 166.138C28.0536 166.334 28.343 166.432 28.7163 166.432H29.9063V168.098H28.8143ZM24.5303 161.826V160.398H29.9063V161.826H24.5303ZM34.9006 168.266C34.2472 168.266 33.6732 168.154 33.1786 167.93C32.6932 167.706 32.2872 167.407 31.9606 167.034C31.6432 166.651 31.4006 166.227 31.2326 165.76C31.0739 165.293 30.9946 164.817 30.9946 164.332V164.066C30.9946 163.562 31.0739 163.077 31.2326 162.61C31.4006 162.134 31.6432 161.714 31.9606 161.35C32.2872 160.977 32.6886 160.683 33.1646 160.468C33.6406 160.244 34.1912 160.132 34.8166 160.132C35.6379 160.132 36.3239 160.314 36.8746 160.678C37.4346 161.033 37.8546 161.504 38.1346 162.092C38.4146 162.671 38.5546 163.296 38.5546 163.968V164.668H31.8206V163.478H37.3366L36.7346 164.066C36.7346 163.581 36.6646 163.165 36.5246 162.82C36.3846 162.475 36.1699 162.209 35.8806 162.022C35.6006 161.835 35.2459 161.742 34.8166 161.742C34.3872 161.742 34.0232 161.84 33.7246 162.036C33.4259 162.232 33.1972 162.517 33.0386 162.89C32.8892 163.254 32.8146 163.693 32.8146 164.206C32.8146 164.682 32.8892 165.107 33.0386 165.48C33.1879 165.844 33.4166 166.133 33.7246 166.348C34.0326 166.553 34.4246 166.656 34.9006 166.656C35.3766 166.656 35.7639 166.563 36.0626 166.376C36.3612 166.18 36.5526 165.942 36.6366 165.662H38.4286C38.3166 166.185 38.1019 166.642 37.7846 167.034C37.4672 167.426 37.0612 167.729 36.5666 167.944C36.0812 168.159 35.5259 168.266 34.9006 168.266Z" fill="white" fill-opacity="0.31"/>
<path d="M386.926 168.07V166.474H389.488C389.955 166.474 390.309 166.348 390.552 166.096C390.795 165.835 390.916 165.48 390.916 165.032C390.916 164.584 390.795 164.239 390.552 163.996C390.309 163.744 389.955 163.618 389.488 163.618H386.926V162.4H389.348C390.029 162.4 390.636 162.484 391.168 162.652C391.709 162.811 392.129 163.081 392.428 163.464C392.736 163.847 392.89 164.36 392.89 165.004V165.2C392.89 165.807 392.755 166.325 392.484 166.754C392.223 167.174 391.826 167.501 391.294 167.734C390.771 167.958 390.123 168.07 389.348 168.07H386.926ZM385.26 168.07V157.71H387.206V168.07H385.26ZM386.926 163.296V162.078H389.11C389.586 162.078 389.936 161.952 390.16 161.7C390.384 161.448 390.496 161.112 390.496 160.692C390.496 160.272 390.384 159.936 390.16 159.684C389.936 159.432 389.586 159.306 389.11 159.306H386.926V157.71H388.928C390.085 157.71 390.963 157.953 391.56 158.438C392.167 158.923 392.47 159.619 392.47 160.524V160.72C392.47 161.355 392.316 161.863 392.008 162.246C391.709 162.619 391.294 162.89 390.762 163.058C390.23 163.217 389.619 163.296 388.928 163.296H386.926ZM399.351 168V165.746H399.029V163.24C399.029 162.801 398.921 162.475 398.707 162.26C398.492 162.045 398.161 161.938 397.713 161.938C397.479 161.938 397.199 161.943 396.873 161.952C396.546 161.961 396.215 161.975 395.879 161.994C395.552 162.003 395.258 162.017 394.997 162.036V160.384C395.211 160.365 395.454 160.347 395.725 160.328C395.995 160.309 396.271 160.3 396.551 160.3C396.84 160.291 397.111 160.286 397.363 160.286C398.147 160.286 398.795 160.389 399.309 160.594C399.831 160.799 400.223 161.121 400.485 161.56C400.755 161.999 400.891 162.573 400.891 163.282V168H399.351ZM396.901 168.196C396.35 168.196 395.865 168.098 395.445 167.902C395.034 167.706 394.712 167.426 394.479 167.062C394.255 166.698 394.143 166.259 394.143 165.746C394.143 165.186 394.278 164.729 394.549 164.374C394.829 164.019 395.216 163.753 395.711 163.576C396.215 163.399 396.803 163.31 397.475 163.31H399.239V164.472H397.447C396.999 164.472 396.653 164.584 396.411 164.808C396.177 165.023 396.061 165.303 396.061 165.648C396.061 165.993 396.177 166.273 396.411 166.488C396.653 166.703 396.999 166.81 397.447 166.81C397.717 166.81 397.965 166.763 398.189 166.67C398.422 166.567 398.613 166.399 398.763 166.166C398.921 165.923 399.01 165.597 399.029 165.186L399.505 165.732C399.458 166.264 399.327 166.712 399.113 167.076C398.907 167.44 398.618 167.72 398.245 167.916C397.881 168.103 397.433 168.196 396.901 168.196ZM406.349 168.266C405.686 168.266 405.112 168.154 404.627 167.93C404.151 167.706 403.75 167.407 403.423 167.034C403.106 166.661 402.868 166.241 402.709 165.774C402.55 165.307 402.471 164.831 402.471 164.346V164.08C402.471 163.567 402.55 163.077 402.709 162.61C402.877 162.134 403.124 161.714 403.451 161.35C403.778 160.977 404.179 160.683 404.655 160.468C405.14 160.244 405.7 160.132 406.335 160.132C406.998 160.132 407.59 160.263 408.113 160.524C408.636 160.776 409.051 161.131 409.359 161.588C409.676 162.045 409.854 162.577 409.891 163.184H408.001C407.954 162.792 407.786 162.465 407.497 162.204C407.217 161.943 406.83 161.812 406.335 161.812C405.906 161.812 405.546 161.915 405.257 162.12C404.977 162.325 404.767 162.61 404.627 162.974C404.487 163.329 404.417 163.739 404.417 164.206C404.417 164.654 404.482 165.06 404.613 165.424C404.753 165.788 404.963 166.073 405.243 166.278C405.532 166.483 405.901 166.586 406.349 166.586C406.685 166.586 406.974 166.525 407.217 166.404C407.46 166.283 407.651 166.115 407.791 165.9C407.94 165.685 408.034 165.443 408.071 165.172H409.961C409.924 165.788 409.742 166.329 409.415 166.796C409.098 167.253 408.673 167.613 408.141 167.874C407.618 168.135 407.021 168.266 406.349 168.266ZM416.84 168L414.292 164.444H413.158L416.392 160.398H418.422L415.44 164.136L415.482 163.156L419.038 168H416.84ZM411.52 168V157.78H413.466V168H411.52ZM422.883 170.996C422.519 170.996 422.145 170.982 421.763 170.954C421.389 170.926 421.039 170.889 420.713 170.842V169.218C421.049 169.255 421.408 169.288 421.791 169.316C422.173 169.353 422.533 169.372 422.869 169.372C423.494 169.372 423.998 169.297 424.381 169.148C424.773 168.999 425.057 168.761 425.235 168.434C425.421 168.117 425.515 167.711 425.515 167.216V165.718L425.935 164.766C425.907 165.466 425.762 166.063 425.501 166.558C425.239 167.043 424.885 167.417 424.437 167.678C423.989 167.93 423.471 168.056 422.883 168.056C422.36 168.056 421.884 167.958 421.455 167.762C421.035 167.566 420.671 167.295 420.363 166.95C420.064 166.605 419.831 166.199 419.663 165.732C419.495 165.265 419.411 164.766 419.411 164.234V163.94C419.411 163.408 419.495 162.913 419.663 162.456C419.84 161.989 420.087 161.583 420.405 161.238C420.722 160.893 421.1 160.627 421.539 160.44C421.977 160.253 422.463 160.16 422.995 160.16C423.62 160.16 424.161 160.295 424.619 160.566C425.085 160.837 425.449 161.229 425.711 161.742C425.972 162.255 426.117 162.885 426.145 163.632L425.809 163.688V160.398H427.349V167.104C427.349 168.028 427.19 168.775 426.873 169.344C426.555 169.913 426.065 170.329 425.403 170.59C424.749 170.861 423.909 170.996 422.883 170.996ZM423.443 166.39C423.816 166.39 424.157 166.306 424.465 166.138C424.773 165.97 425.02 165.727 425.207 165.41C425.393 165.093 425.487 164.71 425.487 164.262V163.772C425.487 163.343 425.389 162.979 425.193 162.68C425.006 162.381 424.759 162.157 424.451 162.008C424.143 161.849 423.807 161.77 423.443 161.77C423.032 161.77 422.668 161.868 422.351 162.064C422.043 162.251 421.8 162.517 421.623 162.862C421.445 163.207 421.357 163.618 421.357 164.094C421.357 164.561 421.445 164.967 421.623 165.312C421.8 165.657 422.043 165.923 422.351 166.11C422.668 166.297 423.032 166.39 423.443 166.39ZM429.471 168V160.398H431.011V163.618H430.969C430.969 162.526 431.203 161.7 431.669 161.14C432.136 160.58 432.822 160.3 433.727 160.3H434.007V161.994H433.475C432.822 161.994 432.313 162.171 431.949 162.526C431.595 162.871 431.417 163.375 431.417 164.038V168H429.471ZM438.908 168.266C438.236 168.266 437.644 168.159 437.13 167.944C436.617 167.729 436.183 167.44 435.828 167.076C435.474 166.703 435.203 166.283 435.016 165.816C434.839 165.349 434.75 164.864 434.75 164.36V164.066C434.75 163.543 434.844 163.049 435.03 162.582C435.226 162.106 435.502 161.686 435.856 161.322C436.22 160.949 436.659 160.659 437.172 160.454C437.686 160.239 438.264 160.132 438.908 160.132C439.552 160.132 440.131 160.239 440.644 160.454C441.158 160.659 441.592 160.949 441.946 161.322C442.31 161.686 442.586 162.106 442.772 162.582C442.959 163.049 443.052 163.543 443.052 164.066V164.36C443.052 164.864 442.959 165.349 442.772 165.816C442.595 166.283 442.329 166.703 441.974 167.076C441.62 167.44 441.186 167.729 440.672 167.944C440.159 168.159 439.571 168.266 438.908 168.266ZM438.908 166.6C439.384 166.6 439.786 166.497 440.112 166.292C440.439 166.077 440.686 165.793 440.854 165.438C441.022 165.074 441.106 164.663 441.106 164.206C441.106 163.739 441.018 163.329 440.84 162.974C440.672 162.61 440.42 162.325 440.084 162.12C439.758 161.905 439.366 161.798 438.908 161.798C438.451 161.798 438.054 161.905 437.718 162.12C437.392 162.325 437.14 162.61 436.962 162.974C436.785 163.329 436.696 163.739 436.696 164.206C436.696 164.663 436.78 165.074 436.948 165.438C437.126 165.793 437.378 166.077 437.704 166.292C438.031 166.497 438.432 166.6 438.908 166.6ZM447.346 168.238C446.469 168.238 445.788 167.949 445.302 167.37C444.826 166.791 444.588 165.933 444.588 164.794V160.384H446.534V164.962C446.534 165.429 446.665 165.802 446.926 166.082C447.188 166.353 447.542 166.488 447.99 166.488C448.438 166.488 448.802 166.343 449.082 166.054C449.372 165.765 449.516 165.373 449.516 164.878V160.384H451.462V168H449.922V164.766H450.076C450.076 165.531 449.978 166.171 449.782 166.684C449.586 167.197 449.292 167.585 448.9 167.846C448.508 168.107 448.018 168.238 447.43 168.238H447.346ZM453.698 168V160.398H455.238V163.66H455.098C455.098 162.885 455.2 162.241 455.406 161.728C455.611 161.205 455.914 160.813 456.316 160.552C456.726 160.291 457.235 160.16 457.842 160.16H457.926C458.831 160.16 459.517 160.454 459.984 161.042C460.45 161.621 460.684 162.489 460.684 163.646V168H458.738V163.478C458.738 163.011 458.602 162.633 458.332 162.344C458.07 162.055 457.706 161.91 457.24 161.91C456.764 161.91 456.376 162.059 456.078 162.358C455.788 162.647 455.644 163.039 455.644 163.534V168H453.698ZM465.926 168.252C465.394 168.252 464.904 168.154 464.456 167.958C464.008 167.762 463.621 167.487 463.294 167.132C462.967 166.777 462.715 166.367 462.538 165.9C462.361 165.424 462.272 164.911 462.272 164.36V164.066C462.272 163.525 462.356 163.016 462.524 162.54C462.701 162.064 462.944 161.649 463.252 161.294C463.569 160.939 463.947 160.664 464.386 160.468C464.834 160.263 465.329 160.16 465.87 160.16C466.467 160.16 466.99 160.291 467.438 160.552C467.895 160.804 468.259 161.187 468.53 161.7C468.801 162.213 468.95 162.857 468.978 163.632L468.404 162.96V157.78H470.35V168H468.81V164.766H469.146C469.118 165.541 468.959 166.189 468.67 166.712C468.381 167.225 467.998 167.613 467.522 167.874C467.055 168.126 466.523 168.252 465.926 168.252ZM466.36 166.614C466.743 166.614 467.093 166.53 467.41 166.362C467.727 166.185 467.979 165.933 468.166 165.606C468.362 165.27 468.46 164.878 468.46 164.43V163.87C468.46 163.422 468.362 163.049 468.166 162.75C467.97 162.442 467.713 162.209 467.396 162.05C467.079 161.882 466.733 161.798 466.36 161.798C465.94 161.798 465.567 161.901 465.24 162.106C464.923 162.302 464.671 162.582 464.484 162.946C464.307 163.31 464.218 163.735 464.218 164.22C464.218 164.705 464.311 165.13 464.498 165.494C464.685 165.849 464.937 166.124 465.254 166.32C465.581 166.516 465.949 166.614 466.36 166.614Z" fill="#C0C0C0"/>
</svg>
