<svg width="452" height="283" viewBox="0 0 452 283" fill="none" xmlns="http://www.w3.org/2000/svg">
<rect x="406" y="237" width="46" height="46" rx="11" fill="#1870FF"/>
<rect width="46" height="46" rx="11" fill="#1870FF"/>
<rect x="17.5" y="17.5" width="417" height="248" rx="17.5" fill="white" fill-opacity="0.23"/>
<rect x="17.5" y="17.5" width="417" height="248" rx="17.5" stroke="#EBEBEB"/>
<rect x="17.5" y="17.5" width="417" height="58" rx="17.5" fill="#F8F8F8" fill-opacity="0.56"/>
<rect x="17.5" y="17.5" width="417" height="58" rx="17.5" stroke="#EBEBEB"/>
<path d="M43.7934 56V35.56H47.6854V56H43.7934ZM47.1254 56V52.64H56.3934V56H47.1254ZM47.1254 47.292V43.932H55.6654V47.292H47.1254ZM47.1254 38.92V35.56H56.1694V38.92H47.1254ZM66.7731 56.196C65.3731 56.196 64.2158 56.0187 63.3011 55.664C62.4051 55.2907 61.7331 54.6747 61.2851 53.816C60.8371 52.9387 60.6131 51.7627 60.6131 50.288L60.6411 36.512H64.2811L64.2531 50.54C64.2531 51.2867 64.4491 51.8653 64.8411 52.276C65.2518 52.668 65.8305 52.864 66.5771 52.864H68.9571V56.196H66.7731ZM58.2051 43.652V40.796H68.9571V43.652H58.2051ZM81.381 56V51.492H80.737V46.48C80.737 45.6027 80.5224 44.9493 80.093 44.52C79.6637 44.0907 79.001 43.876 78.105 43.876C77.6384 43.876 77.0784 43.8853 76.425 43.904C75.7717 43.9227 75.109 43.9507 74.437 43.988C73.7837 44.0067 73.1957 44.0347 72.673 44.072V40.768C73.1024 40.7307 73.5877 40.6933 74.129 40.656C74.6704 40.6187 75.221 40.6 75.781 40.6C76.3597 40.5813 76.901 40.572 77.405 40.572C78.973 40.572 80.2704 40.7773 81.297 41.188C82.3424 41.5987 83.1264 42.2427 83.649 43.12C84.1904 43.9973 84.461 45.1453 84.461 46.564V56H81.381ZM76.481 56.392C75.3797 56.392 74.409 56.196 73.569 55.804C72.7477 55.412 72.1037 54.852 71.637 54.124C71.189 53.396 70.965 52.5187 70.965 51.492C70.965 50.372 71.2357 49.4573 71.777 48.748C72.337 48.0387 73.1117 47.5067 74.101 47.152C75.109 46.7973 76.285 46.62 77.629 46.62H81.157V48.944H77.573C76.677 48.944 75.9864 49.168 75.501 49.616C75.0344 50.0453 74.801 50.6053 74.801 51.296C74.801 51.9867 75.0344 52.5467 75.501 52.976C75.9864 53.4053 76.677 53.62 77.573 53.62C78.1144 53.62 78.609 53.5267 79.057 53.34C79.5237 53.1347 79.9064 52.7987 80.205 52.332C80.5224 51.8467 80.6997 51.1933 80.737 50.372L81.689 51.464C81.5957 52.528 81.3344 53.424 80.905 54.152C80.4944 54.88 79.9157 55.44 79.169 55.832C78.441 56.2053 77.545 56.392 76.481 56.392ZM88.63 61.6V40.796H91.71V47.348L91.234 47.32C91.3086 45.7707 91.626 44.4733 92.186 43.428C92.7646 42.3827 93.53 41.608 94.482 41.104C95.434 40.5813 96.498 40.32 97.674 40.32C98.7566 40.32 99.7273 40.516 100.586 40.908C101.463 41.3 102.21 41.8507 102.826 42.56C103.461 43.2693 103.946 44.1 104.282 45.052C104.618 45.9853 104.786 46.9933 104.786 48.076V48.664C104.786 49.7653 104.618 50.792 104.282 51.744C103.965 52.6773 103.489 53.508 102.854 54.236C102.238 54.9453 101.491 55.5053 100.614 55.916C99.7366 56.308 98.7566 56.504 97.674 56.504C96.5353 56.504 95.49 56.2707 94.538 55.804C93.6046 55.3187 92.8486 54.5813 92.27 53.592C91.6913 52.584 91.3646 51.2867 91.29 49.7L92.522 51.576V61.6H88.63ZM96.694 53.228C97.534 53.228 98.262 53.0227 98.878 52.612C99.5126 52.2013 100.007 51.632 100.362 50.904C100.717 50.1573 100.894 49.3173 100.894 48.384C100.894 47.4133 100.717 46.5733 100.362 45.864C100.007 45.1547 99.5126 44.604 98.878 44.212C98.262 43.8013 97.534 43.596 96.694 43.596C95.9286 43.596 95.2193 43.764 94.566 44.1C93.9313 44.436 93.4086 44.9307 92.998 45.584C92.606 46.2373 92.41 47.0213 92.41 47.936V49.056C92.41 49.9333 92.6153 50.68 93.026 51.296C93.4366 51.912 93.9686 52.388 94.622 52.724C95.2753 53.06 95.966 53.228 96.694 53.228ZM115.012 56.532C113.705 56.532 112.557 56.308 111.568 55.86C110.597 55.412 109.785 54.8147 109.132 54.068C108.497 53.3027 108.012 52.4533 107.676 51.52C107.359 50.5867 107.2 49.6347 107.2 48.664V48.132C107.2 47.124 107.359 46.1533 107.676 45.22C108.012 44.268 108.497 43.428 109.132 42.7C109.785 41.9533 110.588 41.3653 111.54 40.936C112.492 40.488 113.593 40.264 114.844 40.264C116.487 40.264 117.859 40.628 118.96 41.356C120.08 42.0653 120.92 43.008 121.48 44.184C122.04 45.3413 122.32 46.592 122.32 47.936V49.336H108.852V46.956H119.884L118.68 48.132C118.68 47.1613 118.54 46.3307 118.26 45.64C117.98 44.9493 117.551 44.4173 116.972 44.044C116.412 43.6707 115.703 43.484 114.844 43.484C113.985 43.484 113.257 43.68 112.66 44.072C112.063 44.464 111.605 45.0333 111.288 45.78C110.989 46.508 110.84 47.3853 110.84 48.412C110.84 49.364 110.989 50.2133 111.288 50.96C111.587 51.688 112.044 52.2667 112.66 52.696C113.276 53.1067 114.06 53.312 115.012 53.312C115.964 53.312 116.739 53.1253 117.336 52.752C117.933 52.36 118.316 51.884 118.484 51.324H122.068C121.844 52.3693 121.415 53.284 120.78 54.068C120.145 54.852 119.333 55.4587 118.344 55.888C117.373 56.3173 116.263 56.532 115.012 56.532ZM131.087 56.476C128.997 56.476 127.354 56.0373 126.159 55.16C124.983 54.264 124.367 53.032 124.311 51.464H127.811C127.867 51.9867 128.157 52.4627 128.679 52.892C129.202 53.3213 130.023 53.536 131.143 53.536C132.077 53.536 132.814 53.368 133.355 53.032C133.915 52.696 134.195 52.2387 134.195 51.66C134.195 51.156 133.981 50.7547 133.551 50.456C133.141 50.1573 132.431 49.9613 131.423 49.868L130.079 49.728C128.381 49.5413 127.074 49.056 126.159 48.272C125.245 47.488 124.787 46.4427 124.787 45.136C124.787 44.0907 125.049 43.2133 125.571 42.504C126.094 41.7947 126.813 41.2627 127.727 40.908C128.661 40.5347 129.725 40.348 130.919 40.348C132.786 40.348 134.298 40.7587 135.455 41.58C136.613 42.4013 137.219 43.6053 137.275 45.192H133.775C133.738 44.6693 133.477 44.2213 132.991 43.848C132.506 43.4747 131.806 43.288 130.891 43.288C130.07 43.288 129.435 43.4467 128.987 43.764C128.539 44.0813 128.315 44.492 128.315 44.996C128.315 45.4813 128.493 45.8547 128.847 46.116C129.221 46.3773 129.818 46.5547 130.639 46.648L131.983 46.788C133.775 46.9747 135.175 47.4693 136.183 48.272C137.21 49.0747 137.723 50.1573 137.723 51.52C137.723 52.528 137.443 53.4053 136.883 54.152C136.342 54.88 135.577 55.4493 134.587 55.86C133.598 56.2707 132.431 56.476 131.087 56.476Z" fill="#424242"/>
<g clip-path="url(#clip0_213_837)">
<mask id="mask0_213_837" style="mask-type:luminance" maskUnits="userSpaceOnUse" x="387" y="34" width="24" height="25">
<path d="M411 34.5H387V58.5H411V34.5Z" fill="white"/>
</mask>
<g mask="url(#mask0_213_837)">
<path d="M403.19 36.5H394.81C391.17 36.5 389 38.67 389 42.31V50.69C389 54.33 391.17 56.5 394.81 56.5H403.19C406.83 56.5 409 54.33 409 50.69V42.31C409 38.67 406.83 36.5 403.19 36.5ZM396.97 49.4L394.72 51.65C394.57 51.8 394.38 51.87 394.19 51.87C394 51.87 393.8 51.8 393.66 51.65L392.91 50.9C392.61 50.61 392.61 50.13 392.91 49.84C393.2 49.55 393.67 49.55 393.97 49.84L394.19 50.06L395.91 48.34C396.2 48.05 396.67 48.05 396.97 48.34C397.26 48.63 397.26 49.11 396.97 49.4ZM396.97 42.4L394.72 44.65C394.57 44.8 394.38 44.87 394.19 44.87C394 44.87 393.8 44.8 393.66 44.65L392.91 43.9C392.61 43.61 392.61 43.13 392.91 42.84C393.2 42.55 393.67 42.55 393.97 42.84L394.19 43.06L395.91 41.34C396.2 41.05 396.67 41.05 396.97 41.34C397.26 41.63 397.26 42.11 396.97 42.4ZM404.56 51.12H399.31C398.9 51.12 398.56 50.78 398.56 50.37C398.56 49.96 398.9 49.62 399.31 49.62H404.56C404.98 49.62 405.31 49.96 405.31 50.37C405.31 50.78 404.98 51.12 404.56 51.12ZM404.56 44.12H399.31C398.9 44.12 398.56 43.78 398.56 43.37C398.56 42.96 398.9 42.62 399.31 42.62H404.56C404.98 42.62 405.31 42.96 405.31 43.37C405.31 43.78 404.98 44.12 404.56 44.12Z" fill="#1870FF"/>
</g>
</g>
<circle cx="53" cy="130" r="10.5" stroke="#DADADA" stroke-width="3"/>
<circle cx="53" cy="130" r="7" fill="#0C76F8"/>
<path d="M78.8 137V122.3H81.64V137H78.8ZM87.72 137L83.24 130.64H86.42L91.04 137H87.72ZM80.8 132.12V129.82H84.52C85.04 129.82 85.4867 129.713 85.86 129.5C86.2467 129.287 86.5467 128.987 86.76 128.6C86.9733 128.213 87.08 127.773 87.08 127.28C87.08 126.773 86.9733 126.327 86.76 125.94C86.5467 125.553 86.2467 125.253 85.86 125.04C85.4867 124.827 85.04 124.72 84.52 124.72H80.8V122.3H84.22C85.3933 122.3 86.4067 122.473 87.26 122.82C88.1267 123.167 88.7933 123.693 89.26 124.4C89.7267 125.107 89.96 125.993 89.96 127.06V127.38C89.96 128.46 89.72 129.347 89.24 130.04C88.7733 130.733 88.1133 131.253 87.26 131.6C86.4067 131.947 85.3933 132.12 84.22 132.12H80.8ZM97.6392 137.38C96.7059 137.38 95.8859 137.22 95.1792 136.9C94.4859 136.58 93.9059 136.153 93.4392 135.62C92.9859 135.073 92.6392 134.467 92.3992 133.8C92.1726 133.133 92.0592 132.453 92.0592 131.76V131.38C92.0592 130.66 92.1726 129.967 92.3992 129.3C92.6392 128.62 92.9859 128.02 93.4392 127.5C93.9059 126.967 94.4792 126.547 95.1592 126.24C95.8392 125.92 96.6259 125.76 97.5192 125.76C98.6926 125.76 99.6726 126.02 100.459 126.54C101.259 127.047 101.859 127.72 102.259 128.56C102.659 129.387 102.859 130.28 102.859 131.24V132.24H93.2392V130.54H101.119L100.259 131.38C100.259 130.687 100.159 130.093 99.9592 129.6C99.7592 129.107 99.4526 128.727 99.0392 128.46C98.6392 128.193 98.1326 128.06 97.5192 128.06C96.9059 128.06 96.3859 128.2 95.9592 128.48C95.5326 128.76 95.2059 129.167 94.9792 129.7C94.7659 130.22 94.6592 130.847 94.6592 131.58C94.6592 132.26 94.7659 132.867 94.9792 133.4C95.1926 133.92 95.5192 134.333 95.9592 134.64C96.3992 134.933 96.9592 135.08 97.6392 135.08C98.3192 135.08 98.8726 134.947 99.2992 134.68C99.7259 134.4 99.9992 134.06 100.119 133.66H102.679C102.519 134.407 102.213 135.06 101.759 135.62C101.306 136.18 100.726 136.613 100.019 136.92C99.3259 137.227 98.5326 137.38 97.6392 137.38ZM110.002 137.38C109.055 137.38 108.235 137.22 107.542 136.9C106.862 136.58 106.288 136.153 105.822 135.62C105.368 135.087 105.028 134.487 104.802 133.82C104.575 133.153 104.462 132.473 104.462 131.78V131.4C104.462 130.667 104.575 129.967 104.802 129.3C105.042 128.62 105.395 128.02 105.862 127.5C106.328 126.967 106.902 126.547 107.582 126.24C108.275 125.92 109.075 125.76 109.982 125.76C110.928 125.76 111.775 125.947 112.522 126.32C113.268 126.68 113.862 127.187 114.302 127.84C114.755 128.493 115.008 129.253 115.062 130.12H112.362C112.295 129.56 112.055 129.093 111.642 128.72C111.242 128.347 110.688 128.16 109.982 128.16C109.368 128.16 108.855 128.307 108.442 128.6C108.042 128.893 107.742 129.3 107.542 129.82C107.342 130.327 107.242 130.913 107.242 131.58C107.242 132.22 107.335 132.8 107.522 133.32C107.722 133.84 108.022 134.247 108.422 134.54C108.835 134.833 109.362 134.98 110.002 134.98C110.482 134.98 110.895 134.893 111.242 134.72C111.588 134.547 111.862 134.307 112.062 134C112.275 133.693 112.408 133.347 112.462 132.96H115.162C115.108 133.84 114.848 134.613 114.382 135.28C113.928 135.933 113.322 136.447 112.562 136.82C111.815 137.193 110.962 137.38 110.002 137.38ZM117.389 137V122.4H120.169V130.92H119.689C119.689 129.827 119.829 128.9 120.109 128.14C120.389 127.38 120.802 126.8 121.349 126.4C121.909 126 122.615 125.8 123.469 125.8H123.589C124.829 125.8 125.769 126.227 126.409 127.08C127.049 127.933 127.369 129.173 127.369 130.8V137H124.589V130.54C124.589 129.847 124.389 129.3 123.989 128.9C123.602 128.5 123.089 128.3 122.449 128.3C121.769 128.3 121.215 128.527 120.789 128.98C120.375 129.42 120.169 130 120.169 130.72V137H117.389ZM135.217 137.38C134.284 137.38 133.464 137.22 132.757 136.9C132.064 136.58 131.484 136.153 131.017 135.62C130.564 135.073 130.217 134.467 129.977 133.8C129.751 133.133 129.637 132.453 129.637 131.76V131.38C129.637 130.66 129.751 129.967 129.977 129.3C130.217 128.62 130.564 128.02 131.017 127.5C131.484 126.967 132.057 126.547 132.737 126.24C133.417 125.92 134.204 125.76 135.097 125.76C136.271 125.76 137.251 126.02 138.037 126.54C138.837 127.047 139.437 127.72 139.837 128.56C140.237 129.387 140.437 130.28 140.437 131.24V132.24H130.817V130.54H138.697L137.837 131.38C137.837 130.687 137.737 130.093 137.537 129.6C137.337 129.107 137.031 128.727 136.617 128.46C136.217 128.193 135.711 128.06 135.097 128.06C134.484 128.06 133.964 128.2 133.537 128.48C133.111 128.76 132.784 129.167 132.557 129.7C132.344 130.22 132.237 130.847 132.237 131.58C132.237 132.26 132.344 132.867 132.557 133.4C132.771 133.92 133.097 134.333 133.537 134.64C133.977 134.933 134.537 135.08 135.217 135.08C135.897 135.08 136.451 134.947 136.877 134.68C137.304 134.4 137.577 134.06 137.697 133.66H140.257C140.097 134.407 139.791 135.06 139.337 135.62C138.884 136.18 138.304 136.613 137.597 136.92C136.904 137.227 136.111 137.38 135.217 137.38ZM142.76 137V126.14H144.96V130.74H144.9C144.9 129.18 145.233 128 145.9 127.2C146.566 126.4 147.546 126 148.84 126H149.24V128.42H148.48C147.546 128.42 146.82 128.673 146.3 129.18C145.793 129.673 145.54 130.393 145.54 131.34V137H142.76ZM155.841 137.38C154.895 137.38 154.075 137.22 153.381 136.9C152.701 136.58 152.128 136.153 151.661 135.62C151.208 135.087 150.868 134.487 150.641 133.82C150.415 133.153 150.301 132.473 150.301 131.78V131.4C150.301 130.667 150.415 129.967 150.641 129.3C150.881 128.62 151.235 128.02 151.701 127.5C152.168 126.967 152.741 126.547 153.421 126.24C154.115 125.92 154.915 125.76 155.821 125.76C156.768 125.76 157.615 125.947 158.361 126.32C159.108 126.68 159.701 127.187 160.141 127.84C160.595 128.493 160.848 129.253 160.901 130.12H158.201C158.135 129.56 157.895 129.093 157.481 128.72C157.081 128.347 156.528 128.16 155.821 128.16C155.208 128.16 154.695 128.307 154.281 128.6C153.881 128.893 153.581 129.3 153.381 129.82C153.181 130.327 153.081 130.913 153.081 131.58C153.081 132.22 153.175 132.8 153.361 133.32C153.561 133.84 153.861 134.247 154.261 134.54C154.675 134.833 155.201 134.98 155.841 134.98C156.321 134.98 156.735 134.893 157.081 134.72C157.428 134.547 157.701 134.307 157.901 134C158.115 133.693 158.248 133.347 158.301 132.96H161.001C160.948 133.84 160.688 134.613 160.221 135.28C159.768 135.933 159.161 136.447 158.401 136.82C157.655 137.193 156.801 137.38 155.841 137.38ZM163.228 137V122.4H166.008V130.92H165.528C165.528 129.827 165.668 128.9 165.948 128.14C166.228 127.38 166.642 126.8 167.188 126.4C167.748 126 168.455 125.8 169.308 125.8H169.428C170.668 125.8 171.608 126.227 172.248 127.08C172.888 127.933 173.208 129.173 173.208 130.8V137H170.428V130.54C170.428 129.847 170.228 129.3 169.828 128.9C169.442 128.5 168.928 128.3 168.288 128.3C167.608 128.3 167.055 128.527 166.628 128.98C166.215 129.42 166.008 130 166.008 130.72V137H163.228ZM181.057 137.38C180.124 137.38 179.304 137.22 178.597 136.9C177.904 136.58 177.324 136.153 176.857 135.62C176.404 135.073 176.057 134.467 175.817 133.8C175.591 133.133 175.477 132.453 175.477 131.76V131.38C175.477 130.66 175.591 129.967 175.817 129.3C176.057 128.62 176.404 128.02 176.857 127.5C177.324 126.967 177.897 126.547 178.577 126.24C179.257 125.92 180.044 125.76 180.937 125.76C182.111 125.76 183.091 126.02 183.877 126.54C184.677 127.047 185.277 127.72 185.677 128.56C186.077 129.387 186.277 130.28 186.277 131.24V132.24H176.657V130.54H184.537L183.677 131.38C183.677 130.687 183.577 130.093 183.377 129.6C183.177 129.107 182.871 128.727 182.457 128.46C182.057 128.193 181.551 128.06 180.937 128.06C180.324 128.06 179.804 128.2 179.377 128.48C178.951 128.76 178.624 129.167 178.397 129.7C178.184 130.22 178.077 130.847 178.077 131.58C178.077 132.26 178.184 132.867 178.397 133.4C178.611 133.92 178.937 134.333 179.377 134.64C179.817 134.933 180.377 135.08 181.057 135.08C181.737 135.08 182.291 134.947 182.717 134.68C183.144 134.4 183.417 134.06 183.537 133.66H186.097C185.937 134.407 185.631 135.06 185.177 135.62C184.724 136.18 184.144 136.613 183.437 136.92C182.744 137.227 181.951 137.38 181.057 137.38ZM199.156 137.38C197.796 137.38 196.649 137.12 195.716 136.6C194.783 136.08 194.069 135.353 193.576 134.42C193.096 133.473 192.856 132.367 192.856 131.1V122.4H195.696V131.26C195.696 131.953 195.829 132.567 196.096 133.1C196.363 133.62 196.749 134.027 197.256 134.32C197.776 134.6 198.409 134.74 199.156 134.74C199.889 134.74 200.509 134.6 201.016 134.32C201.536 134.027 201.923 133.62 202.176 133.1C202.443 132.58 202.576 131.967 202.576 131.26V122.4H205.416V131.1C205.416 132.367 205.176 133.473 204.696 134.42C204.229 135.353 203.529 136.08 202.596 136.6C201.663 137.12 200.516 137.38 199.156 137.38ZM207.005 137L212.145 129.22L212.165 129.56L207.445 122.4H210.605L213.765 127.3H214.185L217.325 122.4H220.365L215.585 129.62L215.545 129.28L220.805 137H217.665L213.985 131.52H213.565L210.045 137H207.005ZM233.519 137V133.78H233.059V130.2C233.059 129.573 232.906 129.107 232.599 128.8C232.293 128.493 231.819 128.34 231.179 128.34C230.846 128.34 230.446 128.347 229.979 128.36C229.513 128.373 229.039 128.393 228.559 128.42C228.093 128.433 227.673 128.453 227.299 128.48V126.12C227.606 126.093 227.953 126.067 228.339 126.04C228.726 126.013 229.119 126 229.519 126C229.933 125.987 230.319 125.98 230.679 125.98C231.799 125.98 232.726 126.127 233.459 126.42C234.206 126.713 234.766 127.173 235.139 127.8C235.526 128.427 235.719 129.247 235.719 130.26V137H233.519ZM230.019 137.28C229.233 137.28 228.539 137.14 227.939 136.86C227.353 136.58 226.893 136.18 226.559 135.66C226.239 135.14 226.079 134.513 226.079 133.78C226.079 132.98 226.273 132.327 226.659 131.82C227.059 131.313 227.613 130.933 228.319 130.68C229.039 130.427 229.879 130.3 230.839 130.3H233.359V131.96H230.799C230.159 131.96 229.666 132.12 229.319 132.44C228.986 132.747 228.819 133.147 228.819 133.64C228.819 134.133 228.986 134.533 229.319 134.84C229.666 135.147 230.159 135.3 230.799 135.3C231.186 135.3 231.539 135.233 231.859 135.1C232.193 134.953 232.466 134.713 232.679 134.38C232.906 134.033 233.033 133.567 233.059 132.98L233.739 133.76C233.673 134.52 233.486 135.16 233.179 135.68C232.886 136.2 232.473 136.6 231.939 136.88C231.419 137.147 230.779 137.28 230.019 137.28ZM238.697 141V126.14H240.897V130.82L240.557 130.8C240.611 129.693 240.837 128.767 241.237 128.02C241.651 127.273 242.197 126.72 242.877 126.36C243.557 125.987 244.317 125.8 245.157 125.8C245.931 125.8 246.624 125.94 247.237 126.22C247.864 126.5 248.397 126.893 248.837 127.4C249.291 127.907 249.637 128.5 249.877 129.18C250.117 129.847 250.237 130.567 250.237 131.34V131.76C250.237 132.547 250.117 133.28 249.877 133.96C249.651 134.627 249.311 135.22 248.857 135.74C248.417 136.247 247.884 136.647 247.257 136.94C246.631 137.22 245.931 137.36 245.157 137.36C244.344 137.36 243.597 137.193 242.917 136.86C242.251 136.513 241.711 135.987 241.297 135.28C240.884 134.56 240.651 133.633 240.597 132.5L241.477 133.84V141H238.697ZM244.457 135.02C245.057 135.02 245.577 134.873 246.017 134.58C246.471 134.287 246.824 133.88 247.077 133.36C247.331 132.827 247.457 132.227 247.457 131.56C247.457 130.867 247.331 130.267 247.077 129.76C246.824 129.253 246.471 128.86 246.017 128.58C245.577 128.287 245.057 128.14 244.457 128.14C243.911 128.14 243.404 128.26 242.937 128.5C242.484 128.74 242.111 129.093 241.817 129.56C241.537 130.027 241.397 130.587 241.397 131.24V132.04C241.397 132.667 241.544 133.2 241.837 133.64C242.131 134.08 242.511 134.42 242.977 134.66C243.444 134.9 243.937 135.02 244.457 135.02ZM252.682 141V126.14H254.882V130.82L254.542 130.8C254.595 129.693 254.822 128.767 255.222 128.02C255.635 127.273 256.182 126.72 256.862 126.36C257.542 125.987 258.302 125.8 259.142 125.8C259.915 125.8 260.608 125.94 261.222 126.22C261.848 126.5 262.382 126.893 262.822 127.4C263.275 127.907 263.622 128.5 263.862 129.18C264.102 129.847 264.222 130.567 264.222 131.34V131.76C264.222 132.547 264.102 133.28 263.862 133.96C263.635 134.627 263.295 135.22 262.842 135.74C262.402 136.247 261.868 136.647 261.242 136.94C260.615 137.22 259.915 137.36 259.142 137.36C258.328 137.36 257.582 137.193 256.902 136.86C256.235 136.513 255.695 135.987 255.282 135.28C254.868 134.56 254.635 133.633 254.582 132.5L255.462 133.84V141H252.682ZM258.442 135.02C259.042 135.02 259.562 134.873 260.002 134.58C260.455 134.287 260.808 133.88 261.062 133.36C261.315 132.827 261.442 132.227 261.442 131.56C261.442 130.867 261.315 130.267 261.062 129.76C260.808 129.253 260.455 128.86 260.002 128.58C259.562 128.287 259.042 128.14 258.442 128.14C257.895 128.14 257.388 128.26 256.922 128.5C256.468 128.74 256.095 129.093 255.802 129.56C255.522 130.027 255.382 130.587 255.382 131.24V132.04C255.382 132.667 255.528 133.2 255.822 133.64C256.115 134.08 256.495 134.42 256.962 134.66C257.428 134.9 257.922 135.02 258.442 135.02ZM266.666 137V126.14H268.866V130.74H268.806C268.806 129.18 269.139 128 269.806 127.2C270.473 126.4 271.453 126 272.746 126H273.146V128.42H272.386C271.453 128.42 270.726 128.673 270.206 129.18C269.699 129.673 269.446 130.393 269.446 131.34V137H266.666ZM280.148 137.38C279.188 137.38 278.341 137.227 277.608 136.92C276.874 136.613 276.254 136.2 275.748 135.68C275.241 135.147 274.854 134.547 274.588 133.88C274.334 133.213 274.208 132.52 274.208 131.8V131.38C274.208 130.633 274.341 129.927 274.608 129.26C274.888 128.58 275.281 127.98 275.788 127.46C276.308 126.927 276.934 126.513 277.668 126.22C278.401 125.913 279.228 125.76 280.148 125.76C281.068 125.76 281.894 125.913 282.628 126.22C283.361 126.513 283.981 126.927 284.488 127.46C285.008 127.98 285.401 128.58 285.668 129.26C285.934 129.927 286.068 130.633 286.068 131.38V131.8C286.068 132.52 285.934 133.213 285.668 133.88C285.414 134.547 285.034 135.147 284.528 135.68C284.021 136.2 283.401 136.613 282.668 136.92C281.934 137.227 281.094 137.38 280.148 137.38ZM280.148 135C280.828 135 281.401 134.853 281.868 134.56C282.334 134.253 282.688 133.847 282.928 133.34C283.168 132.82 283.288 132.233 283.288 131.58C283.288 130.913 283.161 130.327 282.908 129.82C282.668 129.3 282.308 128.893 281.828 128.6C281.361 128.293 280.801 128.14 280.148 128.14C279.494 128.14 278.928 128.293 278.448 128.6C277.981 128.893 277.621 129.3 277.368 129.82C277.114 130.327 276.988 130.913 276.988 131.58C276.988 132.233 277.108 132.82 277.348 133.34C277.601 133.847 277.961 134.253 278.428 134.56C278.894 134.853 279.468 135 280.148 135ZM288.762 137V125.88C288.762 124.64 289.102 123.727 289.782 123.14C290.475 122.54 291.495 122.24 292.842 122.24H294.202V124.38H292.642C292.229 124.38 291.909 124.493 291.682 124.72C291.469 124.933 291.362 125.24 291.362 125.64V137H288.762ZM287.402 128.36V126.32H294.382V128.36H287.402ZM301.28 137.38C300.32 137.38 299.474 137.227 298.74 136.92C298.007 136.613 297.387 136.2 296.88 135.68C296.374 135.147 295.987 134.547 295.72 133.88C295.467 133.213 295.34 132.52 295.34 131.8V131.38C295.34 130.633 295.474 129.927 295.74 129.26C296.02 128.58 296.414 127.98 296.92 127.46C297.44 126.927 298.067 126.513 298.8 126.22C299.534 125.913 300.36 125.76 301.28 125.76C302.2 125.76 303.027 125.913 303.76 126.22C304.494 126.513 305.114 126.927 305.62 127.46C306.14 127.98 306.534 128.58 306.8 129.26C307.067 129.927 307.2 130.633 307.2 131.38V131.8C307.2 132.52 307.067 133.213 306.8 133.88C306.547 134.547 306.167 135.147 305.66 135.68C305.154 136.2 304.534 136.613 303.8 136.92C303.067 137.227 302.227 137.38 301.28 137.38ZM301.28 135C301.96 135 302.534 134.853 303 134.56C303.467 134.253 303.82 133.847 304.06 133.34C304.3 132.82 304.42 132.233 304.42 131.58C304.42 130.913 304.294 130.327 304.04 129.82C303.8 129.3 303.44 128.893 302.96 128.6C302.494 128.293 301.934 128.14 301.28 128.14C300.627 128.14 300.06 128.293 299.58 128.6C299.114 128.893 298.754 129.3 298.5 129.82C298.247 130.327 298.12 130.913 298.12 131.58C298.12 132.233 298.24 132.82 298.48 133.34C298.734 133.847 299.094 134.253 299.56 134.56C300.027 134.853 300.6 135 301.28 135ZM309.635 137V126.14H311.835V130.8H311.635C311.635 129.693 311.781 128.773 312.075 128.04C312.368 127.293 312.801 126.733 313.375 126.36C313.961 125.987 314.688 125.8 315.555 125.8H315.675C316.968 125.8 317.948 126.22 318.615 127.06C319.281 127.887 319.615 129.127 319.615 130.78V137H316.835V130.54C316.835 129.873 316.641 129.333 316.255 128.92C315.881 128.507 315.361 128.3 314.695 128.3C314.015 128.3 313.461 128.513 313.035 128.94C312.621 129.353 312.415 129.913 312.415 130.62V137H309.635ZM327.103 137.36C326.343 137.36 325.643 137.22 325.003 136.94C324.363 136.66 323.81 136.267 323.343 135.76C322.877 135.253 322.517 134.667 322.263 134C322.01 133.32 321.883 132.587 321.883 131.8V131.38C321.883 130.607 322.003 129.88 322.243 129.2C322.497 128.52 322.843 127.927 323.283 127.42C323.737 126.913 324.277 126.52 324.903 126.24C325.543 125.947 326.25 125.8 327.023 125.8C327.877 125.8 328.623 125.987 329.263 126.36C329.917 126.72 330.437 127.267 330.823 128C331.21 128.733 331.423 129.653 331.463 130.76L330.643 129.8V122.4H333.423V137H331.223V132.38H331.703C331.663 133.487 331.437 134.413 331.023 135.16C330.61 135.893 330.063 136.447 329.383 136.82C328.717 137.18 327.957 137.36 327.103 137.36ZM327.723 135.02C328.27 135.02 328.77 134.9 329.223 134.66C329.677 134.407 330.037 134.047 330.303 133.58C330.583 133.1 330.723 132.54 330.723 131.9V131.1C330.723 130.46 330.583 129.927 330.303 129.5C330.023 129.06 329.657 128.727 329.203 128.5C328.75 128.26 328.257 128.14 327.723 128.14C327.123 128.14 326.59 128.287 326.123 128.58C325.67 128.86 325.31 129.26 325.043 129.78C324.79 130.3 324.663 130.907 324.663 131.6C324.663 132.293 324.797 132.9 325.063 133.42C325.33 133.927 325.69 134.32 326.143 134.6C326.61 134.88 327.137 135.02 327.723 135.02ZM337.108 137V126.14H339.888V137H337.108ZM335.588 128.22V126.14H339.888V128.22H335.588ZM338.128 124.84C337.581 124.84 337.174 124.7 336.908 124.42C336.654 124.127 336.528 123.767 336.528 123.34C336.528 122.887 336.654 122.52 336.908 122.24C337.174 121.96 337.581 121.82 338.128 121.82C338.674 121.82 339.074 121.96 339.328 122.24C339.581 122.52 339.708 122.887 339.708 123.34C339.708 123.767 339.581 124.127 339.328 124.42C339.074 124.7 338.674 124.84 338.128 124.84ZM347.952 137.38C347.018 137.38 346.198 137.22 345.492 136.9C344.798 136.58 344.218 136.153 343.752 135.62C343.298 135.073 342.952 134.467 342.712 133.8C342.485 133.133 342.372 132.453 342.372 131.76V131.38C342.372 130.66 342.485 129.967 342.712 129.3C342.952 128.62 343.298 128.02 343.752 127.5C344.218 126.967 344.792 126.547 345.472 126.24C346.152 125.92 346.938 125.76 347.832 125.76C349.005 125.76 349.985 126.02 350.772 126.54C351.572 127.047 352.172 127.72 352.572 128.56C352.972 129.387 353.172 130.28 353.172 131.24V132.24H343.552V130.54H351.432L350.572 131.38C350.572 130.687 350.472 130.093 350.272 129.6C350.072 129.107 349.765 128.727 349.352 128.46C348.952 128.193 348.445 128.06 347.832 128.06C347.218 128.06 346.698 128.2 346.272 128.48C345.845 128.76 345.518 129.167 345.292 129.7C345.078 130.22 344.972 130.847 344.972 131.58C344.972 132.26 345.078 132.867 345.292 133.4C345.505 133.92 345.832 134.333 346.272 134.64C346.712 134.933 347.272 135.08 347.952 135.08C348.632 135.08 349.185 134.947 349.612 134.68C350.038 134.4 350.312 134.06 350.432 133.66H352.992C352.832 134.407 352.525 135.06 352.072 135.62C351.618 136.18 351.038 136.613 350.332 136.92C349.638 137.227 348.845 137.38 347.952 137.38ZM359.37 137V133.8H362.49V137H359.37ZM359.37 130.1V126.9H362.49V130.1H359.37ZM83.08 162.36C82.32 162.36 81.62 162.22 80.98 161.94C80.34 161.66 79.7867 161.267 79.32 160.76C78.8533 160.253 78.4933 159.667 78.24 159C77.9867 158.32 77.86 157.587 77.86 156.8V156.38C77.86 155.607 77.98 154.88 78.22 154.2C78.4733 153.52 78.82 152.927 79.26 152.42C79.7133 151.913 80.2533 151.52 80.88 151.24C81.52 150.947 82.2267 150.8 83 150.8C83.8533 150.8 84.6 150.987 85.24 151.36C85.8933 151.72 86.4133 152.267 86.8 153C87.1867 153.733 87.4 154.653 87.44 155.76L86.62 154.8V147.4H89.4V162H87.2V157.38H87.68C87.64 158.487 87.4133 159.413 87 160.16C86.5867 160.893 86.04 161.447 85.36 161.82C84.6933 162.18 83.9333 162.36 83.08 162.36ZM83.7 160.02C84.2467 160.02 84.7467 159.9 85.2 159.66C85.6533 159.407 86.0133 159.047 86.28 158.58C86.56 158.1 86.7 157.54 86.7 156.9V156.1C86.7 155.46 86.56 154.927 86.28 154.5C86 154.06 85.6333 153.727 85.18 153.5C84.7267 153.26 84.2333 153.14 83.7 153.14C83.1 153.14 82.5667 153.287 82.1 153.58C81.6467 153.86 81.2867 154.26 81.02 154.78C80.7667 155.3 80.64 155.907 80.64 156.6C80.64 157.293 80.7733 157.9 81.04 158.42C81.3067 158.927 81.6667 159.32 82.12 159.6C82.5867 159.88 83.1133 160.02 83.7 160.02ZM97.7844 162.38C96.8244 162.38 95.9777 162.227 95.2444 161.92C94.511 161.613 93.891 161.2 93.3844 160.68C92.8777 160.147 92.491 159.547 92.2244 158.88C91.971 158.213 91.8444 157.52 91.8444 156.8V156.38C91.8444 155.633 91.9777 154.927 92.2444 154.26C92.5244 153.58 92.9177 152.98 93.4244 152.46C93.9444 151.927 94.571 151.513 95.3044 151.22C96.0377 150.913 96.8644 150.76 97.7844 150.76C98.7044 150.76 99.531 150.913 100.264 151.22C100.998 151.513 101.618 151.927 102.124 152.46C102.644 152.98 103.038 153.58 103.304 154.26C103.571 154.927 103.704 155.633 103.704 156.38V156.8C103.704 157.52 103.571 158.213 103.304 158.88C103.051 159.547 102.671 160.147 102.164 160.68C101.658 161.2 101.038 161.613 100.304 161.92C99.571 162.227 98.731 162.38 97.7844 162.38ZM97.7844 160C98.4644 160 99.0377 159.853 99.5044 159.56C99.971 159.253 100.324 158.847 100.564 158.34C100.804 157.82 100.924 157.233 100.924 156.58C100.924 155.913 100.798 155.327 100.544 154.82C100.304 154.3 99.9444 153.893 99.4644 153.6C98.9977 153.293 98.4377 153.14 97.7844 153.14C97.131 153.14 96.5644 153.293 96.0844 153.6C95.6177 153.893 95.2577 154.3 95.0044 154.82C94.751 155.327 94.6244 155.913 94.6244 156.58C94.6244 157.233 94.7444 157.82 94.9844 158.34C95.2377 158.847 95.5977 159.253 96.0644 159.56C96.531 159.853 97.1044 160 97.7844 160ZM106.139 162V151.14H108.339V155.8H108.139C108.139 154.707 108.279 153.793 108.559 153.06C108.839 152.313 109.252 151.753 109.799 151.38C110.359 150.993 111.052 150.8 111.879 150.8H111.999C112.839 150.8 113.532 150.993 114.079 151.38C114.639 151.753 115.052 152.313 115.319 153.06C115.599 153.793 115.739 154.707 115.739 155.8H115.039C115.039 154.707 115.179 153.793 115.459 153.06C115.752 152.313 116.172 151.753 116.719 151.38C117.279 150.993 117.972 150.8 118.799 150.8H118.919C119.759 150.8 120.459 150.993 121.019 151.38C121.579 151.753 121.999 152.313 122.279 153.06C122.572 153.793 122.719 154.707 122.719 155.8V162H119.939V155.54C119.939 154.86 119.765 154.32 119.419 153.92C119.072 153.507 118.579 153.3 117.939 153.3C117.299 153.3 116.785 153.513 116.399 153.94C116.012 154.353 115.819 154.913 115.819 155.62V162H113.039V155.54C113.039 154.86 112.865 154.32 112.519 153.92C112.172 153.507 111.679 153.3 111.039 153.3C110.399 153.3 109.885 153.513 109.499 153.94C109.112 154.353 108.919 154.913 108.919 155.62V162H106.139ZM132.269 162V158.78H131.809V155.2C131.809 154.573 131.656 154.107 131.349 153.8C131.043 153.493 130.569 153.34 129.929 153.34C129.596 153.34 129.196 153.347 128.729 153.36C128.263 153.373 127.789 153.393 127.309 153.42C126.843 153.433 126.423 153.453 126.049 153.48V151.12C126.356 151.093 126.703 151.067 127.089 151.04C127.476 151.013 127.869 151 128.269 151C128.683 150.987 129.069 150.98 129.429 150.98C130.549 150.98 131.476 151.127 132.209 151.42C132.956 151.713 133.516 152.173 133.889 152.8C134.276 153.427 134.469 154.247 134.469 155.26V162H132.269ZM128.769 162.28C127.983 162.28 127.289 162.14 126.689 161.86C126.103 161.58 125.643 161.18 125.309 160.66C124.989 160.14 124.829 159.513 124.829 158.78C124.829 157.98 125.023 157.327 125.409 156.82C125.809 156.313 126.363 155.933 127.069 155.68C127.789 155.427 128.629 155.3 129.589 155.3H132.109V156.96H129.549C128.909 156.96 128.416 157.12 128.069 157.44C127.736 157.747 127.569 158.147 127.569 158.64C127.569 159.133 127.736 159.533 128.069 159.84C128.416 160.147 128.909 160.3 129.549 160.3C129.936 160.3 130.289 160.233 130.609 160.1C130.943 159.953 131.216 159.713 131.429 159.38C131.656 159.033 131.783 158.567 131.809 157.98L132.489 158.76C132.423 159.52 132.236 160.16 131.929 160.68C131.636 161.2 131.223 161.6 130.689 161.88C130.169 162.147 129.529 162.28 128.769 162.28ZM137.967 162V151.14H140.747V162H137.967ZM136.447 153.22V151.14H140.747V153.22H136.447ZM138.987 149.84C138.441 149.84 138.034 149.7 137.767 149.42C137.514 149.127 137.387 148.767 137.387 148.34C137.387 147.887 137.514 147.52 137.767 147.24C138.034 146.96 138.441 146.82 138.987 146.82C139.534 146.82 139.934 146.96 140.187 147.24C140.441 147.52 140.567 147.887 140.567 148.34C140.567 148.767 140.441 149.127 140.187 149.42C139.934 149.7 139.534 149.84 138.987 149.84ZM143.951 162V151.14H146.151V155.8H145.951C145.951 154.693 146.098 153.773 146.391 153.04C146.684 152.293 147.118 151.733 147.691 151.36C148.278 150.987 149.004 150.8 149.871 150.8H149.991C151.284 150.8 152.264 151.22 152.931 152.06C153.598 152.887 153.931 154.127 153.931 155.78V162H151.151V155.54C151.151 154.873 150.958 154.333 150.571 153.92C150.198 153.507 149.678 153.3 149.011 153.3C148.331 153.3 147.778 153.513 147.351 153.94C146.938 154.353 146.731 154.913 146.731 155.62V162H143.951ZM161.78 162.38C160.847 162.38 160.027 162.22 159.32 161.9C158.627 161.58 158.047 161.153 157.58 160.62C157.127 160.073 156.78 159.467 156.54 158.8C156.313 158.133 156.2 157.453 156.2 156.76V156.38C156.2 155.66 156.313 154.967 156.54 154.3C156.78 153.62 157.127 153.02 157.58 152.5C158.047 151.967 158.62 151.547 159.3 151.24C159.98 150.92 160.767 150.76 161.66 150.76C162.833 150.76 163.813 151.02 164.6 151.54C165.4 152.047 166 152.72 166.4 153.56C166.8 154.387 167 155.28 167 156.24V157.24H157.38V155.54H165.26L164.4 156.38C164.4 155.687 164.3 155.093 164.1 154.6C163.9 154.107 163.593 153.727 163.18 153.46C162.78 153.193 162.273 153.06 161.66 153.06C161.047 153.06 160.527 153.2 160.1 153.48C159.673 153.76 159.347 154.167 159.12 154.7C158.907 155.22 158.8 155.847 158.8 156.58C158.8 157.26 158.907 157.867 159.12 158.4C159.333 158.92 159.66 159.333 160.1 159.64C160.54 159.933 161.1 160.08 161.78 160.08C162.46 160.08 163.013 159.947 163.44 159.68C163.867 159.4 164.14 159.06 164.26 158.66H166.82C166.66 159.407 166.353 160.06 165.9 160.62C165.447 161.18 164.867 161.613 164.16 161.92C163.467 162.227 162.673 162.38 161.78 162.38ZM178.139 162.36C177.379 162.36 176.679 162.22 176.039 161.94C175.399 161.66 174.845 161.267 174.379 160.76C173.912 160.253 173.552 159.667 173.299 159C173.045 158.32 172.919 157.587 172.919 156.8V156.38C172.919 155.607 173.039 154.88 173.279 154.2C173.532 153.52 173.879 152.927 174.319 152.42C174.772 151.913 175.312 151.52 175.939 151.24C176.579 150.947 177.285 150.8 178.059 150.8C178.912 150.8 179.659 150.987 180.299 151.36C180.952 151.72 181.472 152.267 181.859 153C182.245 153.733 182.459 154.653 182.499 155.76L181.679 154.8V147.4H184.459V162H182.259V157.38H182.739C182.699 158.487 182.472 159.413 182.059 160.16C181.645 160.893 181.099 161.447 180.419 161.82C179.752 162.18 178.992 162.36 178.139 162.36ZM178.759 160.02C179.305 160.02 179.805 159.9 180.259 159.66C180.712 159.407 181.072 159.047 181.339 158.58C181.619 158.1 181.759 157.54 181.759 156.9V156.1C181.759 155.46 181.619 154.927 181.339 154.5C181.059 154.06 180.692 153.727 180.239 153.5C179.785 153.26 179.292 153.14 178.759 153.14C178.159 153.14 177.625 153.287 177.159 153.58C176.705 153.86 176.345 154.26 176.079 154.78C175.825 155.3 175.699 155.907 175.699 156.6C175.699 157.293 175.832 157.9 176.099 158.42C176.365 158.927 176.725 159.32 177.179 159.6C177.645 159.88 178.172 160.02 178.759 160.02ZM192.483 162.38C191.55 162.38 190.73 162.22 190.023 161.9C189.33 161.58 188.75 161.153 188.283 160.62C187.83 160.073 187.483 159.467 187.243 158.8C187.016 158.133 186.903 157.453 186.903 156.76V156.38C186.903 155.66 187.016 154.967 187.243 154.3C187.483 153.62 187.83 153.02 188.283 152.5C188.75 151.967 189.323 151.547 190.003 151.24C190.683 150.92 191.47 150.76 192.363 150.76C193.536 150.76 194.516 151.02 195.303 151.54C196.103 152.047 196.703 152.72 197.103 153.56C197.503 154.387 197.703 155.28 197.703 156.24V157.24H188.083V155.54H195.963L195.103 156.38C195.103 155.687 195.003 155.093 194.803 154.6C194.603 154.107 194.296 153.727 193.883 153.46C193.483 153.193 192.976 153.06 192.363 153.06C191.75 153.06 191.23 153.2 190.803 153.48C190.376 153.76 190.05 154.167 189.823 154.7C189.61 155.22 189.503 155.847 189.503 156.58C189.503 157.26 189.61 157.867 189.823 158.4C190.036 158.92 190.363 159.333 190.803 159.64C191.243 159.933 191.803 160.08 192.483 160.08C193.163 160.08 193.716 159.947 194.143 159.68C194.57 159.4 194.843 159.06 194.963 158.66H197.523C197.363 159.407 197.056 160.06 196.603 160.62C196.15 161.18 195.57 161.613 194.863 161.92C194.17 162.227 193.376 162.38 192.483 162.38ZM204.482 162V147.4H207.262V162H204.482ZM203.122 149.48V147.4H207.262V149.48H203.122ZM217.015 162V158.78H216.555V155.2C216.555 154.573 216.402 154.107 216.095 153.8C215.789 153.493 215.315 153.34 214.675 153.34C214.342 153.34 213.942 153.347 213.475 153.36C213.009 153.373 212.535 153.393 212.055 153.42C211.589 153.433 211.169 153.453 210.795 153.48V151.12C211.102 151.093 211.449 151.067 211.835 151.04C212.222 151.013 212.615 151 213.015 151C213.429 150.987 213.815 150.98 214.175 150.98C215.295 150.98 216.222 151.127 216.955 151.42C217.702 151.713 218.262 152.173 218.635 152.8C219.022 153.427 219.215 154.247 219.215 155.26V162H217.015ZM213.515 162.28C212.729 162.28 212.035 162.14 211.435 161.86C210.849 161.58 210.389 161.18 210.055 160.66C209.735 160.14 209.575 159.513 209.575 158.78C209.575 157.98 209.769 157.327 210.155 156.82C210.555 156.313 211.109 155.933 211.815 155.68C212.535 155.427 213.375 155.3 214.335 155.3H216.855V156.96H214.295C213.655 156.96 213.162 157.12 212.815 157.44C212.482 157.747 212.315 158.147 212.315 158.64C212.315 159.133 212.482 159.533 212.815 159.84C213.162 160.147 213.655 160.3 214.295 160.3C214.682 160.3 215.035 160.233 215.355 160.1C215.689 159.953 215.962 159.713 216.175 159.38C216.402 159.033 216.529 158.567 216.555 157.98L217.235 158.76C217.169 159.52 216.982 160.16 216.675 160.68C216.382 161.2 215.969 161.6 215.435 161.88C214.915 162.147 214.275 162.28 213.515 162.28ZM226.51 166V151.14H228.71V155.82L228.37 155.8C228.423 154.693 228.65 153.767 229.05 153.02C229.463 152.273 230.01 151.72 230.69 151.36C231.37 150.987 232.13 150.8 232.97 150.8C233.743 150.8 234.436 150.94 235.05 151.22C235.676 151.5 236.21 151.893 236.65 152.4C237.103 152.907 237.45 153.5 237.69 154.18C237.93 154.847 238.05 155.567 238.05 156.34V156.76C238.05 157.547 237.93 158.28 237.69 158.96C237.463 159.627 237.123 160.22 236.67 160.74C236.23 161.247 235.696 161.647 235.07 161.94C234.443 162.22 233.743 162.36 232.97 162.36C232.156 162.36 231.41 162.193 230.73 161.86C230.063 161.513 229.523 160.987 229.11 160.28C228.696 159.56 228.463 158.633 228.41 157.5L229.29 158.84V166H226.51ZM232.27 160.02C232.87 160.02 233.39 159.873 233.83 159.58C234.283 159.287 234.636 158.88 234.89 158.36C235.143 157.827 235.27 157.227 235.27 156.56C235.27 155.867 235.143 155.267 234.89 154.76C234.636 154.253 234.283 153.86 233.83 153.58C233.39 153.287 232.87 153.14 232.27 153.14C231.723 153.14 231.216 153.26 230.75 153.5C230.296 153.74 229.923 154.093 229.63 154.56C229.35 155.027 229.21 155.587 229.21 156.24V157.04C229.21 157.667 229.356 158.2 229.65 158.64C229.943 159.08 230.323 159.42 230.79 159.66C231.256 159.9 231.75 160.02 232.27 160.02ZM240.494 162V151.14H242.694V155.74H242.634C242.634 154.18 242.967 153 243.634 152.2C244.301 151.4 245.281 151 246.574 151H246.974V153.42H246.214C245.281 153.42 244.554 153.673 244.034 154.18C243.527 154.673 243.274 155.393 243.274 156.34V162H240.494ZM253.976 162.38C253.016 162.38 252.169 162.227 251.436 161.92C250.702 161.613 250.082 161.2 249.576 160.68C249.069 160.147 248.682 159.547 248.416 158.88C248.162 158.213 248.036 157.52 248.036 156.8V156.38C248.036 155.633 248.169 154.927 248.436 154.26C248.716 153.58 249.109 152.98 249.616 152.46C250.136 151.927 250.762 151.513 251.496 151.22C252.229 150.913 253.056 150.76 253.976 150.76C254.896 150.76 255.722 150.913 256.456 151.22C257.189 151.513 257.809 151.927 258.316 152.46C258.836 152.98 259.229 153.58 259.496 154.26C259.762 154.927 259.896 155.633 259.896 156.38V156.8C259.896 157.52 259.762 158.213 259.496 158.88C259.242 159.547 258.862 160.147 258.356 160.68C257.849 161.2 257.229 161.613 256.496 161.92C255.762 162.227 254.922 162.38 253.976 162.38ZM253.976 160C254.656 160 255.229 159.853 255.696 159.56C256.162 159.253 256.516 158.847 256.756 158.34C256.996 157.82 257.116 157.233 257.116 156.58C257.116 155.913 256.989 155.327 256.736 154.82C256.496 154.3 256.136 153.893 255.656 153.6C255.189 153.293 254.629 153.14 253.976 153.14C253.322 153.14 252.756 153.293 252.276 153.6C251.809 153.893 251.449 154.3 251.196 154.82C250.942 155.327 250.816 155.913 250.816 156.58C250.816 157.233 250.936 157.82 251.176 158.34C251.429 158.847 251.789 159.253 252.256 159.56C252.722 159.853 253.296 160 253.976 160ZM267.05 162.14C266.05 162.14 265.223 162.013 264.57 161.76C263.93 161.493 263.45 161.053 263.13 160.44C262.81 159.813 262.65 158.973 262.65 157.92L262.67 148.08H265.27L265.25 158.1C265.25 158.633 265.39 159.047 265.67 159.34C265.963 159.62 266.377 159.76 266.91 159.76H268.61V162.14H267.05ZM260.93 153.18V151.14H268.61V153.18H260.93ZM270.943 162V147.4H273.723V155.92H273.243C273.243 154.827 273.383 153.9 273.663 153.14C273.943 152.38 274.357 151.8 274.903 151.4C275.463 151 276.17 150.8 277.023 150.8H277.143C278.383 150.8 279.323 151.227 279.963 152.08C280.603 152.933 280.923 154.173 280.923 155.8V162H278.143V155.54C278.143 154.847 277.943 154.3 277.543 153.9C277.157 153.5 276.643 153.3 276.003 153.3C275.323 153.3 274.77 153.527 274.343 153.98C273.93 154.42 273.723 155 273.723 155.72V162H270.943ZM288.772 162.38C287.839 162.38 287.019 162.22 286.312 161.9C285.619 161.58 285.039 161.153 284.572 160.62C284.119 160.073 283.772 159.467 283.532 158.8C283.305 158.133 283.192 157.453 283.192 156.76V156.38C283.192 155.66 283.305 154.967 283.532 154.3C283.772 153.62 284.119 153.02 284.572 152.5C285.039 151.967 285.612 151.547 286.292 151.24C286.972 150.92 287.759 150.76 288.652 150.76C289.825 150.76 290.805 151.02 291.592 151.54C292.392 152.047 292.992 152.72 293.392 153.56C293.792 154.387 293.992 155.28 293.992 156.24V157.24H284.372V155.54H292.252L291.392 156.38C291.392 155.687 291.292 155.093 291.092 154.6C290.892 154.107 290.585 153.727 290.172 153.46C289.772 153.193 289.265 153.06 288.652 153.06C288.039 153.06 287.519 153.2 287.092 153.48C286.665 153.76 286.339 154.167 286.112 154.7C285.899 155.22 285.792 155.847 285.792 156.58C285.792 157.26 285.899 157.867 286.112 158.4C286.325 158.92 286.652 159.333 287.092 159.64C287.532 159.933 288.092 160.08 288.772 160.08C289.452 160.08 290.005 159.947 290.432 159.68C290.859 159.4 291.132 159.06 291.252 158.66H293.812C293.652 159.407 293.345 160.06 292.892 160.62C292.439 161.18 291.859 161.613 291.152 161.92C290.459 162.227 289.665 162.38 288.772 162.38ZM287.552 149.76L285.312 145.66H288.272L290.012 149.76H287.552ZM300.254 162.34C298.761 162.34 297.588 162.027 296.734 161.4C295.894 160.76 295.454 159.88 295.414 158.76H297.914C297.954 159.133 298.161 159.473 298.534 159.78C298.908 160.087 299.494 160.24 300.294 160.24C300.961 160.24 301.488 160.12 301.874 159.88C302.274 159.64 302.474 159.313 302.474 158.9C302.474 158.54 302.321 158.253 302.014 158.04C301.721 157.827 301.214 157.687 300.494 157.62L299.534 157.52C298.321 157.387 297.388 157.04 296.734 156.48C296.081 155.92 295.754 155.173 295.754 154.24C295.754 153.493 295.941 152.867 296.314 152.36C296.688 151.853 297.201 151.473 297.854 151.22C298.521 150.953 299.281 150.82 300.134 150.82C301.468 150.82 302.548 151.113 303.374 151.7C304.201 152.287 304.634 153.147 304.674 154.28H302.174C302.148 153.907 301.961 153.587 301.614 153.32C301.268 153.053 300.768 152.92 300.114 152.92C299.528 152.92 299.074 153.033 298.754 153.26C298.434 153.487 298.274 153.78 298.274 154.14C298.274 154.487 298.401 154.753 298.654 154.94C298.921 155.127 299.348 155.253 299.934 155.32L300.894 155.42C302.174 155.553 303.174 155.907 303.894 156.48C304.628 157.053 304.994 157.827 304.994 158.8C304.994 159.52 304.794 160.147 304.394 160.68C304.008 161.2 303.461 161.607 302.754 161.9C302.048 162.193 301.214 162.34 300.254 162.34ZM312.151 162.38C311.218 162.38 310.398 162.22 309.691 161.9C308.998 161.58 308.418 161.153 307.951 160.62C307.498 160.073 307.151 159.467 306.911 158.8C306.684 158.133 306.571 157.453 306.571 156.76V156.38C306.571 155.66 306.684 154.967 306.911 154.3C307.151 153.62 307.498 153.02 307.951 152.5C308.418 151.967 308.991 151.547 309.671 151.24C310.351 150.92 311.138 150.76 312.031 150.76C313.204 150.76 314.184 151.02 314.971 151.54C315.771 152.047 316.371 152.72 316.771 153.56C317.171 154.387 317.371 155.28 317.371 156.24V157.24H307.751V155.54H315.631L314.771 156.38C314.771 155.687 314.671 155.093 314.471 154.6C314.271 154.107 313.964 153.727 313.551 153.46C313.151 153.193 312.644 153.06 312.031 153.06C311.418 153.06 310.898 153.2 310.471 153.48C310.044 153.76 309.718 154.167 309.491 154.7C309.278 155.22 309.171 155.847 309.171 156.58C309.171 157.26 309.278 157.867 309.491 158.4C309.704 158.92 310.031 159.333 310.471 159.64C310.911 159.933 311.471 160.08 312.151 160.08C312.831 160.08 313.384 159.947 313.811 159.68C314.238 159.4 314.511 159.06 314.631 158.66H317.191C317.031 159.407 316.724 160.06 316.271 160.62C315.818 161.18 315.238 161.613 314.531 161.92C313.838 162.227 313.044 162.38 312.151 162.38ZM328.51 162.36C327.75 162.36 327.05 162.22 326.41 161.94C325.77 161.66 325.216 161.267 324.75 160.76C324.283 160.253 323.923 159.667 323.67 159C323.416 158.32 323.29 157.587 323.29 156.8V156.38C323.29 155.607 323.41 154.88 323.65 154.2C323.903 153.52 324.25 152.927 324.69 152.42C325.143 151.913 325.683 151.52 326.31 151.24C326.95 150.947 327.656 150.8 328.43 150.8C329.283 150.8 330.03 150.987 330.67 151.36C331.323 151.72 331.843 152.267 332.23 153C332.616 153.733 332.83 154.653 332.87 155.76L332.05 154.8V147.4H334.83V162H332.63V157.38H333.11C333.07 158.487 332.843 159.413 332.43 160.16C332.016 160.893 331.47 161.447 330.79 161.82C330.123 162.18 329.363 162.36 328.51 162.36ZM329.13 160.02C329.676 160.02 330.176 159.9 330.63 159.66C331.083 159.407 331.443 159.047 331.71 158.58C331.99 158.1 332.13 157.54 332.13 156.9V156.1C332.13 155.46 331.99 154.927 331.71 154.5C331.43 154.06 331.063 153.727 330.61 153.5C330.156 153.26 329.663 153.14 329.13 153.14C328.53 153.14 327.996 153.287 327.53 153.58C327.076 153.86 326.716 154.26 326.45 154.78C326.196 155.3 326.07 155.907 326.07 156.6C326.07 157.293 326.203 157.9 326.47 158.42C326.736 158.927 327.096 159.32 327.55 159.6C328.016 159.88 328.543 160.02 329.13 160.02ZM342.854 162.38C341.921 162.38 341.101 162.22 340.394 161.9C339.701 161.58 339.121 161.153 338.654 160.62C338.201 160.073 337.854 159.467 337.614 158.8C337.387 158.133 337.274 157.453 337.274 156.76V156.38C337.274 155.66 337.387 154.967 337.614 154.3C337.854 153.62 338.201 153.02 338.654 152.5C339.121 151.967 339.694 151.547 340.374 151.24C341.054 150.92 341.841 150.76 342.734 150.76C343.907 150.76 344.887 151.02 345.674 151.54C346.474 152.047 347.074 152.72 347.474 153.56C347.874 154.387 348.074 155.28 348.074 156.24V157.24H338.454V155.54H346.334L345.474 156.38C345.474 155.687 345.374 155.093 345.174 154.6C344.974 154.107 344.667 153.727 344.254 153.46C343.854 153.193 343.347 153.06 342.734 153.06C342.121 153.06 341.601 153.2 341.174 153.48C340.747 153.76 340.421 154.167 340.194 154.7C339.981 155.22 339.874 155.847 339.874 156.58C339.874 157.26 339.981 157.867 340.194 158.4C340.407 158.92 340.734 159.333 341.174 159.64C341.614 159.933 342.174 160.08 342.854 160.08C343.534 160.08 344.087 159.947 344.514 159.68C344.941 159.4 345.214 159.06 345.334 158.66H347.894C347.734 159.407 347.427 160.06 346.974 160.62C346.521 161.18 345.941 161.613 345.234 161.92C344.541 162.227 343.747 162.38 342.854 162.38ZM350.396 162V151.14H352.596V155.8H352.396C352.396 154.693 352.543 153.773 352.836 153.04C353.13 152.293 353.563 151.733 354.136 151.36C354.723 150.987 355.45 150.8 356.316 150.8H356.436C357.73 150.8 358.71 151.22 359.376 152.06C360.043 152.887 360.376 154.127 360.376 155.78V162H357.596V155.54C357.596 154.873 357.403 154.333 357.016 153.92C356.643 153.507 356.123 153.3 355.456 153.3C354.776 153.3 354.223 153.513 353.796 153.94C353.383 154.353 353.176 154.913 353.176 155.62V162H350.396ZM368.085 162.14C367.085 162.14 366.258 162.013 365.605 161.76C364.965 161.493 364.485 161.053 364.165 160.44C363.845 159.813 363.685 158.973 363.685 157.92L363.705 148.08H366.305L366.285 158.1C366.285 158.633 366.425 159.047 366.705 159.34C366.998 159.62 367.412 159.76 367.945 159.76H369.645V162.14H368.085ZM361.965 153.18V151.14H369.645V153.18H361.965ZM378.519 162V158.78H378.059V155.2C378.059 154.573 377.906 154.107 377.599 153.8C377.293 153.493 376.819 153.34 376.179 153.34C375.846 153.34 375.446 153.347 374.979 153.36C374.513 153.373 374.039 153.393 373.559 153.42C373.093 153.433 372.673 153.453 372.299 153.48V151.12C372.606 151.093 372.953 151.067 373.339 151.04C373.726 151.013 374.119 151 374.519 151C374.933 150.987 375.319 150.98 375.679 150.98C376.799 150.98 377.726 151.127 378.459 151.42C379.206 151.713 379.766 152.173 380.139 152.8C380.526 153.427 380.719 154.247 380.719 155.26V162H378.519ZM375.019 162.28C374.233 162.28 373.539 162.14 372.939 161.86C372.353 161.58 371.893 161.18 371.559 160.66C371.239 160.14 371.079 159.513 371.079 158.78C371.079 157.98 371.273 157.327 371.659 156.82C372.059 156.313 372.613 155.933 373.319 155.68C374.039 155.427 374.879 155.3 375.839 155.3H378.359V156.96H375.799C375.159 156.96 374.666 157.12 374.319 157.44C373.986 157.747 373.819 158.147 373.819 158.64C373.819 159.133 373.986 159.533 374.319 159.84C374.666 160.147 375.159 160.3 375.799 160.3C376.186 160.3 376.539 160.233 376.859 160.1C377.193 159.953 377.466 159.713 377.679 159.38C377.906 159.033 378.033 158.567 378.059 157.98L378.739 158.76C378.673 159.52 378.486 160.16 378.179 160.68C377.886 161.2 377.473 161.6 376.939 161.88C376.419 162.147 375.779 162.28 375.019 162.28ZM384.217 162V151.14H386.997V162H384.217ZM382.697 153.22V151.14H386.997V153.22H382.697ZM385.237 149.84C384.691 149.84 384.284 149.7 384.017 149.42C383.764 149.127 383.637 148.767 383.637 148.34C383.637 147.887 383.764 147.52 384.017 147.24C384.284 146.96 384.691 146.82 385.237 146.82C385.784 146.82 386.184 146.96 386.437 147.24C386.691 147.52 386.817 147.887 386.817 148.34C386.817 148.767 386.691 149.127 386.437 149.42C386.184 149.7 385.784 149.84 385.237 149.84ZM390.201 162V151.14H392.401V155.74H392.341C392.341 154.18 392.674 153 393.341 152.2C394.008 151.4 394.988 151 396.281 151H396.681V153.42H395.921C394.988 153.42 394.261 153.673 393.741 154.18C393.234 154.673 392.981 155.393 392.981 156.34V162H390.201ZM403.323 162.38C402.389 162.38 401.569 162.22 400.863 161.9C400.169 161.58 399.589 161.153 399.123 160.62C398.669 160.073 398.323 159.467 398.083 158.8C397.856 158.133 397.743 157.453 397.743 156.76V156.38C397.743 155.66 397.856 154.967 398.083 154.3C398.323 153.62 398.669 153.02 399.123 152.5C399.589 151.967 400.163 151.547 400.843 151.24C401.523 150.92 402.309 150.76 403.203 150.76C404.376 150.76 405.356 151.02 406.143 151.54C406.943 152.047 407.543 152.72 407.943 153.56C408.343 154.387 408.543 155.28 408.543 156.24V157.24H398.923V155.54H406.803L405.943 156.38C405.943 155.687 405.843 155.093 405.643 154.6C405.443 154.107 405.136 153.727 404.723 153.46C404.323 153.193 403.816 153.06 403.203 153.06C402.589 153.06 402.069 153.2 401.643 153.48C401.216 153.76 400.889 154.167 400.663 154.7C400.449 155.22 400.343 155.847 400.343 156.58C400.343 157.26 400.449 157.867 400.663 158.4C400.876 158.92 401.203 159.333 401.643 159.64C402.083 159.933 402.643 160.08 403.323 160.08C404.003 160.08 404.556 159.947 404.983 159.68C405.409 159.4 405.683 159.06 405.803 158.66H408.363C408.203 159.407 407.896 160.06 407.443 160.62C406.989 161.18 406.409 161.613 405.703 161.92C405.009 162.227 404.216 162.38 403.323 162.38Z" fill="#424242"/>
<circle cx="53" cy="196" r="10.5" stroke="#DADADA" stroke-width="3"/>
<circle cx="53" cy="196" r="7" fill="#0C76F8"/>
<path d="M78.8 203V188.4H81.58V203H78.8ZM81.18 203V200.6H87.8V203H81.18ZM81.18 196.78V194.38H87.28V196.78H81.18ZM81.18 190.8V188.4H87.64V190.8H81.18ZM95.0602 203.38C94.1135 203.38 93.2935 203.22 92.6002 202.9C91.9202 202.58 91.3468 202.153 90.8802 201.62C90.4268 201.087 90.0868 200.487 89.8602 199.82C89.6335 199.153 89.5202 198.473 89.5202 197.78V197.4C89.5202 196.667 89.6335 195.967 89.8602 195.3C90.1002 194.62 90.4535 194.02 90.9202 193.5C91.3868 192.967 91.9602 192.547 92.6402 192.24C93.3335 191.92 94.1335 191.76 95.0402 191.76C95.9868 191.76 96.8335 191.947 97.5802 192.32C98.3268 192.68 98.9202 193.187 99.3602 193.84C99.8135 194.493 100.067 195.253 100.12 196.12H97.4202C97.3535 195.56 97.1135 195.093 96.7002 194.72C96.3002 194.347 95.7468 194.16 95.0402 194.16C94.4268 194.16 93.9135 194.307 93.5002 194.6C93.1002 194.893 92.8002 195.3 92.6002 195.82C92.4002 196.327 92.3002 196.913 92.3002 197.58C92.3002 198.22 92.3935 198.8 92.5802 199.32C92.7802 199.84 93.0802 200.247 93.4802 200.54C93.8935 200.833 94.4202 200.98 95.0602 200.98C95.5402 200.98 95.9535 200.893 96.3002 200.72C96.6468 200.547 96.9202 200.307 97.1202 200C97.3335 199.693 97.4668 199.347 97.5202 198.96H100.22C100.167 199.84 99.9068 200.613 99.4402 201.28C98.9868 201.933 98.3802 202.447 97.6202 202.82C96.8735 203.193 96.0202 203.38 95.0602 203.38ZM102.447 203V188.4H105.227V196.92H104.747C104.747 195.827 104.887 194.9 105.167 194.14C105.447 193.38 105.861 192.8 106.407 192.4C106.967 192 107.674 191.8 108.527 191.8H108.647C109.887 191.8 110.827 192.227 111.467 193.08C112.107 193.933 112.427 195.173 112.427 196.8V203H109.647V196.54C109.647 195.847 109.447 195.3 109.047 194.9C108.661 194.5 108.147 194.3 107.507 194.3C106.827 194.3 106.274 194.527 105.847 194.98C105.434 195.42 105.227 196 105.227 196.72V203H102.447ZM121.996 203V199.78H121.536V196.2C121.536 195.573 121.383 195.107 121.076 194.8C120.769 194.493 120.296 194.34 119.656 194.34C119.323 194.34 118.923 194.347 118.456 194.36C117.989 194.373 117.516 194.393 117.036 194.42C116.569 194.433 116.149 194.453 115.776 194.48V192.12C116.083 192.093 116.429 192.067 116.816 192.04C117.203 192.013 117.596 192 117.996 192C118.409 191.987 118.796 191.98 119.156 191.98C120.276 191.98 121.203 192.127 121.936 192.42C122.683 192.713 123.243 193.173 123.616 193.8C124.003 194.427 124.196 195.247 124.196 196.26V203H121.996ZM118.496 203.28C117.709 203.28 117.016 203.14 116.416 202.86C115.829 202.58 115.369 202.18 115.036 201.66C114.716 201.14 114.556 200.513 114.556 199.78C114.556 198.98 114.749 198.327 115.136 197.82C115.536 197.313 116.089 196.933 116.796 196.68C117.516 196.427 118.356 196.3 119.316 196.3H121.836V197.96H119.276C118.636 197.96 118.143 198.12 117.796 198.44C117.463 198.747 117.296 199.147 117.296 199.64C117.296 200.133 117.463 200.533 117.796 200.84C118.143 201.147 118.636 201.3 119.276 201.3C119.663 201.3 120.016 201.233 120.336 201.1C120.669 200.953 120.943 200.713 121.156 200.38C121.383 200.033 121.509 199.567 121.536 198.98L122.216 199.76C122.149 200.52 121.963 201.16 121.656 201.68C121.363 202.2 120.949 202.6 120.416 202.88C119.896 203.147 119.256 203.28 118.496 203.28ZM127.174 203V192.14H129.374V196.8H129.174C129.174 195.693 129.32 194.773 129.614 194.04C129.907 193.293 130.34 192.733 130.914 192.36C131.5 191.987 132.227 191.8 133.094 191.8H133.214C134.507 191.8 135.487 192.22 136.154 193.06C136.82 193.887 137.154 195.127 137.154 196.78V203H134.374V196.54C134.374 195.873 134.18 195.333 133.794 194.92C133.42 194.507 132.9 194.3 132.234 194.3C131.554 194.3 131 194.513 130.574 194.94C130.16 195.353 129.954 195.913 129.954 196.62V203H127.174ZM144.383 207.28C143.863 207.28 143.329 207.26 142.783 207.22C142.249 207.18 141.749 207.127 141.283 207.06V204.74C141.763 204.793 142.276 204.84 142.823 204.88C143.369 204.933 143.883 204.96 144.363 204.96C145.256 204.96 145.976 204.853 146.523 204.64C147.083 204.427 147.489 204.087 147.743 203.62C148.009 203.167 148.143 202.587 148.143 201.88V199.74L148.743 198.38C148.703 199.38 148.496 200.233 148.123 200.94C147.749 201.633 147.243 202.167 146.603 202.54C145.963 202.9 145.223 203.08 144.383 203.08C143.636 203.08 142.956 202.94 142.343 202.66C141.743 202.38 141.223 201.993 140.783 201.5C140.356 201.007 140.023 200.427 139.783 199.76C139.543 199.093 139.423 198.38 139.423 197.62V197.2C139.423 196.44 139.543 195.733 139.783 195.08C140.036 194.413 140.389 193.833 140.843 193.34C141.296 192.847 141.836 192.467 142.463 192.2C143.089 191.933 143.783 191.8 144.543 191.8C145.436 191.8 146.209 191.993 146.863 192.38C147.529 192.767 148.049 193.327 148.423 194.06C148.796 194.793 149.003 195.693 149.043 196.76L148.562 196.84V192.14H150.763V201.72C150.763 203.04 150.536 204.107 150.083 204.92C149.629 205.733 148.929 206.327 147.983 206.7C147.049 207.087 145.849 207.28 144.383 207.28ZM145.183 200.7C145.716 200.7 146.203 200.58 146.643 200.34C147.083 200.1 147.436 199.753 147.703 199.3C147.969 198.847 148.103 198.3 148.103 197.66V196.96C148.103 196.347 147.963 195.827 147.683 195.4C147.416 194.973 147.063 194.653 146.623 194.44C146.183 194.213 145.703 194.1 145.183 194.1C144.596 194.1 144.076 194.24 143.623 194.52C143.183 194.787 142.836 195.167 142.583 195.66C142.329 196.153 142.203 196.74 142.203 197.42C142.203 198.087 142.329 198.667 142.583 199.16C142.836 199.653 143.183 200.033 143.623 200.3C144.076 200.567 144.596 200.7 145.183 200.7ZM158.655 203.38C157.722 203.38 156.902 203.22 156.195 202.9C155.502 202.58 154.922 202.153 154.455 201.62C154.002 201.073 153.655 200.467 153.415 199.8C153.188 199.133 153.075 198.453 153.075 197.76V197.38C153.075 196.66 153.188 195.967 153.415 195.3C153.655 194.62 154.002 194.02 154.455 193.5C154.922 192.967 155.495 192.547 156.175 192.24C156.855 191.92 157.642 191.76 158.535 191.76C159.708 191.76 160.688 192.02 161.475 192.54C162.275 193.047 162.875 193.72 163.275 194.56C163.675 195.387 163.875 196.28 163.875 197.24V198.24H154.255V196.54H162.135L161.275 197.38C161.275 196.687 161.175 196.093 160.975 195.6C160.775 195.107 160.468 194.727 160.055 194.46C159.655 194.193 159.148 194.06 158.535 194.06C157.922 194.06 157.402 194.2 156.975 194.48C156.548 194.76 156.222 195.167 155.995 195.7C155.782 196.22 155.675 196.847 155.675 197.58C155.675 198.26 155.782 198.867 155.995 199.4C156.208 199.92 156.535 200.333 156.975 200.64C157.415 200.933 157.975 201.08 158.655 201.08C159.335 201.08 159.888 200.947 160.315 200.68C160.742 200.4 161.015 200.06 161.135 199.66H163.695C163.535 200.407 163.228 201.06 162.775 201.62C162.322 202.18 161.742 202.613 161.035 202.92C160.342 203.227 159.548 203.38 158.655 203.38ZM170.137 203.34C168.644 203.34 167.471 203.027 166.617 202.4C165.777 201.76 165.337 200.88 165.297 199.76H167.797C167.837 200.133 168.044 200.473 168.417 200.78C168.791 201.087 169.377 201.24 170.177 201.24C170.844 201.24 171.371 201.12 171.757 200.88C172.157 200.64 172.357 200.313 172.357 199.9C172.357 199.54 172.204 199.253 171.897 199.04C171.604 198.827 171.097 198.687 170.377 198.62L169.417 198.52C168.204 198.387 167.271 198.04 166.617 197.48C165.964 196.92 165.637 196.173 165.637 195.24C165.637 194.493 165.824 193.867 166.197 193.36C166.571 192.853 167.084 192.473 167.737 192.22C168.404 191.953 169.164 191.82 170.017 191.82C171.351 191.82 172.431 192.113 173.257 192.7C174.084 193.287 174.517 194.147 174.557 195.28H172.057C172.031 194.907 171.844 194.587 171.497 194.32C171.151 194.053 170.651 193.92 169.997 193.92C169.411 193.92 168.957 194.033 168.637 194.26C168.317 194.487 168.157 194.78 168.157 195.14C168.157 195.487 168.284 195.753 168.537 195.94C168.804 196.127 169.231 196.253 169.817 196.32L170.777 196.42C172.057 196.553 173.057 196.907 173.777 197.48C174.511 198.053 174.877 198.827 174.877 199.8C174.877 200.52 174.677 201.147 174.277 201.68C173.891 202.2 173.344 202.607 172.637 202.9C171.931 203.193 171.097 203.34 170.137 203.34ZM188.07 203V199.78H187.61V196.2C187.61 195.573 187.457 195.107 187.15 194.8C186.843 194.493 186.37 194.34 185.73 194.34C185.397 194.34 184.997 194.347 184.53 194.36C184.063 194.373 183.59 194.393 183.11 194.42C182.643 194.433 182.223 194.453 181.85 194.48V192.12C182.157 192.093 182.503 192.067 182.89 192.04C183.277 192.013 183.67 192 184.07 192C184.483 191.987 184.87 191.98 185.23 191.98C186.35 191.98 187.277 192.127 188.01 192.42C188.757 192.713 189.317 193.173 189.69 193.8C190.077 194.427 190.27 195.247 190.27 196.26V203H188.07ZM184.57 203.28C183.783 203.28 183.09 203.14 182.49 202.86C181.903 202.58 181.443 202.18 181.11 201.66C180.79 201.14 180.63 200.513 180.63 199.78C180.63 198.98 180.823 198.327 181.21 197.82C181.61 197.313 182.163 196.933 182.87 196.68C183.59 196.427 184.43 196.3 185.39 196.3H187.91V197.96H185.35C184.71 197.96 184.217 198.12 183.87 198.44C183.537 198.747 183.37 199.147 183.37 199.64C183.37 200.133 183.537 200.533 183.87 200.84C184.217 201.147 184.71 201.3 185.35 201.3C185.737 201.3 186.09 201.233 186.41 201.1C186.743 200.953 187.017 200.713 187.23 200.38C187.457 200.033 187.583 199.567 187.61 198.98L188.29 199.76C188.223 200.52 188.037 201.16 187.73 201.68C187.437 202.2 187.023 202.6 186.49 202.88C185.97 203.147 185.33 203.28 184.57 203.28ZM195.291 203L191.891 192.14H194.751L198.011 203H195.291ZM196.111 203V200.72H199.051V203H196.111ZM197.211 203L200.011 192.14H202.691L199.751 203H197.211ZM209.417 203.38C208.483 203.38 207.663 203.22 206.957 202.9C206.263 202.58 205.683 202.153 205.217 201.62C204.763 201.073 204.417 200.467 204.177 199.8C203.95 199.133 203.837 198.453 203.837 197.76V197.38C203.837 196.66 203.95 195.967 204.177 195.3C204.417 194.62 204.763 194.02 205.217 193.5C205.683 192.967 206.257 192.547 206.937 192.24C207.617 191.92 208.403 191.76 209.297 191.76C210.47 191.76 211.45 192.02 212.237 192.54C213.037 193.047 213.637 193.72 214.037 194.56C214.437 195.387 214.637 196.28 214.637 197.24V198.24H205.017V196.54H212.897L212.037 197.38C212.037 196.687 211.937 196.093 211.737 195.6C211.537 195.107 211.23 194.727 210.817 194.46C210.417 194.193 209.91 194.06 209.297 194.06C208.683 194.06 208.163 194.2 207.737 194.48C207.31 194.76 206.983 195.167 206.757 195.7C206.543 196.22 206.437 196.847 206.437 197.58C206.437 198.26 206.543 198.867 206.757 199.4C206.97 199.92 207.297 200.333 207.737 200.64C208.177 200.933 208.737 201.08 209.417 201.08C210.097 201.08 210.65 200.947 211.077 200.68C211.503 200.4 211.777 200.06 211.897 199.66H214.457C214.297 200.407 213.99 201.06 213.537 201.62C213.083 202.18 212.503 202.613 211.797 202.92C211.103 203.227 210.31 203.38 209.417 203.38ZM221.779 203.38C220.832 203.38 220.012 203.22 219.319 202.9C218.639 202.58 218.066 202.153 217.599 201.62C217.146 201.087 216.806 200.487 216.579 199.82C216.352 199.153 216.239 198.473 216.239 197.78V197.4C216.239 196.667 216.352 195.967 216.579 195.3C216.819 194.62 217.172 194.02 217.639 193.5C218.106 192.967 218.679 192.547 219.359 192.24C220.052 191.92 220.852 191.76 221.759 191.76C222.706 191.76 223.552 191.947 224.299 192.32C225.046 192.68 225.639 193.187 226.079 193.84C226.532 194.493 226.786 195.253 226.839 196.12H224.139C224.072 195.56 223.832 195.093 223.419 194.72C223.019 194.347 222.466 194.16 221.759 194.16C221.146 194.16 220.632 194.307 220.219 194.6C219.819 194.893 219.519 195.3 219.319 195.82C219.119 196.327 219.019 196.913 219.019 197.58C219.019 198.22 219.112 198.8 219.299 199.32C219.499 199.84 219.799 200.247 220.199 200.54C220.612 200.833 221.139 200.98 221.779 200.98C222.259 200.98 222.672 200.893 223.019 200.72C223.366 200.547 223.639 200.307 223.839 200C224.052 199.693 224.186 199.347 224.239 198.96H226.939C226.886 199.84 226.626 200.613 226.159 201.28C225.706 201.933 225.099 202.447 224.339 202.82C223.592 203.193 222.739 203.38 221.779 203.38ZM233.622 203V188.4H236.402V203H233.622ZM232.262 190.48V188.4H236.402V190.48H232.262ZM244.436 203.38C243.503 203.38 242.683 203.22 241.976 202.9C241.283 202.58 240.703 202.153 240.236 201.62C239.783 201.073 239.436 200.467 239.196 199.8C238.969 199.133 238.856 198.453 238.856 197.76V197.38C238.856 196.66 238.969 195.967 239.196 195.3C239.436 194.62 239.783 194.02 240.236 193.5C240.703 192.967 241.276 192.547 241.956 192.24C242.636 191.92 243.423 191.76 244.316 191.76C245.489 191.76 246.469 192.02 247.256 192.54C248.056 193.047 248.656 193.72 249.056 194.56C249.456 195.387 249.656 196.28 249.656 197.24V198.24H240.036V196.54H247.916L247.056 197.38C247.056 196.687 246.956 196.093 246.756 195.6C246.556 195.107 246.249 194.727 245.836 194.46C245.436 194.193 244.929 194.06 244.316 194.06C243.703 194.06 243.183 194.2 242.756 194.48C242.329 194.76 242.003 195.167 241.776 195.7C241.563 196.22 241.456 196.847 241.456 197.58C241.456 198.26 241.563 198.867 241.776 199.4C241.989 199.92 242.316 200.333 242.756 200.64C243.196 200.933 243.756 201.08 244.436 201.08C245.116 201.08 245.669 200.947 246.096 200.68C246.523 200.4 246.796 200.06 246.916 199.66H249.476C249.316 200.407 249.009 201.06 248.556 201.62C248.103 202.18 247.523 202.613 246.816 202.92C246.123 203.227 245.329 203.38 244.436 203.38ZM255.918 203.34C254.425 203.34 253.252 203.027 252.398 202.4C251.558 201.76 251.118 200.88 251.078 199.76H253.578C253.618 200.133 253.825 200.473 254.198 200.78C254.572 201.087 255.158 201.24 255.958 201.24C256.625 201.24 257.152 201.12 257.538 200.88C257.938 200.64 258.138 200.313 258.138 199.9C258.138 199.54 257.985 199.253 257.678 199.04C257.385 198.827 256.878 198.687 256.158 198.62L255.198 198.52C253.985 198.387 253.052 198.04 252.398 197.48C251.745 196.92 251.418 196.173 251.418 195.24C251.418 194.493 251.605 193.867 251.978 193.36C252.352 192.853 252.865 192.473 253.518 192.22C254.185 191.953 254.945 191.82 255.798 191.82C257.132 191.82 258.212 192.113 259.038 192.7C259.865 193.287 260.298 194.147 260.338 195.28H257.838C257.812 194.907 257.625 194.587 257.278 194.32C256.932 194.053 256.432 193.92 255.778 193.92C255.192 193.92 254.738 194.033 254.418 194.26C254.098 194.487 253.938 194.78 253.938 195.14C253.938 195.487 254.065 195.753 254.318 195.94C254.585 196.127 255.012 196.253 255.598 196.32L256.558 196.42C257.838 196.553 258.838 196.907 259.558 197.48C260.292 198.053 260.658 198.827 260.658 199.8C260.658 200.52 260.458 201.147 260.058 201.68C259.672 202.2 259.125 202.607 258.418 202.9C257.712 203.193 256.878 203.34 255.918 203.34ZM267.411 203V188.4H270.191V203H267.411ZM266.051 190.48V188.4H270.191V190.48H266.051ZM279.945 203V199.78H279.485V196.2C279.485 195.573 279.332 195.107 279.025 194.8C278.718 194.493 278.245 194.34 277.605 194.34C277.272 194.34 276.872 194.347 276.405 194.36C275.938 194.373 275.465 194.393 274.985 194.42C274.518 194.433 274.098 194.453 273.725 194.48V192.12C274.032 192.093 274.378 192.067 274.765 192.04C275.152 192.013 275.545 192 275.945 192C276.358 191.987 276.745 191.98 277.105 191.98C278.225 191.98 279.152 192.127 279.885 192.42C280.632 192.713 281.192 193.173 281.565 193.8C281.952 194.427 282.145 195.247 282.145 196.26V203H279.945ZM276.445 203.28C275.658 203.28 274.965 203.14 274.365 202.86C273.778 202.58 273.318 202.18 272.985 201.66C272.665 201.14 272.505 200.513 272.505 199.78C272.505 198.98 272.698 198.327 273.085 197.82C273.485 197.313 274.038 196.933 274.745 196.68C275.465 196.427 276.305 196.3 277.265 196.3H279.785V197.96H277.225C276.585 197.96 276.092 198.12 275.745 198.44C275.412 198.747 275.245 199.147 275.245 199.64C275.245 200.133 275.412 200.533 275.745 200.84C276.092 201.147 276.585 201.3 277.225 201.3C277.612 201.3 277.965 201.233 278.285 201.1C278.618 200.953 278.892 200.713 279.105 200.38C279.332 200.033 279.458 199.567 279.485 198.98L280.165 199.76C280.098 200.52 279.912 201.16 279.605 201.68C279.312 202.2 278.898 202.6 278.365 202.88C277.845 203.147 277.205 203.28 276.445 203.28ZM291.503 203.36C290.61 203.36 289.823 203.173 289.143 202.8C288.463 202.413 287.93 201.853 287.543 201.12C287.156 200.387 286.943 199.5 286.903 198.46H287.323V203H285.123V188.4H287.903V195.7L287.163 196.84C287.216 195.72 287.436 194.787 287.823 194.04C288.223 193.293 288.756 192.733 289.423 192.36C290.09 191.987 290.843 191.8 291.683 191.8C292.43 191.8 293.11 191.94 293.723 192.22C294.336 192.5 294.863 192.893 295.303 193.4C295.743 193.893 296.076 194.473 296.303 195.14C296.543 195.807 296.663 196.533 296.663 197.32V197.74C296.663 198.527 296.543 199.26 296.303 199.94C296.063 200.62 295.716 201.22 295.263 201.74C294.81 202.247 294.263 202.647 293.623 202.94C292.996 203.22 292.29 203.36 291.503 203.36ZM290.883 201.02C291.483 201.02 292.003 200.873 292.443 200.58C292.896 200.273 293.25 199.86 293.503 199.34C293.756 198.82 293.883 198.22 293.883 197.54C293.883 196.847 293.756 196.247 293.503 195.74C293.25 195.233 292.896 194.84 292.443 194.56C292.003 194.28 291.483 194.14 290.883 194.14C290.336 194.14 289.83 194.26 289.363 194.5C288.91 194.74 288.536 195.093 288.243 195.56C287.963 196.027 287.823 196.587 287.823 197.24V198.04C287.823 198.667 287.97 199.2 288.263 199.64C288.556 200.08 288.936 200.42 289.403 200.66C289.87 200.9 290.363 201.02 290.883 201.02ZM304.327 203.38C303.367 203.38 302.521 203.227 301.787 202.92C301.054 202.613 300.434 202.2 299.927 201.68C299.421 201.147 299.034 200.547 298.767 199.88C298.514 199.213 298.387 198.52 298.387 197.8V197.38C298.387 196.633 298.521 195.927 298.787 195.26C299.067 194.58 299.461 193.98 299.967 193.46C300.487 192.927 301.114 192.513 301.847 192.22C302.581 191.913 303.407 191.76 304.327 191.76C305.247 191.76 306.074 191.913 306.807 192.22C307.541 192.513 308.161 192.927 308.667 193.46C309.187 193.98 309.581 194.58 309.847 195.26C310.114 195.927 310.247 196.633 310.247 197.38V197.8C310.247 198.52 310.114 199.213 309.847 199.88C309.594 200.547 309.214 201.147 308.707 201.68C308.201 202.2 307.581 202.613 306.847 202.92C306.114 203.227 305.274 203.38 304.327 203.38ZM304.327 201C305.007 201 305.581 200.853 306.047 200.56C306.514 200.253 306.867 199.847 307.107 199.34C307.347 198.82 307.467 198.233 307.467 197.58C307.467 196.913 307.341 196.327 307.087 195.82C306.847 195.3 306.487 194.893 306.007 194.6C305.541 194.293 304.981 194.14 304.327 194.14C303.674 194.14 303.107 194.293 302.627 194.6C302.161 194.893 301.801 195.3 301.547 195.82C301.294 196.327 301.167 196.913 301.167 197.58C301.167 198.233 301.287 198.82 301.527 199.34C301.781 199.847 302.141 200.253 302.607 200.56C303.074 200.853 303.647 201 304.327 201ZM312.682 203V192.14H314.882V196.74H314.822C314.822 195.18 315.155 194 315.822 193.2C316.488 192.4 317.468 192 318.762 192H319.162V194.42H318.402C317.468 194.42 316.742 194.673 316.222 195.18C315.715 195.673 315.462 196.393 315.462 197.34V203H312.682ZM327.543 203V199.78H327.083V196.2C327.083 195.573 326.929 195.107 326.623 194.8C326.316 194.493 325.843 194.34 325.203 194.34C324.869 194.34 324.469 194.347 324.003 194.36C323.536 194.373 323.063 194.393 322.583 194.42C322.116 194.433 321.696 194.453 321.323 194.48V192.12C321.629 192.093 321.976 192.067 322.363 192.04C322.749 192.013 323.143 192 323.543 192C323.956 191.987 324.343 191.98 324.703 191.98C325.823 191.98 326.749 192.127 327.483 192.42C328.229 192.713 328.789 193.173 329.163 193.8C329.549 194.427 329.743 195.247 329.743 196.26V203H327.543ZM324.043 203.28C323.256 203.28 322.563 203.14 321.963 202.86C321.376 202.58 320.916 202.18 320.583 201.66C320.263 201.14 320.103 200.513 320.103 199.78C320.103 198.98 320.296 198.327 320.683 197.82C321.083 197.313 321.636 196.933 322.343 196.68C323.063 196.427 323.903 196.3 324.863 196.3H327.383V197.96H324.823C324.183 197.96 323.689 198.12 323.343 198.44C323.009 198.747 322.843 199.147 322.843 199.64C322.843 200.133 323.009 200.533 323.343 200.84C323.689 201.147 324.183 201.3 324.823 201.3C325.209 201.3 325.563 201.233 325.883 201.1C326.216 200.953 326.489 200.713 326.703 200.38C326.929 200.033 327.056 199.567 327.083 198.98L327.763 199.76C327.696 200.52 327.509 201.16 327.203 201.68C326.909 202.2 326.496 202.6 325.963 202.88C325.443 203.147 324.803 203.28 324.043 203.28ZM337.441 203.14C336.441 203.14 335.614 203.013 334.961 202.76C334.321 202.493 333.841 202.053 333.521 201.44C333.201 200.813 333.041 199.973 333.041 198.92L333.061 189.08H335.661L335.641 199.1C335.641 199.633 335.781 200.047 336.061 200.34C336.354 200.62 336.767 200.76 337.301 200.76H339.001V203.14H337.441ZM331.321 194.18V192.14H339.001V194.18H331.321ZM346.495 203.38C345.535 203.38 344.689 203.227 343.955 202.92C343.222 202.613 342.602 202.2 342.095 201.68C341.589 201.147 341.202 200.547 340.935 199.88C340.682 199.213 340.555 198.52 340.555 197.8V197.38C340.555 196.633 340.689 195.927 340.955 195.26C341.235 194.58 341.629 193.98 342.135 193.46C342.655 192.927 343.282 192.513 344.015 192.22C344.749 191.913 345.575 191.76 346.495 191.76C347.415 191.76 348.242 191.913 348.975 192.22C349.709 192.513 350.329 192.927 350.835 193.46C351.355 193.98 351.749 194.58 352.015 195.26C352.282 195.927 352.415 196.633 352.415 197.38V197.8C352.415 198.52 352.282 199.213 352.015 199.88C351.762 200.547 351.382 201.147 350.875 201.68C350.369 202.2 349.749 202.613 349.015 202.92C348.282 203.227 347.442 203.38 346.495 203.38ZM346.495 201C347.175 201 347.749 200.853 348.215 200.56C348.682 200.253 349.035 199.847 349.275 199.34C349.515 198.82 349.635 198.233 349.635 197.58C349.635 196.913 349.509 196.327 349.255 195.82C349.015 195.3 348.655 194.893 348.175 194.6C347.709 194.293 347.149 194.14 346.495 194.14C345.842 194.14 345.275 194.293 344.795 194.6C344.329 194.893 343.969 195.3 343.715 195.82C343.462 196.327 343.335 196.913 343.335 197.58C343.335 198.233 343.455 198.82 343.695 199.34C343.949 199.847 344.309 200.253 344.775 200.56C345.242 200.853 345.815 201 346.495 201ZM355.37 203V192.14H358.15V203H355.37ZM353.85 194.22V192.14H358.15V194.22H353.85ZM356.39 190.84C355.843 190.84 355.436 190.7 355.17 190.42C354.916 190.127 354.79 189.767 354.79 189.34C354.79 188.887 354.916 188.52 355.17 188.24C355.436 187.96 355.843 187.82 356.39 187.82C356.936 187.82 357.336 187.96 357.59 188.24C357.843 188.52 357.97 188.887 357.97 189.34C357.97 189.767 357.843 190.127 357.59 190.42C357.336 190.7 356.936 190.84 356.39 190.84ZM361.353 203V192.14H363.553V196.74H363.493C363.493 195.18 363.827 194 364.493 193.2C365.16 192.4 366.14 192 367.433 192H367.833V194.42H367.073C366.14 194.42 365.413 194.673 364.893 195.18C364.387 195.673 364.133 196.393 364.133 197.34V203H361.353ZM374.475 203.38C373.542 203.38 372.722 203.22 372.015 202.9C371.322 202.58 370.742 202.153 370.275 201.62C369.822 201.073 369.475 200.467 369.235 199.8C369.008 199.133 368.895 198.453 368.895 197.76V197.38C368.895 196.66 369.008 195.967 369.235 195.3C369.475 194.62 369.822 194.02 370.275 193.5C370.742 192.967 371.315 192.547 371.995 192.24C372.675 191.92 373.462 191.76 374.355 191.76C375.528 191.76 376.508 192.02 377.295 192.54C378.095 193.047 378.695 193.72 379.095 194.56C379.495 195.387 379.695 196.28 379.695 197.24V198.24H370.075V196.54H377.955L377.095 197.38C377.095 196.687 376.995 196.093 376.795 195.6C376.595 195.107 376.288 194.727 375.875 194.46C375.475 194.193 374.968 194.06 374.355 194.06C373.742 194.06 373.222 194.2 372.795 194.48C372.368 194.76 372.042 195.167 371.815 195.7C371.602 196.22 371.495 196.847 371.495 197.58C371.495 198.26 371.602 198.867 371.815 199.4C372.028 199.92 372.355 200.333 372.795 200.64C373.235 200.933 373.795 201.08 374.475 201.08C375.155 201.08 375.708 200.947 376.135 200.68C376.562 200.4 376.835 200.06 376.955 199.66H379.515C379.355 200.407 379.048 201.06 378.595 201.62C378.142 202.18 377.562 202.613 376.855 202.92C376.162 203.227 375.368 203.38 374.475 203.38ZM385.958 203.34C384.464 203.34 383.291 203.027 382.438 202.4C381.598 201.76 381.158 200.88 381.118 199.76H383.618C383.658 200.133 383.864 200.473 384.238 200.78C384.611 201.087 385.198 201.24 385.998 201.24C386.664 201.24 387.191 201.12 387.578 200.88C387.978 200.64 388.178 200.313 388.178 199.9C388.178 199.54 388.024 199.253 387.718 199.04C387.424 198.827 386.918 198.687 386.198 198.62L385.238 198.52C384.024 198.387 383.091 198.04 382.438 197.48C381.784 196.92 381.458 196.173 381.458 195.24C381.458 194.493 381.644 193.867 382.018 193.36C382.391 192.853 382.904 192.473 383.558 192.22C384.224 191.953 384.984 191.82 385.838 191.82C387.171 191.82 388.251 192.113 389.078 192.7C389.904 193.287 390.338 194.147 390.378 195.28H387.878C387.851 194.907 387.664 194.587 387.318 194.32C386.971 194.053 386.471 193.92 385.818 193.92C385.231 193.92 384.778 194.033 384.458 194.26C384.138 194.487 383.978 194.78 383.978 195.14C383.978 195.487 384.104 195.753 384.358 195.94C384.624 196.127 385.051 196.253 385.638 196.32L386.598 196.42C387.878 196.553 388.878 196.907 389.598 197.48C390.331 198.053 390.698 198.827 390.698 199.8C390.698 200.52 390.498 201.147 390.098 201.68C389.711 202.2 389.164 202.607 388.458 202.9C387.751 203.193 386.918 203.34 385.958 203.34Z" fill="#424242"/>
<circle cx="53" cy="237" r="10.5" stroke="#DADADA" stroke-width="3"/>
<circle cx="53" cy="237" r="7" fill="#0C76F8"/>
<path d="M78.8 244V229.3H81.64V244H78.8ZM87.72 244L83.24 237.64H86.42L91.04 244H87.72ZM80.8 239.12V236.82H84.52C85.04 236.82 85.4867 236.713 85.86 236.5C86.2467 236.287 86.5467 235.987 86.76 235.6C86.9733 235.213 87.08 234.773 87.08 234.28C87.08 233.773 86.9733 233.327 86.76 232.94C86.5467 232.553 86.2467 232.253 85.86 232.04C85.4867 231.827 85.04 231.72 84.52 231.72H80.8V229.3H84.22C85.3933 229.3 86.4067 229.473 87.26 229.82C88.1267 230.167 88.7933 230.693 89.26 231.4C89.7267 232.107 89.96 232.993 89.96 234.06V234.38C89.96 235.46 89.72 236.347 89.24 237.04C88.7733 237.733 88.1133 238.253 87.26 238.6C86.4067 238.947 85.3933 239.12 84.22 239.12H80.8ZM97.6392 244.38C96.7059 244.38 95.8859 244.22 95.1792 243.9C94.4859 243.58 93.9059 243.153 93.4392 242.62C92.9859 242.073 92.6392 241.467 92.3992 240.8C92.1726 240.133 92.0592 239.453 92.0592 238.76V238.38C92.0592 237.66 92.1726 236.967 92.3992 236.3C92.6392 235.62 92.9859 235.02 93.4392 234.5C93.9059 233.967 94.4792 233.547 95.1592 233.24C95.8392 232.92 96.6259 232.76 97.5192 232.76C98.6926 232.76 99.6726 233.02 100.459 233.54C101.259 234.047 101.859 234.72 102.259 235.56C102.659 236.387 102.859 237.28 102.859 238.24V239.24H93.2392V237.54H101.119L100.259 238.38C100.259 237.687 100.159 237.093 99.9592 236.6C99.7592 236.107 99.4526 235.727 99.0392 235.46C98.6392 235.193 98.1326 235.06 97.5192 235.06C96.9059 235.06 96.3859 235.2 95.9592 235.48C95.5326 235.76 95.2059 236.167 94.9792 236.7C94.7659 237.22 94.6592 237.847 94.6592 238.58C94.6592 239.26 94.7659 239.867 94.9792 240.4C95.1926 240.92 95.5192 241.333 95.9592 241.64C96.3992 241.933 96.9592 242.08 97.6392 242.08C98.3192 242.08 98.8726 241.947 99.2992 241.68C99.7259 241.4 99.9992 241.06 100.119 240.66H102.679C102.519 241.407 102.213 242.06 101.759 242.62C101.306 243.18 100.726 243.613 100.019 243.92C99.3259 244.227 98.5326 244.38 97.6392 244.38ZM109.902 244.14C108.902 244.14 108.075 244.013 107.422 243.76C106.782 243.493 106.302 243.053 105.982 242.44C105.662 241.813 105.502 240.973 105.502 239.92L105.522 230.08H108.122L108.102 240.1C108.102 240.633 108.242 241.047 108.522 241.34C108.815 241.62 109.228 241.76 109.762 241.76H111.462V244.14H109.902ZM103.782 235.18V233.14H111.462V235.18H103.782ZM118.956 244.38C117.996 244.38 117.15 244.227 116.416 243.92C115.683 243.613 115.063 243.2 114.556 242.68C114.05 242.147 113.663 241.547 113.396 240.88C113.143 240.213 113.016 239.52 113.016 238.8V238.38C113.016 237.633 113.15 236.927 113.416 236.26C113.696 235.58 114.09 234.98 114.596 234.46C115.116 233.927 115.743 233.513 116.476 233.22C117.21 232.913 118.036 232.76 118.956 232.76C119.876 232.76 120.703 232.913 121.436 233.22C122.17 233.513 122.79 233.927 123.296 234.46C123.816 234.98 124.21 235.58 124.476 236.26C124.743 236.927 124.876 237.633 124.876 238.38V238.8C124.876 239.52 124.743 240.213 124.476 240.88C124.223 241.547 123.843 242.147 123.336 242.68C122.83 243.2 122.21 243.613 121.476 243.92C120.743 244.227 119.903 244.38 118.956 244.38ZM118.956 242C119.636 242 120.21 241.853 120.676 241.56C121.143 241.253 121.496 240.847 121.736 240.34C121.976 239.82 122.096 239.233 122.096 238.58C122.096 237.913 121.97 237.327 121.716 236.82C121.476 236.3 121.116 235.893 120.636 235.6C120.17 235.293 119.61 235.14 118.956 235.14C118.303 235.14 117.736 235.293 117.256 235.6C116.79 235.893 116.43 236.3 116.176 236.82C115.923 237.327 115.796 237.913 115.796 238.58C115.796 239.233 115.916 239.82 116.156 240.34C116.41 240.847 116.77 241.253 117.236 241.56C117.703 241.853 118.276 242 118.956 242ZM131.01 244.34C129.757 244.34 128.784 243.927 128.09 243.1C127.41 242.273 127.07 241.047 127.07 239.42V233.12H129.85V239.66C129.85 240.327 130.037 240.86 130.41 241.26C130.784 241.647 131.29 241.84 131.93 241.84C132.57 241.84 133.09 241.633 133.49 241.22C133.904 240.807 134.11 240.247 134.11 239.54V233.12H136.89V244H134.69V239.38H134.91C134.91 240.473 134.77 241.387 134.49 242.12C134.21 242.853 133.79 243.407 133.23 243.78C132.67 244.153 131.97 244.34 131.13 244.34H131.01ZM140.084 244V233.14H142.284V237.74H142.224C142.224 236.18 142.557 235 143.224 234.2C143.891 233.4 144.871 233 146.164 233H146.564V235.42H145.804C144.871 235.42 144.144 235.673 143.624 236.18C143.117 236.673 142.864 237.393 142.864 238.34V244H140.084ZM152.364 244.34C150.87 244.34 149.697 244.027 148.844 243.4C148.004 242.76 147.564 241.88 147.524 240.76H150.024C150.064 241.133 150.27 241.473 150.644 241.78C151.017 242.087 151.604 242.24 152.404 242.24C153.07 242.24 153.597 242.12 153.984 241.88C154.384 241.64 154.584 241.313 154.584 240.9C154.584 240.54 154.43 240.253 154.124 240.04C153.83 239.827 153.324 239.687 152.604 239.62L151.644 239.52C150.43 239.387 149.497 239.04 148.844 238.48C148.19 237.92 147.864 237.173 147.864 236.24C147.864 235.493 148.05 234.867 148.424 234.36C148.797 233.853 149.31 233.473 149.964 233.22C150.63 232.953 151.39 232.82 152.244 232.82C153.577 232.82 154.657 233.113 155.484 233.7C156.31 234.287 156.744 235.147 156.784 236.28H154.284C154.257 235.907 154.07 235.587 153.724 235.32C153.377 235.053 152.877 234.92 152.224 234.92C151.637 234.92 151.184 235.033 150.864 235.26C150.544 235.487 150.384 235.78 150.384 236.14C150.384 236.487 150.51 236.753 150.764 236.94C151.03 237.127 151.457 237.253 152.044 237.32L153.004 237.42C154.284 237.553 155.284 237.907 156.004 238.48C156.737 239.053 157.104 239.827 157.104 240.8C157.104 241.52 156.904 242.147 156.504 242.68C156.117 243.2 155.57 243.607 154.864 243.9C154.157 244.193 153.324 244.34 152.364 244.34ZM167.417 244.34C166.163 244.34 165.19 243.927 164.497 243.1C163.817 242.273 163.477 241.047 163.477 239.42V233.12H166.257V239.66C166.257 240.327 166.443 240.86 166.817 241.26C167.19 241.647 167.697 241.84 168.337 241.84C168.977 241.84 169.497 241.633 169.897 241.22C170.31 240.807 170.517 240.247 170.517 239.54V233.12H173.297V244H171.097V239.38H171.317C171.317 240.473 171.177 241.387 170.897 242.12C170.617 242.853 170.197 243.407 169.637 243.78C169.077 244.153 168.377 244.34 167.537 244.34H167.417ZM181.21 244.14C180.21 244.14 179.383 244.013 178.73 243.76C178.09 243.493 177.61 243.053 177.29 242.44C176.97 241.813 176.81 240.973 176.81 239.92L176.83 230.08H179.43L179.41 240.1C179.41 240.633 179.55 241.047 179.83 241.34C180.123 241.62 180.537 241.76 181.07 241.76H182.77V244.14H181.21ZM175.09 235.18V233.14H182.77V235.18H175.09ZM185.623 244V233.14H188.403V244H185.623ZM184.103 235.22V233.14H188.403V235.22H184.103ZM186.643 231.84C186.097 231.84 185.69 231.7 185.423 231.42C185.17 231.127 185.043 230.767 185.043 230.34C185.043 229.887 185.17 229.52 185.423 229.24C185.69 228.96 186.097 228.82 186.643 228.82C187.19 228.82 187.59 228.96 187.843 229.24C188.097 229.52 188.223 229.887 188.223 230.34C188.223 230.767 188.097 231.127 187.843 231.42C187.59 231.7 187.19 231.84 186.643 231.84ZM191.747 244V229.4H194.527V244H191.747ZM190.387 231.48V229.4H194.527V231.48H190.387ZM198.221 244V233.14H201.001V244H198.221ZM196.701 235.22V233.14H201.001V235.22H196.701ZM199.241 231.84C198.694 231.84 198.288 231.7 198.021 231.42C197.768 231.127 197.641 230.767 197.641 230.34C197.641 229.887 197.768 229.52 198.021 229.24C198.288 228.96 198.694 228.82 199.241 228.82C199.788 228.82 200.188 228.96 200.441 229.24C200.694 229.52 200.821 229.887 200.821 230.34C200.821 230.767 200.694 231.127 200.441 231.42C200.188 231.7 199.788 231.84 199.241 231.84ZM208.145 244.34C206.652 244.34 205.478 244.027 204.625 243.4C203.785 242.76 203.345 241.88 203.305 240.76H205.805C205.845 241.133 206.052 241.473 206.425 241.78C206.798 242.087 207.385 242.24 208.185 242.24C208.852 242.24 209.378 242.12 209.765 241.88C210.165 241.64 210.365 241.313 210.365 240.9C210.365 240.54 210.212 240.253 209.905 240.04C209.612 239.827 209.105 239.687 208.385 239.62L207.425 239.52C206.212 239.387 205.278 239.04 204.625 238.48C203.972 237.92 203.645 237.173 203.645 236.24C203.645 235.493 203.832 234.867 204.205 234.36C204.578 233.853 205.092 233.473 205.745 233.22C206.412 232.953 207.172 232.82 208.025 232.82C209.358 232.82 210.438 233.113 211.265 233.7C212.092 234.287 212.525 235.147 212.565 236.28H210.065C210.038 235.907 209.852 235.587 209.505 235.32C209.158 235.053 208.658 234.92 208.005 234.92C207.418 234.92 206.965 235.033 206.645 235.26C206.325 235.487 206.165 235.78 206.165 236.14C206.165 236.487 206.292 236.753 206.545 236.94C206.812 237.127 207.238 237.253 207.825 237.32L208.785 237.42C210.065 237.553 211.065 237.907 211.785 238.48C212.518 239.053 212.885 239.827 212.885 240.8C212.885 241.52 212.685 242.147 212.285 242.68C211.898 243.2 211.352 243.607 210.645 243.9C209.938 244.193 209.105 244.34 208.145 244.34ZM221.762 244V240.78H221.302V237.2C221.302 236.573 221.148 236.107 220.842 235.8C220.535 235.493 220.062 235.34 219.422 235.34C219.088 235.34 218.688 235.347 218.222 235.36C217.755 235.373 217.282 235.393 216.802 235.42C216.335 235.433 215.915 235.453 215.542 235.48V233.12C215.848 233.093 216.195 233.067 216.582 233.04C216.968 233.013 217.362 233 217.762 233C218.175 232.987 218.562 232.98 218.922 232.98C220.042 232.98 220.968 233.127 221.702 233.42C222.448 233.713 223.008 234.173 223.382 234.8C223.768 235.427 223.962 236.247 223.962 237.26V244H221.762ZM218.262 244.28C217.475 244.28 216.782 244.14 216.182 243.86C215.595 243.58 215.135 243.18 214.802 242.66C214.482 242.14 214.322 241.513 214.322 240.78C214.322 239.98 214.515 239.327 214.902 238.82C215.302 238.313 215.855 237.933 216.562 237.68C217.282 237.427 218.122 237.3 219.082 237.3H221.602V238.96H219.042C218.402 238.96 217.908 239.12 217.562 239.44C217.228 239.747 217.062 240.147 217.062 240.64C217.062 241.133 217.228 241.533 217.562 241.84C217.908 242.147 218.402 242.3 219.042 242.3C219.428 242.3 219.782 242.233 220.102 242.1C220.435 241.953 220.708 241.713 220.922 241.38C221.148 241.033 221.275 240.567 221.302 239.98L221.982 240.76C221.915 241.52 221.728 242.16 221.422 242.68C221.128 243.2 220.715 243.6 220.182 243.88C219.662 244.147 219.022 244.28 218.262 244.28ZM231.659 244.14C230.659 244.14 229.833 244.013 229.179 243.76C228.539 243.493 228.059 243.053 227.739 242.44C227.419 241.813 227.259 240.973 227.259 239.92L227.279 230.08H229.879L229.859 240.1C229.859 240.633 229.999 241.047 230.279 241.34C230.573 241.62 230.986 241.76 231.519 241.76H233.219V244.14H231.659ZM225.539 235.18V233.14H233.219V235.18H225.539ZM240.354 244.38C239.421 244.38 238.601 244.22 237.894 243.9C237.201 243.58 236.621 243.153 236.154 242.62C235.701 242.073 235.354 241.467 235.114 240.8C234.887 240.133 234.774 239.453 234.774 238.76V238.38C234.774 237.66 234.887 236.967 235.114 236.3C235.354 235.62 235.701 235.02 236.154 234.5C236.621 233.967 237.194 233.547 237.874 233.24C238.554 232.92 239.341 232.76 240.234 232.76C241.407 232.76 242.387 233.02 243.174 233.54C243.974 234.047 244.574 234.72 244.974 235.56C245.374 236.387 245.574 237.28 245.574 238.24V239.24H235.954V237.54H243.834L242.974 238.38C242.974 237.687 242.874 237.093 242.674 236.6C242.474 236.107 242.167 235.727 241.754 235.46C241.354 235.193 240.847 235.06 240.234 235.06C239.621 235.06 239.101 235.2 238.674 235.48C238.247 235.76 237.921 236.167 237.694 236.7C237.481 237.22 237.374 237.847 237.374 238.58C237.374 239.26 237.481 239.867 237.694 240.4C237.907 240.92 238.234 241.333 238.674 241.64C239.114 241.933 239.674 242.08 240.354 242.08C241.034 242.08 241.587 241.947 242.014 241.68C242.441 241.4 242.714 241.06 242.834 240.66H245.394C245.234 241.407 244.927 242.06 244.474 242.62C244.021 243.18 243.441 243.613 242.734 243.92C242.041 244.227 241.247 244.38 240.354 244.38ZM251.596 244.34C250.343 244.34 249.37 243.927 248.676 243.1C247.996 242.273 247.656 241.047 247.656 239.42V233.12H250.436V239.66C250.436 240.327 250.623 240.86 250.996 241.26C251.37 241.647 251.876 241.84 252.516 241.84C253.156 241.84 253.676 241.633 254.076 241.22C254.49 240.807 254.696 240.247 254.696 239.54V233.12H257.476V244H255.276V239.38H255.496C255.496 240.473 255.356 241.387 255.076 242.12C254.796 242.853 254.376 243.407 253.816 243.78C253.256 244.153 252.556 244.34 251.716 244.34H251.596ZM260.67 244V233.14H262.87V237.74H262.81C262.81 236.18 263.143 235 263.81 234.2C264.477 233.4 265.457 233 266.75 233H267.15V235.42H266.39C265.457 235.42 264.73 235.673 264.21 236.18C263.703 236.673 263.45 237.393 263.45 238.34V244H260.67ZM272.95 244.34C271.456 244.34 270.283 244.027 269.43 243.4C268.59 242.76 268.15 241.88 268.11 240.76H270.61C270.65 241.133 270.856 241.473 271.23 241.78C271.603 242.087 272.19 242.24 272.99 242.24C273.656 242.24 274.183 242.12 274.57 241.88C274.97 241.64 275.17 241.313 275.17 240.9C275.17 240.54 275.016 240.253 274.71 240.04C274.416 239.827 273.91 239.687 273.19 239.62L272.23 239.52C271.016 239.387 270.083 239.04 269.43 238.48C268.776 237.92 268.45 237.173 268.45 236.24C268.45 235.493 268.636 234.867 269.01 234.36C269.383 233.853 269.896 233.473 270.55 233.22C271.216 232.953 271.976 232.82 272.83 232.82C274.163 232.82 275.243 233.113 276.07 233.7C276.896 234.287 277.33 235.147 277.37 236.28H274.87C274.843 235.907 274.656 235.587 274.31 235.32C273.963 235.053 273.463 234.92 272.81 234.92C272.223 234.92 271.77 235.033 271.45 235.26C271.13 235.487 270.97 235.78 270.97 236.14C270.97 236.487 271.096 236.753 271.35 236.94C271.616 237.127 272.043 237.253 272.63 237.32L273.59 237.42C274.87 237.553 275.87 237.907 276.59 238.48C277.323 239.053 277.69 239.827 277.69 240.8C277.69 241.52 277.49 242.147 277.09 242.68C276.703 243.2 276.156 243.607 275.45 243.9C274.743 244.193 273.91 244.34 272.95 244.34Z" fill="#424242"/>
<defs>
<clipPath id="clip0_213_837">
<rect width="24" height="24" fill="white" transform="translate(387 34.5)"/>
</clipPath>
</defs>
</svg>
