<svg width="387" height="140" viewBox="0 0 387 140" fill="none" xmlns="http://www.w3.org/2000/svg">
<rect x="41" y="20.5" width="119" height="119" rx="16.5" fill="#0077A8" stroke="url(#paint0_linear_220_840)"/>
<rect x="227" y="20.5" width="119" height="119" rx="16.5" fill="#E2F6F9" stroke="url(#paint1_linear_220_840)"/>
<rect x="274" width="113" height="35" rx="7" fill="#E2F6F9" fill-opacity="0.14"/>
<path d="M284.443 24L286.703 9.4L288.963 9.4L286.703 24L284.443 24ZM289.383 24L291.643 9.4L293.903 9.4L291.643 24L289.383 24ZM282.723 20.14L282.723 18.26L294.843 18.26L294.843 20.14L282.723 20.14ZM283.483 15.14L283.483 13.26L295.603 13.26L295.603 15.14L283.483 15.14ZM303.861 24.38C302.715 24.38 301.741 24.1933 300.941 23.82C300.141 23.4333 299.488 22.9133 298.981 22.26C298.475 21.5933 298.101 20.8333 297.861 19.98C297.635 19.1133 297.521 18.2067 297.521 17.26L297.521 16.14C297.521 14.7933 297.748 13.58 298.201 12.5C298.655 11.42 299.348 10.5667 300.281 9.94C301.215 9.3 302.408 8.98 303.861 8.98C305.301 8.98 306.488 9.3 307.421 9.94C308.355 10.5667 309.041 11.42 309.481 12.5C309.935 13.58 310.161 14.7933 310.161 16.14L310.161 17.26C310.161 18.2067 310.041 19.1133 309.801 19.98C309.575 20.8333 309.208 21.5933 308.701 22.26C308.208 22.9133 307.561 23.4333 306.761 23.82C305.961 24.1933 304.995 24.38 303.861 24.38ZM303.861 21.78C305.048 21.78 305.921 21.3733 306.481 20.56C307.041 19.7333 307.321 18.4533 307.321 16.72C307.321 14.88 307.035 13.5667 306.461 12.78C305.888 11.98 305.021 11.58 303.861 11.58C302.688 11.58 301.808 11.98 301.221 12.78C300.648 13.5667 300.361 14.8667 300.361 16.68C300.361 18.4267 300.648 19.7133 301.221 20.54C301.795 21.3667 302.675 21.78 303.861 21.78ZM318.978 24.38C317.832 24.38 316.858 24.1933 316.058 23.82C315.258 23.4333 314.605 22.9133 314.098 22.26C313.592 21.5933 313.218 20.8333 312.978 19.98C312.752 19.1133 312.638 18.2067 312.638 17.26L312.638 16.14C312.638 14.7933 312.865 13.58 313.318 12.5C313.772 11.42 314.465 10.5667 315.398 9.94C316.332 9.3 317.525 8.98 318.978 8.98C320.418 8.98 321.605 9.3 322.538 9.94C323.472 10.5667 324.158 11.42 324.598 12.5C325.052 13.58 325.278 14.7933 325.278 16.14L325.278 17.26C325.278 18.2067 325.158 19.1133 324.918 19.98C324.692 20.8333 324.325 21.5933 323.818 22.26C323.325 22.9133 322.678 23.4333 321.878 23.82C321.078 24.1933 320.112 24.38 318.978 24.38ZM318.978 21.78C320.165 21.78 321.038 21.3733 321.598 20.56C322.158 19.7333 322.438 18.4533 322.438 16.72C322.438 14.88 322.152 13.5667 321.578 12.78C321.005 11.98 320.138 11.58 318.978 11.58C317.805 11.58 316.925 11.98 316.338 12.78C315.765 13.5667 315.478 14.8667 315.478 16.68C315.478 18.4267 315.765 19.7133 316.338 20.54C316.912 21.3667 317.792 21.78 318.978 21.78ZM329.396 24L334.856 12L334.676 11.74L327.276 11.74L327.276 9.4L337.916 9.4L337.916 11.56L332.376 24L329.396 24ZM327.276 14.08L327.276 9.4L329.576 9.4L329.576 14.08L327.276 14.08ZM341.31 24L346.77 12L346.59 11.74L339.19 11.74L339.19 9.4L349.83 9.4L349.83 11.56L344.29 24L341.31 24ZM339.19 14.08L339.19 9.4L341.49 9.4L341.49 14.08L339.19 14.08ZM350.704 24L355.684 9.4L360.324 9.4L365.444 24L362.524 24L358.184 11.34L359.204 11.78L356.704 11.78L357.744 11.34L353.544 24L350.704 24ZM354.184 20.12L355.084 17.72L361.004 17.72L361.884 20.12L354.184 20.12ZM372.373 24.4C371.253 24.4 370.266 24.22 369.413 23.86C368.559 23.5 367.893 22.9867 367.413 22.32C366.933 21.6533 366.693 20.86 366.693 19.94C366.693 19.3267 366.799 18.7867 367.013 18.32C367.226 17.84 367.519 17.4333 367.893 17.1C368.266 16.7533 368.706 16.4933 369.213 16.32L369.213 16.08C368.826 15.9067 368.473 15.68 368.153 15.4C367.846 15.12 367.599 14.78 367.413 14.38C367.239 13.98 367.153 13.52 367.153 13C367.153 12.12 367.379 11.3867 367.833 10.8C368.299 10.2 368.926 9.75333 369.713 9.45999C370.513 9.15333 371.399 8.99999 372.373 8.99999C373.359 8.99999 374.246 9.15333 375.033 9.45999C375.833 9.75333 376.459 10.2 376.913 10.8C377.379 11.3867 377.613 12.12 377.613 13C377.613 13.52 377.519 13.98 377.333 14.38C377.159 14.78 376.919 15.12 376.613 15.4C376.306 15.68 375.953 15.9067 375.553 16.08L375.553 16.32C376.059 16.4933 376.499 16.7533 376.873 17.1C377.259 17.4467 377.553 17.86 377.753 18.34C377.966 18.8067 378.073 19.34 378.073 19.94C378.073 20.86 377.833 21.6533 377.353 22.32C376.886 22.9867 376.226 23.5 375.373 23.86C374.519 24.22 373.519 24.4 372.373 24.4ZM372.373 22.06C372.986 22.06 373.513 21.9667 373.953 21.78C374.393 21.5933 374.733 21.32 374.973 20.96C375.213 20.6 375.333 20.1667 375.333 19.66C375.333 19.1533 375.213 18.7267 374.973 18.38C374.746 18.02 374.406 17.7467 373.953 17.56C373.513 17.3733 372.986 17.28 372.373 17.28C371.773 17.28 371.253 17.3733 370.813 17.56C370.373 17.7467 370.033 18.02 369.793 18.38C369.553 18.7267 369.433 19.1533 369.433 19.66C369.433 20.1667 369.553 20.6 369.793 20.96C370.033 21.32 370.373 21.5933 370.813 21.78C371.253 21.9667 371.773 22.06 372.373 22.06ZM372.373 15.16C373.146 15.16 373.753 15 374.193 14.68C374.646 14.3467 374.873 13.8667 374.873 13.24C374.873 12.5867 374.646 12.1067 374.193 11.8C373.739 11.4933 373.133 11.34 372.373 11.34C371.613 11.34 371.006 11.5 370.553 11.82C370.113 12.1267 369.893 12.6 369.893 13.24C369.893 13.8667 370.119 14.3467 370.573 14.68C371.026 15 371.626 15.16 372.373 15.16Z" fill="url(#paint2_linear_220_840)"/>
<rect x="88" width="113" height="35" rx="7" fill="#E2F6F9" fill-opacity="0.14"/>
<path d="M98.443 24L100.703 9.4L102.963 9.4L100.703 24L98.443 24ZM103.383 24L105.643 9.4L107.903 9.4L105.643 24L103.383 24ZM96.723 20.14L96.723 18.26L108.843 18.26L108.843 20.14L96.723 20.14ZM97.483 15.14L97.483 13.26L109.603 13.26L109.603 15.14L97.483 15.14ZM117.861 24.38C116.715 24.38 115.741 24.1933 114.941 23.82C114.141 23.4333 113.488 22.9133 112.981 22.26C112.475 21.5933 112.101 20.8333 111.861 19.98C111.635 19.1133 111.521 18.2067 111.521 17.26L111.521 16.14C111.521 14.7933 111.748 13.58 112.201 12.5C112.655 11.42 113.348 10.5667 114.281 9.94C115.215 9.3 116.408 8.98 117.861 8.98C119.301 8.98 120.488 9.3 121.421 9.94C122.355 10.5667 123.041 11.42 123.481 12.5C123.935 13.58 124.161 14.7933 124.161 16.14L124.161 17.26C124.161 18.2067 124.041 19.1133 123.801 19.98C123.575 20.8333 123.208 21.5933 122.701 22.26C122.208 22.9133 121.561 23.4333 120.761 23.82C119.961 24.1933 118.995 24.38 117.861 24.38ZM117.861 21.78C119.048 21.78 119.921 21.3733 120.481 20.56C121.041 19.7333 121.321 18.4533 121.321 16.72C121.321 14.88 121.035 13.5667 120.461 12.78C119.888 11.98 119.021 11.58 117.861 11.58C116.688 11.58 115.808 11.98 115.221 12.78C114.648 13.5667 114.361 14.8667 114.361 16.68C114.361 18.4267 114.648 19.7133 115.221 20.54C115.795 21.3667 116.675 21.78 117.861 21.78ZM132.978 24.38C131.832 24.38 130.858 24.1933 130.058 23.82C129.258 23.4333 128.605 22.9133 128.098 22.26C127.592 21.5933 127.218 20.8333 126.978 19.98C126.752 19.1133 126.638 18.2067 126.638 17.26L126.638 16.14C126.638 14.7933 126.865 13.58 127.318 12.5C127.772 11.42 128.465 10.5667 129.398 9.94C130.332 9.3 131.525 8.98 132.978 8.98C134.418 8.98 135.605 9.3 136.538 9.94C137.472 10.5667 138.158 11.42 138.598 12.5C139.052 13.58 139.278 14.7933 139.278 16.14L139.278 17.26C139.278 18.2067 139.158 19.1133 138.918 19.98C138.692 20.8333 138.325 21.5933 137.818 22.26C137.325 22.9133 136.678 23.4333 135.878 23.82C135.078 24.1933 134.112 24.38 132.978 24.38ZM132.978 21.78C134.165 21.78 135.038 21.3733 135.598 20.56C136.158 19.7333 136.438 18.4533 136.438 16.72C136.438 14.88 136.152 13.5667 135.578 12.78C135.005 11.98 134.138 11.58 132.978 11.58C131.805 11.58 130.925 11.98 130.338 12.78C129.765 13.5667 129.478 14.8667 129.478 16.68C129.478 18.4267 129.765 19.7133 130.338 20.54C130.912 21.3667 131.792 21.78 132.978 21.78ZM143.396 24L148.856 12L148.676 11.74L141.276 11.74L141.276 9.4L151.916 9.4L151.916 11.56L146.376 24L143.396 24ZM141.276 14.08L141.276 9.4L143.576 9.4L143.576 14.08L141.276 14.08ZM155.31 24L160.77 12L160.59 11.74L153.19 11.74L153.19 9.4L163.83 9.4L163.83 11.56L158.29 24L155.31 24ZM153.19 14.08L153.19 9.4L155.49 9.4L155.49 14.08L153.19 14.08ZM164.704 24L169.684 9.4L174.324 9.4L179.444 24L176.524 24L172.184 11.34L173.204 11.78L170.704 11.78L171.744 11.34L167.544 24L164.704 24ZM168.184 20.12L169.084 17.72L175.004 17.72L175.884 20.12L168.184 20.12ZM186.373 24.4C185.253 24.4 184.266 24.22 183.413 23.86C182.559 23.5 181.893 22.9867 181.413 22.32C180.933 21.6533 180.693 20.86 180.693 19.94C180.693 19.3267 180.799 18.7867 181.013 18.32C181.226 17.84 181.519 17.4333 181.893 17.1C182.266 16.7533 182.706 16.4933 183.213 16.32L183.213 16.08C182.826 15.9067 182.473 15.68 182.153 15.4C181.846 15.12 181.599 14.78 181.413 14.38C181.239 13.98 181.153 13.52 181.153 13C181.153 12.12 181.379 11.3867 181.833 10.8C182.299 10.2 182.926 9.75333 183.713 9.45999C184.513 9.15333 185.399 8.99999 186.373 8.99999C187.359 8.99999 188.246 9.15333 189.033 9.45999C189.833 9.75333 190.459 10.2 190.913 10.8C191.379 11.3867 191.613 12.12 191.613 13C191.613 13.52 191.519 13.98 191.333 14.38C191.159 14.78 190.919 15.12 190.613 15.4C190.306 15.68 189.953 15.9067 189.553 16.08L189.553 16.32C190.059 16.4933 190.499 16.7533 190.873 17.1C191.259 17.4467 191.553 17.86 191.753 18.34C191.966 18.8067 192.073 19.34 192.073 19.94C192.073 20.86 191.833 21.6533 191.353 22.32C190.886 22.9867 190.226 23.5 189.373 23.86C188.519 24.22 187.519 24.4 186.373 24.4ZM186.373 22.06C186.986 22.06 187.513 21.9667 187.953 21.78C188.393 21.5933 188.733 21.32 188.973 20.96C189.213 20.6 189.333 20.1667 189.333 19.66C189.333 19.1533 189.213 18.7267 188.973 18.38C188.746 18.02 188.406 17.7467 187.953 17.56C187.513 17.3733 186.986 17.28 186.373 17.28C185.773 17.28 185.253 17.3733 184.813 17.56C184.373 17.7467 184.033 18.02 183.793 18.38C183.553 18.7267 183.433 19.1533 183.433 19.66C183.433 20.1667 183.553 20.6 183.793 20.96C184.033 21.32 184.373 21.5933 184.813 21.78C185.253 21.9667 185.773 22.06 186.373 22.06ZM186.373 15.16C187.146 15.16 187.753 15 188.193 14.68C188.646 14.3467 188.873 13.8667 188.873 13.24C188.873 12.5867 188.646 12.1067 188.193 11.8C187.739 11.4933 187.133 11.34 186.373 11.34C185.613 11.34 185.006 11.5 184.553 11.82C184.113 12.1267 183.893 12.6 183.893 13.24C183.893 13.8667 184.119 14.3467 184.573 14.68C185.026 15 185.626 15.16 186.373 15.16Z" fill="url(#paint3_linear_220_840)"/>
<defs>
<linearGradient id="paint0_linear_220_840" x1="41" y1="20" x2="143.5" y2="140" gradientUnits="userSpaceOnUse">
<stop stop-color="#DADADA"/>
<stop offset="0.274038" stop-color="#DADADA" stop-opacity="0.3"/>
<stop offset="0.567308" stop-color="#DADADA" stop-opacity="0"/>
<stop offset="0.8125" stop-color="#DADADA"/>
</linearGradient>
<linearGradient id="paint1_linear_220_840" x1="227" y1="23.5" x2="322" y2="140" gradientUnits="userSpaceOnUse">
<stop stop-color="#CBCBCB"/>
<stop offset="0.274038" stop-color="#DADADA" stop-opacity="0.3"/>
<stop offset="0.528846" stop-color="#DADADA" stop-opacity="0"/>
<stop offset="0.769231" stop-color="#DADADA"/>
</linearGradient>
<linearGradient id="paint2_linear_220_840" x1="282" y1="17.5" x2="379" y2="17.5" gradientUnits="userSpaceOnUse">
<stop stop-color="#0077A8" stop-opacity="0.28"/>
<stop offset="1" stop-color="#005578"/>
</linearGradient>
<linearGradient id="paint3_linear_220_840" x1="96" y1="17.5" x2="193" y2="17.5" gradientUnits="userSpaceOnUse">
<stop offset="0.572115" stop-color="#045374"/>
<stop offset="0.725962" stop-color="#009CDC"/>
</linearGradient>
</defs>
</svg>
